<svg width="254" height="45" viewBox="0 0 254 45" fill="none" xmlns="http://www.w3.org/2000/svg">
<path d="M0.0980225 44.4755C0.0980225 44.4465 14.711 0.5875 14.77 0.4375L14.824 0.30249H29.551L30.13 2.0605C30.448 3.0275 33.754 12.9605 37.475 24.1355C41.196 35.3105 44.241 44.4615 44.241 44.4725C44.241 44.4835 41.682 44.4915 38.555 44.4915C32.438 44.4915 32.606 44.4975 31.815 44.2385C30.4179 43.7675 29.2582 42.7726 28.58 41.4635C28.417 41.1495 22.243 22.7305 22.243 22.5635C22.243 22.3965 22.151 22.5155 22.056 22.7785C22 22.9345 20.612 27.0925 18.971 32.0185C17.33 36.9445 15.92 41.1185 15.838 41.2945C15.2867 42.4763 14.3378 43.427 13.157 43.9805C12.7299 44.2087 12.2651 44.3581 11.785 44.4215C11.455 44.4815 10.479 44.4935 5.74402 44.4935C2.63902 44.4935 0.0980225 44.4855 0.0980225 44.4755Z" fill="#4285F5"/>
<path d="M32.604 44.4355C31.7302 44.2761 30.9063 43.9132 30.199 43.3759C29.4917 42.8387 28.921 42.1424 28.533 41.3435C28.343 40.9435 22.245 22.6285 22.245 22.4635C22.245 22.3635 29.345 0.963487 29.477 0.670487C29.501 0.616487 29.531 0.539475 29.543 0.498475C29.563 0.432475 29.569 0.432475 29.594 0.498475C29.609 0.539475 31.982 7.65847 34.865 16.3195C37.748 24.9805 41.035 34.8515 42.165 38.2535C43.295 41.6555 44.213 44.4535 44.199 44.4665C44.156 44.5155 32.856 44.4845 32.604 44.4355Z" fill="#0F9E59"/>
<path d="M29.298 42.5125C28.643 41.6955 28.498 41.3685 27.562 38.5385C27.127 37.2255 25.752 33.0915 24.507 29.3525C23.262 25.6135 22.243 22.5055 22.243 22.4525C22.243 22.3605 29.358 0.937541 29.475 0.675541C29.499 0.621541 29.53 0.543544 29.543 0.503544C29.556 0.463544 29.569 9.96855 29.571 21.6276C29.573 33.2866 29.571 42.8275 29.559 42.8275C29.4658 42.7279 29.3787 42.6227 29.298 42.5125Z" fill="#0A6E3D"/>
<path d="M112.791 28.7305C113.649 28.4714 114.393 27.9261 114.898 27.1853C115.403 26.4446 115.639 25.5531 115.567 24.6595C115.626 23.5648 115.254 22.4907 114.531 21.6665C114.071 21.1766 113.487 20.8211 112.84 20.6381C112.194 20.4552 111.51 20.4518 110.862 20.6281C110.213 20.8045 109.625 21.1541 109.161 21.6393C108.696 22.1246 108.372 22.7272 108.224 23.3825C108.049 23.7965 107.961 24.2417 107.963 24.6911C107.966 25.1405 108.06 25.5846 108.24 25.9965C108.386 26.5629 108.658 27.089 109.036 27.5352C109.415 27.9814 109.889 28.336 110.424 28.5725C110.697 28.6338 110.964 28.7167 111.224 28.8205C111.717 29.0335 111.766 29.0305 112.792 28.7305H112.791ZM109.617 38.2445C107.737 37.6089 106.172 36.2764 105.245 34.5215C104.995 34.0315 105.121 33.9305 106.767 33.2985C107.926 32.8535 108.297 32.8035 108.297 33.0985C108.297 33.5205 109.397 34.6555 110.156 35.0105C110.9 35.3552 111.736 35.4486 112.538 35.2767C113.34 35.1048 114.064 34.6769 114.602 34.0575C115.12 33.1636 115.381 32.1435 115.355 31.1105L115.317 30.6555L114.6 31.1555C113.378 31.9042 111.923 32.1742 110.514 31.9135C109.058 31.6959 107.718 30.9908 106.714 29.9135C105.623 28.8671 104.907 27.49 104.677 25.9955C104.361 24.2302 104.69 22.4099 105.605 20.8676C106.52 19.3252 107.96 18.1637 109.661 17.5955C111.431 17.0275 113.914 17.3955 114.961 18.3765L115.361 18.7555L115.419 18.2495L115.477 17.7435H118.669L118.72 24.8365C118.775 32.2885 118.693 33.3075 117.92 34.8915C117.503 35.7006 116.927 36.4176 116.227 37.0001C115.528 37.5826 114.718 38.0187 113.847 38.2825C112.459 38.6486 110.998 38.6358 109.617 38.2455V38.2445Z" fill="#4286F5"/>
<path d="M82.45 28.1664C83.1527 27.606 83.6751 26.8513 83.9522 25.9962C84.2292 25.1411 84.2486 24.2235 84.008 23.3574C83.7561 22.5831 83.284 21.8991 82.6494 21.389C82.0148 20.8789 81.2453 20.5649 80.435 20.4854C79.8933 20.472 79.3546 20.5698 78.8523 20.7728C78.3499 20.9758 77.8945 21.2796 77.5141 21.6656C77.1338 22.0515 76.8367 22.5114 76.6411 23.0167C76.4455 23.522 76.3556 24.062 76.377 24.6034C76.3388 25.4819 76.5826 26.3496 77.0727 27.0797C77.5628 27.8098 78.2735 28.364 79.101 28.6614C80.2409 28.9005 81.4287 28.7231 82.449 28.1614L82.45 28.1664ZM78.894 31.9034C77.5315 31.6708 76.263 31.0566 75.2355 30.1321C74.208 29.2077 73.4637 28.0108 73.089 26.6804C72.6651 25.0367 72.7762 23.3007 73.406 21.7244C73.9822 20.3901 74.9418 19.257 76.1629 18.4689C77.384 17.6807 78.8118 17.273 80.265 17.2974C86.046 17.3164 89.465 23.1874 86.75 28.4294C85.6745 30.1442 83.9719 31.3714 82.005 31.8494C80.9893 32.1285 79.9196 32.1467 78.895 31.9024L78.894 31.9034Z" fill="#EA4235"/>
<path d="M129.041 23.9745C129.696 23.6835 129.454 23.7625 129.57 23.7595C130.079 23.5903 130.575 23.3854 131.055 23.1465C131.51 22.9153 131.99 22.7368 132.486 22.6145C132.641 22.6145 131.729 23.0075 131.729 22.9295C132.371 22.5602 133.046 22.2496 133.744 22.0015C134.693 21.6785 134.712 21.6595 134.409 21.3255C133.895 20.8368 133.236 20.5304 132.531 20.4536C131.826 20.3768 131.116 20.5339 130.509 20.9005C129.566 21.4717 128.884 22.3891 128.609 23.4565C128.472 24.2605 128.407 24.2575 129.041 23.9745ZM130.905 31.9005C129.568 31.6147 128.338 30.9606 127.353 30.0121C126.368 29.0637 125.669 27.8588 125.333 26.5335C125.082 25.2431 125.087 23.9161 125.347 22.6275C126.435 19.2705 128.905 17.2955 132.017 17.2955C132.857 17.2796 133.692 17.4363 134.469 17.7559C135.246 18.0755 135.95 18.5512 136.536 19.1535C137.502 20.1305 138.216 21.327 138.618 22.6405C138.618 23.0475 138.406 23.1705 136.224 24.0275C134.469 24.7165 133.624 25.0635 132.234 25.6625C131.99 25.7675 131.634 25.9185 131.434 25.9975C131.234 26.0765 130.72 26.2975 130.281 26.4835C129.842 26.6695 129.371 26.8585 129.235 26.9005C128.809 27.0315 130.275 28.4005 131.079 28.6225C131.774 28.8544 132.519 28.8951 133.236 28.7403C133.952 28.5855 134.614 28.2408 135.152 27.7425C135.422 27.4581 135.739 27.2214 136.088 27.0425C137.018 27.466 137.871 28.0405 138.613 28.7425C138.619 29.1205 137.062 30.5425 136.033 31.0995C134.841 31.6819 133.554 32.0437 132.233 32.1675C132.087 32.1575 131.488 32.0355 130.903 31.8985L130.905 31.9005Z" fill="#EA4235"/>
<path d="M59.2659 31.8254C56.9359 31.39 54.8058 30.2219 53.1859 28.4914C51.9031 27.1975 50.9342 25.6266 50.3539 23.8994C49.907 21.7495 49.9128 19.53 50.3709 17.3824C50.9921 15.5322 52.054 13.8609 53.4652 12.5126C54.8763 11.1643 56.5943 10.1796 58.4709 9.64342C60.5563 9.28096 62.6909 9.30944 64.7659 9.72742C66.3594 10.2782 67.8326 11.1293 69.1059 12.2344C69.3179 12.4904 69.2059 12.6634 68.2139 13.6684C67.8337 14.0788 67.4239 14.4609 66.9879 14.8114C66.766 14.6913 66.5612 14.5419 66.3789 14.3674C65.4625 13.6968 64.421 13.2166 63.316 12.9552C62.2109 12.6938 61.0647 12.6565 59.9449 12.8454C58.7451 13.0742 57.615 13.5793 56.6442 14.3206C55.6734 15.0619 54.8886 16.0191 54.3519 17.1164C53.6154 18.1439 53.2819 19.4062 53.4149 20.6634C53.3061 21.8647 53.6013 23.068 54.2539 24.0824C54.6548 24.8398 55.1545 25.5406 55.7399 26.1664C56.7242 27.2071 57.9717 27.9619 59.3503 28.3508C60.7288 28.7397 62.1869 28.7482 63.5699 28.3754C64.8112 28.1405 65.951 27.532 66.8369 26.6314C67.6862 25.8301 68.2588 24.7795 68.4719 23.6314L68.5899 22.9704L64.9899 22.9224L61.3899 22.8744V19.5624L66.5319 19.5764L71.7829 19.5924C71.9455 19.8862 72.0476 20.2095 72.0829 20.5434C72.3545 23.0295 71.7455 25.5321 70.3619 27.6154C69.2159 29.3674 67.9899 30.3154 65.3799 31.4564C63.3859 31.9883 61.305 32.1121 59.2619 31.8204L59.2659 31.8254Z" fill="#4185F4"/>
<path d="M97.3519 28.6155C98.3859 28.214 99.224 27.4272 99.6898 26.4205C99.9501 25.8412 100.081 25.2124 100.075 24.5775C100.089 23.862 99.9164 23.1553 99.5749 22.5265C99.0676 21.746 98.3427 21.1313 97.4899 20.7585C96.8028 20.4848 96.0505 20.4189 95.3264 20.5692C94.6023 20.7194 93.9383 21.079 93.4169 21.6035C92.9074 22.111 92.5337 22.7386 92.3303 23.4284C92.1269 24.1182 92.1002 24.8481 92.2528 25.551C92.4054 26.2538 92.7323 26.9069 93.2034 27.4503C93.6745 27.9937 94.2748 28.4098 94.9489 28.6605C95.7256 28.9503 96.5835 28.9342 97.3488 28.6155H97.3519ZM94.2928 31.8305C93.2974 31.5854 92.3629 31.1386 91.5472 30.5176C90.7315 29.8967 90.052 29.1148 89.5509 28.2205C88.8188 26.8817 88.5185 25.3493 88.691 23.8332C88.8636 22.3171 89.5006 20.8915 90.5148 19.7515C91.1825 18.9926 91.9977 18.3775 92.9107 17.9437C93.8237 17.5099 94.8154 17.2665 95.8255 17.2283C96.8356 17.1902 97.8428 17.358 98.786 17.7216C99.7291 18.0852 100.588 18.6369 101.311 19.3433C102.035 20.0496 102.606 20.8957 102.992 21.8301C103.377 22.7645 103.569 23.7676 103.554 24.7783C103.54 25.789 103.319 26.7861 102.907 27.709C102.495 28.6319 101.899 29.4612 101.156 30.1465C99.9229 31.2637 98.3265 31.8958 96.6629 31.9255C95.8711 31.9678 95.0772 31.9343 94.2919 31.8255L94.2928 31.8305Z" fill="#FABC05"/>
<path d="M120.532 20.8405V10.0105L122.261 10.0615L123.99 10.1125V31.5685L122.261 31.6195L120.532 31.6705V20.8405Z" fill="#34A853"/>
<path d="M221.031 25.3024C221.004 21.9534 220.996 19.2024 221.012 19.1844C221.028 19.1664 221.566 19.1844 222.212 19.2144L223.38 19.2744V20.7854L224.09 20.1104C224.549 19.6845 225.097 19.3655 225.694 19.1762C226.292 18.9869 226.923 18.932 227.544 19.0154C227.906 19.0279 228.264 19.1002 228.602 19.2294C228.528 19.629 228.391 20.0142 228.195 20.3704L227.718 21.3994L226.569 21.4314C226.046 21.3804 225.521 21.4863 225.058 21.7357C224.596 21.9851 224.219 22.3666 223.975 22.8314L223.469 23.5614V31.2804L222.276 31.3374L221.083 31.3944L221.031 25.3024ZM197.031 31.2134C196.67 29.9964 194.397 23.0134 194.319 22.8794C194.247 22.7396 194.196 22.59 194.167 22.4354C194.141 22.2894 193.767 21.0944 193.345 19.7804L192.57 17.3914L191.045 22.0854C190.206 24.6674 189.182 27.7974 188.77 29.0404L188.02 31.3004H186.495C185.162 31.3004 184.967 31.2614 184.946 30.9864C184.933 30.8134 184.346 28.6394 183.646 26.1544C182.946 23.6694 182.259 21.1974 182.118 20.6614C181.433 18.0504 179.526 11.2744 179.31 10.6864L179.066 10.0214H180.647C181.179 9.97884 181.715 10.0238 182.233 10.1544C182.233 10.2274 182.388 10.8464 182.573 11.5284C183.941 16.5864 185.885 23.8434 186.206 25.0884C186.419 25.9144 186.637 26.5134 186.691 26.4184C186.745 26.3234 187.769 23.2944 188.967 19.6854C190.165 16.0764 191.173 13.0444 191.209 12.9464C191.654 12.7906 192.131 12.7497 192.596 12.8274L193.917 12.8854L196.177 19.6924C197.42 23.4364 198.465 26.4704 198.5 26.4354C198.563 26.3724 199.716 21.8944 201.688 14.0554L202.703 10.0214H204.253C205.787 10.0214 205.802 10.0214 205.653 10.4214C205.569 10.6404 204.968 12.8544 204.316 15.3424C203.664 17.8304 203.022 20.2224 202.89 20.6624C202.758 21.1024 202.069 23.6694 201.358 26.3694L200.066 31.2784L198.572 31.3344C197.679 31.3674 197.056 31.3194 197.025 31.2134H197.031ZM158.218 22.6664C158.154 22.5004 157.418 20.4854 156.585 18.1884C155.752 15.8914 155.007 13.9474 154.932 13.8664C154.231 15.2358 153.676 16.675 153.276 18.1604C153.249 18.3238 153.196 18.4817 153.117 18.6274C152.951 18.8934 151.557 22.6334 151.557 22.8134C152.68 22.9653 153.813 23.0165 154.945 22.9664C158.061 22.9664 158.324 22.9424 158.218 22.6664ZM145.352 31.2134C145.352 31.1134 146.079 29.1214 146.966 26.7804C147.853 24.4394 148.92 21.6064 149.337 20.4804C150.466 17.4424 152.237 12.7384 152.726 11.4954C152.903 11.079 153.046 10.6489 153.153 10.2094C153.153 10.0864 153.745 10.0174 154.819 10.0174C156.241 10.0174 156.502 10.0634 156.605 10.3274C157.074 11.5364 163.056 27.3984 163.442 28.4594C163.708 29.1904 164.055 30.0984 164.214 30.4764C164.324 30.7219 164.42 30.9733 164.502 31.2294C163.977 31.296 163.448 31.3184 162.919 31.2964H161.341L160.959 30.2764C160.749 29.7154 160.295 28.4394 159.95 27.4394L159.322 25.6214H150.531L150.248 26.3744C150.093 26.7894 149.626 28.0744 149.21 29.2264L148.455 31.3264L146.907 31.3554C145.973 31.3734 145.36 31.3144 145.361 31.2074L145.352 31.2134ZM247.363 31.6364C246.531 31.5365 245.737 31.232 245.052 30.7502C244.367 30.2684 243.812 29.6243 243.436 28.8754C243.122 28.2754 243.178 28.1704 243.986 27.8474C244.303 27.7407 244.598 27.5755 244.854 27.3604C244.923 27.2484 245.099 27.3354 245.298 27.5794C246.798 29.4224 247.138 29.6094 248.761 29.4924C249.744 29.4214 249.907 29.3524 250.361 28.8134C251.336 27.6454 250.638 26.8994 247.897 26.1804C244.823 25.3744 243.591 24.3394 243.591 22.5624C243.546 21.9231 243.709 21.2865 244.055 20.7471C244.401 20.2077 244.912 19.7943 245.512 19.5684C246.374 19.063 247.378 18.8557 248.369 18.9784C249.274 18.8594 250.193 19.0313 250.994 19.4694C251.968 19.9814 253.204 21.4184 253.04 21.8474C252.991 21.9744 252.887 22.0394 252.808 21.9904C252.458 22.009 252.117 22.1039 251.808 22.2684C251.236 22.5134 250.931 22.5684 250.887 22.4364C250.554 21.9267 250.09 21.516 249.543 21.2474C249.07 21.0792 248.567 21.014 248.067 21.0563C247.566 21.0985 247.081 21.2473 246.643 21.4924C246.497 21.5977 246.374 21.732 246.282 21.8868C246.19 22.0417 246.131 22.2138 246.109 22.3924C246.03 23.1784 246.627 23.5534 248.836 24.1064C251.574 24.7924 252.228 25.1784 252.899 26.5014C253.123 27.0645 253.209 27.6729 253.151 28.2761C253.092 28.8793 252.891 29.4598 252.563 29.9694C251.5 31.3634 249.742 31.9284 247.363 31.6394V31.6364ZM236.331 29.4124C236.898 29.1851 237.412 28.8414 237.839 28.4036C238.265 27.9658 238.595 27.4436 238.808 26.8704C239.093 25.7169 239.062 24.508 238.719 23.3704C238.199 22.3548 237.318 21.5701 236.249 21.1704C233.91 20.5404 231.658 22.4934 231.649 25.1624C231.568 26.2817 231.933 27.3875 232.666 28.2374C233.106 28.7561 233.683 29.1411 234.331 29.3488C234.978 29.5564 235.671 29.5785 236.331 29.4124ZM233.969 31.6524C233.044 31.4357 232.184 31.0041 231.457 30.3925C230.73 29.7809 230.158 29.0066 229.786 28.1324C229.363 27.2417 229.201 26.2495 229.318 25.2704C229.179 24.2171 229.384 23.1471 229.902 22.2194C230.497 20.9694 231.508 19.9653 232.762 19.3794C233.72 19.0107 234.757 18.8951 235.773 19.0438C236.789 19.1925 237.75 19.6005 238.562 20.2284L238.982 20.6474V13.7784L240.152 13.7184C240.564 13.6679 240.981 13.6844 241.388 13.7674C241.425 13.8274 241.436 17.8054 241.415 22.6104L241.376 31.3454H240.224C239.236 31.3454 239.079 31.2994 239.124 31.0454C239.162 30.8394 239.106 30.7854 238.947 30.8764C238.759 30.9834 238.757 30.9624 238.935 30.7704C239.077 30.5794 239.154 30.3483 239.156 30.1104C239.156 29.6974 239.148 29.6984 238.705 30.2254C238.084 30.8217 237.331 31.2627 236.507 31.5123C235.684 31.7618 234.812 31.813 233.965 31.6614L233.969 31.6524ZM214.81 28.9684C215.276 28.6297 215.685 28.2193 216.023 27.7524C216.486 27.1118 216.696 26.3233 216.614 25.5374C216.714 24.8837 216.642 24.2152 216.406 23.5975C216.169 22.9798 215.777 22.4341 215.266 22.0138C214.755 21.5935 214.144 21.3131 213.493 21.1999C212.841 21.0868 212.171 21.1449 211.549 21.3684C210.766 21.6805 210.107 22.2393 209.67 22.96C209.234 23.6808 209.044 24.5242 209.13 25.3624C209.078 26.1762 209.278 26.9862 209.702 27.6827C210.126 28.3792 210.753 28.9286 211.5 29.2564C212.04 29.4527 212.616 29.5286 213.188 29.4787C213.76 29.4288 214.314 29.2543 214.812 28.9674L214.81 28.9684ZM211.71 31.6324C210.881 31.5032 210.09 31.1927 209.394 30.7231C208.699 30.2535 208.115 29.6363 207.685 28.9154C207.01 27.8228 206.672 26.5557 206.714 25.2723C206.755 23.9888 207.173 22.7459 207.916 21.6987C208.659 20.6515 209.694 19.8465 210.892 19.384C212.09 18.9216 213.398 18.8222 214.652 19.0984C215.668 19.3744 216.593 19.914 217.333 20.6627C218.073 21.4114 218.602 22.3424 218.866 23.3614C219.332 25.1727 219.111 27.0922 218.246 28.7504C218.046 29.0964 217.928 29.4734 217.993 29.5874C218.058 29.7014 218.052 29.7414 217.978 29.6744C217.904 29.6074 217.421 29.8984 216.904 30.3194C216.182 30.8958 215.345 31.3112 214.45 31.5376C213.554 31.7641 212.62 31.7964 211.711 31.6324H211.71ZM173.498 28.9204C173.997 28.5537 174.409 28.0815 174.705 27.5374C175.094 26.8862 175.267 26.1281 175.198 25.3724C175.257 24.7494 175.166 24.1214 174.933 23.5407C174.699 22.96 174.331 22.4435 173.857 22.0344C173.55 21.7173 173.182 21.4653 172.776 21.2936C172.369 21.1219 171.932 21.034 171.491 21.0351C171.05 21.0363 170.613 21.1264 170.207 21.3002C169.802 21.4739 169.435 21.7277 169.13 22.0464C168.705 22.4241 168.369 22.8913 168.146 23.4143C167.923 23.9373 167.818 24.5033 167.84 25.0714C167.749 25.908 167.916 26.7524 168.317 27.4919C168.719 28.2314 169.336 28.8309 170.087 29.2104C170.638 29.4352 171.234 29.5261 171.827 29.4757C172.42 29.4252 172.993 29.235 173.498 28.9204ZM170.187 31.6204C169.247 31.4333 168.369 31.0169 167.629 30.4082C166.889 29.7995 166.311 29.0174 165.946 28.1314C165.543 27.2988 165.382 26.3702 165.479 25.4504C165.399 24.5722 165.51 23.687 165.806 22.8561C166.101 22.0252 166.574 21.2685 167.191 20.6384C167.692 20.0672 168.318 19.6201 169.021 19.3325C169.724 19.0449 170.485 18.9247 171.242 18.9814C171.894 18.9195 172.551 19.0062 173.165 19.2352C173.779 19.4642 174.332 19.8295 174.784 20.3034L175.232 20.7834L175.143 17.2774L175.054 13.7714L176.274 13.7144C176.974 13.6814 177.523 13.7324 177.561 13.8354C177.599 13.9384 177.608 17.9124 177.582 22.6784L177.536 31.3444H175.231L175.294 30.5804L175.357 29.8174L174.683 30.4094C174.08 30.9499 173.359 31.3415 172.578 31.5525C171.796 31.7635 170.976 31.7882 170.183 31.6244L170.187 31.6204Z" fill="#7F7F7F"/>
</svg>
