<svg width="145" height="45" viewBox="0 0 145 45" fill="none" xmlns="http://www.w3.org/2000/svg">
<path fill-rule="evenodd" clip-rule="evenodd" d="M89.8664 34.7557C81.4504 40.9667 69.2494 44.2697 58.7434 44.2697C44.7059 44.3432 31.1469 39.1721 20.7234 29.7697C19.9354 29.0587 20.6384 28.0867 21.5854 28.6377C33.1694 35.2603 46.2839 38.7387 59.6274 38.7277C69.596 38.6785 79.4568 36.6605 88.6434 32.7897C90.0664 32.1897 91.2594 33.7277 89.8664 34.7547" fill="#FF9900"/>
<path fill-rule="evenodd" clip-rule="evenodd" d="M93.3692 30.7566C92.2922 29.3786 86.2533 30.1036 83.5403 30.4286C82.7193 30.5286 82.5912 29.8096 83.3322 29.2886C88.1492 25.9046 96.0432 26.8826 96.9592 28.0146C97.8752 29.1466 96.7172 37.0716 92.2022 40.8496C91.5082 41.4306 90.8472 41.1206 91.1552 40.3496C92.1712 37.8126 94.4452 32.1336 93.3682 30.7496" fill="#FF9900"/>
<path fill-rule="evenodd" clip-rule="evenodd" d="M83.7322 5.38671V2.09471C83.7295 1.98457 83.7492 1.87502 83.7901 1.77272C83.831 1.67041 83.8922 1.57748 83.9701 1.49958C84.048 1.42167 84.1409 1.36042 84.2432 1.31953C84.3456 1.27863 84.4551 1.25896 84.5652 1.26171H99.2972C99.4082 1.25792 99.5188 1.27665 99.6223 1.31676C99.7258 1.35688 99.8201 1.41755 99.8996 1.49511C99.979 1.57267 100.042 1.66553 100.084 1.76806C100.127 1.8706 100.148 1.98069 100.147 2.09171V4.91471C99.9622 5.68878 99.5802 6.40185 99.0382 6.98471L91.4052 17.8847C94.3157 17.7247 97.2159 18.3462 99.8052 19.6847C100.037 19.811 100.231 19.9962 100.369 20.2217C100.506 20.4471 100.581 20.7048 100.587 20.9687V24.4767C100.587 24.9607 100.059 25.5197 99.5022 25.2287C97.0931 23.9905 94.4226 23.3469 91.7138 23.3518C89.0051 23.3567 86.3369 24.0098 83.9322 25.2567C83.4192 25.5297 82.8832 24.9787 82.8832 24.4947V21.1627C82.8362 20.3716 83.027 19.5844 83.4312 18.9027L92.2742 6.21571H84.5742C84.4633 6.22006 84.3526 6.20179 84.2489 6.16201C84.1452 6.12223 84.0506 6.06178 83.971 5.98433C83.8914 5.90689 83.8284 5.81406 83.7858 5.71149C83.7432 5.60892 83.7219 5.49876 83.7232 5.38771" fill="black"/>
<path fill-rule="evenodd" clip-rule="evenodd" d="M29.9783 25.9216H25.4953C25.2934 25.9117 25.1017 25.8298 24.955 25.6907C24.8082 25.5517 24.7161 25.3647 24.6953 25.1636V2.15461C24.6977 2.04342 24.7219 1.93378 24.7666 1.83196C24.8114 1.73015 24.8758 1.63816 24.9561 1.56125C25.0365 1.48435 25.1312 1.42404 25.2349 1.38378C25.3385 1.34351 25.4491 1.32409 25.5603 1.32661H29.7353C29.9423 1.33295 30.1397 1.41508 30.2902 1.55739C30.4406 1.6997 30.5335 1.8923 30.5513 2.09861V5.09861H30.6353C31.003 3.83227 31.7833 2.72513 32.8523 1.9531C33.9213 1.18107 35.2176 0.788444 36.5353 0.837611C39.3353 0.837611 41.0963 2.19361 42.3533 5.09861C42.7709 4.00557 43.4708 3.04274 44.3816 2.30815C45.2924 1.57356 46.3816 1.09346 47.5382 0.916737C48.6949 0.740013 49.8778 0.872979 50.9664 1.30209C52.0549 1.73121 53.0104 2.44115 53.7353 3.35961C55.1583 5.29561 54.8653 8.10461 54.8653 10.5736V25.0936C54.863 25.2048 54.8387 25.3144 54.794 25.4163C54.7492 25.5181 54.6848 25.6101 54.6045 25.687C54.5242 25.7639 54.4294 25.8242 54.3258 25.8644C54.2221 25.9047 54.1115 25.9241 54.0003 25.9216H49.5203C49.3062 25.9122 49.1037 25.8216 48.9542 25.6681C48.8046 25.5146 48.7192 25.3099 48.7153 25.0956V12.8956C48.7787 11.4581 48.7366 10.0179 48.5893 8.58661C48.5016 7.97443 48.1748 7.42197 47.6805 7.05028C47.1862 6.67859 46.5648 6.51797 45.9523 6.60361C45.3699 6.62102 44.8054 6.80927 44.329 7.14495C43.8527 7.48063 43.4856 7.94893 43.2733 8.49161C42.8992 9.92847 42.7578 11.416 42.8543 12.8976V25.0976C42.852 25.2087 42.8278 25.3183 42.7831 25.42C42.7384 25.5218 42.6741 25.6137 42.5939 25.6906C42.5136 25.7675 42.419 25.8278 42.3155 25.8682C42.2119 25.9085 42.1014 25.928 41.9903 25.9256H37.5123C37.2982 25.9162 37.0958 25.8256 36.9462 25.6721C36.7966 25.5186 36.7112 25.3139 36.7073 25.0996V12.8996C36.7073 10.3336 37.1263 6.55661 33.9453 6.55661C30.7223 6.55661 30.8453 10.2366 30.8453 12.8996V25.0996C30.8431 25.2108 30.819 25.3204 30.7743 25.4222C30.7297 25.524 30.6654 25.616 30.5851 25.6929C30.5049 25.7698 30.4102 25.8302 30.3066 25.8704C30.203 25.9107 30.0925 25.9301 29.9813 25.9276" fill="black"/>
<path fill-rule="evenodd" clip-rule="evenodd" d="M112.837 0.840698C119.491 0.840698 123.089 6.5537 123.089 13.8167C123.089 20.8377 119.114 26.4067 112.837 26.4067C106.309 26.4067 102.751 20.6927 102.751 13.5757C102.751 6.4097 106.351 0.841698 112.837 0.841698M112.879 5.5417C109.573 5.5417 109.364 10.0417 109.364 12.8527C109.364 15.6637 109.322 21.6647 112.838 21.6647C116.312 21.6647 116.479 16.8227 116.479 13.8647C116.552 11.8097 116.327 9.75504 115.81 7.7647C115.672 7.10285 115.3 6.51316 114.761 6.10402C114.223 5.69487 113.555 5.49378 112.88 5.5377" fill="black"/>
<path fill-rule="evenodd" clip-rule="evenodd" d="M131.718 25.9216H127.252C127.039 25.911 126.838 25.8198 126.689 25.6665C126.541 25.5131 126.456 25.3091 126.452 25.0956L126.445 2.07762C126.47 1.86775 126.571 1.6745 126.731 1.53563C126.89 1.39675 127.095 1.32223 127.306 1.32662H131.465C131.651 1.33251 131.829 1.39854 131.973 1.51473C132.117 1.63092 132.22 1.79095 132.265 1.97062V5.49062H132.349C133.604 2.34362 135.361 0.84262 138.458 0.84262C139.492 0.794218 140.52 1.01939 141.438 1.4954C142.356 1.97141 143.133 2.68139 143.689 3.55362C144.861 5.39362 144.861 8.49262 144.861 10.7196V25.1966C144.831 25.4012 144.727 25.5877 144.569 25.7211C144.41 25.8546 144.209 25.9258 144.002 25.9216H139.508C139.311 25.9129 139.124 25.8357 138.978 25.7033C138.832 25.571 138.736 25.3917 138.708 25.1966V12.7036C138.708 10.1856 139.001 6.50362 135.908 6.50362C135.345 6.52809 134.8 6.71472 134.34 7.04109C133.879 7.36747 133.523 7.81974 133.313 8.34362C132.762 9.72713 132.519 11.2144 132.601 12.7016V25.0936C132.593 25.3186 132.498 25.5314 132.334 25.6863C132.171 25.8412 131.953 25.9257 131.728 25.9216" fill="black"/>
<path fill-rule="evenodd" clip-rule="evenodd" d="M71.9844 14.9337C72.1537 16.5662 71.8631 18.2136 71.1454 19.6897C70.8587 20.2759 70.4197 20.7744 69.8743 21.133C69.329 21.4915 68.6973 21.6969 68.0454 21.7277C66.3264 21.7277 65.3194 20.4177 65.3194 18.4757C65.3194 14.6577 68.7444 13.9627 71.9874 13.9627L71.9844 14.9337ZM76.5044 25.8647C76.3594 25.9879 76.18 26.0636 75.9906 26.0814C75.8012 26.0993 75.6109 26.0586 75.4454 25.9647C74.4151 25.1323 73.5443 24.1199 72.8754 22.9767C70.4144 25.4837 68.6754 26.2357 65.4844 26.2357C61.7104 26.2357 58.7744 23.9067 58.7744 19.2487C58.7215 17.684 59.1521 16.1411 60.0076 14.83C60.8631 13.5189 62.1019 12.5034 63.5554 11.9217C65.9874 10.8547 69.3854 10.6597 71.9854 10.3687V9.79065C72.1255 8.67701 71.936 7.54673 71.4404 6.53965C71.146 6.157 70.7634 5.85121 70.3253 5.64836C69.8873 5.4455 69.4066 5.3516 68.9244 5.37465C68.1001 5.31143 67.2809 5.54946 66.6188 6.04454C65.9567 6.53962 65.4968 7.25812 65.3244 8.06665C65.3007 8.26961 65.212 8.45948 65.0716 8.60796C64.9313 8.75645 64.7467 8.8556 64.5454 8.89065L60.1964 8.41865C60.0893 8.40448 59.9864 8.36847 59.8939 8.31286C59.8013 8.25725 59.7212 8.18321 59.6585 8.09536C59.5958 8.0075 59.5518 7.90769 59.5292 7.80212C59.5066 7.69655 59.506 7.58747 59.5274 7.48165C60.5254 2.21165 65.2864 0.618652 69.5524 0.618652C71.7334 0.618652 74.5854 1.20165 76.3044 2.85065C78.4854 4.88865 78.2754 7.60665 78.2754 10.5667V17.5507C78.2938 19.1 78.8987 20.5847 79.9684 21.7057C80.1236 21.8658 80.2091 22.0808 80.2063 22.3037C80.2035 22.5267 80.1126 22.7395 79.9534 22.8957C79.0374 23.6637 77.4104 25.0767 76.5154 25.8737L76.5044 25.8647Z" fill="black"/>
<path fill-rule="evenodd" clip-rule="evenodd" d="M13.2143 14.9337C13.3837 16.5662 13.0931 18.2136 12.3753 19.6897C12.0888 20.2761 11.6499 20.7747 11.1045 21.1332C10.5591 21.4918 9.92732 21.6971 9.27535 21.7277C7.55635 21.7277 6.54935 20.4177 6.54935 18.4757C6.54935 14.6577 9.97435 13.9627 13.2173 13.9627L13.2143 14.9337ZM17.7343 25.8647C17.5894 25.9879 17.41 26.0636 17.2206 26.0814C17.0312 26.0993 16.8408 26.0586 16.6753 25.9647C15.645 25.1324 14.7742 24.1199 14.1053 22.9767C11.6443 25.4837 9.90535 26.2357 6.71435 26.2357C2.93935 26.2397 0.0043483 23.9107 0.0043483 19.2527C-0.0485393 17.688 0.382091 16.1451 1.2376 14.834C2.09311 13.5229 3.33192 12.5074 4.78535 11.9257C7.21735 10.8587 10.6153 10.6637 13.2143 10.3727V9.79065C13.3542 8.67701 13.1647 7.5468 12.6693 6.53965C12.3746 6.15738 11.992 5.85187 11.554 5.64905C11.116 5.44624 10.6355 5.35211 10.1533 5.37465C9.32902 5.31122 8.50969 5.54916 7.84757 6.04428C7.18545 6.5394 6.72557 7.25802 6.55335 8.06665C6.52949 8.26955 6.4408 8.45934 6.30045 8.60779C6.1601 8.75625 5.97559 8.85545 5.77435 8.89065L1.42635 8.41865C1.31933 8.40448 1.21636 8.36847 1.12384 8.31286C1.03131 8.25725 0.951203 8.18321 0.888474 8.09536C0.825746 8.0075 0.781739 7.90769 0.759182 7.80212C0.736626 7.69655 0.736002 7.58747 0.757348 7.48165C1.75535 2.21165 6.51535 0.618652 10.7823 0.618652C12.9633 0.618652 15.8153 1.20165 17.5343 2.85065C19.7153 4.88865 19.5043 7.60665 19.5043 10.5667V17.5507C19.5227 19.0998 20.1273 20.5844 21.1963 21.7057C21.3517 21.8656 21.4374 22.0806 21.4348 22.3035C21.4322 22.5265 21.3414 22.7394 21.1823 22.8957C20.2663 23.6637 18.6393 25.0767 17.7443 25.8737L17.7343 25.8647Z" fill="black"/>
</svg>
