<svg width="254" height="41" viewBox="0 0 254 41" fill="none" xmlns="http://www.w3.org/2000/svg">
<path d="M152.662 14.2266L156.207 23.5336H149.337L152.662 14.2266ZM151.332 11.1266L143.576 31.5126H146.457L148.452 25.9726H157.094L159.089 31.5126H161.97L154.214 11.1266H151.332ZM193.211 31.5126H195.87V11.1246H193.211V31.5126ZM165.947 19.5446C166.446 18.8222 167.106 18.2258 167.875 17.8028C168.644 17.3798 169.502 17.1418 170.379 17.1076C173.924 17.1076 175.697 19.5446 175.697 23.0906V31.7326H173.038V23.5326C173.038 20.6516 171.488 19.5446 169.493 19.5446C167.277 19.5446 165.726 21.7606 165.726 23.7546V31.5106H163.067V17.3296H165.725L165.946 19.5456L165.947 19.5446ZM177.914 27.3016C177.914 24.2016 180.795 22.4266 184.114 22.4266C186.109 22.4266 187.439 22.8706 187.881 23.3136V22.8666C187.884 22.4102 187.793 21.9581 187.613 21.5387C187.433 21.1193 187.168 20.7416 186.835 20.4294C186.502 20.1172 186.108 19.8771 185.678 19.7243C185.248 19.5716 184.791 19.5094 184.336 19.5416C183.641 19.4719 182.942 19.6284 182.343 19.9879C181.744 20.3473 181.277 20.8905 181.011 21.5366L178.58 20.4276C179.024 19.0976 180.796 17.1026 184.351 17.1026C187.676 17.1026 190.551 19.0976 190.551 23.0856V31.5066H188.125V29.5066H187.904C187.404 30.2796 186.713 30.9102 185.898 31.3372C185.083 31.7642 184.171 31.9731 183.251 31.9436C180.37 31.9436 177.933 30.1706 177.933 27.2906M187.905 25.5176C186.918 24.8781 185.754 24.5676 184.58 24.6306C181.921 24.6306 180.813 26.1806 180.813 27.2896C180.813 28.8396 182.363 29.5056 183.694 29.5056C184.765 29.4815 185.79 29.06 186.568 28.323C187.346 27.586 187.822 26.5861 187.904 25.5176" fill="#757575"/>
<path fill-rule="evenodd" clip-rule="evenodd" d="M199.628 37.7136L202.728 30.3926L197.189 17.5416H199.848L204.058 27.2916L208.268 17.5416H210.927L202.289 37.7136H199.629H199.628ZM238.628 22.2036C238.363 21.3999 237.862 20.6949 237.19 20.1808C236.518 19.6667 235.707 19.3676 234.862 19.3226C232.646 19.3226 230.652 21.3176 230.652 24.1976C230.652 27.0776 232.647 29.0726 234.862 29.0726C235.677 29.0307 236.463 28.7587 237.13 28.2881C237.797 27.8175 238.317 27.1675 238.629 26.4136L240.845 27.7436C240.35 28.9226 239.518 29.9296 238.454 30.6389C237.39 31.3481 236.141 31.7282 234.862 31.7316C231.095 31.7316 227.992 28.4066 227.992 24.1976C227.992 19.7656 231.092 16.6636 234.862 16.6636C236.141 16.6671 237.39 17.0472 238.454 17.7565C239.518 18.4657 240.35 19.4726 240.845 20.6516L238.629 22.2016L238.628 22.2036Z" fill="#757575"/>
<path d="M248.156 31.9536C251.701 31.9536 253.474 29.9586 253.474 27.5216C253.474 22.2036 245.718 24.1966 245.718 21.0966C245.718 19.9886 246.605 19.3236 248.155 19.3236C248.88 19.2883 249.603 19.4314 250.259 19.7406C250.916 20.0497 251.487 20.5153 251.922 21.0966L253.472 19.5466C252.037 17.9789 250.052 17.0262 247.932 16.8876C244.607 16.8876 242.832 18.8826 242.832 21.3196C242.832 26.4196 250.809 24.6446 250.809 27.3026C250.809 28.6326 249.922 29.5186 248.15 29.5186C246.378 29.5186 245.491 28.4106 244.605 27.3026L242.61 28.8526C243.94 30.1826 245.935 31.9526 248.15 31.9526L248.156 31.9536ZM222.895 31.5096H225.549V17.3296H222.89V31.5116L222.895 31.5096Z" fill="#757575"/>
<path fill-rule="evenodd" clip-rule="evenodd" d="M224.003 10.4606C224.466 10.4716 224.906 10.6631 225.229 10.9943C225.553 11.3256 225.734 11.7701 225.734 12.2331C225.734 12.696 225.553 13.1406 225.229 13.4718C224.906 13.803 224.466 13.9946 224.003 14.0056C223.543 13.974 223.11 13.7771 222.784 13.4512C222.458 13.1253 222.261 12.6924 222.23 12.2326C222.262 11.7729 222.459 11.3403 222.785 11.0146C223.111 10.6889 223.543 10.4921 224.003 10.4606ZM220.233 29.2966L220.677 31.2916H218.018C215.581 31.2916 214.473 29.5186 214.473 26.8596V19.9896H211.814V17.3306H214.473V13.1206H217.133V17.3306H220.233V19.9896H217.133V27.3106C217.133 29.3056 218.683 29.3056 220.233 29.3056V29.2966Z" fill="#757575"/>
<path d="M56.925 19.3236V22.6486H64.681C64.5518 24.1385 63.9273 25.5422 62.907 26.6356C62.1355 27.4374 61.2044 28.0686 60.1738 28.4884C59.1433 28.9081 58.0362 29.1071 56.924 29.0726C55.8015 29.0661 54.6916 28.8365 53.6587 28.3971C52.6258 27.9578 51.6905 27.3174 50.9073 26.5134C50.1241 25.7093 49.5086 24.7576 49.0965 23.7135C48.6844 22.6694 48.484 21.5538 48.507 20.4316C48.4754 18.7746 48.9302 17.1447 49.8151 15.7434C50.7 14.3421 51.9762 13.2309 53.4859 12.5471C54.9956 11.8634 56.6725 11.6372 58.3095 11.8964C59.9464 12.1556 61.4714 12.8889 62.696 14.0056L64.907 11.7896C62.7799 9.68862 59.9196 8.49639 56.93 8.4646C53.7993 8.47813 50.7974 9.71304 48.5635 11.9065C46.3295 14.0999 45.0398 17.0786 44.969 20.2086C45.0375 23.3386 46.3259 26.3181 48.5595 28.5119C50.7931 30.7057 53.7952 31.9403 56.926 31.9526C58.3796 32.0182 59.8312 31.784 61.1904 31.2645C62.5497 30.7451 63.7875 29.9515 64.8268 28.9331C65.8662 27.9148 66.6849 26.6934 67.232 25.3451C67.7791 23.9968 68.0429 22.5503 68.007 21.0956C68.056 20.4227 67.9811 19.7465 67.786 19.1006H56.933L56.925 19.3236ZM76.647 16.6736C75.6503 16.6466 74.6585 16.823 73.7322 17.1921C72.8059 17.5611 71.9646 18.1151 71.2596 18.8202C70.5545 19.5252 70.0005 20.3666 69.6315 21.2928C69.2624 22.2191 69.086 23.2109 69.113 24.2076C69.086 25.2043 69.2624 26.1961 69.6315 27.1224C70.0005 28.0486 70.5545 28.89 71.2596 29.595C71.9646 30.3001 72.8059 30.8541 73.7322 31.2231C74.6585 31.5922 75.6503 31.7686 76.647 31.7416C77.6386 31.7497 78.622 31.5604 79.5397 31.1847C80.4575 30.8089 81.2912 30.2543 81.9925 29.5531C82.6937 28.8518 83.2483 28.0181 83.6241 27.1003C83.9998 26.1826 84.1891 25.1992 84.181 24.2076C84.208 23.2109 84.0316 22.2191 83.6625 21.2928C83.2934 20.3666 82.7395 19.5252 82.0344 18.8202C81.3294 18.1151 80.488 17.5611 79.5618 17.1921C78.6355 16.823 77.6437 16.6466 76.647 16.6736ZM76.647 28.8606C75.4742 28.7949 74.3746 28.2696 73.5865 27.3986C72.7984 26.5276 72.3854 25.3811 72.437 24.2076C72.3854 23.0341 72.7984 21.8876 73.5865 21.0166C74.3746 20.1456 75.4742 19.6203 76.647 19.5546C77.2339 19.5686 77.8117 19.702 78.3454 19.9465C78.8791 20.191 79.3574 20.5416 79.7513 20.9769C80.1452 21.4122 80.4463 21.9231 80.6364 22.4786C80.8265 23.034 80.9015 23.6223 80.857 24.2076C80.9015 24.7929 80.8265 25.3812 80.6364 25.9366C80.4463 26.4921 80.1452 27.003 79.7513 27.4383C79.3574 27.8736 78.8791 28.2242 78.3454 28.4687C77.8117 28.7132 77.2339 28.8465 76.647 28.8606ZM112.987 18.2236C112.444 17.656 111.79 17.2059 111.066 16.9009C110.342 16.596 109.563 16.4427 108.777 16.4506C106.858 16.5676 105.056 17.4123 103.739 18.8124C102.422 20.2124 101.689 22.0623 101.689 23.9846C101.689 25.9069 102.422 27.7568 103.739 29.1568C105.056 30.5569 106.858 31.4016 108.777 31.5186C109.53 31.5285 110.277 31.3751 110.965 31.0691C111.654 30.763 112.268 30.3115 112.765 29.7456H112.986V30.8536C112.986 33.7346 111.436 35.2856 108.998 35.2856C108.18 35.2532 107.39 34.9849 106.721 34.5131C106.053 34.0413 105.535 33.3861 105.231 32.6266L102.35 33.7346C102.909 35.0383 103.835 36.1513 105.015 36.9382C106.195 37.725 107.579 38.1518 108.997 38.1666C112.985 38.1666 116.318 35.9506 116.318 30.1896V16.4526H113.218V18.2256L112.987 18.2236ZM109.22 28.8606C107.004 28.8606 105.232 26.8656 105.232 24.2076C105.232 21.5496 107.005 19.5546 109.22 19.5546C111.435 19.5546 113.208 21.5496 113.208 24.2076C113.208 26.8656 111.435 28.8606 109.22 28.8606ZM93.044 16.6736C92.0473 16.6466 91.0555 16.823 90.1292 17.1921C89.2029 17.5611 88.3616 18.1151 87.6566 18.8202C86.9515 19.5252 86.3975 20.3666 86.0285 21.2928C85.6594 22.2191 85.483 23.2109 85.51 24.2076C85.483 25.2043 85.6594 26.1961 86.0285 27.1224C86.3975 28.0486 86.9515 28.89 87.6566 29.595C88.3616 30.3001 89.2029 30.8541 90.1292 31.2231C91.0555 31.5922 92.0473 31.7686 93.044 31.7416C94.0356 31.7497 95.019 31.5604 95.9367 31.1847C96.8545 30.8089 97.6882 30.2543 98.3895 29.5531C99.0907 28.8518 99.6453 28.0181 100.021 27.1003C100.397 26.1826 100.586 25.1992 100.578 24.2076C100.8 19.7756 97.254 16.6736 93.044 16.6736ZM93.044 28.8606C91.8712 28.7949 90.7716 28.2696 89.9835 27.3986C89.1954 26.5276 88.7824 25.3811 88.834 24.2076C88.7824 23.0341 89.1954 21.8876 89.9835 21.0166C90.7716 20.1456 91.8712 19.6203 93.044 19.5546C93.6309 19.5686 94.2087 19.702 94.7424 19.9465C95.2761 20.191 95.7544 20.5416 96.1483 20.9769C96.5422 21.4122 96.8433 21.9231 97.0334 22.4786C97.2235 23.034 97.2985 23.6223 97.254 24.2076C97.2985 24.7929 97.2235 25.3812 97.0334 25.9366C96.8433 26.4921 96.5422 27.003 96.1483 27.4383C95.7544 27.8736 95.2761 28.2242 94.7424 28.4687C94.2087 28.7132 93.6309 28.8465 93.044 28.8606ZM118.744 8.6876H122.069V31.7326H118.744V8.6876ZM131.153 28.8516C130.384 28.8536 129.629 28.649 128.966 28.2591C128.304 27.8693 127.758 27.3086 127.386 26.6356L137.579 22.4256L137.135 21.5386C136.47 19.7656 134.476 16.6636 130.71 16.6636C126.722 16.6636 123.619 19.7636 123.619 24.1976C123.611 25.1893 123.8 26.1727 124.176 27.0905C124.551 28.0083 125.106 28.8421 125.807 29.5434C126.508 30.2446 127.342 30.7992 128.26 31.1749C129.178 31.5506 130.161 31.7399 131.153 31.7316C132.409 31.7166 133.644 31.4081 134.76 30.8308C135.875 30.2534 136.84 29.4233 137.578 28.4066L134.919 26.6346C134.547 27.3076 134.002 27.8684 133.339 28.2583C132.676 28.6481 131.921 28.8527 131.152 28.8506L131.153 28.8516ZM130.932 19.5446C131.536 19.5118 132.135 19.664 132.65 19.9808C133.164 20.2977 133.57 20.764 133.813 21.3176L126.943 24.1986C126.943 20.8736 129.159 19.5456 130.931 19.5456L130.932 19.5446Z" fill="#757575"/>
<path d="M25.1 4.9016V35.0216C25.1 38.3916 27.427 40.2696 29.891 40.2696C32.173 40.2696 34.683 38.6696 34.683 35.0216V5.1306C34.7127 4.48266 34.6108 3.83542 34.3834 3.22796C34.1561 2.6205 33.8079 2.06542 33.3601 1.59625C32.9122 1.12707 32.3739 0.753534 31.7776 0.498191C31.1814 0.242847 30.5396 0.110995 29.891 0.110596C28.6267 0.130944 27.4198 0.642241 26.5257 1.53636C25.6316 2.43047 25.1203 3.63729 25.1 4.9016Z" fill="#F9AB00"/>
<path d="M12.55 20.1896V35.0216C12.55 38.3916 14.877 40.2696 17.341 40.2696C19.623 40.2696 22.1331 38.6696 22.1331 35.0216V20.4186C22.1628 19.7706 22.0609 19.1234 21.8335 18.5159C21.6061 17.9085 21.258 17.3534 20.8101 16.8842C20.3623 16.415 19.824 16.0415 19.2277 15.7862C18.6315 15.5308 17.9897 15.399 17.341 15.3986C16.0767 15.4189 14.8699 15.9302 13.9758 16.8243C13.0817 17.7184 12.5704 18.9253 12.55 20.1896Z" fill="#E37400"/>
<path d="M4.792 40.2705C7.43855 40.2705 9.584 38.1251 9.584 35.4785C9.584 32.832 7.43855 30.6865 4.792 30.6865C2.14545 30.6865 0 32.832 0 35.4785C0 38.1251 2.14545 40.2705 4.792 40.2705Z" fill="#E37400"/>
</svg>
