<svg width="105" height="44" viewBox="0 0 105 44" fill="none" xmlns="http://www.w3.org/2000/svg">
<path d="M46.126 10.8416H63.403V18.0665H53.351V25.2916H63.403V32.5165H46.126V10.8416Z" fill="black"/>
<path d="M66.8579 10.8416H84.1349V17.1235H74.0829V18.3795H84.1349V32.8295H66.8579V26.2296H76.9099V24.9735H66.8579V10.8416Z" fill="black"/>
<path d="M87.5898 10.8416H104.867V17.1235H94.8148V18.3795H104.867V32.8295H87.5898V26.2296H97.6418V24.9735H87.5898V10.8416Z" fill="black"/>
<path d="M34.98 39.5825L19.218 43.9525L3.5 39.5885L0 0.301514H38.486L34.98 39.5825Z" fill="#264DE4"/>
<path d="M19.241 40.6165L31.977 37.0855L34.977 3.51746H19.241V40.6165Z" fill="#2965F1"/>
<path d="M19.2411 18.0845H8.0271L8.4591 22.9025H19.2411V18.0845Z" fill="#EBEBEB"/>
<path d="M19.2249 8.33252H7.15991L7.59791 13.1505H19.2419V8.33252H19.2249Z" fill="#EBEBEB"/>
<path d="M19.2211 30.6035L13.8551 29.1545L13.5121 25.3115H8.67407L9.34907 32.8775L19.2191 35.6175L19.2411 35.6115V30.6035H19.2211Z" fill="#EBEBEB"/>
<path d="M26.0141 13.1505L25.5761 18.0845H19.2251V22.9035H25.1611L24.6021 29.1525L19.2281 30.6025V35.6135L29.1061 32.8755L29.1781 32.0615L30.3101 19.3765L30.4281 18.0825L31.2981 8.32947H19.2251V13.1475L26.0141 13.1505Z" fill="white"/>
</svg>
