<svg width="168" height="68" viewBox="0 0 168 68" fill="none" xmlns="http://www.w3.org/2000/svg">
<path fill-rule="evenodd" clip-rule="evenodd" d="M21.388 20.8121C28.473 20.8121 33.304 25.1531 33.304 31.6591H8.861C8.861 24.7511 15.161 20.8121 21.389 20.8121M21.695 15.1581C9.861 15.1581 0 20.1791 0 35.3251C0 47.3251 6.631 54.8791 22 54.8791C40.091 54.8791 41.249 42.9631 41.249 42.9631H32.481C32.481 42.9631 30.6 49.3791 21.464 49.3791C14.021 49.3791 8.664 44.3511 8.664 37.3031H42.164V32.8791C42.164 25.9061 37.737 15.1571 21.692 15.1561" fill="#DC1829"/>
<path fill-rule="evenodd" clip-rule="evenodd" d="M63.848 21.0592C71.878 21.0592 76.986 27.0202 76.986 35.0192C76.986 43.5972 71.086 49.2082 63.906 49.2082C55.334 49.2082 50.706 42.5142 50.706 35.0952C50.706 28.1812 54.855 21.0592 63.845 21.0592M42.158 0.492188V47.2742C42.158 49.9292 41.968 53.6592 41.968 53.6592H50.329C50.329 53.6592 50.629 50.9802 50.629 48.5332C50.629 48.5332 54.76 54.9952 65.992 54.9952C77.817 54.9922 85.848 46.7832 85.848 35.0202C85.848 24.0762 78.468 15.2732 66.008 15.2732C54.337 15.2732 50.708 21.5732 50.708 21.5732V0.492188H42.158Z" fill="#0955A3"/>
<path fill-rule="evenodd" clip-rule="evenodd" d="M116.405 35.9362V38.3792C116.405 41.5672 114.441 49.4942 102.856 49.4942C96.5141 49.4942 93.7971 46.3282 93.7971 42.6572C93.7971 35.9792 102.953 35.9362 116.405 35.9362ZM106.63 15.1582C88.8301 15.1582 87.6841 24.9062 87.6841 26.4642H96.5451C96.5451 26.4642 97.0091 20.7722 106.017 20.7722C111.869 20.7722 116.403 23.4522 116.403 28.6022V30.4352H106.018C92.2261 30.4352 84.9351 34.4702 84.9351 42.6572C84.9351 50.7142 91.6721 55.0982 100.775 55.0982C113.182 55.0982 117.18 48.2432 117.18 48.2432C117.18 50.9692 117.389 53.6562 117.389 53.6562H125.267C125.267 53.6562 124.961 50.3262 124.961 48.1942V29.7792C124.961 17.7022 115.22 15.1612 106.629 15.1612L106.63 15.1582Z" fill="#F59C00"/>
<path fill-rule="evenodd" clip-rule="evenodd" d="M120.19 16.6882H130.161L144.467 45.3492L158.74 16.6882H167.77L141.77 67.7152H132.297L139.797 53.4912L120.19 16.6882Z" fill="#82AB2C"/>
</svg>
