<svg width="170" height="41" viewBox="0 0 170 41" fill="none" xmlns="http://www.w3.org/2000/svg">
<path d="M115.259 20.4137C114.407 20.4411 113.574 20.666 112.824 21.0707V28.5787C113.407 28.6331 113.993 28.6551 114.578 28.6447C116.962 28.6447 117.289 27.5527 117.289 26.0287V22.4427C117.289 21.3167 116.915 20.4127 115.26 20.4127L115.259 20.4137ZM99.427 20.0037C97.773 20.0037 97.396 20.9117 97.396 22.0367V22.6687H101.457V22.0357C101.456 20.9117 101.079 20.0037 99.427 20.0037ZM68.757 27.8187C68.7289 28.0022 68.7442 28.1897 68.8017 28.3662C68.8593 28.5427 68.9575 28.7032 69.0885 28.8347C69.2195 28.9663 69.3795 29.0652 69.5558 29.1236C69.732 29.1819 69.9194 29.1981 70.103 29.1707C70.9147 29.1449 71.7075 28.9192 72.411 28.5137V26.7357H70.238C69.209 26.7357 68.757 26.9277 68.757 27.8217V27.8187ZM130.657 20.4187C129 20.4187 128.426 21.3187 128.426 22.4487V26.5567C128.426 27.6847 129 28.5917 130.657 28.5917C132.314 28.5917 132.888 27.6847 132.888 26.5567V22.4487C132.89 21.3177 132.311 20.4137 130.659 20.4137L130.657 20.4187ZM60.635 32.4297H55.765V20.6357H53.332V16.5737H55.7661V14.1357C55.7661 10.8217 57.139 8.85168 61.043 8.85168H64.293V12.9147H62.261C60.741 12.9147 60.6411 13.4827 60.6411 14.5417L60.635 16.5747H64.315L63.885 20.6367H60.635V32.4257V32.4297ZM77.2791 32.4607H73.22L73.045 31.4337C71.6409 32.223 70.0558 32.6341 68.445 32.6267C65.468 32.6267 63.884 30.6377 63.884 27.8877C63.884 24.6427 65.733 23.4877 69.04 23.4877H72.407V22.7877C72.407 21.1317 72.217 20.6457 69.67 20.6457H65.506L65.913 16.5837H70.465C76.053 16.5837 77.2791 18.3487 77.2791 22.8207V32.4647V32.4607ZM91.079 20.9397C89.6106 20.6196 88.1146 20.4428 86.612 20.4117C84.429 20.4117 83.769 20.8937 83.769 22.7477V26.2547C83.769 28.1087 84.429 28.5927 86.612 28.5927C88.1148 28.5606 89.6108 28.3824 91.079 28.0607V32.0227C89.4842 32.4166 87.8496 32.6266 86.207 32.6487C80.978 32.6487 78.9 29.8987 78.9 25.9267V23.0757C78.9 19.0997 80.978 16.3457 86.207 16.3457C87.8498 16.368 89.4845 16.579 91.079 16.9747V20.9347V20.9397ZM106.32 25.9267H97.389V26.2537C97.389 28.1077 98.049 28.5917 100.232 28.5917C102.139 28.6055 104.042 28.4273 105.913 28.0597V32.0217C103.917 32.4727 101.875 32.6829 99.829 32.6477C94.6 32.6477 92.5201 29.8977 92.5201 25.9257V22.6727C92.5201 19.1967 94.063 16.3507 99.42 16.3507C104.777 16.3507 106.32 19.1647 106.32 22.6727V25.9267ZM122.152 26.0017C122.152 29.8407 121.052 32.6407 114.407 32.6407C112.24 32.6251 110.079 32.418 107.949 32.0217V10.0707L112.818 9.2587V16.9357C113.994 16.5352 115.229 16.3357 116.471 16.3457C121.34 16.3457 122.151 18.5287 122.151 22.0367V25.9957L122.152 26.0017ZM137.759 26.0847C137.759 29.3967 136.392 32.6087 130.671 32.6087C124.95 32.6087 123.554 29.3967 123.554 26.0847V22.8847C123.554 19.5707 124.947 16.3587 130.671 16.3587C136.395 16.3587 137.759 19.5717 137.759 22.8847V26.0847ZM153.359 26.0847C153.359 29.3967 151.99 32.6087 146.27 32.6087C140.55 32.6087 139.153 29.3967 139.153 26.0847V22.8847C139.153 19.5707 140.546 16.3587 146.27 16.3587C151.994 16.3587 153.359 19.5717 153.359 22.8847V26.0847ZM169.364 32.4297H164.087L159.624 24.9787V32.4297H154.751V10.0707L159.621 9.2587V23.6497L164.084 16.5757H169.361L164.489 24.2957L169.364 32.4297ZM146.251 20.4137C144.597 20.4137 144.023 21.3137 144.023 22.4437V26.5517C144.023 27.6797 144.597 28.5867 146.251 28.5867C147.905 28.5867 148.487 27.6797 148.487 26.5517V22.4437C148.487 21.3177 147.903 20.4137 146.251 20.4137Z" fill="#1773EA"/>
<path d="M2.188 0.919678C1.60771 0.919678 1.05118 1.1502 0.64085 1.56053C0.23052 1.97086 0 2.52738 0 3.10768V38.3847C0 38.965 0.23052 39.5215 0.64085 39.9318C1.05118 40.3422 1.60771 40.5727 2.188 40.5727H37.465C38.0452 40.5724 38.6016 40.3418 39.0119 39.9315C39.4221 39.5213 39.6527 38.9649 39.653 38.3847V3.10768C39.653 2.52738 39.4225 1.97086 39.0121 1.56053C38.6018 1.1502 38.0453 0.919678 37.465 0.919678" fill="#1773EA"/>
<path d="M27.36 40.5737V25.2177H32.514L33.286 19.2337H27.36V15.4117C27.36 13.6787 27.841 12.4987 30.326 12.4987H33.495V7.14471C31.9611 6.98207 30.4195 6.90329 28.877 6.90871C24.308 6.90871 21.177 9.69771 21.177 14.8197V19.2327H16.009V25.2167H21.177V40.5727H27.357L27.36 40.5737Z" fill="white"/>
</svg>
