<svg width="175" height="41" viewBox="0 0 175 41" fill="none" xmlns="http://www.w3.org/2000/svg">
<path fill-rule="evenodd" clip-rule="evenodd" d="M24.8703 10.7368C25.3573 10.9558 25.5953 11.6128 25.7623 12.4998L30.9722 40.5237L5.94924 25.7847L0.0332529 3.90082C-0.00691788 3.7742 -0.0107814 3.63877 0.0221445 3.51008C0.0550705 3.38138 0.123456 3.26457 0.219502 3.1728C0.315547 3.08102 0.435418 3.01795 0.565479 2.99091C0.695541 2.96387 0.830583 2.97396 0.95525 3.01984L11.1922 6.38678C12.3492 6.75978 11.7662 4.76776 12.6432 5.03376L20.3433 7.35383C21.1052 7.62883 20.7982 9.29874 21.5652 9.63874L24.8732 10.7388L24.8703 10.7368Z" fill="#0059A9"/>
<path fill-rule="evenodd" clip-rule="evenodd" d="M38.1513 7.17781L11.8513 0.393754C11.3423 0.274754 11.0123 0.526776 10.8273 1.11678L9.60034 5.85982L11.2003 6.38484C12.3573 6.75784 11.7743 4.76582 12.6513 5.03182L20.3513 7.35176C21.1133 7.62676 20.8063 9.2968 21.5733 9.6368L24.8813 10.7368C25.3683 10.9558 25.6063 11.6138 25.7733 12.4998L30.9823 40.5158L38.9284 8.69978C39.0098 8.39524 38.9764 8.07143 38.8346 7.78987C38.6928 7.50832 38.4525 7.28869 38.1593 7.17281L38.1513 7.17781Z" fill="#FFAE00"/>
<path fill-rule="evenodd" clip-rule="evenodd" d="M53.0533 29.8269L35.0644 24.1449L30.9744 40.5209V40.5289L53.9744 30.6539C54.5234 30.3539 53.6863 30.0889 53.0533 29.8319V29.8269Z" fill="#B7CBE9"/>
<path fill-rule="evenodd" clip-rule="evenodd" d="M73.7612 9.40076H61.9612V31.1948H65.1372V21.2299H73.7592V18.3788H65.1372V12.2518H73.7592V9.40076H73.7612Z" fill="#0059A9"/>
<path fill-rule="evenodd" clip-rule="evenodd" d="M79.2163 12.4709C79.2163 12.1311 79.1155 11.7989 78.9267 11.5164C78.738 11.2339 78.4696 11.0137 78.1557 10.8837C77.8418 10.7537 77.4964 10.7196 77.1631 10.7859C76.8298 10.8522 76.5237 11.0158 76.2835 11.256C76.0432 11.4963 75.8796 11.8025 75.8133 12.1358C75.747 12.4691 75.781 12.8144 75.9111 13.1283C76.0411 13.4423 76.2613 13.7106 76.5438 13.8993C76.8263 14.0881 77.1585 14.1889 77.4983 14.1889C77.9531 14.1863 78.3886 14.0044 78.7102 13.6828C79.0318 13.3612 79.2136 12.9257 79.2163 12.4709Z" fill="#0059A9"/>
<path fill-rule="evenodd" clip-rule="evenodd" d="M78.9211 16.7458H76.0361V31.1948H78.9211V16.7458Z" fill="#0059A9"/>
<path fill-rule="evenodd" clip-rule="evenodd" d="M84.5212 9.40076H81.6362V31.1948H84.5212V9.40076Z" fill="#0059A9"/>
<path fill-rule="evenodd" clip-rule="evenodd" d="M99.3463 26.9818C97.8604 28.0557 96.0894 28.6647 94.2573 28.7318C91.4693 28.7318 89.8173 27.2418 89.3633 24.3568H99.6063C99.6063 18.9748 97.1423 16.3507 93.2853 16.3507C89.2653 16.3507 86.4773 19.3327 86.4773 23.7407C86.4773 27.7617 89.0063 31.4888 93.5443 31.4888C95.6138 31.5657 97.6513 30.9615 99.3443 29.7688V26.9818H99.3463ZM89.2463 22.4437C89.6353 20.1437 90.9643 18.8438 93.1683 18.8438C95.2103 18.8438 96.4753 20.2357 96.5683 22.4437H89.2463Z" fill="#0059A9"/>
<path fill-rule="evenodd" clip-rule="evenodd" d="M120.741 9.40076H117.791L111.185 18.7349L104.637 9.40076H101.655V31.1948H104.832V14.8129H104.897L110.926 23.3699H111.444L117.499 14.8129H117.564V31.1938H120.741V9.39978V9.40076Z" fill="#0059A9"/>
<path fill-rule="evenodd" clip-rule="evenodd" d="M134.943 28.6028C134.508 28.9853 133.985 29.2524 133.42 29.3798C133.064 29.3798 132.869 29.1858 132.869 28.6358V21.1477C132.869 17.8417 130.536 16.3478 127.587 16.3478C126.685 16.2896 125.781 16.4373 124.944 16.7798C124.108 17.1223 123.36 17.6506 122.757 18.3248V21.4698C123.296 20.7522 123.989 20.1642 124.785 19.7489C125.581 19.3337 126.46 19.1016 127.357 19.0697C129.107 19.0697 129.984 19.8138 129.984 21.6288V22.4068L127.422 23.3158C125.088 24.1568 122.463 25.0338 122.463 27.9158C122.456 28.386 122.543 28.8529 122.72 29.2887C122.896 29.7246 123.159 30.1207 123.491 30.4533C123.824 30.7859 124.219 31.0484 124.655 31.2253C125.091 31.4021 125.558 31.4897 126.028 31.4828C127.468 31.4514 128.853 30.9244 129.95 29.9908C130.211 31.0278 130.891 31.4828 132.15 31.4828C133.058 31.4828 133.609 31.2228 134.937 30.3478V28.6028H134.943ZM129.985 28.2467C129.331 28.962 128.423 29.3929 127.455 29.4468C127.182 29.4595 126.91 29.4156 126.654 29.3179C126.399 29.2203 126.167 29.071 125.972 28.8793C125.778 28.6877 125.624 28.4578 125.523 28.2043C125.421 27.9507 125.373 27.6789 125.381 27.4058C125.381 25.6868 127.521 24.8458 129.981 24.0058V28.2529L129.985 28.2467Z" fill="#0059A9"/>
<path fill-rule="evenodd" clip-rule="evenodd" d="M139.029 9.40076H136.145V31.1948H139.029V9.40076Z" fill="#0059A9"/>
<path fill-rule="evenodd" clip-rule="evenodd" d="M149.043 16.6409H145.608L139.158 23.7728L146.451 31.1948H150.341L142.82 23.7728L149.043 16.6409Z" fill="#0059A9"/>
<path fill-rule="evenodd" clip-rule="evenodd" d="M161.906 26.9818C160.42 28.0557 158.649 28.6647 156.817 28.7318C154.029 28.7318 152.377 27.2418 151.923 24.3568H162.165C162.165 18.9748 159.702 16.3507 155.844 16.3507C151.824 16.3507 149.036 19.3327 149.036 23.7407C149.036 27.7617 151.566 31.4888 156.103 31.4888C158.173 31.5658 160.21 30.9616 161.903 29.7688V26.9818H161.906ZM151.988 22.4437C152.377 20.1437 153.706 18.8438 155.91 18.8438C157.951 18.8438 159.21 20.2357 159.31 22.4437H151.988Z" fill="#0059A9"/>
<path fill-rule="evenodd" clip-rule="evenodd" d="M163.842 16.6407V31.1958H166.727V23.5778C166.727 21.0778 168.282 19.1047 170.26 19.1047C171.289 19.2735 172.234 19.7747 172.95 20.5317L174.474 18.0317C173.585 17.0348 172.339 16.4288 171.005 16.3457C169.644 16.3457 168.25 17.4147 166.791 19.9757H166.727V16.6367L163.842 16.6407Z" fill="#0059A9"/>
</svg>
