<svg width="135" height="41" viewBox="0 0 135 41" fill="none" xmlns="http://www.w3.org/2000/svg">
<path d="M44.292 10.5486H51.292V17.4676H57.698V10.5486H64.698V31.5006H57.698V24.4846H51.296V31.5006H44.296V10.5486H44.292ZM73.912 17.4966H67.75V10.5486H87.086V17.4966H80.918V31.4966H73.918V17.4966H73.912ZM90.155 10.5486H97.455L101.947 17.9106L106.437 10.5486H113.742V31.5006H106.767V21.1156L101.949 28.5656H101.828L97.012 21.1156V31.5006H90.155V10.5486ZM117.227 10.5486H124.232V24.5756H134.08V31.5006H117.227V10.5486Z" fill="black"/>
<path d="M35.41 0.110596L32.184 36.2446L17.684 40.2646L3.223 36.2546L0 0.110596H35.41Z" fill="#E44D26"/>
<path d="M17.7051 37.1967L29.4221 33.9487L32.1791 3.06665H17.7051V37.1967Z" fill="#F16529"/>
<path d="M11.4341 11.9315H17.7051V7.50354H6.58911L6.69511 8.69254L7.78511 20.9085H17.7051V16.4755H11.8391L11.4341 11.9315ZM12.4341 23.1205H7.98411L8.60511 30.0805L17.6861 32.6015L17.7061 32.5955V27.9835L17.6871 27.9885L12.7501 26.6555L12.4341 23.1205Z" fill="#EBEBEB"/>
<path d="M17.6899 20.9036H23.1489L22.6339 26.6526L17.6899 27.9866V32.6036L26.7779 30.0846L26.8449 29.3356L27.8869 17.6646L27.9949 16.4746H17.6949V20.9036H17.6899ZM17.6899 11.9206V11.9316H28.4009L28.4899 10.9316L28.6899 8.68461L28.7959 7.49561H17.6959V11.9176L17.6899 11.9206Z" fill="white"/>
</svg>
