<svg width="175" height="51" viewBox="0 0 175 51" fill="none" xmlns="http://www.w3.org/2000/svg">
<path d="M18.89 8.89685V22.8649H6.07899V8.89685H0V42.2249H6.07899V28.7249H18.89V42.2249H25.006V8.89685H18.89Z" fill="#010202"/>
<path d="M44.474 31.4418C44.4721 32.1015 44.3401 32.7542 44.0854 33.3627C43.8308 33.9712 43.4585 34.5235 42.99 34.9878C42.0482 35.9281 40.7748 36.4609 39.444 36.4718C38.1129 36.4624 36.839 35.9294 35.8977 34.9882C34.9564 34.0469 34.4234 32.773 34.414 31.4418V17.1838H28.624V31.4418C28.624 34.3019 29.7602 37.0449 31.7826 39.0673C33.805 41.0897 36.5479 42.2258 39.408 42.2258C42.2681 42.2258 45.0111 41.0897 47.0335 39.0673C49.0559 37.0449 50.192 34.3019 50.192 31.4418V17.1838H44.438V31.4418H44.474Z" fill="#010202"/>
<path d="M87.248 18.6338C87.248 15.7028 89.202 14.7978 91.301 14.7978C93.001 14.7978 95.282 16.0978 96.729 17.6928L100.529 13.2418C99.4471 11.9295 98.0952 10.8656 96.5652 10.1225C95.0353 9.3795 93.3633 8.97474 91.663 8.93579C85.403 8.93579 80.879 12.5908 80.879 18.6698C80.879 29.9598 94.666 26.3778 94.666 32.6698C94.5886 33.6828 94.1246 34.6272 93.3702 35.3075C92.6157 35.9879 91.6285 36.3521 90.613 36.3248C87.213 36.3248 86.09 34.6598 84.534 32.8868L80.334 37.2288C81.4915 38.7736 82.9941 40.0264 84.7218 40.8872C86.4496 41.7481 88.3547 42.1931 90.285 42.1868C96.22 42.1868 101.033 38.4598 101.033 32.6698C101.033 20.1848 87.246 24.0568 87.246 18.6288" fill="#010202"/>
<path d="M172.541 36.8698C169.141 36.8698 168.162 35.3858 168.162 33.1428V23.1548H173.482V18.0888H168.162V11.3938L162.3 14.0358V34.4088C162.3 39.6198 165.883 42.2618 170.84 42.2618C171.616 42.2735 172.391 42.2129 173.156 42.0808L174.567 36.8338C173.952 36.8338 173.192 36.8698 172.541 36.8698Z" fill="#010202"/>
<path d="M66.4399 17.3288C65.1794 17.2778 63.9223 17.4931 62.7506 17.9607C61.5789 18.4284 60.5189 19.1378 59.6399 20.0428V9.07776H53.8469V29.4148C53.8469 37.0148 59.3469 42.2248 65.5349 42.2248C67.1984 42.2546 68.8515 41.9561 70.3996 41.3465C71.9476 40.7369 73.3603 39.8281 74.5568 38.6721C75.7534 37.516 76.7103 36.1354 77.3728 34.6093C78.0353 33.0831 78.3905 31.4413 78.4179 29.7778C78.4548 28.1724 78.1736 26.5756 77.5905 25.0793C77.0074 23.5831 76.134 22.2171 75.0206 21.06C73.9072 19.9028 72.5757 18.9775 71.1031 18.3373C69.6304 17.6971 68.0456 17.3547 66.4399 17.3298V17.3288ZM66.4039 36.4358C65.1055 36.4278 63.8379 36.0396 62.7576 35.3194C61.6773 34.5991 60.8316 33.5782 60.3249 32.3828C59.8315 31.1791 59.7056 29.8562 59.9632 28.5811C60.2207 27.3059 60.8501 26.1356 61.7719 25.2178C62.6932 24.2996 63.8629 23.6708 65.1369 23.4088C66.4122 23.1649 67.7306 23.2905 68.9369 23.7708C69.934 24.1847 70.8138 24.8379 71.4985 25.6726C72.1832 26.5072 72.6518 27.4977 72.8629 28.5565C73.0739 29.6153 73.0209 30.7097 72.7085 31.7431C72.3962 32.7766 71.8341 33.7172 71.0719 34.4818C69.8293 35.7155 68.1549 36.4164 66.4039 36.4358Z" fill="#010202"/>
<path d="M129.224 29.4878C129.2 27.8234 128.847 26.1801 128.185 24.6525C127.524 23.1249 126.567 21.743 125.37 20.5863C124.173 19.4296 122.759 18.5208 121.21 17.9122C119.661 17.3035 118.006 17.0071 116.342 17.0398C110.154 17.0398 104.654 22.2508 104.654 29.8498V50.1868H110.444V39.1868C111.314 40.0943 112.368 40.8058 113.535 41.2738C114.702 41.7418 115.955 41.9555 117.211 41.9008C118.817 41.8808 120.403 41.5432 121.877 40.9074C123.352 40.2717 124.686 39.3503 125.803 38.1965C126.919 37.0427 127.797 35.6792 128.384 34.1847C128.972 32.6902 129.257 31.0943 129.225 29.4888L129.224 29.4878ZM123.76 29.4158C123.752 30.7142 123.364 31.9818 122.644 33.0621C121.923 34.1424 120.902 34.9881 119.707 35.4948C118.503 35.9881 117.181 36.1139 115.905 35.8564C114.63 35.5988 113.46 34.9695 112.542 34.0478C111.624 33.1265 110.995 31.9568 110.733 30.6828C110.489 29.4075 110.615 28.0891 111.095 26.8828C111.683 25.4807 112.738 24.3251 114.081 23.6121C115.424 22.8991 116.972 22.6725 118.463 22.9707C119.954 23.2688 121.296 24.0735 122.262 25.2482C123.227 26.4229 123.756 27.8953 123.76 29.4158Z" fill="#010202"/>
<path d="M147.898 16.7498V10.9238C148.657 10.5553 149.306 9.9939 149.78 9.29583C150.236 8.5834 150.475 7.75371 150.468 6.90783V6.76282C150.47 6.17832 150.355 5.59928 150.132 5.05903C149.909 4.51877 149.582 4.02795 149.168 3.61481C148.33 2.78578 147.199 2.31899 146.02 2.31483H145.875C145.291 2.31333 144.711 2.4274 144.171 2.6505C143.631 2.87361 143.14 3.20133 142.727 3.61481C141.898 4.4533 141.431 5.5837 141.427 6.76282V6.90783C141.437 7.75123 141.675 8.57624 142.115 9.29583C142.579 10.003 143.23 10.5668 143.997 10.9238V16.7498C141.798 17.089 139.726 18.0001 137.99 19.3918L122.068 6.97982C122.184 6.56729 122.245 6.14128 122.249 5.71282C122.252 4.72255 121.962 3.75349 121.417 2.92683C120.875 2.09675 120.092 1.45252 119.173 1.08082C118.257 0.699731 117.248 0.599236 116.275 0.792061C115.302 0.984885 114.408 1.46235 113.706 2.16393C113.005 2.86551 112.527 3.75961 112.334 4.73287C112.141 5.70614 112.242 6.71474 112.623 7.63082C112.998 8.55427 113.638 9.34603 114.462 9.90626C115.287 10.4665 116.258 10.7701 117.255 10.7788C118.134 10.7696 118.995 10.5326 119.755 10.0908L135.46 22.2908C134.054 24.4252 133.322 26.9335 133.361 29.4893C133.4 32.045 134.207 34.53 135.677 36.6208L130.9 41.3978C130.512 41.2847 130.11 41.2238 129.706 41.2168C128.884 41.2223 128.081 41.4608 127.39 41.9048C126.715 42.3599 126.187 43.0012 125.87 43.7508C125.547 44.5038 125.471 45.3399 125.653 46.1388C125.804 46.9472 126.195 47.6913 126.775 48.2738C127.353 48.861 128.099 49.2533 128.91 49.3958C129.711 49.5417 130.537 49.4667 131.298 49.1788C132.054 48.8645 132.699 48.3314 133.151 47.6479C133.602 46.9645 133.839 46.1618 133.831 45.3428C133.824 44.9386 133.763 44.537 133.65 44.1488L138.35 39.4488C139.894 40.6312 141.686 41.4475 143.592 41.8362C145.497 42.2249 147.466 42.1759 149.35 41.6928C151.228 41.1908 152.971 40.2759 154.45 39.0148C155.926 37.748 157.091 36.1596 157.857 34.3717C158.622 32.5837 158.967 30.644 158.865 28.7018C158.764 26.7583 158.219 24.8637 157.272 23.1636C156.325 21.4636 155.001 20.0032 153.401 18.8948C151.744 17.7893 149.866 17.0574 147.898 16.7498ZM145.943 35.8568C144.657 35.8528 143.4 35.4755 142.324 34.7708C141.247 34.0613 140.413 33.0383 139.936 31.8398C139.438 30.6508 139.312 29.3389 139.574 28.0768C139.821 26.8163 140.439 25.658 141.347 24.7497C142.255 23.8413 143.414 23.2242 144.674 22.9768C145.937 22.7331 147.244 22.8588 148.437 23.3388C149.621 23.8404 150.638 24.6687 151.368 25.7268C152.025 26.7082 152.402 27.8498 152.46 29.0292C152.518 30.2087 152.254 31.3816 151.696 32.4225C151.138 33.4634 150.308 34.3331 149.294 34.9384C148.28 35.5437 147.121 35.8619 145.94 35.8588" fill="#EF785C"/>
</svg>
