<svg width="170" height="41" viewBox="0 0 170 41" fill="none" xmlns="http://www.w3.org/2000/svg">
<path d="M12.947 19.5296C12.9472 18.2494 13.327 16.9979 14.0385 15.9336C14.7499 14.8692 15.761 14.0397 16.9438 13.5499C18.1267 13.0602 19.4282 12.9322 20.6838 13.1822C21.9394 13.4321 23.0927 14.0488 23.9978 14.9542C24.9029 15.8596 25.5192 17.0131 25.7688 18.2688C26.0184 19.5244 25.89 20.8259 25.3999 22.0086C24.9098 23.1913 24.08 24.2022 23.0154 24.9133C21.9508 25.6244 20.6992 26.0038 19.419 26.0036C18.569 26.0035 17.7273 25.8359 16.942 25.5105C16.1567 25.1851 15.4432 24.7082 14.8422 24.107C14.2412 23.5058 13.7645 22.7922 13.4393 22.0068C13.1142 21.2214 12.9469 20.3796 12.947 19.5296ZM9.447 19.5296C9.447 21.5019 10.0318 23.4299 11.1276 25.0697C12.2233 26.7096 13.7807 27.9878 15.6029 28.7425C17.425 29.4973 19.4301 29.6948 21.3644 29.31C23.2988 28.9252 25.0757 27.9755 26.4703 26.5809C27.8649 25.1863 28.8146 23.4094 29.1994 21.475C29.5842 19.5407 29.3867 17.5356 28.6319 15.7135C27.8772 13.8913 26.599 12.3339 24.9591 11.2382C23.3193 10.1424 21.3913 9.5576 19.419 9.5576C18.1094 9.55746 16.8126 9.81531 15.6027 10.3164C14.3928 10.8175 13.2935 11.552 12.3674 12.478C11.4414 13.404 10.7069 14.5034 10.2058 15.7133C9.70471 16.9232 9.44687 18.22 9.447 19.5296ZM27.455 9.1626C27.4548 9.62343 27.5913 10.074 27.8471 10.4572C28.103 10.8405 28.4667 11.1393 28.8924 11.3159C29.3181 11.4924 29.7866 11.5387 30.2386 11.449C30.6906 11.3593 31.1059 11.1376 31.4319 10.8119C31.7578 10.4861 31.9799 10.0711 32.07 9.61914C32.1601 9.1672 32.1142 8.69869 31.938 8.27287C31.7619 7.84704 31.4634 7.48302 31.0803 7.22683C30.6973 6.97064 30.2468 6.83379 29.786 6.8336C29.1683 6.83386 28.576 7.07929 28.1391 7.51598C27.7022 7.95266 27.4565 8.5449 27.456 9.1626M11.574 35.3366C10.3426 35.3225 9.12278 35.0965 7.968 34.6686C7.12436 34.3568 6.36109 33.8603 5.734 33.2156C5.08834 32.59 4.59173 31.8272 4.281 30.9836C3.85291 29.8289 3.62694 28.609 3.613 27.3776C3.519 25.3306 3.5 24.7156 3.5 19.5296C3.5 14.3436 3.52 13.7296 3.613 11.6816C3.62846 10.4503 3.85439 9.23072 4.281 8.0756C4.59294 7.23232 5.08937 6.4694 5.734 5.8426C6.36 5.19652 7.1236 4.69988 7.968 4.3896C9.12272 3.96151 10.3426 3.73554 11.574 3.7216C13.621 3.6276 14.236 3.6086 19.419 3.6086C24.602 3.6086 25.219 3.6286 27.267 3.7216C28.4983 3.73706 29.7179 3.96298 30.873 4.3896C31.7169 4.70083 32.4803 5.19734 33.107 5.8426C33.7523 6.46927 34.2488 7.23267 34.56 8.0766C34.9881 9.23132 35.2141 10.4512 35.228 11.6826C35.322 13.7316 35.341 14.3446 35.341 19.5306C35.341 24.7166 35.322 25.3306 35.228 27.3786C35.2131 28.6099 34.9871 29.8296 34.56 30.9846C34.2369 31.8221 33.742 32.5826 33.1071 33.2173C32.4723 33.852 31.7116 34.3467 30.874 34.6696C29.7193 35.0977 28.4994 35.3237 27.268 35.3376C25.221 35.4316 24.606 35.4506 19.42 35.4506C14.234 35.4506 13.62 35.4316 11.575 35.3376M11.413 0.228596C9.80206 0.259725 8.2081 0.564046 6.699 1.1286C5.40315 1.61636 4.22923 2.38078 3.259 3.3686C2.27037 4.33874 1.50614 5.51358 1.02 6.8106C0.455544 8.31972 0.151226 9.91367 0.12 11.5246C0.022 13.5946 0 14.2566 0 19.5296C0 24.8026 0.022 25.4656 0.118 27.5356C0.149206 29.1465 0.453525 30.7405 1.018 32.2496C1.50484 33.5459 2.26938 34.72 3.258 35.6896C4.2287 36.6768 5.40249 37.4412 6.698 37.9296C8.20716 38.4939 9.80109 38.7982 11.412 38.8296C13.484 38.9236 14.145 38.9476 19.418 38.9476C24.691 38.9476 25.354 38.9256 27.424 38.8296C29.0349 38.7984 30.6289 38.4941 32.138 37.9296C33.4282 37.4308 34.6 36.6678 35.5781 35.6897C36.5562 34.7116 37.3192 33.5398 37.818 32.2496C38.3833 30.7407 38.6876 29.1466 38.718 27.5356C38.812 25.4636 38.834 24.8026 38.834 19.5296C38.834 14.2566 38.812 13.5936 38.718 11.5236C38.6869 9.91266 38.3825 8.31869 37.818 6.8096C37.3295 5.51411 36.5652 4.34033 35.578 3.3696C34.6088 2.38175 33.4354 1.6176 32.14 1.1306C30.631 0.565709 29.037 0.261377 27.426 0.230596C25.356 0.133596 24.694 0.110596 19.421 0.110596C14.148 0.110596 13.485 0.132596 11.413 0.228596Z" fill="url(#paint0_radial_1_1254)"/>
<path d="M12.947 19.5296C12.9472 18.2494 13.327 16.9979 14.0385 15.9336C14.7499 14.8692 15.761 14.0397 16.9438 13.5499C18.1267 13.0602 19.4282 12.9322 20.6838 13.1822C21.9394 13.4321 23.0927 14.0488 23.9978 14.9542C24.9029 15.8596 25.5192 17.0131 25.7688 18.2688C26.0184 19.5244 25.89 20.8259 25.3999 22.0086C24.9098 23.1913 24.08 24.2022 23.0154 24.9133C21.9508 25.6244 20.6992 26.0038 19.419 26.0036C18.569 26.0035 17.7273 25.8359 16.942 25.5105C16.1567 25.1851 15.4432 24.7082 14.8422 24.107C14.2412 23.5058 13.7645 22.7922 13.4393 22.0068C13.1142 21.2214 12.9469 20.3796 12.947 19.5296ZM9.447 19.5296C9.447 21.5019 10.0318 23.4299 11.1276 25.0697C12.2233 26.7096 13.7807 27.9878 15.6029 28.7425C17.425 29.4973 19.4301 29.6948 21.3644 29.31C23.2988 28.9252 25.0757 27.9755 26.4703 26.5809C27.8649 25.1863 28.8146 23.4094 29.1994 21.475C29.5842 19.5407 29.3867 17.5356 28.6319 15.7135C27.8772 13.8913 26.599 12.3339 24.9591 11.2382C23.3193 10.1424 21.3913 9.5576 19.419 9.5576C18.1094 9.55746 16.8126 9.81531 15.6027 10.3164C14.3928 10.8175 13.2935 11.552 12.3674 12.478C11.4414 13.404 10.7069 14.5034 10.2058 15.7133C9.70471 16.9232 9.44687 18.22 9.447 19.5296ZM27.455 9.1626C27.4548 9.62343 27.5913 10.074 27.8471 10.4572C28.103 10.8405 28.4667 11.1393 28.8924 11.3159C29.3181 11.4924 29.7866 11.5387 30.2386 11.449C30.6906 11.3593 31.1059 11.1376 31.4319 10.8119C31.7578 10.4861 31.9799 10.0711 32.07 9.61914C32.1601 9.1672 32.1142 8.69869 31.938 8.27287C31.7619 7.84704 31.4634 7.48302 31.0803 7.22683C30.6973 6.97064 30.2468 6.83379 29.786 6.8336C29.1683 6.83386 28.576 7.07929 28.1391 7.51598C27.7022 7.95266 27.4565 8.5449 27.456 9.1626M11.574 35.3366C10.3426 35.3225 9.12278 35.0965 7.968 34.6686C7.12436 34.3568 6.36109 33.8603 5.734 33.2156C5.08834 32.59 4.59173 31.8272 4.281 30.9836C3.85291 29.8289 3.62694 28.609 3.613 27.3776C3.519 25.3306 3.5 24.7156 3.5 19.5296C3.5 14.3436 3.52 13.7296 3.613 11.6816C3.62846 10.4503 3.85439 9.23072 4.281 8.0756C4.59294 7.23232 5.08937 6.4694 5.734 5.8426C6.36 5.19652 7.1236 4.69988 7.968 4.3896C9.12272 3.96151 10.3426 3.73554 11.574 3.7216C13.621 3.6276 14.236 3.6086 19.419 3.6086C24.602 3.6086 25.219 3.6286 27.267 3.7216C28.4983 3.73706 29.7179 3.96298 30.873 4.3896C31.7169 4.70083 32.4803 5.19734 33.107 5.8426C33.7523 6.46927 34.2488 7.23267 34.56 8.0766C34.9881 9.23132 35.2141 10.4512 35.228 11.6826C35.322 13.7316 35.341 14.3446 35.341 19.5306C35.341 24.7166 35.322 25.3306 35.228 27.3786C35.2131 28.6099 34.9871 29.8296 34.56 30.9846C34.2369 31.8221 33.742 32.5826 33.1071 33.2173C32.4723 33.852 31.7116 34.3467 30.874 34.6696C29.7193 35.0977 28.4994 35.3237 27.268 35.3376C25.221 35.4316 24.606 35.4506 19.42 35.4506C14.234 35.4506 13.62 35.4316 11.575 35.3376M11.413 0.228596C9.80206 0.259725 8.2081 0.564046 6.699 1.1286C5.40315 1.61636 4.22923 2.38078 3.259 3.3686C2.27037 4.33874 1.50614 5.51358 1.02 6.8106C0.455544 8.31972 0.151226 9.91367 0.12 11.5246C0.022 13.5946 0 14.2566 0 19.5296C0 24.8026 0.022 25.4656 0.118 27.5356C0.149206 29.1465 0.453525 30.7405 1.018 32.2496C1.50484 33.5459 2.26938 34.72 3.258 35.6896C4.2287 36.6768 5.40249 37.4412 6.698 37.9296C8.20716 38.4939 9.80109 38.7982 11.412 38.8296C13.484 38.9236 14.145 38.9476 19.418 38.9476C24.691 38.9476 25.354 38.9256 27.424 38.8296C29.0349 38.7984 30.6289 38.4941 32.138 37.9296C33.4282 37.4308 34.6 36.6678 35.5781 35.6897C36.5562 34.7116 37.3192 33.5398 37.818 32.2496C38.3833 30.7407 38.6876 29.1466 38.718 27.5356C38.812 25.4636 38.834 24.8026 38.834 19.5296C38.834 14.2566 38.812 13.5936 38.718 11.5236C38.6869 9.91266 38.3825 8.31869 37.818 6.8096C37.3295 5.51411 36.5652 4.34033 35.578 3.3696C34.6088 2.38175 33.4354 1.6176 32.14 1.1306C30.631 0.565709 29.037 0.261377 27.426 0.230596C25.356 0.133596 24.694 0.110596 19.421 0.110596C14.148 0.110596 13.485 0.132596 11.413 0.228596Z" fill="url(#paint1_radial_1_1254)"/>
<path d="M57.845 7.78751C58.4429 7.52201 59.1086 7.44939 59.7497 7.57968C60.3907 7.70997 60.9753 8.03669 61.4221 8.5145C61.4481 14.2905 61.4821 20.0655 61.3811 25.8415C61.3381 28.0415 60.8551 30.5265 58.998 31.9325C58.5136 32.3231 57.9072 32.5305 57.2851 32.5185C57.6604 31.1218 57.9252 29.6977 58.0771 28.2595C58.2011 24.4265 58.1031 20.5895 58.1581 16.7595C58.2631 14.3435 58.2581 11.9215 58.2181 9.50253C57.22 10.1328 56.4522 11.0686 56.0291 12.1705C55.1365 13.9596 54.826 15.9831 55.1411 17.9575C55.2891 18.9815 56.0571 19.7665 56.2701 20.7695C54.8201 20.9635 53.6121 19.8575 52.8801 18.7285C52.4673 17.9254 52.2483 17.0368 52.2405 16.1338C52.2326 15.2309 52.4363 14.3387 52.8351 13.5285C53.7725 11.083 55.548 9.04983 57.845 7.79153V7.78751Z" fill="#253858"/>
<path d="M90.374 7.52664C91.4581 7.4665 92.5377 7.70661 93.494 8.22061C93.5772 9.57319 93.5635 10.93 93.453 12.2806C94.9786 12.314 96.5015 12.4241 98.016 12.6106C98.0155 13.2657 97.8475 13.9098 97.528 14.4817C96.157 14.5007 94.784 14.5296 93.413 14.5346C93.231 17.9006 93.123 21.2766 93.183 24.6506C93.283 25.7506 93.37 27.1416 94.501 27.6816C95.3709 27.1338 96.0827 26.3684 96.566 25.4611C97.0494 24.5539 97.2876 23.5362 97.257 22.5086C97.288 20.0276 97.977 17.3436 99.908 15.6516C100.362 15.2932 100.893 15.0465 101.459 14.9313C102.026 14.8161 102.612 14.8358 103.169 14.9886C103.923 15.2793 104.598 15.7431 105.14 16.3426C105.162 16.1246 105.205 15.6917 105.226 15.4767C105.744 15.3559 106.281 15.3419 106.804 15.4358C107.327 15.5297 107.826 15.7294 108.269 16.0226C108.109 18.5806 108.075 21.1446 108.08 23.7076C108.016 24.97 108.198 26.2329 108.616 27.4256C108.692 27.5676 108.801 27.69 108.932 27.7834C109.064 27.8767 109.215 27.9385 109.374 27.964C109.533 27.9894 109.696 27.9778 109.85 27.93C110.004 27.8823 110.145 27.7997 110.262 27.6886C110.608 27.3589 110.874 26.9545 111.039 26.5063C111.205 26.0581 111.266 25.578 111.217 25.1026C110.815 22.3524 111.298 19.5457 112.595 17.0876C112.912 16.4309 113.407 15.8765 114.024 15.4875C114.64 15.0985 115.354 14.8907 116.083 14.8876C116.671 14.8721 117.252 15.0119 117.769 15.2928C118.286 15.5737 118.719 15.9858 119.026 16.4876C119.11 16.1576 119.004 15.7146 119.282 15.4736C119.729 15.3577 120.194 15.3345 120.65 15.4054C121.106 15.4762 121.543 15.6397 121.933 15.8856C122.191 16.1966 122.096 16.6276 122.115 17.0006C121.964 20.0296 122 23.0636 122.01 26.0946C123.627 23.8788 124.809 21.3757 125.491 18.7187C125.171 18.4568 124.923 18.1182 124.77 17.7346C124.616 17.351 124.562 16.9347 124.613 16.5246C124.635 16.1711 124.744 15.8284 124.931 15.5275C125.118 15.2265 125.377 14.9766 125.684 14.8001C125.991 14.6235 126.337 14.5259 126.691 14.5158C127.045 14.5058 127.396 14.5838 127.713 14.7426C128.419 15.1856 128.17 16.0896 128.213 16.7836C129.369 16.6636 130.488 16.3246 131.644 16.2096C131.876 16.1823 132.112 16.2106 132.331 16.2921C132.551 16.3736 132.747 16.506 132.906 16.6784C133.064 16.8508 133.179 17.0583 133.241 17.2838C133.303 17.5094 133.311 17.7465 133.264 17.9756C132.728 20.7146 131.95 23.5526 132.647 26.3426C132.841 26.9646 133.114 27.7977 133.836 27.9507C135.051 28.1417 135.719 26.6926 135.669 25.6756C135.291 22.7186 135.399 19.4756 137.069 16.8976C137.396 16.2743 137.892 15.756 138.501 15.4022C139.11 15.0484 139.806 14.8735 140.509 14.8976C141.064 14.9141 141.609 15.0519 142.105 15.3012C142.602 15.5504 143.037 15.9052 143.382 16.3406C143.425 16.0406 143.471 15.7406 143.518 15.4406C144.518 15.2625 145.549 15.4457 146.427 15.9576C146.461 19.1736 146.198 22.3936 146.403 25.6086C146.45 26.4357 146.7 27.2385 147.13 27.9466C147.587 27.8936 148.156 28.0616 148.489 27.6466C149.253 26.7267 149.742 25.6093 149.898 24.4236C150.054 21.3326 149.805 18.2176 150.142 15.1356C151.039 15.1555 151.93 15.293 152.791 15.5446C153.248 17.3626 152.836 19.2646 153.057 21.1166C153.522 19.4251 154.102 17.7672 154.792 16.1546C155.017 15.6546 155.378 15.0156 156.036 15.1306C157.144 15.1186 158.589 15.7456 158.594 17.0306C158.649 19.1986 158.709 21.3686 158.979 23.5216C159.391 20.9721 160.11 18.4817 161.12 16.1046C161.32 15.7266 161.491 15.1667 162.01 15.1667C162.63 15.1293 163.249 15.245 163.813 15.5036C164.377 15.7623 164.869 16.1558 165.245 16.6496C165.159 19.7146 164.819 22.8056 165.307 25.8556C165.339 26.2449 165.452 26.6231 165.639 26.966C165.826 27.3089 166.083 27.6089 166.393 27.8466C166.936 28.0646 167.393 27.5466 167.613 27.1166C167.945 26.2808 168.21 25.4201 168.407 24.5426C168.551 24.4896 168.838 24.3796 168.981 24.3276L169.373 24.8536C169.306 26.5476 168.906 28.5096 167.414 29.5236C165.632 30.4856 163.473 29.1236 162.935 27.3236C162.048 24.4816 162.335 21.4426 162.32 18.5076C160.888 21.4679 160.092 24.6952 159.983 27.9817C160.04 28.6947 159.17 28.7397 158.66 28.7137C158.252 28.6947 157.86 28.5466 157.541 28.2907C157.222 28.0348 156.992 27.6843 156.885 27.2896C156.091 24.5096 156.258 21.5896 155.921 18.7406C155.156 19.8743 154.601 21.1359 154.282 22.4656C153.55 24.7656 153.648 27.2056 153.497 29.5856C152.967 29.7984 152.394 29.8848 151.825 29.838C151.256 29.7911 150.705 29.6123 150.217 29.3156C150.063 28.7277 149.978 28.1235 149.966 27.5157C149.708 28.264 149.238 28.9214 148.614 29.4086C148.025 29.7526 147.337 29.8858 146.662 29.7862C145.988 29.6865 145.367 29.3601 144.903 28.8606C144.418 28.2938 144.071 27.6222 143.889 26.8986C143.494 27.881 142.773 28.6978 141.848 29.2126C140.922 29.7273 139.848 29.9088 138.805 29.7267C137.725 29.3852 136.816 28.643 136.266 27.6526C136.065 28.1412 135.761 28.5805 135.374 28.9399C134.987 29.2994 134.526 29.5705 134.024 29.7346C133.352 29.8559 132.659 29.7786 132.03 29.5122C131.401 29.2458 130.864 28.8018 130.483 28.2346C129.679 26.9498 129.289 25.4484 129.368 23.9346C129.384 22.1281 129.611 20.3297 130.043 18.5757C129.258 18.5897 128.474 18.6116 127.689 18.6256C126.489 22.0532 124.683 25.2372 122.356 28.0256C121.921 28.4756 122.045 29.1256 122.05 29.6906C122.278 32.0953 122.083 34.5214 121.473 36.8586C121.088 38.1751 120.206 39.29 119.013 39.9666C118.216 40.3878 117.311 40.5634 116.414 40.4714C115.517 40.3794 114.667 40.0239 113.972 39.4496C113.414 38.895 113.056 38.1711 112.953 37.3911C112.85 36.6112 113.008 35.819 113.403 35.1386C114.788 32.5906 117.288 30.9616 119.274 28.9256C119.267 28.4666 119.262 28.0066 119.262 27.5476C118.787 28.3182 118.102 28.9368 117.287 29.3307C116.472 29.7246 115.561 29.8772 114.662 29.7706C114.061 29.6238 113.5 29.3487 113.015 28.9643C112.531 28.5799 112.135 28.0953 111.856 27.5436C111.622 28.2005 111.192 28.7702 110.625 29.1767C110.059 29.5832 109.381 29.8071 108.684 29.8186C107.926 29.7542 107.212 29.4322 106.662 28.9061C106.112 28.38 105.758 27.6814 105.66 26.9266C105.192 27.9183 104.431 28.7425 103.48 29.2876C102.834 29.673 102.089 29.86 101.337 29.8255C100.585 29.791 99.8603 29.5366 99.252 29.0937C98.3684 28.283 97.7408 27.2319 97.446 26.0696C97.0082 27.4283 96.1503 28.6128 94.996 29.4526C94.4394 29.7698 93.7905 29.8855 93.1586 29.78C92.5267 29.6745 91.9504 29.3544 91.527 28.8736C90.376 27.6866 90.17 25.9576 89.879 24.4066C89.2551 26.2654 88.039 27.8682 86.417 28.9696C85.4557 29.5022 84.3867 29.8115 83.2895 29.8745C82.1923 29.9375 81.095 29.7527 80.079 29.3336C79.634 29.1206 79.019 28.8576 79.002 28.2856C79.0594 27.9092 79.1948 27.549 79.3995 27.228C79.6043 26.907 79.8739 26.6323 80.191 26.4216C81.28 26.3926 81.945 27.6686 83.076 27.6216C84.276 27.5806 84.729 26.1286 84.464 25.1356C84.064 23.4536 82.485 22.5016 81.364 21.3246C80.164 23.2246 79.094 25.2026 77.837 27.0686C77.1152 28.2514 76.0493 29.1854 74.782 29.7456C74.3779 29.8879 73.9364 29.8826 73.5358 29.7307C73.1352 29.5788 72.8012 29.2901 72.593 28.9156C71.793 27.3056 71.935 25.4466 71.933 23.7026C71.926 21.6286 72.191 19.5616 72.133 17.4866C70.7669 18.9379 69.7198 20.6592 69.059 22.5396C68.1643 24.8647 67.5398 27.2849 67.198 29.7527C66.407 29.9408 65.5757 29.8584 64.837 29.5186C64.3157 28.7147 64.1026 27.7493 64.237 26.8006C64.273 22.9176 64.199 19.0296 64.328 15.1486C65.3086 15.076 66.2888 15.2941 67.146 15.7756C67.191 18.0936 67.055 20.4146 67.187 22.7326C67.7545 20.533 68.6991 18.4484 69.979 16.5716C70.2931 16.0728 70.7457 15.6762 71.2815 15.4304C71.8173 15.1847 72.4131 15.1003 72.996 15.1877C73.7211 15.4174 74.3852 15.8074 74.939 16.3286C75.2362 16.8193 75.3529 17.3982 75.269 17.9656C75.183 20.8656 74.795 23.8156 75.307 26.6956C75.398 26.7766 75.58 26.9346 75.671 27.0166C76.2825 26.624 76.7937 26.0939 77.164 25.4687C78.238 23.7607 79.253 22.0086 80.157 20.2026C79.8618 19.858 79.6429 19.4547 79.5148 19.0194C79.3867 18.584 79.3523 18.1265 79.4138 17.6769C79.4753 17.2273 79.6314 16.7959 79.8717 16.4109C80.112 16.026 80.4311 15.6963 80.808 15.4436C81.2143 15.1814 81.6686 15.0022 82.1445 14.9163C82.6205 14.8305 83.1087 14.8398 83.581 14.9436C83.772 15.1326 83.966 15.3236 84.16 15.5126C84.38 17.0126 83.437 18.2806 82.614 19.4266C84.05 20.5966 85.765 21.4966 86.863 23.0266C87.3953 23.9198 87.6214 24.9622 87.507 25.9956C88.7851 24.7466 89.6045 23.103 89.833 21.3307C89.874 19.0387 89.852 16.7486 89.886 14.4596C88.678 14.4306 87.47 14.4026 86.264 14.3276C86.2119 13.5592 86.3328 12.789 86.618 12.0736C87.766 12.0426 88.912 12.0906 90.061 12.1426C90.0323 10.5965 90.137 9.05074 90.374 7.52261V7.52664Z" fill="#253858"/>
<path d="M102.858 17.1925C103.271 17.1901 103.674 17.3203 104.008 17.5641C104.342 17.8078 104.589 18.1522 104.712 18.5465C105.278 20.4922 105.332 22.551 104.868 24.5235C104.695 25.7698 104.053 26.9032 103.074 27.6935C102.808 27.8708 102.484 27.9414 102.168 27.8914C101.852 27.8414 101.567 27.6744 101.368 27.4235C100.61 26.2531 100.259 24.8656 100.368 23.4755C100.239 21.6888 100.577 19.8993 101.351 18.2835C101.507 18.0018 101.723 17.758 101.984 17.5694C102.245 17.3808 102.545 17.2521 102.861 17.1925H102.858Z" fill="white"/>
<path d="M114.348 21.5516C114.575 19.8146 115.085 17.6066 117.042 17.1066C117.542 17.3296 118.167 17.4586 118.425 17.9966C118.947 19.4904 119.146 21.0781 119.008 22.6545C118.87 24.231 118.399 25.7601 117.625 27.1406C117.507 27.3423 117.344 27.5139 117.148 27.6414C116.953 27.769 116.73 27.849 116.498 27.8752C116.266 27.9015 116.031 27.8731 115.811 27.7924C115.592 27.7117 115.395 27.581 115.235 27.4106C114.06 25.7216 114.185 23.5106 114.347 21.5516H114.348Z" fill="white"/>
<path d="M141.26 17.2665C141.623 17.2532 141.98 17.3603 142.276 17.571C142.572 17.7816 142.79 18.0842 142.896 18.4315C143.357 19.8189 143.513 21.2892 143.355 22.7425C143.317 24.2437 142.885 25.7085 142.101 26.9895C141.658 27.6135 140.807 28.2125 140.039 27.7765C139.624 27.4182 139.29 26.9755 139.06 26.478C138.83 25.9805 138.709 25.4396 138.704 24.8915C138.469 22.9474 138.637 20.9758 139.197 19.0995C139.518 18.2075 140.176 17.1735 141.259 17.2665H141.26Z" fill="white"/>
<path d="M116.282 34.6596C117.217 33.3129 118.333 32.1015 119.598 31.0596C119.134 32.6696 119.519 34.3806 119.134 36.0096C118.892 37.1026 118.679 38.5166 117.502 38.9926C117.297 39.0952 117.073 39.1523 116.844 39.16C116.615 39.1677 116.387 39.1258 116.175 39.0372C115.964 38.9486 115.774 38.8153 115.619 38.6466C115.464 38.4779 115.348 38.2776 115.277 38.0596C115.212 37.4549 115.267 36.8434 115.438 36.2599C115.61 35.6765 115.895 35.1327 116.277 34.6596H116.282Z" fill="white"/>
<defs>
<radialGradient id="paint0_radial_1_1254" cx="0" cy="0" r="1" gradientUnits="userSpaceOnUse" gradientTransform="translate(5.16492 -38.9316) scale(50.6784 50.6823)">
<stop offset="0.09" stop-color="#FA8F21"/>
<stop offset="0.78" stop-color="#D82D7E"/>
</radialGradient>
<radialGradient id="paint1_radial_1_1254" cx="0" cy="0" r="1" gradientUnits="userSpaceOnUse" gradientTransform="translate(23.5334 -40.7683) scale(39.9602 39.9633)">
<stop offset="0.64" stop-color="#8C3AAA" stop-opacity="0"/>
<stop offset="1" stop-color="#8C3AAA"/>
</radialGradient>
</defs>
</svg>
