<svg width="201" height="27" viewBox="0 0 201 27" fill="none" xmlns="http://www.w3.org/2000/svg">
<path d="M37.6006 3.87354H40.3176V17.7025C40.3176 21.3485 38.7006 23.8945 34.9516 23.8945C33.842 23.8939 32.7394 23.7198 31.6836 23.3785V20.7295C32.5844 21.0727 33.5406 21.2476 34.5046 21.2455C36.8046 21.2455 37.6046 19.8695 37.6046 17.8745L37.6006 3.87354Z" fill="#253858"/>
<path d="M45.2715 2.80261H45.4095C45.8564 2.80341 46.2848 2.98129 46.6008 3.2973C46.9168 3.61332 47.0947 4.04169 47.0955 4.4886V4.6266C47.0955 5.11022 46.9034 5.57404 46.5614 5.91602C46.2194 6.25799 45.7556 6.4501 45.272 6.4501C44.7884 6.4501 44.3245 6.25799 43.9826 5.91602C43.6406 5.57404 43.4485 5.11022 43.4485 4.6266V4.4886C43.4493 4.04169 43.6272 3.61332 43.9432 3.2973C44.2592 2.98129 44.6876 2.80341 45.1345 2.80261H45.2715ZM43.9645 8.61661H46.5795V23.7526H43.9645V8.61661Z" fill="#253858"/>
<path d="M50.5005 8.62057H53.0495V11.2696C53.9435 9.48057 55.4575 8.20757 58.4155 8.37957V10.9206C55.0785 10.5766 53.0495 11.5736 53.0495 14.8076V23.7516H50.5045L50.5005 8.62057Z" fill="#253858"/>
<path d="M70.5906 21.0386C70.1335 21.9952 69.4018 22.7941 68.4889 23.3332C67.5759 23.8723 66.5231 24.1273 65.4646 24.0656C61.4396 24.0656 59.4106 20.6596 59.4106 16.1876C59.4106 11.9226 61.5436 8.3106 65.7746 8.3106C66.783 8.25511 67.7843 8.50855 68.6448 9.03709C69.5054 9.56563 70.1842 10.3441 70.5906 11.2686V8.61959H73.2046V23.7556H70.5906V21.0386ZM66.1526 21.6236C68.4916 21.6236 70.5906 20.1446 70.5906 16.7736V15.5736C70.5906 12.2026 68.6986 10.7236 66.4626 10.7236C63.5386 10.7236 62.0246 12.6496 62.0246 16.1586C62.0246 19.8396 63.4696 21.6286 66.1526 21.6286V21.6236Z" fill="#253858"/>
<path d="M88.5816 24.0666C86.0896 24.2039 83.6064 23.6693 81.3916 22.5186V19.7326C83.6808 20.821 86.1839 21.3851 88.7186 21.3836C91.7116 21.3836 92.8466 20.2136 92.8466 18.4596C92.8466 16.7056 91.7466 15.7766 87.9616 14.8476C83.4896 13.7476 81.4946 12.1986 81.4946 8.93064C81.4946 5.83064 83.8686 3.53065 88.4776 3.53065C90.5996 3.46277 92.7014 3.96154 94.5666 4.97564V7.69364C92.6741 6.6471 90.5365 6.12478 88.3746 6.18064C85.7596 6.18064 84.2116 7.07463 84.2116 8.89763C84.2116 10.5486 85.4846 11.3396 88.9936 12.2346C93.1936 13.3006 95.5636 14.6426 95.5636 18.2206C95.5986 21.7266 93.5346 24.0666 88.5816 24.0666Z" fill="#253858"/>
<path d="M97.9055 16.1535C97.9055 11.6125 100.555 8.31055 105.096 8.31055C109.637 8.31055 112.251 11.6105 112.251 16.1535C112.251 20.6965 109.602 24.0655 105.096 24.0655C100.59 24.0655 97.9055 20.6995 97.9055 16.1535ZM100.452 16.1535C100.452 19.0435 101.862 21.6235 105.096 21.6235C108.33 21.6235 109.706 19.0085 109.706 16.1535C109.706 13.2985 108.33 10.7535 105.096 10.7535C101.862 10.7535 100.452 13.2645 100.452 16.1535Z" fill="#253858"/>
<path d="M118.853 8.62261H122.775V11.0306H118.853V23.7586H116.308V11.0286H113.865V8.62261H116.308V6.9716C116.308 4.1506 117.89 2.25859 121.124 2.25859C121.718 2.2542 122.308 2.33538 122.878 2.4996V4.90759C122.334 4.81046 121.781 4.76426 121.227 4.76959C120.911 4.72983 120.59 4.76106 120.287 4.86098C119.984 4.9609 119.707 5.12701 119.477 5.34726C119.246 5.56751 119.068 5.83637 118.954 6.13429C118.84 6.43221 118.794 6.75171 118.819 7.0696L118.853 8.62261Z" fill="#253858"/>
<path d="M131.582 21.2106C132.137 21.1928 132.69 21.1239 133.233 21.0046V23.5156C132.663 23.68 132.072 23.7612 131.479 23.7566C128.245 23.7566 126.663 21.8646 126.663 19.0436V11.0286H124.186V8.62059H126.629V5.3866H129.175V8.58659H133.2V10.9946H129.175V18.9406C129.155 19.2556 129.206 19.571 129.322 19.8644C129.438 20.1578 129.617 20.4221 129.847 20.6386C130.077 20.8552 130.351 21.0186 130.651 21.1174C130.95 21.2163 131.268 21.2481 131.582 21.2106Z" fill="#253858"/>
<path d="M133.956 8.62061H136.846L141.215 21.4516L145.615 8.62061H148.092L152.53 21.4516L156.864 8.62061H159.754L154.18 23.7566H150.843L148.228 16.4296L146.852 11.7856L145.476 16.4296L142.827 23.7566H139.49L133.956 8.62061Z" fill="#253858"/>
<path d="M171.624 21.0386C171.167 21.9951 170.435 22.7938 169.522 23.3329C168.61 23.872 167.557 24.1271 166.499 24.0656C162.474 24.0656 160.444 20.6596 160.444 16.1876C160.444 11.9226 162.577 8.3106 166.808 8.3106C167.816 8.25511 168.817 8.50855 169.678 9.03709C170.538 9.56563 171.217 10.3441 171.624 11.2686V8.61959H174.239V23.7556H171.624V21.0386ZM167.224 21.6236C169.563 21.6236 171.662 20.1446 171.662 16.7736V15.5736C171.662 12.2026 169.77 10.7236 167.534 10.7236C164.575 10.7576 163.062 12.6836 163.062 16.1926C163.062 19.8396 164.507 21.6286 167.225 21.6286L167.224 21.6236Z" fill="#253858"/>
<path d="M178.16 8.62057H180.703V11.2696C181.563 9.48057 183.111 8.20757 186.069 8.37957V10.9206C182.732 10.5766 180.703 11.5736 180.703 14.8076V23.7516H178.156L178.16 8.62057Z" fill="#253858"/>
<path d="M195.257 24.0655C189.581 24.0655 187.104 20.7975 187.104 16.1535C187.104 11.5785 189.649 8.31055 194.259 8.31055C198.903 8.31055 200.795 11.5435 200.795 16.1535V17.3225H189.752C190.13 19.9025 191.781 21.5535 195.359 21.5535C196.933 21.5561 198.495 21.2764 199.969 20.7275V23.1355C198.489 23.7984 196.878 24.1161 195.257 24.0645V24.0655ZM189.718 15.1215H198.146C198.009 12.3005 196.736 10.6835 194.121 10.6835C191.369 10.6835 189.993 12.4725 189.721 15.1215H189.718Z" fill="#253858"/>
<path d="M24.9086 13.0926L13.6926 1.87857L12.5926 0.778564L4.16463 9.20657L0.308628 13.0926C0.211071 13.1859 0.133432 13.2981 0.080389 13.4222C0.0273464 13.5464 0 13.68 0 13.8151C0 13.9501 0.0273464 14.0837 0.080389 14.2079C0.133432 14.3321 0.211071 14.4442 0.308628 14.5376L12.6236 26.8526L21.0516 18.4246L21.1896 18.2866L24.9046 14.5366C25.0023 14.4435 25.0801 14.3316 25.1334 14.2077C25.1867 14.0838 25.2144 13.9503 25.2147 13.8154C25.2151 13.6805 25.1882 13.5469 25.1356 13.4227C25.083 13.2985 25.0058 13.1862 24.9086 13.0926ZM12.5916 17.6676L8.73863 13.8146L12.5916 9.96156L16.4446 13.8146L12.5916 17.6676Z" fill="#2684FF"/>
<path d="M12.5916 9.96152C11.3885 8.74485 10.7108 7.10459 10.7045 5.39348C10.6981 3.68237 11.3635 2.0371 12.5576 0.811523L4.12964 9.23952L8.70464 13.8145L12.5916 9.96152Z" fill="url(#paint0_linear_1_1345)"/>
<path d="M16.4796 13.7805L12.5916 17.6675C13.8032 18.8818 14.4837 20.5271 14.4837 22.2425C14.4837 23.9579 13.8032 25.6032 12.5916 26.8175L21.0536 18.3545L16.4796 13.7805Z" fill="url(#paint1_linear_1_1345)"/>
<defs>
<linearGradient id="paint0_linear_1_1345" x1="-450.711" y1="193.971" x2="-450.305" y2="193.971" gradientUnits="userSpaceOnUse">
<stop stop-color="#0052CC"/>
<stop offset="0.18" stop-color="#0052CC"/>
<stop offset="1" stop-color="#2684FF"/>
</linearGradient>
<linearGradient id="paint1_linear_1_1345" x1="-464.521" y1="275.107" x2="-464.115" y2="275.107" gradientUnits="userSpaceOnUse">
<stop stop-color="#0052CC"/>
<stop offset="0.18" stop-color="#0052CC"/>
<stop offset="1" stop-color="#2684FF"/>
</linearGradient>
</defs>
</svg>
