<svg width="134" height="69" viewBox="0 0 134 69" fill="none" xmlns="http://www.w3.org/2000/svg">
<path d="M66.786 68.2731C103.671 68.2731 133.572 53.1283 133.572 34.4461C133.572 15.764 103.671 0.619141 66.786 0.619141C29.9011 0.619141 0 15.764 0 34.4461C0 53.1283 29.9011 68.2731 66.786 68.2731Z" fill="#6181B6"/>
<path d="M80.3059 45.4141L83.6179 28.3601C84.3779 24.5051 83.7269 21.6271 81.7719 19.8351C79.8719 18.0971 76.6139 17.2291 71.8359 17.2291H66.0799L67.7089 8.75914C67.7414 8.59874 67.7389 8.43321 67.7014 8.2739C67.664 8.11458 67.5925 7.96525 67.4919 7.83614C67.3965 7.7123 67.2728 7.61316 67.1312 7.54704C66.9895 7.48091 66.8341 7.44974 66.6779 7.45614H58.7499C58.497 7.45558 58.2514 7.54142 58.0539 7.69945C57.8564 7.85749 57.7188 8.07823 57.6639 8.32514L54.1349 26.4101C53.8846 24.4707 53.0515 22.6529 51.7459 21.1971C49.4109 18.5361 45.7729 17.1791 40.8319 17.1791H25.5739C25.321 17.1786 25.0754 17.2644 24.8779 17.4225C24.6804 17.5805 24.5428 17.8012 24.4879 18.0481L17.3749 54.7481C17.3424 54.9085 17.345 55.0741 17.3824 55.2334C17.4199 55.3927 17.4913 55.542 17.5919 55.6711C17.6873 55.795 17.811 55.8941 17.9527 55.9602C18.0943 56.0264 18.2497 56.0575 18.4059 56.0511H26.3919C26.6449 56.0519 26.8905 55.9661 27.0881 55.8081C27.2856 55.65 27.4232 55.4291 27.4779 55.1821L29.2159 46.3321H35.1339C37.7541 46.4008 40.3697 46.0731 42.8919 45.3601C45.0183 44.6484 46.9636 43.4809 48.5919 41.9391C49.9235 40.7275 51.0604 39.3179 51.9629 37.7601L50.5509 45.0901C50.5184 45.2505 50.521 45.4161 50.5584 45.5754C50.5959 45.7347 50.6673 45.884 50.7679 46.0131C50.8633 46.137 50.987 46.2361 51.1287 46.3022C51.2703 46.3684 51.4257 46.3995 51.5819 46.3931H59.5089C59.7619 46.3939 60.0075 46.3081 60.2051 46.1501C60.4026 45.992 60.5402 45.7711 60.5949 45.5241L64.5039 25.4341H69.9339C72.2689 25.4341 72.9199 25.8681 73.1339 26.0861C73.2969 26.2491 73.6229 26.9001 73.2429 28.9091L70.0979 45.1421C70.0654 45.3025 70.068 45.4681 70.1054 45.6274C70.1429 45.7867 70.2143 45.936 70.3149 46.0651C70.4103 46.189 70.534 46.2881 70.6757 46.3542C70.8173 46.4204 70.9727 46.4515 71.1289 46.4451H79.2739C79.5188 46.374 79.7418 46.2423 79.9222 46.062C80.1026 45.8818 80.2346 45.659 80.3059 45.4141ZM43.6059 31.2971C43.1169 33.8491 42.1939 35.6971 40.8369 36.7271C39.4799 37.7571 37.2529 38.3021 34.3209 38.3021H30.7869L33.3389 25.1601H37.8999C41.2659 25.1601 42.6239 25.8661 43.1669 26.4601C43.8729 27.3331 44.0349 29.0161 43.6009 31.2971H43.6059Z" fill="white"/>
<path d="M114.187 21.1971C111.852 18.5361 108.214 17.1791 103.273 17.1791H87.9069C87.6539 17.1783 87.4083 17.2641 87.2108 17.4222C87.0132 17.5802 86.8757 17.8011 86.8209 18.0481L79.7079 54.6991C79.6754 54.8595 79.678 55.025 79.7154 55.1843C79.7529 55.3436 79.8243 55.493 79.9249 55.6221C80.0203 55.7459 80.144 55.8451 80.2857 55.9112C80.4273 55.9773 80.5827 56.0085 80.7389 56.0021H88.7249C88.9779 56.0026 89.2234 55.9168 89.4209 55.7588C89.6184 55.6007 89.756 55.38 89.8109 55.1331L91.5489 46.2831H97.4669C100.09 46.3508 102.708 46.0215 105.232 45.3061C107.358 44.5943 109.304 43.4268 110.932 41.8851C112.315 40.6318 113.488 39.1653 114.407 37.5411C115.305 35.9115 115.946 34.1532 116.307 32.3281C117.225 27.6041 116.525 23.9121 114.187 21.1971ZM105.879 31.2971C105.39 33.8491 104.467 35.6971 103.11 36.7271C101.753 37.7571 99.5259 38.3021 96.5939 38.3021H93.0649L95.6169 25.1621H100.178C103.544 25.1621 104.902 25.8681 105.445 26.4621C106.206 27.3331 106.368 29.0161 105.88 31.2961L105.879 31.2971Z" fill="white"/>
<path d="M37.8989 24.0751C40.9399 24.0751 42.9489 24.6181 43.9799 25.7581C45.0109 26.8981 45.2289 28.7991 44.6859 31.5141C44.1429 34.3371 43.0569 36.4011 41.4859 37.5951C39.9149 38.7891 37.5219 39.3871 34.3189 39.3871H29.4829L32.4699 24.0751H37.8989ZM18.4609 54.9161H26.4429L28.3429 45.1971H35.1839C37.6997 45.2678 40.2107 44.938 42.6229 44.2201C44.6101 43.5573 46.4268 42.4647 47.9439 41.0201C49.2415 39.8465 50.3416 38.4716 51.2019 36.9481C52.0458 35.4257 52.633 33.7746 52.9399 32.0611C53.8089 27.7171 53.1569 24.3511 51.0399 21.9071C48.9229 19.4631 45.5549 18.2651 40.9399 18.2651H25.5739L18.4609 54.9161Z" fill="#000004"/>
<path d="M58.8039 8.54614H66.7309L64.8309 18.2651H71.8909C76.3429 18.2651 79.3839 19.0251 81.0669 20.6001C82.7499 22.1751 83.2389 24.6721 82.5869 28.1471L79.2749 45.1961H71.2389L74.3909 28.9621C74.7709 27.1161 74.6079 25.8671 74.0109 25.2151C73.4139 24.5631 72.0559 24.1831 70.0469 24.1831H63.6909L59.6189 45.1961H51.6909L58.8039 8.54614Z" fill="#000004"/>
<path d="M100.178 24.0752C103.219 24.0752 105.228 24.6182 106.259 25.7582C107.29 26.8982 107.508 28.7992 106.965 31.5142C106.422 34.3372 105.336 36.4012 103.765 37.5952C102.194 38.7892 99.801 39.3872 96.598 39.3872H91.766L94.752 24.0752H100.178ZM80.74 54.9162H88.722L90.622 45.1972H97.463C99.9788 45.2678 102.49 44.938 104.902 44.2202C106.889 43.5573 108.706 42.4647 110.223 41.0202C111.521 39.8466 112.621 38.4716 113.481 36.9482C114.325 35.4257 114.912 33.7746 115.219 32.0612C116.088 27.7172 115.436 24.3512 113.319 21.9072C111.202 19.4632 107.835 18.2692 103.219 18.2692H87.853L80.74 54.9162Z" fill="#000004"/>
</svg>
