<svg width="136" height="46" viewBox="0 0 136 46" fill="none" xmlns="http://www.w3.org/2000/svg">
<path d="M25.6711 27.4314C28.2127 27.4314 30.2731 25.371 30.2731 22.8294C30.2731 20.2878 28.2127 18.2274 25.6711 18.2274C23.1295 18.2274 21.0691 20.2878 21.0691 22.8294C21.0691 25.371 23.1295 27.4314 25.6711 27.4314Z" fill="#00D8FF"/>
<path fill-rule="evenodd" clip-rule="evenodd" d="M25.671 13.4753C31.1791 13.3959 36.6645 14.1984 41.919 15.8523C47.134 17.6523 50.34 20.3693 50.34 22.8333C50.34 25.4013 46.94 28.2923 41.34 30.1473C36.2565 31.6536 30.9721 32.3713 25.671 32.2753C20.261 32.4003 14.8649 31.6748 9.68 30.1253C4.263 28.2733 1 25.3453 1 22.8253C1 20.3813 4.061 17.6813 9.2 15.8883C14.5252 14.2063 20.0861 13.3916 25.67 13.4753H25.671Z" stroke="#00D8FF" stroke-width="1.663"/>
<path fill-rule="evenodd" clip-rule="evenodd" d="M17.525 18.1774C20.2064 13.3665 23.6401 9.01548 27.696 5.28938C31.861 1.66938 35.82 0.25138 37.955 1.48138C40.18 2.76438 40.986 7.15238 39.796 12.9334C38.5639 18.0912 36.5474 23.0294 33.817 27.5754C31.2224 32.3229 27.8982 36.6334 23.966 40.3494C19.656 44.1174 15.489 45.4804 13.307 44.2224C11.189 43.0024 10.38 39.0004 11.396 33.6504C12.5966 28.1977 14.6656 22.9734 17.524 18.1774H17.525Z" stroke="#00D8FF" stroke-width="1.663"/>
<path fill-rule="evenodd" clip-rule="evenodd" d="M17.5319 27.5874C14.7038 22.86 12.6502 17.7106 11.4489 12.3344C10.3899 6.9224 11.1389 2.7834 13.2709 1.5464C15.4939 0.262402 19.6989 1.7554 24.1099 5.6724C27.9631 9.31615 31.2345 13.5295 33.8099 18.1654C36.6282 22.7844 38.7035 27.8174 39.9599 33.0804C41.0719 38.6964 40.1719 42.9874 37.9919 44.2494C35.8769 45.4744 32.0059 44.1774 27.8779 40.6254C23.7527 36.862 20.2595 32.4598 17.5319 27.5874V27.5874Z" stroke="#00D8FF" stroke-width="1.663"/>
<path fill-rule="evenodd" clip-rule="evenodd" d="M76.7591 34.5884L71.1181 26.0654C72.6433 25.9732 74.0699 25.2805 75.0856 24.139C76.1014 22.9975 76.6236 21.5001 76.5381 19.9744C76.5381 16.1344 73.8131 13.6744 69.9901 13.6744H61.5901V34.5744H64.1901V26.2744H68.3571L73.6831 34.5744L76.7591 34.5884ZM69.6781 23.9984H64.1961V16.0094H69.6781C70.2179 15.9853 70.757 16.0707 71.2629 16.2607C71.7687 16.4506 72.2309 16.741 72.6214 17.1145C73.0119 17.4879 73.3228 17.9366 73.5351 18.4335C73.7475 18.9303 73.8569 19.4651 73.8569 20.0054C73.8569 20.5458 73.7475 21.0805 73.5351 21.5774C73.3228 22.0743 73.0119 22.523 72.6214 22.8964C72.2309 23.2698 71.7687 23.5603 71.2629 23.7502C70.757 23.9401 70.2179 24.0256 69.6781 24.0014V23.9984ZM86.4401 34.9634C87.5472 35.0024 88.6508 34.8172 89.6846 34.4191C90.7184 34.0209 91.6611 33.418 92.4561 32.6464L91.3261 31.1094C90.084 32.3375 88.4067 33.0244 86.6601 33.0204C85.9583 33.0362 85.2603 32.9133 84.6061 32.6587C83.9519 32.4042 83.3545 32.023 82.8479 31.537C82.3414 31.051 81.9358 30.4698 81.6544 29.8267C81.373 29.1836 81.2213 28.4913 81.2081 27.7894H93.4571V27.1894C93.4571 22.6474 90.7621 19.0744 86.1871 19.0744C81.8631 19.0744 78.7321 22.6154 78.7321 27.0014C78.7321 31.7324 81.9591 34.9464 86.4391 34.9464L86.4401 34.9634ZM91.1401 26.0634H81.2101C81.2109 24.742 81.7297 23.4736 82.6551 22.5304C83.5806 21.5872 84.8389 21.0443 86.1601 21.0184C86.8226 21.008 87.4803 21.1319 88.0936 21.3827C88.707 21.6334 89.2631 22.0058 89.7286 22.4773C90.1941 22.9489 90.5592 23.5098 90.8019 24.1263C91.0447 24.7428 91.1601 25.4021 91.1411 26.0644L91.1401 26.0634ZM109.062 34.5864V24.1864C109.062 20.5214 106.4 19.0794 103.204 19.0794C102.076 19.0421 100.953 19.2465 99.9099 19.6789C98.8671 20.1113 97.9289 20.7617 97.1581 21.5864L98.2581 23.2154C98.8304 22.5476 99.5422 22.0134 100.343 21.6506C101.145 21.2877 102.016 21.105 102.895 21.1154C105.088 21.1154 106.718 22.2744 106.718 24.3154V27.0404C106.088 26.3457 105.311 25.7998 104.444 25.4421C103.577 25.0845 102.642 24.924 101.705 24.9724C99.1361 24.9724 96.4051 26.5724 96.4051 29.9544C96.4078 30.6365 96.549 31.3109 96.82 31.9368C97.091 32.5627 97.4862 33.1271 97.9817 33.5957C98.4773 34.0644 99.0627 34.4276 99.7027 34.6634C100.343 34.8992 101.024 35.0026 101.705 34.9674C102.642 34.9969 103.575 34.8246 104.44 34.4623C105.305 34.1 106.082 33.5561 106.718 32.8674V34.5884L109.062 34.5864ZM102.548 33.2704C100.355 33.2704 98.8191 31.8934 98.8191 29.9814C98.8191 28.0384 100.355 26.6604 102.548 26.6604C103.341 26.6254 104.132 26.7774 104.856 27.1039C105.579 27.4305 106.216 27.9225 106.715 28.5404V31.3914C106.216 32.0092 105.579 32.5012 104.855 32.8277C104.132 33.1543 103.341 33.3063 102.548 33.2714V33.2704ZM120.426 34.9634C121.496 35.0174 122.562 34.8053 123.53 34.3462C124.498 33.887 125.337 33.1952 125.972 32.3324L124.405 30.8914C123.978 31.5122 123.404 32.0173 122.734 32.3616C122.063 32.706 121.318 32.8787 120.565 32.8644C117.338 32.8644 115.334 30.3574 115.334 27.0064C115.334 23.6554 117.334 21.1794 120.565 21.1794C121.32 21.1555 122.069 21.324 122.74 21.6692C123.412 22.0144 123.985 22.5248 124.405 23.1524L125.972 21.7114C125.337 20.8484 124.499 20.1563 123.531 19.6971C122.563 19.2379 121.496 19.026 120.426 19.0804C115.914 19.0804 112.875 22.5274 112.875 27.0074C112.875 31.5194 115.914 34.9524 120.426 34.9524V34.9634ZM133.085 34.9634C133.596 34.9974 134.109 34.9289 134.593 34.7622C135.078 34.5955 135.524 34.3338 135.906 33.9924L135.217 32.2374C134.788 32.6499 134.212 32.8751 133.617 32.8634C132.584 32.8634 132.081 32.0494 132.081 30.9204V21.5204H135.153V19.4554H132.081V15.3204H129.731V19.4564H127.226V21.5204H129.733V31.4204C129.733 33.6764 130.861 34.9614 133.086 34.9614L133.085 34.9634Z" fill="#00D8FF"/>
</svg>
