<svg width="201" height="28" viewBox="0 0 201 28" fill="none" xmlns="http://www.w3.org/2000/svg">
<path d="M138.633 11.2316C138.633 7.94262 136.613 5.55762 132.74 5.55762H120.226V22.6016H124.342V16.7816H129.211L133.983 22.6006H138.62V22.2246L133.983 16.6836C135.287 16.4917 136.477 15.8334 137.332 14.8307C138.187 13.8281 138.649 12.5493 138.633 11.2316ZM132.279 13.3396H124.341V9.08762H132.279C133.747 9.08762 134.69 9.86962 134.69 11.2186C134.689 12.5906 133.779 13.3386 132.279 13.3386V13.3396Z" fill="black"/>
<path d="M200.794 5.55762H196.945V12.0196H186.574V5.55762H182.41V22.6016H186.574V15.8906H196.945V22.6016H200.794V5.55762Z" fill="black"/>
<path d="M109.212 5.55762L104.635 19.8986H104.384L99.7841 5.55762H92.4561V22.6016H96.3751V8.60162H96.6181L101.194 22.6016H107.508L112.108 8.60162H112.351V22.6016H116.392V5.55762H109.212Z" fill="black"/>
<path d="M64.4301 12.5326C62.9761 12.3816 60.2651 12.1326 58.8111 11.9826C57.3801 11.8366 56.5531 11.4116 56.5531 10.4666C56.5531 9.55955 57.4311 8.79555 60.9731 8.79555C63.9211 8.77176 66.8362 9.4155 69.5001 10.6786V6.86655C66.7622 5.6077 63.7714 4.99591 60.7591 5.07855C55.9121 5.07855 52.5591 7.10456 52.5591 10.5326C52.5591 13.4326 54.5291 15.0176 58.4811 15.4486C59.9121 15.6046 62.3421 15.8186 64.0391 15.9586C65.8871 16.1116 66.4391 16.6766 66.4391 17.5186C66.4391 18.6756 65.1391 19.3925 61.8601 19.3925C58.6353 19.3666 55.4788 18.4607 52.7311 16.7726V20.6996C55.4527 22.3175 58.5713 23.1451 61.7371 23.0896C67.0371 23.0896 70.4311 21.0476 70.4311 17.3896C70.4271 14.6376 68.6131 12.9666 64.4301 12.5326Z" fill="black"/>
<path d="M73.123 5.55762V22.6016H89.023V19.1186H77.042V15.6606H88.816V12.2046H77.042V9.03962H89.02V5.55762H73.123Z" fill="black"/>
<path d="M173.905 12.5326C172.451 12.3806 169.74 12.1326 168.286 11.9826C166.855 11.8366 166.028 11.4116 166.028 10.4666C166.028 9.55956 166.906 8.79455 170.448 8.79455C173.396 8.77059 176.311 9.4147 178.975 10.6786V6.86655C176.237 5.60839 173.246 4.99663 170.234 5.07856C165.387 5.07856 162.034 7.10456 162.034 10.5316C162.034 13.4316 164.004 15.0176 167.956 15.4486C169.387 15.6046 171.817 15.8186 173.514 15.9586C175.362 16.1116 175.914 16.6766 175.914 17.5186C175.914 18.6746 174.614 19.3926 171.336 19.3926C168.111 19.3668 164.954 18.4609 162.206 16.7726V20.6996C164.928 22.3175 168.046 23.1451 171.212 23.0896C176.512 23.0896 179.906 21.0466 179.906 17.3896C179.902 14.6376 178.089 12.9666 173.905 12.5326Z" fill="black"/>
<path d="M155.116 5.55762V14.2826C155.116 17.5886 153.108 19.4036 150.089 19.4036C147.052 19.4036 145.061 17.6156 145.061 14.2326V5.55762H140.97V13.8446C140.97 20.0336 144.837 23.0896 150.148 23.0896C155.259 23.0896 159.205 20.1536 159.205 14.0476V5.55762H155.116Z" fill="black"/>
<path d="M38.458 13.9776C38.458 14.8086 38.042 14.9356 36.987 14.9356C35.868 14.9356 35.676 14.7446 35.548 13.9126C35.4894 12.8403 35.0413 11.8263 34.2878 11.0612C33.5343 10.2961 32.5273 9.83252 31.456 9.75759C30.689 9.69359 30.498 9.40559 30.498 8.44659C30.498 7.55259 30.626 7.13559 31.329 7.13559C33.1794 7.10548 34.9668 7.80758 36.302 9.08904C37.6372 10.3705 38.4121 12.1275 38.458 13.9776ZM44.597 13.9776C44.6 7.55658 40.25 0.777588 30.211 0.777588H10.254C9.854 0.777588 9.603 0.988587 9.603 1.35559C9.61274 1.45258 9.64334 1.54633 9.6927 1.63039C9.74207 1.71445 9.80903 1.78683 9.889 1.84259C10.8999 2.58463 11.9799 3.2276 13.114 3.76259C14.499 4.45559 15.569 4.90459 16.655 5.34659C17.104 5.52859 17.283 5.72759 17.283 5.99359C17.283 6.34059 17.038 6.56159 16.533 6.56159H0.695C0.608734 6.55138 0.521287 6.55935 0.43829 6.58499C0.355293 6.61063 0.278586 6.65338 0.213112 6.71046C0.147638 6.76755 0.0948489 6.83772 0.0581438 6.91645C0.0214386 6.99519 0.00163255 7.08073 1.66868e-07 7.16759C-7.85103e-05 7.29963 0.0276654 7.43022 0.081423 7.55083C0.135181 7.67144 0.213746 7.77937 0.312 7.86759C2.21873 9.72176 4.3393 11.3425 6.629 12.6956C9.35343 14.3855 12.1639 15.9326 15.049 17.3306C15.48 17.5386 15.629 17.7776 15.62 18.0256C15.608 18.3116 15.382 18.5546 14.883 18.5546H7.623C7.21 18.5546 6.981 18.7716 6.981 19.1056C7.01634 19.3421 7.13997 19.5565 7.327 19.7056C9.66612 21.6575 12.3029 23.222 15.137 24.3396C19.8076 26.4192 24.8584 27.5087 29.971 27.5396C40.139 27.5356 44.6 19.9276 44.6 13.9776H44.597ZM31.329 23.0926C30.1296 23.1104 28.9387 22.8896 27.8254 22.4429C26.7121 21.9963 25.6988 21.3327 24.8443 20.4909C23.9898 19.649 23.3113 18.6457 22.8481 17.5392C22.385 16.4327 22.1465 15.2451 22.1465 14.0456C22.1465 12.8461 22.385 11.6585 22.8481 10.552C23.3113 9.44553 23.9898 8.44216 24.8443 7.6003C25.6988 6.75844 26.7121 6.09489 27.8254 5.64824C28.9387 5.20158 30.1296 4.98076 31.329 4.99859C33.7284 4.99859 36.0296 5.95175 37.7262 7.64839C39.4228 9.34503 40.376 11.6462 40.376 14.0456C40.376 16.445 39.4228 18.7461 37.7262 20.4428C36.0296 22.1394 33.7284 23.0926 31.329 23.0926Z" fill="#FF642D"/>
</svg>
