<svg width="254" height="37" viewBox="0 0 254 37" fill="none" xmlns="http://www.w3.org/2000/svg">
<path d="M58.115 26.7178C56.4298 26.7323 54.7692 26.3129 53.293 25.4998C51.8267 24.6781 50.6094 23.4757 49.7696 22.0195C48.9299 20.5634 48.4988 18.9076 48.522 17.2268C48.5032 15.5503 48.9364 13.8996 49.7759 12.4483C50.6154 10.9969 51.8303 9.79845 53.293 8.97882C54.764 8.15007 56.4266 7.72149 58.115 7.73582C59.448 7.71829 60.7702 7.97741 61.998 8.49682C63.1545 8.96831 64.1938 9.68712 65.043 10.6028L62.683 12.9128C62.1123 12.2969 61.4214 11.8044 60.653 11.4658C59.8416 11.1281 58.9686 10.964 58.09 10.9838C57.0155 10.9734 55.957 11.2447 55.02 11.7708C54.0839 12.2836 53.3103 13.0485 52.787 13.9788C52.2495 14.9826 51.9703 16.1044 51.9747 17.243C51.9791 18.3816 52.2668 19.5012 52.812 20.5008C53.3455 21.4233 54.1166 22.1858 55.045 22.7088C55.9984 23.218 57.0643 23.4796 58.145 23.4698C59.6744 23.5286 61.1667 22.9907 62.307 21.9698C62.6684 21.6352 62.9689 21.2403 63.195 20.8028C63.4541 20.3157 63.6423 19.7941 63.754 19.2538H58.038V16.3358H66.946C67.07 16.8599 67.1294 17.3973 67.123 17.9358C67.1333 19.0761 66.9444 20.2095 66.565 21.2848C66.2199 22.2998 65.6567 23.2268 64.915 24.0008C64.0958 24.8875 63.0908 25.5824 61.972 26.0358C60.7413 26.506 59.4323 26.7375 58.115 26.7178Z" fill="#767676"/>
<path d="M76.013 26.7218C74.7629 26.7436 73.5289 26.4374 72.434 25.8338C71.4087 25.2478 70.5589 24.3981 69.973 23.3728C69.4061 22.2878 69.11 21.0819 69.11 19.8578C69.11 18.6337 69.4061 17.4277 69.973 16.3428C70.5491 15.31 71.4012 14.4579 72.434 13.8818C73.5268 13.2824 74.7531 12.9683 75.9995 12.9683C77.2458 12.9683 78.4721 13.2824 79.565 13.8818C80.5942 14.4541 81.4392 15.3077 82.001 16.3428C82.5839 17.4227 82.8891 18.6306 82.8891 19.8578C82.8891 21.0849 82.5839 22.2929 82.001 23.3728C81.4293 24.4004 80.5867 25.2516 79.565 25.8338C78.479 26.4352 77.2542 26.7414 76.013 26.7218ZM76.013 23.6508C76.6347 23.6563 77.2471 23.4988 77.789 23.1938C78.3358 22.8843 78.7846 22.4272 79.084 21.8748C79.417 21.251 79.583 20.5517 79.566 19.8448C79.5811 19.146 79.415 18.4553 79.084 17.8398C78.7846 17.2876 78.3358 16.8308 77.789 16.5218C76.9679 16.0509 75.9935 15.9253 75.0799 16.1726C74.1663 16.42 73.3883 17.02 72.917 17.8408C72.5856 18.4562 72.4195 19.147 72.435 19.8458C72.4218 20.5523 72.5876 21.2506 72.917 21.8758C73.2274 22.4222 73.6788 22.8753 74.2241 23.1877C74.7694 23.5001 75.3886 23.6604 76.017 23.6518L76.013 23.6508Z" fill="#767676"/>
<path d="M91.6251 26.7218C90.3753 26.7435 89.1417 26.4374 88.0471 25.8338C87.0218 25.2478 86.1721 24.3981 85.5861 23.3728C85.0192 22.2878 84.7231 21.0819 84.7231 19.8578C84.7231 18.6337 85.0192 17.4277 85.5861 16.3428C86.1622 15.31 87.0143 14.4579 88.0471 13.8818C89.14 13.2824 90.3662 12.9683 91.6126 12.9683C92.859 12.9683 94.0853 13.2824 95.1781 13.8818C96.2074 14.4541 97.0523 15.3077 97.6141 16.3428C98.197 17.4227 98.5022 18.6306 98.5022 19.8578C98.5022 21.0849 98.197 22.2929 97.6141 23.3728C97.0424 24.4004 96.1999 25.2516 95.1781 25.8338C94.0918 26.4354 92.8667 26.7416 91.6251 26.7218ZM91.6251 23.6508C92.2472 23.6565 92.8599 23.4989 93.4021 23.1938C93.9489 22.8832 94.3973 22.4251 94.6961 21.8718C95.0292 21.248 95.1952 20.5487 95.1781 19.8418C95.1936 19.143 95.0275 18.4522 94.6961 17.8368C94.3965 17.2859 93.9481 16.8303 93.4021 16.5218C92.8581 16.2217 92.2469 16.0643 91.6256 16.0643C91.0043 16.0643 90.3931 16.2217 89.8491 16.5218C89.2989 16.8349 88.8433 17.2905 88.5301 17.8408C88.1988 18.4562 88.0327 19.147 88.0481 19.8458C88.0349 20.5523 88.2007 21.2506 88.5301 21.8758C88.8404 22.4224 89.2918 22.8755 89.8371 23.188C90.3824 23.5004 91.0017 23.6606 91.6301 23.6518L91.6251 23.6508Z" fill="#767676"/>
<path d="M107.01 32.1998C105.566 32.255 104.14 31.865 102.925 31.0828C101.93 30.4633 101.164 29.537 100.742 28.4438L103.863 27.1748C104.116 27.7987 104.553 28.3313 105.114 28.7027C105.676 29.0741 106.337 29.2669 107.01 29.2558C107.469 29.2796 107.928 29.206 108.357 29.0399C108.785 28.8737 109.174 28.6188 109.497 28.2918C109.827 27.9195 110.08 27.4857 110.241 27.0152C110.402 26.5448 110.468 26.047 110.436 25.5508V24.5358H110.236C109.83 25.1106 109.278 25.5661 108.636 25.8548C107.926 26.1701 107.155 26.3261 106.378 26.3118C105.325 26.3153 104.291 26.0348 103.384 25.4998C102.457 24.9276 101.696 24.1225 101.176 23.1648C100.601 22.0797 100.313 20.8656 100.339 19.6378C100.311 18.4184 100.599 17.2125 101.176 16.1378C101.686 15.1724 102.449 14.3644 103.384 13.8008C104.286 13.2508 105.322 12.9611 106.378 12.9638C107.154 12.9505 107.924 13.1068 108.634 13.4218C109.276 13.7109 109.828 14.1667 110.234 14.7418H110.434V13.3718H113.634V25.4218C113.665 26.6705 113.386 27.9074 112.822 29.0218C112.304 30.0139 111.499 30.8273 110.513 31.3568C109.438 31.9362 108.231 32.2267 107.01 32.1998ZM107.061 23.2928C107.503 23.3003 107.942 23.2188 108.352 23.053C108.762 22.8872 109.134 22.6406 109.447 22.3278C109.786 21.9701 110.048 21.5473 110.218 21.085C110.389 20.6228 110.463 20.1307 110.437 19.6388C110.469 19.1461 110.398 18.6522 110.227 18.1889C110.057 17.7255 109.791 17.3031 109.447 16.9488C109.136 16.6337 108.764 16.3856 108.354 16.2198C107.944 16.054 107.504 15.974 107.061 15.9848C106.615 15.9755 106.172 16.0561 105.758 16.2217C105.343 16.3873 104.967 16.6346 104.65 16.9488C104.011 17.6996 103.661 18.6531 103.661 19.6388C103.661 20.6245 104.011 21.578 104.65 22.3288C104.967 22.6429 105.343 22.8901 105.757 23.0557C106.171 23.2213 106.614 23.3019 107.06 23.2928H107.061Z" fill="#767676"/>
<path d="M116.883 8.14185H120.207V26.3118H116.883V8.14185Z" fill="#767676"/>
<path d="M129.416 26.7218C128.199 26.7394 126.999 26.433 125.939 25.8338C124.922 25.2567 124.08 24.4149 123.503 23.3978C122.919 22.315 122.622 21.1008 122.64 19.8708C122.63 18.6738 122.927 17.4943 123.503 16.4448C124.057 15.4008 124.881 14.5245 125.889 13.9068C126.911 13.2785 128.09 12.9529 129.289 12.9678C130.496 12.9349 131.69 13.2334 132.74 13.8308C133.684 14.3848 134.444 15.2059 134.922 16.1908C135.437 17.2221 135.699 18.3619 135.684 19.5148C135.685 19.8884 135.66 20.2617 135.608 20.6318H125.889C125.993 21.5404 126.427 22.3795 127.107 22.9908C127.778 23.5194 128.613 23.7977 129.467 23.7778C130.128 23.8072 130.785 23.6518 131.363 23.3291C131.942 23.0065 132.419 22.5292 132.741 21.9508L135.43 23.2708C134.857 24.3561 133.987 25.2565 132.923 25.8674C131.858 26.4782 130.642 26.7745 129.416 26.7218ZM132.487 18.2718C132.443 17.8405 132.286 17.4287 132.03 17.0788C131.76 16.6579 131.383 16.3163 130.938 16.0888C130.362 15.7766 129.707 15.6388 129.054 15.692C128.401 15.7453 127.777 15.9874 127.259 16.3888C126.677 16.8814 126.253 17.5346 126.04 18.2668L132.487 18.2718Z" fill="#767676"/>
<path d="M149.903 26.7178C148.407 26.734 146.948 26.2476 145.761 25.3365C144.574 24.4255 143.726 23.1424 143.355 21.6928L146.045 20.6018C146.28 21.5385 146.772 22.391 147.466 23.0628C148.144 23.6829 149.034 24.019 149.953 24.0018C150.768 24.0263 151.57 23.7856 152.237 23.3158C152.52 23.0951 152.751 22.8144 152.913 22.4939C153.075 22.1733 153.164 21.8209 153.174 21.4619C153.183 21.1029 153.113 20.7462 152.968 20.4175C152.824 20.0888 152.608 19.7962 152.337 19.5608C151.478 18.9006 150.506 18.4019 149.469 18.0888L148.327 17.6838C147.183 17.305 146.135 16.6815 145.256 15.8568C144.84 15.4485 144.514 14.9574 144.3 14.4153C144.086 13.8732 143.988 13.2921 144.013 12.7098C144.009 11.8266 144.264 10.9617 144.748 10.2228C145.251 9.45152 145.952 8.82978 146.778 8.42278C147.698 7.95532 148.718 7.7195 149.75 7.73579C151.117 7.66456 152.465 8.07782 153.557 8.90279C154.429 9.56237 155.089 10.4622 155.457 11.4918L152.894 12.5828C152.691 11.9837 152.321 11.4552 151.828 11.0598C151.253 10.6025 150.532 10.3682 149.798 10.3998C149.046 10.3764 148.306 10.599 147.692 11.0338C147.431 11.216 147.218 11.4593 147.072 11.7425C146.926 12.0257 146.852 12.3402 146.855 12.6588C146.851 12.9586 146.917 13.2551 147.05 13.5241C147.182 13.7932 147.376 14.0271 147.616 14.2068C148.343 14.7229 149.149 15.117 150.002 15.3738L151.144 15.7548C152.495 16.173 153.728 16.9034 154.744 17.8868C155.184 18.3481 155.526 18.8942 155.748 19.4917C155.971 20.0893 156.069 20.7259 156.038 21.3628C156.073 22.4344 155.751 23.4874 155.124 24.3568C154.52 25.1489 153.713 25.7629 152.789 26.1338C151.876 26.5194 150.894 26.718 149.903 26.7178Z" fill="#767676"/>
<path d="M158.839 8.14185H161.63V13.0898L161.503 15.0698H161.63C162.034 14.4299 162.605 13.9115 163.28 13.5698C164.011 13.1671 164.832 12.9574 165.666 12.9608C166.332 12.9174 166.999 13.0201 167.621 13.262C168.243 13.5039 168.805 13.8789 169.266 14.3608C170.142 15.4093 170.587 16.7518 170.509 18.1158V26.3158H167.718V18.4958C167.749 18.0932 167.695 17.6886 167.559 17.3082C167.424 16.9278 167.21 16.5802 166.931 16.2878C166.663 16.0388 166.348 15.8455 166.005 15.7192C165.662 15.5928 165.297 15.536 164.931 15.5518C164.323 15.5467 163.728 15.7332 163.231 16.0848C162.73 16.4536 162.328 16.9422 162.064 17.5058C161.776 18.0809 161.628 18.7158 161.632 19.3588V26.3118H158.841L158.839 8.14185Z" fill="#767676"/>
<path d="M179.749 26.7218C178.524 26.7412 177.316 26.4348 176.249 25.8338C175.233 25.2411 174.399 24.3808 173.838 23.3468C173.272 22.267 172.976 21.066 172.976 19.8468C172.976 18.6276 173.272 17.4266 173.838 16.3468C174.395 15.3167 175.23 14.4639 176.249 13.8858C177.318 13.2875 178.523 12.9734 179.749 12.9734C180.974 12.9734 182.179 13.2875 183.249 13.8858C184.265 14.4786 185.099 15.3388 185.66 16.3728C186.227 17.4486 186.523 18.6463 186.523 19.8623C186.523 21.0783 186.227 22.276 185.66 23.3518C185.099 24.3858 184.265 25.2461 183.249 25.8388C182.181 26.438 180.973 26.7427 179.749 26.7218ZM179.749 24.1588C180.442 24.1633 181.124 23.9883 181.729 23.6508C182.34 23.2936 182.841 22.7745 183.176 22.1508C183.56 21.443 183.752 20.647 183.734 19.8418C183.755 19.0444 183.562 18.2559 183.176 17.5578C182.844 16.9389 182.342 16.428 181.729 16.0858C180.813 15.5609 179.727 15.421 178.709 15.6971C177.69 15.9731 176.823 16.6425 176.298 17.5578C175.928 18.2612 175.745 19.0475 175.765 19.8418C175.747 20.6439 175.93 21.4378 176.298 22.1508C176.636 22.7673 177.137 23.2798 177.745 23.6331C178.353 23.9864 179.046 24.1671 179.749 24.1558V24.1588Z" fill="#767676"/>
<path d="M188.873 13.3698H191.537V15.0698H191.664C192.078 14.4377 192.645 13.9215 193.314 13.5698C194.068 13.1571 194.916 12.9472 195.775 12.9608C196.895 12.9477 197.996 13.2558 198.947 13.8488C199.902 14.4499 200.675 15.3014 201.18 16.3108C201.752 17.3973 202.039 18.6104 202.017 19.8378C202.037 21.073 201.75 22.2937 201.18 23.3898C200.669 24.3885 199.898 25.2303 198.947 25.8258C197.996 26.4188 196.895 26.727 195.775 26.7138C194.916 26.7271 194.068 26.5173 193.314 26.1048C192.651 25.7574 192.085 25.2518 191.664 24.6328H191.537L191.664 26.4328V31.7878H188.873V13.3698ZM195.373 24.1548C196.043 24.1554 196.701 23.971 197.273 23.6218C197.877 23.2537 198.369 22.7269 198.694 22.0988C199.058 21.4028 199.242 20.6263 199.227 19.8408C199.244 19.0631 199.06 18.2942 198.694 17.6078C198.369 16.9797 197.877 16.4529 197.273 16.0848C196.699 15.7361 196.041 15.5517 195.37 15.5517C194.698 15.5517 194.04 15.7361 193.466 16.0848C192.872 16.4584 192.388 16.9842 192.066 17.6078C191.7 18.2942 191.516 19.0631 191.533 19.8408C191.519 20.6263 191.702 21.4028 192.066 22.0988C192.388 22.7224 192.872 23.2483 193.466 23.6218C194.039 23.9718 194.698 24.1566 195.369 24.1558L195.373 24.1548Z" fill="#767676"/>
<path d="M204.213 13.3698H206.877V15.0698H207.004C207.417 14.4377 207.985 13.9214 208.654 13.5698C209.408 13.1571 210.256 12.9473 211.115 12.9608C212.236 12.9477 213.337 13.2558 214.288 13.8488C215.243 14.45 216.016 15.3015 216.521 16.3108C217.093 17.3972 217.381 18.6103 217.359 19.8378C217.379 21.073 217.091 22.2938 216.521 23.3898C216.01 24.3885 215.238 25.2302 214.288 25.8258C213.337 26.4189 212.236 26.727 211.115 26.7138C210.256 26.7271 209.408 26.5173 208.654 26.1048C207.991 25.7574 207.424 25.2518 207.004 24.6328H206.877L207.004 26.4328V31.7878H204.213V13.3698ZM210.713 24.1548C211.383 24.1555 212.041 23.9711 212.613 23.6218C213.217 23.2539 213.709 22.7271 214.034 22.0988C214.398 21.4027 214.581 20.6263 214.567 19.8408C214.584 19.0631 214.4 18.2942 214.034 17.6078C213.709 16.9796 213.217 16.4527 212.613 16.0848C212.039 15.7362 211.381 15.5519 210.71 15.5519C210.039 15.5519 209.38 15.7362 208.807 16.0848C208.213 16.4584 207.729 16.9843 207.407 17.6078C207.041 18.2942 206.857 19.0631 206.874 19.8408C206.859 20.6263 207.043 21.4027 207.407 22.0988C207.729 22.7224 208.213 23.2483 208.807 23.6218C209.379 23.9718 210.038 24.1567 210.709 24.1558L210.713 24.1548Z" fill="#767676"/>
<path d="M221.378 11.4918C221.129 11.4996 220.881 11.4563 220.65 11.3647C220.419 11.2731 220.209 11.135 220.033 10.959C219.857 10.7831 219.719 10.5729 219.627 10.3416C219.535 10.1102 219.492 9.86253 219.5 9.6138C219.494 9.36917 219.538 9.12595 219.63 8.899C219.721 8.67204 219.858 8.46611 220.032 8.2938C220.206 8.11386 220.416 7.97152 220.647 7.87556C220.879 7.77959 221.127 7.73203 221.378 7.7358C221.874 7.74304 222.347 7.94322 222.698 8.29386C223.049 8.64449 223.249 9.11798 223.256 9.6138C223.26 9.86421 223.212 10.1127 223.116 10.3441C223.02 10.5754 222.878 10.7846 222.698 10.9588C222.526 11.133 222.32 11.2702 222.093 11.3618C221.866 11.4535 221.623 11.4977 221.378 11.4918ZM219.978 13.3698H222.769V26.3118H219.982L219.978 13.3698Z" fill="#767676"/>
<path d="M226.245 13.3698H228.909V15.0698H229.036C229.44 14.4297 230.011 13.9113 230.686 13.5698C231.408 13.1695 232.22 12.9599 233.046 12.9608C233.709 12.9151 234.374 13.017 234.992 13.2591C235.611 13.5012 236.168 13.8775 236.624 14.3608C237.5 15.4092 237.945 16.7516 237.868 18.1158V26.3158H235.077V18.4958C235.112 18.0911 235.063 17.6835 234.931 17.299C234.8 16.9146 234.59 16.5617 234.315 16.2628C234.036 16.0152 233.711 15.825 233.358 15.7032C233.006 15.5813 232.633 15.5302 232.26 15.5528C231.659 15.545 231.071 15.732 230.585 16.0858C230.088 16.4316 229.694 16.9049 229.443 17.4558C229.171 18.0355 229.033 18.6686 229.037 19.3088V26.3088H226.245V13.3698Z" fill="#767676"/>
<path d="M246.731 32.1998C245.33 32.2538 243.947 31.8727 242.772 31.1088C241.824 30.4862 241.096 29.5807 240.691 28.5208L243.305 27.4288C243.562 28.089 244.013 28.6556 244.599 29.0538C245.226 29.4821 245.972 29.7037 246.731 29.6878C247.241 29.7173 247.752 29.6375 248.229 29.4536C248.706 29.2698 249.138 28.9862 249.496 28.6218C249.852 28.2227 250.125 27.757 250.299 27.2516C250.473 26.7462 250.545 26.2113 250.511 25.6778V24.4848H250.359C249.925 25.1041 249.34 25.6022 248.659 25.9318C247.905 26.2834 247.08 26.4572 246.248 26.4398C245.183 26.4448 244.138 26.1547 243.228 25.6018C242.285 25.0306 241.513 24.2152 240.995 23.2418C240.44 22.1504 240.161 20.9393 240.183 19.7148C240.159 18.4989 240.438 17.2961 240.995 16.2148C241.508 15.231 242.28 14.4062 243.228 13.8298C244.133 13.262 245.18 12.9627 246.248 12.9668C247.082 12.9527 247.908 13.1353 248.659 13.4998C249.34 13.8295 249.925 14.3276 250.359 14.9468H250.511V13.3698H253.176V25.6018C253.214 26.8445 252.934 28.0762 252.364 29.1808C251.852 30.1499 251.055 30.9381 250.08 31.4388C249.043 31.9632 247.893 32.2245 246.731 32.1998ZM246.756 23.8998C247.413 23.9062 248.06 23.7415 248.634 23.4218C249.216 23.0757 249.69 22.5747 250.004 21.9748C250.355 21.275 250.529 20.4997 250.511 19.7168C250.546 19.1578 250.467 18.5976 250.279 18.0698C250.092 17.542 249.8 17.0577 249.42 16.6458C249.08 16.2823 248.666 15.9949 248.207 15.8024C247.748 15.6099 247.253 15.5167 246.755 15.5288C246.088 15.5228 245.431 15.698 244.855 16.0358C244.271 16.3674 243.795 16.8609 243.485 17.4568C243.151 18.1629 242.978 18.9342 242.978 19.7153C242.978 20.4964 243.151 21.2678 243.485 21.9738C243.798 22.5737 244.271 23.0749 244.852 23.4218C245.434 23.7438 246.09 23.9089 246.755 23.9008L246.756 23.8998Z" fill="#767676"/>
<path fill-rule="evenodd" clip-rule="evenodd" d="M29.0921 10.1328C29.6036 10.1328 30.1036 9.9811 30.5289 9.6969C30.9542 9.4127 31.2856 9.00876 31.4813 8.53618C31.677 8.06359 31.7282 7.54358 31.6283 7.04192C31.5284 6.54026 31.282 6.07948 30.9203 5.71786C30.5585 5.35624 30.0977 5.11003 29.596 5.01036C29.0943 4.91069 28.5743 4.96204 28.1018 5.15792C27.6292 5.35381 27.2254 5.68542 26.9414 6.11081C26.6574 6.53621 26.5059 7.03628 26.5061 7.54779C26.5061 7.88734 26.573 8.22356 26.7029 8.53726C26.8329 8.85095 27.0234 9.13596 27.2635 9.37601C27.5037 9.61607 27.7888 9.80645 28.1025 9.9363C28.4163 10.0662 28.7525 10.1329 29.0921 10.1328ZM10.7731 9.34379L18.7051 1.41179C19.0165 1.10125 19.3861 0.855256 19.7928 0.68794C20.1995 0.520623 20.6353 0.435273 21.0751 0.436789H32.8411C33.2829 0.435204 33.7207 0.521049 34.1293 0.689382C34.5378 0.857714 34.909 1.10521 35.2215 1.41761C35.534 1.73001 35.7816 2.10114 35.9501 2.50964C36.1185 2.91814 36.2045 3.35592 36.2031 3.79779V15.5658C36.2053 16.0072 36.1187 16.4445 35.9482 16.8517C35.7778 17.2589 35.5271 17.6276 35.2111 17.9358L27.2901 25.8658L10.7731 9.34379Z" fill="#4285F4"/>
<path fill-rule="evenodd" clip-rule="evenodd" d="M27.29 25.8619L17.515 35.6469C16.8797 36.2763 16.0234 36.6323 15.129 36.6389C14.6882 36.6373 14.252 36.5489 13.8453 36.3787C13.4387 36.2085 13.0695 35.9598 12.759 35.6469L0.993022 23.8808C0.6769 23.5729 0.426118 23.2045 0.255672 22.7974C0.0852253 22.3904 -0.00138205 21.9531 0.00102541 21.5118C0.000923564 21.0682 0.0885109 20.629 0.258754 20.2193C0.428997 19.8097 0.678535 19.4377 0.993022 19.1248L10.773 9.34485L27.29 25.8619Z" fill="#34A853"/>
<path fill-rule="evenodd" clip-rule="evenodd" d="M6.70104 29.5909L0.992044 23.8818C0.675938 23.5737 0.42518 23.2051 0.254739 22.7979C0.0842991 22.3907 -0.00232318 21.9533 4.73717e-05 21.5118C-0.000164165 21.0682 0.087374 20.6289 0.257623 20.2193C0.427873 19.8096 0.677468 19.4377 0.992044 19.1248L10.772 9.34485L18.86 17.4328L6.70104 29.5909Z" fill="#FBBC05"/>
<path fill-rule="evenodd" clip-rule="evenodd" d="M35.0421 1.25079C34.4307 0.723338 33.6495 0.434293 32.8421 0.436787H21.0751C20.6353 0.435272 20.1995 0.520621 19.7928 0.687938C19.3861 0.855255 19.0165 1.10124 18.7051 1.41179L10.7731 9.34379L18.8611 17.4318L27.0981 9.19479C26.6898 8.69862 26.4809 8.06824 26.512 7.42646C26.5431 6.78468 26.8121 6.17746 27.2664 5.72312C27.7207 5.26878 28.328 4.99985 28.9697 4.96873C29.6115 4.93762 30.2419 5.14653 30.7381 5.55479L35.0421 1.25079Z" fill="#EA4335"/>
<path d="M18.856 23.6018C19.8947 23.6016 20.9101 23.2934 21.7736 22.7162C22.6372 22.139 23.3102 21.3186 23.7075 20.3589C24.1049 19.3992 24.2088 18.3433 24.006 17.3246C23.8032 16.3058 23.3029 15.3701 22.5684 14.6357C21.8339 13.9013 20.898 13.4012 19.8793 13.1986C18.8605 12.9961 17.8046 13.1001 16.845 13.4977C15.8853 13.8952 15.0651 14.5684 14.4881 15.432C13.911 16.2957 13.603 17.3111 13.603 18.3498C13.603 19.0396 13.7389 19.7226 14.0029 20.3599C14.2669 20.9971 14.6539 21.5762 15.1417 22.0639C15.6295 22.5516 16.2086 22.9384 16.8459 23.2023C17.4832 23.4662 18.1662 23.6019 18.856 23.6018Z" fill="#4285F4"/>
<path fill-rule="evenodd" clip-rule="evenodd" d="M26.012 16.8038H19.026V19.8038H23.047C22.8618 20.7102 22.3497 21.5168 21.6082 22.07C20.8667 22.6232 19.9476 22.8844 19.026 22.8038C17.839 22.7608 16.7149 22.2591 15.8903 21.4041C15.0657 20.5491 14.6049 19.4076 14.6049 18.2198C14.6049 17.0319 15.0657 15.8904 15.8903 15.0355C16.7149 14.1805 17.839 13.6787 19.026 13.6358C20.0384 13.6368 21.0171 13.9992 21.786 14.6578L23.967 12.4018C22.6207 11.16 20.8576 10.4681 19.026 10.4628C18.0234 10.4768 17.0334 10.6889 16.113 11.0869C15.1927 11.4849 14.36 12.0608 13.663 12.7817C12.966 13.5026 12.4184 14.3542 12.0517 15.2874C11.6849 16.2207 11.5063 17.2172 11.526 18.2198C11.5063 19.2224 11.6849 20.219 12.0516 21.1523C12.4184 22.0856 12.966 22.9372 13.663 23.6582C14.36 24.3791 15.1926 24.9552 16.113 25.3533C17.0333 25.7514 18.0233 25.9636 19.026 25.9778C22.775 25.9778 26.182 23.1568 26.182 18.2198C26.1757 17.7451 26.1187 17.2724 26.012 16.8098V16.8038Z" fill="white"/>
</svg>
