<svg width="201" height="42" viewBox="0 0 201 42" fill="none" xmlns="http://www.w3.org/2000/svg">
<path fill-rule="evenodd" clip-rule="evenodd" d="M61.6771 0.792725H6.31306C5.48175 0.792718 4.65862 0.956904 3.89093 1.27585C3.12323 1.59479 2.42609 2.06221 1.83952 2.65129C1.25295 3.24037 0.788502 3.93951 0.472836 4.70856C0.15717 5.47761 -0.00349769 6.30142 5.77428e-05 7.13272V28.2657C-0.000336555 29.0984 0.163383 29.923 0.481858 30.6924C0.800333 31.4618 1.26732 32.1609 1.85612 32.7497C2.44492 33.3385 3.144 33.8054 3.91338 34.1239C4.68276 34.4424 5.50736 34.6061 6.34005 34.6057H32.5631L44.5481 41.2797L41.8231 34.6057H61.6771C62.5098 34.6061 63.3344 34.4424 64.1037 34.1239C64.8731 33.8054 65.5722 33.3385 66.161 32.7497C66.7498 32.1609 67.2168 31.4618 67.5353 30.6924C67.8537 29.923 68.0175 29.0984 68.0171 28.2657V7.13272C68.0175 6.30003 67.8537 5.47542 67.5353 4.70604C67.2168 3.93666 66.7498 3.23759 66.161 2.64879C65.5722 2.05999 64.8731 1.593 64.1037 1.27452C63.3344 0.956046 62.5098 0.792331 61.6771 0.792725ZM5.14606 5.68672C4.80788 5.68869 4.47454 5.76728 4.17109 5.91658C3.86765 6.06588 3.60198 6.282 3.39405 6.54872C3.20017 6.8143 3.06099 7.11574 2.9846 7.43556C2.90821 7.75538 2.89613 8.0872 2.94906 8.41173C4.58972 18.8391 6.11906 25.8741 7.53706 29.5167C8.09306 30.8517 8.73706 31.4907 9.48406 31.4357C10.6521 31.3517 12.0421 29.7357 13.6841 26.5967C14.5461 24.8174 15.8794 22.1481 17.6841 18.5887C19.1854 23.8441 21.2337 27.7927 23.8291 30.4347C24.095 30.7604 24.4308 31.022 24.8117 31.2002C25.1925 31.3783 25.6086 31.4684 26.0291 31.4637C26.3406 31.4401 26.6406 31.3354 26.8992 31.16C27.1578 30.9845 27.3659 30.7445 27.5031 30.4637C27.7885 29.8969 27.9045 29.2598 27.8371 28.6287C27.7329 25.08 27.9939 21.53 28.6161 18.0347C29.3391 13.3627 30.2291 9.99873 31.3161 7.99573C31.5352 7.58671 31.6317 7.12319 31.5941 6.66072C31.5719 6.35029 31.4835 6.04821 31.3348 5.77481C31.1861 5.50141 30.9806 5.26304 30.7321 5.07573C30.244 4.667 29.6145 4.46721 28.9801 4.51973C28.5918 4.53748 28.2157 4.66085 27.8923 4.87654C27.569 5.09223 27.3106 5.39206 27.1451 5.74373C25.4211 8.88573 24.1977 13.9837 23.4751 21.0377C22.2943 17.9588 21.4097 14.7744 20.8331 11.5277C20.5271 9.88773 19.7761 9.10873 18.5521 9.19173C18.0876 9.25923 17.6495 9.44937 17.283 9.74257C16.9165 10.0358 16.6349 10.4214 16.4671 10.8597L10.3771 22.4597C9.37706 18.4277 8.44073 13.5061 7.56806 7.69472C7.57031 7.39349 7.50554 7.09555 7.37841 6.82245C7.25129 6.54935 7.06501 6.30794 6.83307 6.11572C6.60113 5.92351 6.32933 5.78531 6.03738 5.71111C5.74543 5.63691 5.44062 5.62857 5.14505 5.68672H5.14606ZM58.7301 7.68672C59.6647 7.86029 60.5489 8.23988 61.3184 8.7979C62.088 9.35592 62.7236 10.0783 63.1791 10.9127C64.1142 12.5833 64.5758 14.4773 64.5141 16.3907C64.5376 19.1645 63.7864 21.8898 62.3451 24.2597C60.6771 27.0407 58.5081 28.4307 55.8111 28.4307C55.3066 28.4271 54.8039 28.3711 54.3111 28.2637C53.3765 28.0903 52.4924 27.7108 51.7228 27.153C50.9533 26.5952 50.3176 25.8729 49.8621 25.0387C48.9337 23.3554 48.4727 21.4543 48.5271 19.5327C48.4997 16.767 49.2513 14.0493 50.6961 11.6907C52.3961 8.90972 54.5611 7.51973 57.2301 7.51973C57.7344 7.52555 58.2367 7.58351 58.7291 7.69272L58.7301 7.68672ZM57.5621 22.7297C58.6907 21.621 59.4317 20.178 59.6751 18.6147C59.7991 17.9356 59.8643 17.2471 59.8701 16.5567C59.8602 15.6898 59.6907 14.8322 59.3701 14.0267C58.9531 12.9417 58.3971 12.3577 57.7291 12.2187C56.7291 12.0237 55.7551 12.5807 54.8371 13.9427C54.1262 14.9342 53.6246 16.0601 53.3631 17.2517C53.2266 17.9196 53.1613 18.6001 53.1681 19.2817C53.1779 20.1486 53.3474 21.0063 53.6681 21.8117C54.0851 22.8957 54.6411 23.4797 55.3091 23.6197C55.7278 23.6593 56.15 23.5995 56.5413 23.4452C56.9326 23.2909 57.282 23.0464 57.5611 22.7317L57.5621 22.7297ZM45.7441 10.9117C45.2851 10.0801 44.6485 9.35988 43.8795 8.80229C43.1105 8.24471 42.2281 7.86348 41.2951 7.68573C40.8022 7.57849 40.2995 7.52252 39.7951 7.51872C37.1251 7.51872 34.9571 8.90873 33.2611 11.6897C31.8161 14.0482 31.0645 16.7659 31.0921 19.5317C31.0377 21.4533 31.4987 23.3544 32.4271 25.0377C32.8826 25.8719 33.5183 26.5942 34.2878 27.152C35.0574 27.7098 35.9415 28.0893 36.8761 28.2627C37.3689 28.3702 37.8716 28.4261 38.3761 28.4297C41.0761 28.4297 43.2421 27.0397 44.9101 24.2587C46.3514 21.8888 47.1026 19.1635 47.0791 16.3897C47.1397 14.4772 46.6778 12.5843 45.7431 10.9147L45.7441 10.9117ZM42.2441 18.6117C42.0007 20.175 41.2597 21.6181 40.1311 22.7267C39.8522 23.0418 39.5029 23.2866 39.1116 23.4413C38.7203 23.5959 38.298 23.656 37.8791 23.6167C37.2121 23.4777 36.6551 22.8937 36.2381 21.8087C35.9174 21.0033 35.7479 20.1456 35.7381 19.2787C35.7312 18.5971 35.7966 17.9166 35.9331 17.2487C36.1945 16.0572 36.6956 14.9314 37.4061 13.9397C38.3241 12.5777 39.2971 12.0207 40.2981 12.2157C40.9651 12.3547 41.5221 12.9387 41.9391 14.0237C42.2597 14.8292 42.4292 15.6868 42.4391 16.5537C42.4459 17.2465 42.3789 17.9381 42.2391 18.6167L42.2441 18.6117Z" fill="#7F54B3"/>
<path fill-rule="evenodd" clip-rule="evenodd" d="M75.051 10.6597C74.1293 11.5727 73.4064 12.6666 72.9278 13.8724C72.4493 15.0783 72.2253 16.3701 72.2701 17.6667C72.2112 19.0169 72.4246 20.3651 72.8975 21.631C73.3705 22.897 74.0934 24.0549 75.023 25.0357C75.965 25.9746 77.0908 26.7087 78.3297 27.1921C79.5687 27.6754 80.8942 27.8976 82.2231 27.8447C83.2031 27.8324 84.1766 27.6826 85.1151 27.3997V22.8997C84.2949 23.1543 83.4436 23.2947 82.5851 23.3167C81.9246 23.3422 81.2666 23.2235 80.6566 22.969C80.0467 22.7144 79.4995 22.3301 79.053 21.8427C78.191 20.7029 77.7222 19.314 77.7172 17.8849C77.7121 16.4558 78.1711 15.0636 79.025 13.9177C79.4245 13.4285 79.93 13.0366 80.5033 12.7717C81.0766 12.5068 81.7026 12.3758 82.3341 12.3887C83.2757 12.401 84.2113 12.5413 85.1151 12.8057V8.30573C84.125 8.05228 83.1059 7.93057 82.0841 7.94373C80.7883 7.89069 79.4954 8.10439 78.2856 8.57159C77.0758 9.03879 75.9749 9.74952 75.051 10.6597ZM94.3511 7.90673C93.2217 7.85137 92.0945 8.05279 91.0542 8.49586C90.014 8.93892 89.0877 9.61208 88.345 10.4647C86.899 12.1647 86.204 14.5527 86.204 17.6117C86.204 20.9207 86.927 23.4517 88.345 25.2027C89.1069 26.0964 90.0665 26.8005 91.1477 27.259C92.2289 27.7176 93.4019 27.9181 94.574 27.8447C95.7247 27.9095 96.8745 27.7043 97.9318 27.2456C98.989 26.7869 99.9243 26.0873 100.663 25.2027C102.081 23.4507 102.804 20.9757 102.804 17.8027C102.804 14.6297 102.081 12.1857 100.635 10.4617C99.8437 9.59482 98.8685 8.91583 97.7809 8.47445C96.6933 8.03306 95.5207 7.84046 94.349 7.91073L94.3511 7.90673ZM96.5511 22.3667C96.3207 22.7389 95.9956 23.0431 95.609 23.2483C95.2225 23.4536 94.7884 23.5524 94.3511 23.5347C93.9378 23.5467 93.5293 23.444 93.1709 23.2378C92.8125 23.0316 92.5184 22.7301 92.3211 22.3667C91.8481 21.5887 91.626 20.0307 91.626 17.6667C91.626 14.0237 92.5431 12.2167 94.4071 12.2167C96.3531 12.2167 97.355 14.0517 97.355 17.7507C97.324 20.0347 97.0461 21.5917 96.5461 22.3697L96.5511 22.3667ZM116.544 8.43572L115.544 12.6907C115.294 13.7747 115.044 14.8907 114.821 16.0277L114.265 18.9757C113.737 16.0277 113.014 12.5247 112.096 8.43673H105.645L103.226 27.3737H108.064L109.371 14.3327L112.68 27.3737H116.128L119.289 14.3597L120.652 27.3737H125.713L123.155 8.43673L116.544 8.43572ZM139.707 8.43572L138.707 12.6907C138.456 13.7747 138.207 14.8907 137.984 16.0277L137.428 18.9757C136.9 16.0277 136.177 12.5247 135.259 8.43673H128.808L126.389 27.3737H131.227L132.534 14.3327L135.843 27.3737H139.289L142.431 14.3597L143.793 27.3737H148.854L146.289 8.43873L139.707 8.43572ZM155.446 19.8927H159.978V15.9717H155.446V12.4957H160.674V8.46372H150.324V27.4007H160.696V23.3687H155.44L155.446 19.8927ZM175.105 16.8927C175.618 16.096 175.898 15.1713 175.911 14.2237C175.939 13.4019 175.763 12.5858 175.4 11.8483C175.036 11.1108 174.495 10.4747 173.826 9.99673C172.142 8.88081 170.144 8.33503 168.126 8.43972H162.175V27.3767H167.289V18.7597H167.373L171.516 27.3797H176.911L172.823 18.8437C173.762 18.4385 174.556 17.7583 175.1 16.8927H175.105ZM167.263 16.5867V12.0867C168.175 12.0308 169.084 12.2436 169.877 12.6987C170.153 12.9253 170.368 13.2165 170.504 13.5465C170.639 13.8764 170.691 14.2348 170.655 14.5897C170.651 15.8917 169.511 16.5597 167.258 16.5867H167.263ZM178.913 10.6637C177.992 11.5769 177.269 12.6708 176.791 13.8766C176.312 15.0825 176.088 16.3742 176.133 17.6707C176.074 19.0209 176.288 20.3691 176.76 21.6351C177.233 22.9011 177.956 24.0589 178.886 25.0397C179.828 25.9786 180.954 26.7127 182.193 27.1961C183.432 27.6794 184.757 27.9016 186.086 27.8487C187.066 27.8365 188.039 27.6867 188.977 27.4037V22.9037C188.157 23.1585 187.306 23.2988 186.447 23.3207C185.787 23.346 185.129 23.2273 184.519 22.9728C183.909 22.7182 183.362 22.334 182.916 21.8467C182.055 20.7066 181.586 19.3179 181.581 17.8891C181.576 16.4602 182.034 15.0681 182.887 13.9217C183.287 13.4326 183.792 13.0407 184.365 12.7758C184.939 12.5109 185.565 12.3799 186.196 12.3927C187.138 12.405 188.073 12.5453 188.977 12.8097V8.30973C187.987 8.05623 186.969 7.93451 185.947 7.94773C184.651 7.89633 183.358 8.11038 182.148 8.57674C180.938 9.04311 179.835 9.75194 178.909 10.6597L178.913 10.6637ZM195.513 23.3157V19.8677H200.044V15.9467H195.513V12.4707H200.767V8.43873H190.421V27.3757H200.789V23.3437H195.506L195.513 23.3157Z" fill="black"/>
</svg>
