<svg width="175" height="40" viewBox="0 0 175 40" fill="none" xmlns="http://www.w3.org/2000/svg">
<path d="M101.264 15.7045H94.3909V16.4335C96.5409 16.4335 96.8909 16.8945 96.8909 19.6205V24.5356C96.8909 27.2616 96.5459 27.7616 94.3909 27.7616C92.7399 27.5306 91.6259 26.6475 90.0909 24.9615L88.3279 23.0425C90.7079 22.6195 91.9749 21.1225 91.9749 19.4325C91.9749 17.3215 90.175 15.7085 86.791 15.7085H80.028V16.4375C82.177 16.4375 82.528 16.8985 82.528 19.6245V24.5396C82.528 27.2656 82.182 27.7655 80.028 27.7655V28.4946H87.6689V27.7655C85.5189 27.7655 85.1689 27.2656 85.1689 24.5396V23.1575H85.8279L90.09 28.4946H101.263C106.753 28.4946 109.134 25.5765 109.134 22.0826C109.134 18.5886 106.753 15.7085 101.262 15.7085L101.264 15.7045ZM85.176 21.9626V16.8566H86.7499C87.4147 16.8752 88.0459 17.1523 88.5095 17.629C88.9731 18.1058 89.2325 18.7446 89.2325 19.4095C89.2325 20.0745 88.9731 20.7133 88.5095 21.19C88.0459 21.6668 87.4147 21.9439 86.7499 21.9626H85.176ZM101.376 27.3006H101.107C99.7259 27.3006 99.533 26.9555 99.533 25.1895V16.8575H101.376C105.37 16.8575 106.099 19.7755 106.099 22.0405C106.102 24.3815 105.372 27.3006 101.379 27.3006H101.376ZM58.6409 23.3846L61.291 15.5506C62.059 13.2856 61.7139 12.6326 59.2559 12.6326V11.8645H66.4749V12.6326C64.0559 12.6326 63.48 13.2086 62.52 16.0116L58.145 29.1425H57.645L53.728 17.1245L49.736 29.1425H49.236L44.9739 16.0105C44.0519 13.2105 43.4379 12.6315 41.2109 12.6315V11.8635H49.7349V12.6315C47.4689 12.6315 46.8549 13.1686 47.6609 15.5486L50.233 23.3826L54.111 11.8625H54.8409L58.6409 23.3815V23.3846ZM71.6959 28.9895C67.4719 28.9895 64.017 25.8795 64.017 22.0775C64.017 18.3145 67.4729 15.2045 71.6959 15.2045C75.9189 15.2045 79.3749 18.3145 79.3749 22.0775C79.3779 25.8795 75.9219 28.9895 71.6989 28.9895H71.6959ZM71.6959 16.3956C68.1639 16.3956 66.9349 19.5815 66.9349 22.0775C66.9349 24.6125 68.1639 27.7605 71.6959 27.7605C75.2669 27.7605 76.496 24.6125 76.496 22.0775C76.496 19.5775 75.2669 16.3956 71.6959 16.3956Z" fill="#00749A"/>
<path d="M118.616 27.7216V28.4897H109.823V27.7216C112.396 27.7216 112.857 27.0687 112.857 23.2287V17.0867C112.857 13.2467 112.396 12.6326 109.823 12.6326V11.8636H117.771C121.726 11.8636 123.915 13.8987 123.915 16.6257C123.915 19.2747 121.726 21.3486 117.771 21.3486H115.582V23.2296C115.582 27.0706 116.042 27.7227 118.616 27.7227V27.7216ZM117.771 13.2457H115.582V19.9267H117.771C118.204 19.9503 118.637 19.8798 119.04 19.7202C119.443 19.5605 119.806 19.3155 120.105 19.0018C120.404 18.6882 120.632 18.3135 120.773 17.9035C120.913 17.4934 120.963 17.0578 120.919 16.6266C120.923 14.7826 119.924 13.2467 117.774 13.2467L117.771 13.2457ZM150.293 24.8806L150.101 25.5717C149.756 26.8387 149.333 27.2997 146.607 27.2997H146.069C144.069 27.2997 143.727 26.8386 143.727 24.1136V22.3466C146.722 22.3466 146.952 22.6146 146.952 24.6116H147.682V18.8896H146.952C146.952 20.8896 146.721 21.1546 143.727 21.1546V16.8546H145.838C148.565 16.8546 148.987 17.3157 149.332 18.5827L149.525 19.3116H150.139L149.871 15.7027H138.582V16.4317C140.732 16.4317 141.082 16.8927 141.082 19.6187V24.5336C141.082 27.0276 140.789 27.6557 139.094 27.7457C137.483 27.4997 136.376 26.6207 134.863 24.9557L133.097 23.0357C135.477 22.6127 136.745 21.1157 136.745 19.4257C136.745 17.3147 134.945 15.7016 131.562 15.7016H124.804V16.4306C126.954 16.4306 127.304 16.8916 127.304 19.6176V24.5327C127.304 27.2587 126.959 27.7587 124.804 27.7587V28.4877H132.445V27.7587C130.296 27.7587 129.945 27.2587 129.945 24.5327V23.1507H130.598L134.86 28.4877H150.641L150.872 24.8786L150.293 24.8806ZM129.943 21.9617V16.8557H131.517C132.182 16.8743 132.813 17.1514 133.277 17.6281C133.74 18.1049 134 18.7437 134 19.4086C134 20.0736 133.74 20.7124 133.277 21.1892C132.813 21.6659 132.182 21.943 131.517 21.9617H129.943ZM158.087 28.9886C156.822 28.9508 155.605 28.4911 154.631 27.6826C154.314 28.0557 154.102 28.5065 154.017 28.9886H153.287V23.6887H154.055C154.114 24.7922 154.6 25.8296 155.409 26.5819C156.219 27.3341 157.289 27.7425 158.394 27.7207C158.663 27.7556 158.936 27.7348 159.197 27.6596C159.457 27.5843 159.7 27.4563 159.909 27.2835C160.118 27.1106 160.289 26.8966 160.411 26.6547C160.534 26.4129 160.606 26.1484 160.622 25.8777C160.622 24.8777 159.739 24.1117 158.164 23.3777L155.975 22.3407C155.218 22.0528 154.561 21.5511 154.084 20.8967C153.607 20.2423 153.33 19.4634 153.288 18.6546C153.288 16.8116 155.016 15.2377 157.397 15.2377C158.479 15.2243 159.535 15.5767 160.392 16.2377C160.649 15.9433 160.822 15.585 160.892 15.2007H161.621V19.7317H160.815C160.546 17.9317 159.548 16.4317 157.515 16.4317C156.44 16.4317 155.442 17.0457 155.442 18.0067C155.442 19.0067 156.248 19.5427 158.091 20.3867L160.202 21.4236C160.915 21.6949 161.536 22.1642 161.992 22.7765C162.448 23.3887 162.719 24.1184 162.774 24.8797C162.774 27.2987 160.662 28.9877 158.09 28.9877L158.087 28.9886ZM169.913 28.9886C168.648 28.951 167.431 28.4913 166.457 27.6826C166.14 28.0557 165.928 28.5065 165.843 28.9886H165.113V23.6887H165.881C165.94 24.7922 166.426 25.8296 167.235 26.5819C168.045 27.3341 169.115 27.7425 170.22 27.7207C170.489 27.7554 170.762 27.7345 171.022 27.6592C171.283 27.5839 171.525 27.4559 171.734 27.2831C171.943 27.1102 172.114 26.8962 172.237 26.6545C172.359 26.4127 172.431 26.1483 172.447 25.8777C172.447 24.8777 171.564 24.1117 169.989 23.3777L167.8 22.3407C167.043 22.0528 166.386 21.5511 165.909 20.8967C165.432 20.2423 165.156 19.4634 165.113 18.6546C165.113 16.8116 166.841 15.2377 169.221 15.2377C170.305 15.2233 171.362 15.5757 172.221 16.2377C172.478 15.9434 172.651 15.5851 172.721 15.2007H173.451V19.7317H172.644C172.375 17.9317 171.377 16.4317 169.344 16.4317C168.269 16.4317 167.271 17.0457 167.271 18.0067C167.271 19.0067 168.078 19.5427 169.921 20.3867L172.032 21.4236C172.745 21.6948 173.367 22.1641 173.823 22.7764C174.278 23.3886 174.55 24.1184 174.605 24.8797C174.605 27.2987 172.493 28.9877 169.921 28.9877L169.913 28.9886Z" fill="#464342"/>
<path d="M2.81397 19.9185C2.81392 23.1097 3.71209 26.2365 5.40573 28.9411C7.09937 31.6458 9.52009 33.8191 12.391 35.2125L4.28497 13.0035C3.31344 15.1793 2.81218 17.5357 2.81397 19.9185ZM31.278 19.0605C31.2556 17.3988 30.7708 15.7762 29.878 14.3745C29.017 12.9745 28.209 11.7895 28.209 10.3895C28.1893 9.61181 28.4784 8.85793 29.013 8.29275C29.5477 7.72757 30.2843 7.39708 31.062 7.37354C31.137 7.37354 31.209 7.38254 31.282 7.38754C29.4676 5.72605 27.3141 4.47842 24.9702 3.73093C22.6264 2.98343 20.1481 2.7539 17.7069 3.0582C15.2656 3.3625 12.9196 4.19338 10.8309 5.49338C8.74229 6.79338 6.96092 8.5315 5.60997 10.5875C6.00997 10.5995 6.38397 10.6075 6.70397 10.6075C8.48097 10.6075 11.233 10.3915 11.233 10.3915C11.4186 10.3771 11.6024 10.437 11.7439 10.558C11.8854 10.6791 11.973 10.8514 11.9875 11.037C12.0019 11.2227 11.942 11.4065 11.821 11.548C11.6999 11.6895 11.5276 11.7771 11.342 11.7915C11.342 11.7915 10.421 11.8995 9.39697 11.9535L15.583 30.3585L19.298 19.2055L16.65 11.9515C15.735 11.8975 14.868 11.7895 14.868 11.7895C14.6823 11.7754 14.5099 11.688 14.3887 11.5467C14.2674 11.4054 14.2073 11.2217 14.2215 11.036C14.2357 10.8504 14.323 10.678 14.4643 10.5567C14.6056 10.4355 14.7893 10.3754 14.975 10.3895C14.975 10.3895 17.782 10.6055 19.451 10.6055C21.228 10.6055 23.98 10.3895 23.98 10.3895C24.1656 10.3751 24.3494 10.435 24.4909 10.556C24.6324 10.6771 24.72 10.8494 24.7345 11.035C24.7489 11.2207 24.689 11.4045 24.568 11.546C24.4469 11.6875 24.2746 11.7751 24.089 11.7895C24.089 11.7895 23.166 11.8975 22.144 11.9515L28.289 30.2185L29.984 24.5545C30.6663 22.7919 31.1017 20.9434 31.278 19.0615V19.0605Z" fill="#464342"/>
<path d="M20.1049 21.4046L15.0049 36.2196C18.428 37.2276 22.0816 37.1328 25.4479 35.9486C25.4007 35.8744 25.3602 35.7961 25.3269 35.7146L20.1049 21.4046ZM34.7169 11.7656C34.7941 12.3447 34.8322 12.9284 34.8309 13.5126C34.802 15.6066 34.363 17.6745 33.5389 19.5996L28.3479 34.6066C32.1753 32.3789 34.9823 28.7455 36.1716 24.4797C37.3609 20.2138 36.8386 15.6523 34.7159 11.7656H34.7169Z" fill="#464342"/>
<path d="M19.806 0.110596C15.8884 0.110991 12.059 1.27305 8.80182 3.44982C5.54467 5.62659 3.00614 8.72031 1.50723 12.3398C0.00831521 15.9593 -0.383664 19.9419 0.380858 23.7842C1.14538 27.6264 3.03207 31.1557 5.80235 33.9257C8.57262 36.6957 12.1021 38.582 15.9444 39.3461C19.7867 40.1103 23.7693 39.7179 27.3887 38.2186C31.008 36.7193 34.1015 34.1805 36.2779 30.9231C38.4543 27.6658 39.616 23.8362 39.616 19.9186C39.6099 14.6667 37.5208 9.6317 33.8069 5.91824C30.0931 2.20478 25.0579 0.116154 19.806 0.110596V0.110596ZM19.806 38.8186C16.0679 38.8186 12.4138 37.7101 9.30573 35.6334C6.19764 33.5566 3.77518 30.6048 2.34469 27.1513C0.91419 23.6978 0.539907 19.8976 1.26917 16.2314C1.99843 12.5651 3.79848 9.19749 6.44169 6.55428C9.0849 3.91106 12.4526 2.11101 16.1188 1.38175C19.785 0.652493 23.5852 1.02678 27.0387 2.45727C30.4923 3.88777 33.444 6.31023 35.5208 9.41832C37.5975 12.5264 38.706 16.1805 38.706 19.9186C38.7002 24.9294 36.7071 29.7333 33.1639 33.2765C29.6207 36.8197 24.8168 38.8128 19.806 38.8186Z" fill="#464342"/>
</svg>
