<svg width="2237" height="783" viewBox="0 0 2237 783" fill="none" xmlns="http://www.w3.org/2000/svg">
<mask id="mask0_145_5" style="mask-type:alpha" maskUnits="userSpaceOnUse" x="0" y="0" width="2237" height="783">
<rect width="2237" height="783" fill="#D9D9D9"/>
</mask>
<g mask="url(#mask0_145_5)">
<path d="M51.2395 745.795C51.2395 745.795 318.242 797.695 504.627 593.507C691.013 389.32 829.931 463.018 1013.93 487.018C1197.93 511.017 1206.14 338.68 1397.33 298.422C1588.53 258.164 1669.13 465.111 1855.53 310.064C2041.93 155.017 1881.93 47.0176 2185.93 47.0176" stroke="#52B3E2" stroke-width="2"/>
<path d="M34.4169 689.455C34.4169 689.455 298.337 755.258 495.153 561.105C691.97 366.952 826.84 447.819 1009.33 481.416C1191.82 515.013 1209.04 343.342 1402.08 313.145C1595.12 282.949 1664.78 493.83 1859.04 348.751C2053.3 203.672 1899.17 87.4468 2202.75 103.357" stroke="#52B3E2" stroke-width="2"/>
<path d="M20.5653 632.313C20.5653 632.313 280.68 711.838 487.388 528.251C694.095 344.665 824.549 432.48 1005.03 475.582C1185.52 518.683 1211.69 348.148 1406.05 328.096C1600.4 308.044 1658.93 522.282 1860.52 387.569C2062.1 252.856 1914.27 128.723 2216.6 160.5" stroke="#52B3E2" stroke-width="2"/>
<path d="M9.74578 574.861C9.74578 574.861 265.426 667.885 481.498 495.293C697.57 322.701 823.296 417.234 1001.33 469.715C1179.37 522.196 1214.43 353.213 1409.62 343.333C1604.81 333.453 1652.09 550.516 1860.49 426.477C2068.89 302.437 1927.7 170.718 2228.05 218.25" stroke="#52B3E2" stroke-width="2.00056"/>
<path d="M6.05325e-05 496.74C6.05325e-05 496.74 248.484 607.372 476.025 450.346C703.565 293.319 822.344 396.378 996.23 461.154C1170.12 525.929 1216.88 359.856 1412.23 363.639C1607.58 367.422 1639.56 587.196 1856.07 478.054C2072.57 368.912 1940.96 227.688 2237.17 296.073" stroke="#52B3E2" stroke-width="2"/>
</g>
</svg>
