<svg width="620" height="577" viewBox="0 0 620 577" fill="none" xmlns="http://www.w3.org/2000/svg">
<path d="M277.5 436C358.41 436 424 370.41 424 289.5C424 208.59 358.41 143 277.5 143C196.59 143 131 208.59 131 289.5C131 370.41 196.59 436 277.5 436Z" stroke="#164160" stroke-width="2"/>
<path d="M277.5 491C388.785 491 479 400.785 479 289.5C479 178.215 388.785 88 277.5 88C166.215 88 76 178.215 76 289.5C76 400.785 166.215 491 277.5 491Z" stroke="#92B6DF" stroke-width="2" stroke-dasharray="4 6"/>
<path d="M277.5 550C421.37 550 538 433.37 538 289.5C538 145.63 421.37 29 277.5 29C133.63 29 17 145.63 17 289.5C17 433.37 133.63 550 277.5 550Z" stroke="#164160" stroke-width="2"/>
<path d="M85 254C101.569 254 115 240.569 115 224C115 207.431 101.569 194 85 194C68.4315 194 55 207.431 55 224C55 240.569 68.4315 254 85 254Z" fill="#52B3E2"/>
<path d="M85 251.5C100.188 251.5 112.5 239.188 112.5 224C112.5 208.812 100.188 196.5 85 196.5C69.8122 196.5 57.5 208.812 57.5 224C57.5 239.188 69.8122 251.5 85 251.5Z" stroke="white" stroke-width="5"/>
<path d="M130 332C146.569 332 160 318.569 160 302C160 285.431 146.569 272 130 272C113.431 272 100 285.431 100 302C100 318.569 113.431 332 130 332Z" fill="#52B3E2"/>
<path d="M130 329.5C145.188 329.5 157.5 317.188 157.5 302C157.5 286.812 145.188 274.5 130 274.5C114.812 274.5 102.5 286.812 102.5 302C102.5 317.188 114.812 329.5 130 329.5Z" stroke="white" stroke-width="5"/>
<path d="M182 217C198.569 217 212 203.569 212 187C212 170.431 198.569 157 182 157C165.431 157 152 170.431 152 187C152 203.569 165.431 217 182 217Z" fill="#52B3E2"/>
<path d="M182 214.5C197.188 214.5 209.5 202.188 209.5 187C209.5 171.812 197.188 159.5 182 159.5C166.812 159.5 154.5 171.812 154.5 187C154.5 202.188 166.812 214.5 182 214.5Z" stroke="white" stroke-width="5"/>
<path d="M206 136C222.569 136 236 122.569 236 106C236 89.4315 222.569 76 206 76C189.431 76 176 89.4315 176 106C176 122.569 189.431 136 206 136Z" fill="#52B3E2"/>
<path d="M206 133.5C221.188 133.5 233.5 121.188 233.5 106C233.5 90.8122 221.188 78.5 206 78.5C190.812 78.5 178.5 90.8122 178.5 106C178.5 121.188 190.812 133.5 206 133.5Z" stroke="white" stroke-width="5"/>
<path d="M96 130C112.569 130 126 116.569 126 100C126 83.4315 112.569 70 96 70C79.4315 70 66 83.4315 66 100C66 116.569 79.4315 130 96 130Z" fill="#52B3E2"/>
<path d="M96 127.5C111.188 127.5 123.5 115.188 123.5 100C123.5 84.8122 111.188 72.5 96 72.5C80.8122 72.5 68.5 84.8122 68.5 100C68.5 115.188 80.8122 127.5 96 127.5Z" stroke="white" stroke-width="5"/>
<path d="M30 362C46.5685 362 60 348.569 60 332C60 315.431 46.5685 302 30 302C13.4315 302 0 315.431 0 332C0 348.569 13.4315 362 30 362Z" fill="#52B3E2"/>
<path d="M30 359.5C45.1878 359.5 57.5 347.188 57.5 332C57.5 316.812 45.1878 304.5 30 304.5C14.8122 304.5 2.5 316.812 2.5 332C2.5 347.188 14.8122 359.5 30 359.5Z" stroke="white" stroke-width="5"/>
<path d="M471 254C487.569 254 501 240.569 501 224C501 207.431 487.569 194 471 194C454.431 194 441 207.431 441 224C441 240.569 454.431 254 471 254Z" fill="#52B3E2"/>
<path d="M471 251.5C486.188 251.5 498.5 239.188 498.5 224C498.5 208.812 486.188 196.5 471 196.5C455.812 196.5 443.5 208.812 443.5 224C443.5 239.188 455.812 251.5 471 251.5Z" stroke="white" stroke-width="5"/>
<path d="M426 332C442.569 332 456 318.569 456 302C456 285.431 442.569 272 426 272C409.431 272 396 285.431 396 302C396 318.569 409.431 332 426 332Z" fill="#52B3E2"/>
<path d="M426 329.5C441.188 329.5 453.5 317.188 453.5 302C453.5 286.812 441.188 274.5 426 274.5C410.812 274.5 398.5 286.812 398.5 302C398.5 317.188 410.812 329.5 426 329.5Z" stroke="white" stroke-width="5"/>
<path d="M374 217C390.569 217 404 203.569 404 187C404 170.431 390.569 157 374 157C357.431 157 344 170.431 344 187C344 203.569 357.431 217 374 217Z" fill="#52B3E2"/>
<path d="M374 214.5C389.188 214.5 401.5 202.188 401.5 187C401.5 171.812 389.188 159.5 374 159.5C358.812 159.5 346.5 171.812 346.5 187C346.5 202.188 358.812 214.5 374 214.5Z" stroke="white" stroke-width="5"/>
<path d="M350 136C366.569 136 380 122.569 380 106C380 89.4315 366.569 76 350 76C333.431 76 320 89.4315 320 106C320 122.569 333.431 136 350 136Z" fill="#52B3E2"/>
<path d="M350 133.5C365.188 133.5 377.5 121.188 377.5 106C377.5 90.8122 365.188 78.5 350 78.5C334.812 78.5 322.5 90.8122 322.5 106C322.5 121.188 334.812 133.5 350 133.5Z" stroke="white" stroke-width="5"/>
<path d="M460 130C476.569 130 490 116.569 490 100C490 83.4315 476.569 70 460 70C443.431 70 430 83.4315 430 100C430 116.569 443.431 130 460 130Z" fill="#52B3E2"/>
<path d="M460 127.5C475.188 127.5 487.5 115.188 487.5 100C487.5 84.8122 475.188 72.5 460 72.5C444.812 72.5 432.5 84.8122 432.5 100C432.5 115.188 444.812 127.5 460 127.5Z" stroke="white" stroke-width="5"/>
<path d="M526 362C542.569 362 556 348.569 556 332C556 315.431 542.569 302 526 302C509.431 302 496 315.431 496 332C496 348.569 509.431 362 526 362Z" fill="#52B3E2"/>
<path d="M526 359.5C541.188 359.5 553.5 347.188 553.5 332C553.5 316.812 541.188 304.5 526 304.5C510.812 304.5 498.5 316.812 498.5 332C498.5 347.188 510.812 359.5 526 359.5Z" stroke="white" stroke-width="5"/>
<path d="M276 60C292.569 60 306 46.5685 306 30C306 13.4315 292.569 0 276 0C259.431 0 246 13.4315 246 30C246 46.5685 259.431 60 276 60Z" fill="#52B3E2"/>
<path d="M276 57.5C291.188 57.5 303.5 45.1878 303.5 30C303.5 14.8122 291.188 2.5 276 2.5C260.812 2.5 248.5 14.8122 248.5 30C248.5 45.1878 260.812 57.5 276 57.5Z" stroke="white" stroke-width="5"/>
<path d="M96 507C112.569 507 126 493.569 126 477C126 460.431 112.569 447 96 447C79.4315 447 66 460.431 66 477C66 493.569 79.4315 507 96 507Z" fill="#52B3E2"/>
<path d="M96 504.5C111.188 504.5 123.5 492.188 123.5 477C123.5 461.812 111.188 449.5 96 449.5C80.8122 449.5 68.5 461.812 68.5 477C68.5 492.188 80.8122 504.5 96 504.5Z" stroke="white" stroke-width="5"/>
<path d="M460 507C476.569 507 490 493.569 490 477C490 460.431 476.569 447 460 447C443.431 447 430 460.431 430 477C430 493.569 443.431 507 460 507Z" fill="#52B3E2"/>
<path d="M460 504.5C475.188 504.5 487.5 492.188 487.5 477C487.5 461.812 475.188 449.5 460 449.5C444.812 449.5 432.5 461.812 432.5 477C432.5 492.188 444.812 504.5 460 504.5Z" stroke="white" stroke-width="5"/>
<path d="M276 577C292.569 577 306 563.569 306 547C306 530.431 292.569 517 276 517C259.431 517 246 530.431 246 547C246 563.569 259.431 577 276 577Z" fill="#52B3E2"/>
<path d="M276 574.5C291.188 574.5 303.5 562.188 303.5 547C303.5 531.812 291.188 519.5 276 519.5C260.812 519.5 248.5 531.812 248.5 547C248.5 562.188 260.812 574.5 276 574.5Z" stroke="white" stroke-width="5"/>
<path d="M96.333 84.4651L82.866 92.2391V107.765L86.71 109.988L86.683 94.4581L96.306 88.9031L105.929 94.4581V109.982L109.774 107.765V92.2251L96.333 84.4651Z" fill="white"/>
<path d="M98.2399 109.985L96.3189 111.101L94.3879 109.995V94.4581L90.5469 96.6771L90.5539 112.208L96.3159 115.537L102.084 112.208V96.6771L98.2399 94.4581V109.985Z" fill="white"/>
<path d="M191.067 120.923C191.067 120.903 200.967 91.1959 201.005 91.0939L201.042 91.0029H211.017L211.409 92.1939C211.625 92.8489 213.864 99.5779 216.384 107.147C218.904 114.716 220.967 120.915 220.967 120.922C220.967 120.929 219.234 120.935 217.116 120.935C212.973 120.935 213.086 120.935 212.551 120.764C211.605 120.445 210.819 119.771 210.36 118.885C210.25 118.672 206.068 106.196 206.068 106.085C206.068 105.974 206.006 106.052 205.942 106.231C205.904 106.337 204.964 109.153 203.852 112.489C202.74 115.825 201.785 118.653 201.73 118.772C201.356 119.572 200.714 120.216 199.914 120.591C199.624 120.746 199.309 120.848 198.984 120.891C198.761 120.932 198.099 120.94 194.892 120.94C192.788 120.933 191.067 120.923 191.067 120.923Z" fill="white"/>
<path d="M184.75 174.211V196.711C184.71 197.207 184.773 197.706 184.934 198.177C185.095 198.648 185.352 199.081 185.688 199.449C186.023 199.816 186.431 200.111 186.885 200.314C187.34 200.518 187.831 200.626 188.329 200.631C188.829 200.633 189.324 200.53 189.782 200.329C190.24 200.128 190.65 199.833 190.987 199.464C191.325 199.095 191.581 198.659 191.74 198.185C191.898 197.711 191.956 197.209 191.909 196.711V174.382C191.931 173.898 191.855 173.414 191.686 172.96C191.516 172.506 191.256 172.092 190.921 171.741C190.586 171.391 190.184 171.112 189.739 170.921C189.293 170.73 188.814 170.632 188.329 170.632C187.384 170.647 186.483 171.029 185.815 171.697C185.147 172.365 184.765 173.266 184.75 174.211V174.211Z" fill="white"/>
<path d="M175.375 185.633V196.713C175.335 197.209 175.398 197.708 175.559 198.179C175.72 198.65 175.977 199.083 176.313 199.451C176.648 199.818 177.056 200.113 177.51 200.316C177.965 200.52 178.456 200.628 178.954 200.633C179.454 200.635 179.949 200.532 180.407 200.331C180.865 200.13 181.275 199.835 181.612 199.466C181.95 199.097 182.206 198.661 182.365 198.187C182.523 197.713 182.581 197.211 182.534 196.713V185.803C182.556 185.319 182.48 184.835 182.311 184.381C182.141 183.927 181.881 183.513 181.546 183.162C181.211 182.812 180.809 182.533 180.364 182.342C179.918 182.151 179.439 182.053 178.954 182.053C178.009 182.068 177.108 182.45 176.44 183.118C175.772 183.787 175.39 184.688 175.375 185.633V185.633Z" fill="white"/>
<path d="M169.58 200.633C171.557 200.633 173.16 199.03 173.16 197.053C173.16 195.076 171.557 193.473 169.58 193.473C167.603 193.473 166 195.076 166 197.053C166 199.03 167.603 200.633 169.58 200.633Z" fill="white"/>
<path fill-rule="evenodd" clip-rule="evenodd" d="M91.8922 217.232C92.3123 217.232 92.723 217.107 93.0723 216.874C93.4216 216.64 93.6939 216.309 93.8546 215.921C94.0153 215.532 94.0573 215.105 93.9753 214.693C93.8932 214.281 93.6909 213.903 93.3937 213.606C93.0966 213.309 92.718 213.106 92.3059 213.025C91.8938 212.943 91.4668 212.985 91.0787 213.146C90.6906 213.307 90.3589 213.579 90.1256 213.929C89.8924 214.278 89.768 214.689 89.7682 215.109C89.7682 215.388 89.8231 215.664 89.9299 215.922C90.0366 216.179 90.1931 216.413 90.3903 216.611C90.5876 216.808 90.8217 216.964 91.0794 217.071C91.3371 217.177 91.6133 217.232 91.8922 217.232V217.232ZM76.8472 216.584L83.3622 210.069C83.6176 209.814 83.9208 209.612 84.2544 209.475C84.588 209.337 84.9454 209.267 85.3062 209.268H94.9692C95.332 209.267 95.6915 209.337 96.0269 209.476C96.3624 209.614 96.6672 209.817 96.9238 210.074C97.1804 210.33 97.3837 210.635 97.5221 210.97C97.6605 211.306 97.7312 211.665 97.7302 212.028V221.691C97.7319 222.053 97.6606 222.413 97.5206 222.747C97.3806 223.081 97.1747 223.384 96.9152 223.637L90.4102 230.148L76.8472 216.584Z" fill="white"/>
<path fill-rule="evenodd" clip-rule="evenodd" d="M90.413 230.149L82.384 238.185C81.8622 238.702 81.1587 238.995 80.424 239C80.062 238.999 79.7038 238.926 79.3699 238.786C79.036 238.646 78.7329 238.442 78.478 238.185L68.815 228.522C68.5555 228.269 68.3496 227.966 68.2096 227.632C68.0696 227.298 67.9983 226.938 68 226.576C67.9999 226.212 68.0719 225.851 68.2118 225.514C68.3516 225.178 68.5567 224.872 68.815 224.615L76.848 216.582L90.413 230.149Z" fill="white"/>
<path fill-rule="evenodd" clip-rule="evenodd" d="M73.5001 233.212L68.811 228.523C68.5523 228.27 68.3471 227.967 68.2078 227.632C68.0684 227.298 67.9978 226.939 68.0001 226.577C68 226.213 68.072 225.852 68.2118 225.516C68.3517 225.179 68.5567 224.874 68.8151 224.617L76.8481 216.584L83.4901 223.226L73.5001 233.212Z" fill="white"/>
<path fill-rule="evenodd" clip-rule="evenodd" d="M96.779 209.936C96.2768 209.503 95.6351 209.266 94.972 209.268H85.306C84.9449 209.267 84.5872 209.337 84.2532 209.474C83.9193 209.611 83.6157 209.813 83.36 210.068L76.845 216.583L83.487 223.226L90.252 216.461C89.916 216.053 89.7438 215.535 89.7691 215.008C89.7945 214.48 90.0154 213.981 90.3888 213.608C90.7623 213.234 91.2614 213.013 91.789 212.988C92.3165 212.963 92.8345 213.135 93.242 213.471L96.779 209.936Z" fill="white"/>
<path d="M83.4859 228.292C84.3392 228.292 85.1733 228.039 85.8827 227.565C86.5922 227.091 87.1451 226.417 87.4716 225.629C87.7981 224.84 87.8835 223.973 87.7169 223.136C87.5504 222.299 87.1394 221.53 86.536 220.927C85.9326 220.324 85.1638 219.913 84.3269 219.747C83.49 219.58 82.6226 219.666 81.8343 219.993C81.046 220.319 80.3723 220.872 79.8984 221.582C79.4245 222.292 79.1717 223.126 79.1719 223.979C79.1721 225.123 79.6268 226.22 80.4358 227.029C81.2448 227.838 82.3419 228.292 83.4859 228.292V228.292Z" fill="white"/>
<path fill-rule="evenodd" clip-rule="evenodd" d="M89.363 222.711H83.626V225.171H86.926C86.7726 225.914 86.3519 226.575 85.7437 227.029C85.1355 227.483 84.382 227.698 83.626 227.633C82.6487 227.601 81.7221 227.19 81.042 226.488C80.3619 225.785 79.9817 224.846 79.9817 223.868C79.9817 222.89 80.3619 221.951 81.042 221.248C81.7221 220.545 82.6487 220.135 83.626 220.103C84.4576 220.104 85.2615 220.402 85.893 220.943L87.684 219.09C86.5783 218.07 85.1303 217.501 83.626 217.497C82.8028 217.509 81.99 217.683 81.2344 218.01C80.4789 218.338 79.7954 218.811 79.2232 219.403C78.6511 219.995 78.2016 220.694 77.9005 221.46C77.5995 222.227 77.4528 223.045 77.469 223.868C77.4528 224.691 77.5995 225.509 77.9005 226.276C78.2016 227.042 78.6511 227.741 79.2232 228.333C79.7954 228.925 80.4789 229.398 81.2344 229.725C81.99 230.052 82.8028 230.227 83.626 230.239C86.705 230.239 89.503 227.922 89.503 223.868C89.4977 223.478 89.4507 223.09 89.363 222.71V222.711Z" fill="#52B3E2"/>
<path d="M286.358 40.13L275.984 42.666L265.638 40.134L263.333 17.334H288.666L286.358 40.13Z" fill="white"/>
<path d="M269.489 36.2389L269.047 31.8489H272.228L272.454 34.0789L275.986 34.9199L279.523 34.0779L279.891 30.4509H268.903L268.618 27.6539H280.169L280.458 24.7939H268.336L268.047 21.9939H283.933L283.361 27.6539L283.283 28.4049L282.537 35.7669L282.49 36.2399L276 37.8259H275.985L269.489 36.2389Z" fill="#52B3E2"/>
<path d="M361.69 94L359.601 117.4L350.213 120L340.851 117.4L338.764 94H361.69Z" fill="white"/>
<path d="M344.33 113.403L343.93 108.897H346.813L347.018 111.183L350.218 112.046L353.418 111.182L353.751 107.46H343.804L343.099 99.553L343.03 98.783H357.406L357.338 99.553L357.207 101.008L357.15 101.653H346.166L346.43 104.592H356.889L356.819 105.363L356.144 112.919L356.101 113.404L350.23 115.031H350.221H350.213L344.33 113.403Z" fill="#52B3E2"/>
<path d="M361.132 186.999C361.132 189.416 361.812 191.783 363.094 193.831C364.377 195.879 366.21 197.525 368.384 198.58L362.246 181.763C361.51 183.411 361.131 185.195 361.132 186.999V186.999ZM382.687 186.35C382.67 185.091 382.303 183.863 381.626 182.801C380.935 181.931 380.497 180.887 380.362 179.784C380.347 179.195 380.566 178.624 380.971 178.196C381.376 177.768 381.934 177.518 382.523 177.5C382.58 177.5 382.634 177.507 382.69 177.51C381.316 176.252 379.685 175.307 377.91 174.741C376.135 174.175 374.258 174.001 372.41 174.232C370.561 174.462 368.784 175.091 367.203 176.076C365.621 177.061 364.272 178.377 363.249 179.934C363.549 179.943 363.835 179.949 364.077 179.949C365.423 179.949 367.506 179.786 367.506 179.786C367.644 179.78 367.778 179.828 367.881 179.92C367.984 180.011 368.047 180.139 368.058 180.276C368.069 180.413 368.026 180.549 367.938 180.656C367.851 180.762 367.726 180.83 367.589 180.846C367.589 180.846 366.889 180.928 366.116 180.969L370.802 194.907L373.616 186.459L371.616 180.966C370.923 180.925 370.266 180.843 370.266 180.843C370.13 180.827 370.005 180.759 369.918 180.653C369.83 180.547 369.788 180.411 369.798 180.274C369.809 180.137 369.871 180.01 369.974 179.918C370.076 179.827 370.21 179.778 370.347 179.783C370.347 179.783 372.472 179.946 373.737 179.946C375.082 179.946 377.166 179.783 377.166 179.783C377.304 179.777 377.438 179.825 377.541 179.917C377.644 180.008 377.707 180.136 377.718 180.273C377.729 180.41 377.686 180.546 377.598 180.653C377.511 180.759 377.386 180.827 377.249 180.843C377.249 180.843 376.549 180.925 375.776 180.966L380.426 194.799L381.709 190.51C382.225 189.175 382.554 187.775 382.687 186.35V186.35Z" fill="white"/>
<path d="M374.226 188.125L370.365 199.344C372.957 200.109 375.723 200.039 378.273 199.144C378.237 199.088 378.206 199.029 378.181 198.967L374.226 188.125ZM385.291 180.825C385.35 181.264 385.379 181.706 385.378 182.148C385.356 183.734 385.024 185.299 384.4 186.757L380.469 198.121C383.369 196.435 385.496 193.683 386.396 190.451C387.297 187.22 386.9 183.764 385.291 180.821V180.825Z" fill="white"/>
<path d="M374 172C371.033 172 368.133 172.88 365.666 174.528C363.2 176.176 361.277 178.519 360.142 181.26C359.006 184.001 358.709 187.017 359.288 189.926C359.867 192.836 361.296 195.509 363.393 197.607C365.491 199.704 368.164 201.133 371.074 201.712C373.983 202.291 376.999 201.994 379.74 200.858C382.481 199.723 384.824 197.8 386.472 195.334C388.12 192.867 389 189.967 389 187C388.996 183.023 387.414 179.21 384.602 176.398C381.79 173.586 377.977 172.004 374 172V172ZM374 201.312C371.169 201.312 368.402 200.473 366.048 198.9C363.695 197.328 361.86 195.093 360.777 192.478C359.693 189.862 359.41 186.985 359.962 184.208C360.514 181.432 361.877 178.882 363.879 176.88C365.88 174.879 368.43 173.515 371.207 172.963C373.983 172.411 376.861 172.694 379.476 173.777C382.091 174.861 384.326 176.695 385.899 179.049C387.472 181.402 388.311 184.169 388.311 187C388.307 190.794 386.797 194.432 384.115 197.115C381.432 199.798 377.794 201.307 374 201.312Z" fill="white"/>
<path d="M481.87 223.882C481.87 224.441 481.59 224.527 480.881 224.527C480.128 224.527 479.999 224.398 479.913 223.839C479.874 223.118 479.572 222.436 479.065 221.921C478.558 221.406 477.881 221.094 477.16 221.044C476.644 221.001 476.515 220.807 476.515 220.162C476.515 219.562 476.601 219.28 477.074 219.28C478.319 219.26 479.521 219.732 480.419 220.594C481.318 221.456 481.839 222.637 481.87 223.882V223.882ZM486 223.882C486 219.56 483.076 215 476.322 215H462.9C462.629 215 462.462 215.142 462.462 215.389C462.469 215.454 462.489 215.517 462.522 215.573C462.555 215.63 462.6 215.679 462.654 215.716C463.334 216.215 464.061 216.648 464.824 217.008C465.756 217.474 466.475 217.776 467.206 218.073C467.506 218.196 467.628 218.329 467.628 218.508C467.628 218.741 467.463 218.89 467.128 218.89H456.467C456.409 218.883 456.35 218.889 456.294 218.906C456.238 218.923 456.186 218.952 456.142 218.991C456.098 219.03 456.063 219.077 456.038 219.13C456.014 219.184 456.001 219.241 456 219.3C456 219.388 456.019 219.476 456.055 219.556C456.092 219.637 456.144 219.709 456.21 219.768C457.493 221.015 458.919 222.106 460.459 223.016C462.292 224.153 464.182 225.194 466.123 226.134C466.413 226.274 466.513 226.434 466.507 226.601C466.499 226.793 466.347 226.957 466.007 226.957H461.128C460.85 226.957 460.696 227.103 460.696 227.327C460.721 227.485 460.804 227.628 460.929 227.727C462.503 229.04 464.276 230.092 466.183 230.844C469.324 232.244 472.722 232.978 476.161 233C483 233 486 227.882 486 223.882ZM477.075 230.011C476.276 230.011 475.484 229.854 474.746 229.548C474.008 229.242 473.337 228.794 472.772 228.228C472.206 227.663 471.758 226.992 471.452 226.254C471.146 225.516 470.989 224.724 470.989 223.925C470.989 223.126 471.146 222.334 471.452 221.596C471.758 220.858 472.206 220.187 472.772 219.622C473.337 219.056 474.008 218.608 474.746 218.302C475.484 217.996 476.276 217.839 477.075 217.839C477.874 217.839 478.666 217.996 479.404 218.302C480.142 218.608 480.813 219.056 481.378 219.622C481.944 220.187 482.392 220.858 482.698 221.596C483.004 222.334 483.161 223.126 483.161 223.925C483.161 224.724 483.004 225.516 482.698 226.254C482.392 226.992 481.944 227.663 481.378 228.228C480.813 228.794 480.142 229.242 479.404 229.548C478.666 229.854 477.874 230.011 477.075 230.011Z" fill="white"/>
<path d="M421 302C421 301.011 421.293 300.044 421.843 299.222C422.392 298.4 423.173 297.759 424.087 297.381C425 297.002 426.006 296.903 426.975 297.096C427.945 297.289 428.836 297.765 429.536 298.464C430.235 299.164 430.711 300.055 430.904 301.025C431.097 301.994 430.998 303 430.619 303.913C430.241 304.827 429.6 305.608 428.778 306.157C427.956 306.707 426.989 307 426 307C424.674 307 423.402 306.473 422.464 305.536C421.527 304.598 421 303.326 421 302ZM418.3 302C418.3 303.523 418.752 305.012 419.598 306.278C420.444 307.544 421.646 308.531 423.053 309.114C424.46 309.697 426.009 309.849 427.502 309.552C428.996 309.255 430.368 308.522 431.445 307.445C432.522 306.368 433.255 304.996 433.552 303.502C433.849 302.009 433.697 300.46 433.114 299.053C432.531 297.646 431.544 296.444 430.278 295.598C429.012 294.752 427.523 294.3 426 294.3C423.958 294.3 421.999 295.111 420.555 296.555C419.111 297.999 418.3 299.958 418.3 302M432.21 293.992C432.21 294.348 432.316 294.696 432.513 294.992C432.711 295.288 432.992 295.519 433.321 295.655C433.65 295.791 434.012 295.827 434.361 295.757C434.71 295.688 435.031 295.517 435.283 295.265C435.535 295.013 435.706 294.692 435.775 294.343C435.845 293.994 435.809 293.632 435.673 293.303C435.537 292.974 435.306 292.693 435.01 292.495C434.714 292.298 434.366 292.192 434.01 292.192V292.192C433.533 292.192 433.075 292.382 432.737 292.719C432.4 293.057 432.21 293.515 432.21 293.992M419.94 314.211C418.989 314.2 418.046 314.026 417.154 313.695C416.503 313.454 415.913 313.071 415.429 312.573C414.93 312.09 414.547 311.501 414.307 310.849C413.976 309.957 413.802 309.014 413.791 308.063C413.718 306.482 413.7 306.007 413.7 302C413.7 297.993 413.716 297.52 413.787 295.938C413.799 294.987 413.973 294.044 414.303 293.152C414.545 292.501 414.93 291.912 415.429 291.428C415.913 290.929 416.503 290.546 417.155 290.306C418.047 289.975 418.989 289.801 419.94 289.79C421.522 289.717 422 289.7 426 289.7C430 289.7 430.48 289.716 432.062 289.787C433.013 289.799 433.956 289.973 434.848 290.303C435.5 290.543 436.089 290.927 436.573 291.425C437.073 291.909 437.459 292.5 437.7 293.153C438.031 294.045 438.205 294.988 438.216 295.939C438.289 297.522 438.303 297.995 438.303 302.001C438.303 306.007 438.288 306.481 438.216 308.063C438.205 309.014 438.03 309.957 437.7 310.849C437.45 311.496 437.068 312.083 436.578 312.573C436.087 313.064 435.5 313.446 434.853 313.695C433.961 314.026 433.018 314.2 432.067 314.211C430.486 314.284 430.011 314.298 426.005 314.298C421.999 314.298 421.525 314.283 419.945 314.211M419.816 287.091C418.571 287.117 417.34 287.353 416.175 287.791C415.174 288.168 414.267 288.758 413.518 289.521C412.755 290.269 412.164 291.175 411.788 292.175C411.35 293.34 411.114 294.571 411.088 295.816C411.017 297.416 411 297.927 411 302C411 306.073 411.017 306.585 411.091 308.184C411.117 309.429 411.353 310.66 411.791 311.825C412.167 312.826 412.757 313.733 413.521 314.482C414.271 315.244 415.177 315.835 416.178 316.212C417.343 316.649 418.574 316.886 419.819 316.912C421.419 316.985 421.93 317.003 426.003 317.003C430.076 317.003 430.588 316.986 432.187 316.912C433.432 316.886 434.663 316.65 435.828 316.212C436.824 315.827 437.729 315.237 438.485 314.482C439.24 313.726 439.83 312.821 440.215 311.825C440.653 310.66 440.89 309.429 440.915 308.184C440.988 306.584 441.005 306.073 441.005 302C441.005 297.927 440.988 297.415 440.915 295.816C440.889 294.571 440.653 293.34 440.215 292.175C439.838 291.174 439.247 290.268 438.485 289.518C437.736 288.755 436.828 288.164 435.827 287.788C434.662 287.35 433.431 287.113 432.186 287.088C430.587 287.018 430.075 287 426 287C421.925 287 421.416 287.017 419.816 287.091Z" fill="white"/>
<path d="M421 302C421 301.011 421.293 300.044 421.843 299.222C422.392 298.4 423.173 297.759 424.087 297.381C425 297.002 426.006 296.903 426.975 297.096C427.945 297.289 428.836 297.765 429.536 298.464C430.235 299.164 430.711 300.055 430.904 301.025C431.097 301.994 430.998 303 430.619 303.913C430.241 304.827 429.6 305.608 428.778 306.157C427.956 306.707 426.989 307 426 307C424.674 307 423.402 306.473 422.464 305.536C421.527 304.598 421 303.326 421 302ZM418.3 302C418.3 303.523 418.752 305.012 419.598 306.278C420.444 307.544 421.646 308.531 423.053 309.114C424.46 309.697 426.009 309.849 427.502 309.552C428.996 309.255 430.368 308.522 431.445 307.445C432.522 306.368 433.255 304.996 433.552 303.502C433.849 302.009 433.697 300.46 433.114 299.053C432.531 297.646 431.544 296.444 430.278 295.598C429.012 294.752 427.523 294.3 426 294.3C423.958 294.3 421.999 295.111 420.555 296.555C419.111 297.999 418.3 299.958 418.3 302M432.21 293.992C432.21 294.348 432.316 294.696 432.513 294.992C432.711 295.288 432.992 295.519 433.321 295.655C433.65 295.791 434.012 295.827 434.361 295.757C434.71 295.688 435.031 295.517 435.283 295.265C435.535 295.013 435.706 294.692 435.775 294.343C435.845 293.994 435.809 293.632 435.673 293.303C435.537 292.974 435.306 292.693 435.01 292.495C434.714 292.298 434.366 292.192 434.01 292.192V292.192C433.533 292.192 433.075 292.382 432.737 292.719C432.4 293.057 432.21 293.515 432.21 293.992M419.94 314.211C418.989 314.2 418.046 314.026 417.154 313.695C416.503 313.454 415.913 313.071 415.429 312.573C414.93 312.09 414.547 311.501 414.307 310.849C413.976 309.957 413.802 309.014 413.791 308.063C413.718 306.482 413.7 306.007 413.7 302C413.7 297.993 413.716 297.52 413.787 295.938C413.799 294.987 413.973 294.044 414.303 293.152C414.545 292.501 414.93 291.912 415.429 291.428C415.913 290.929 416.503 290.546 417.155 290.306C418.047 289.975 418.989 289.801 419.94 289.79C421.522 289.717 422 289.7 426 289.7C430 289.7 430.48 289.716 432.062 289.787C433.013 289.799 433.956 289.973 434.848 290.303C435.5 290.543 436.089 290.927 436.573 291.425C437.073 291.909 437.459 292.5 437.7 293.153C438.031 294.045 438.205 294.988 438.216 295.939C438.289 297.522 438.303 297.995 438.303 302.001C438.303 306.007 438.288 306.481 438.216 308.063C438.205 309.014 438.03 309.957 437.7 310.849C437.45 311.496 437.068 312.083 436.578 312.573C436.087 313.064 435.5 313.446 434.853 313.695C433.961 314.026 433.018 314.2 432.067 314.211C430.486 314.284 430.011 314.298 426.005 314.298C421.999 314.298 421.525 314.283 419.945 314.211M419.816 287.091C418.571 287.117 417.34 287.353 416.175 287.791C415.174 288.168 414.267 288.758 413.518 289.521C412.755 290.269 412.164 291.175 411.788 292.175C411.35 293.34 411.114 294.571 411.088 295.816C411.017 297.416 411 297.927 411 302C411 306.073 411.017 306.585 411.091 308.184C411.117 309.429 411.353 310.66 411.791 311.825C412.167 312.826 412.757 313.733 413.521 314.482C414.271 315.244 415.177 315.835 416.178 316.212C417.343 316.649 418.574 316.886 419.819 316.912C421.419 316.985 421.93 317.003 426.003 317.003C430.076 317.003 430.588 316.986 432.187 316.912C433.432 316.886 434.663 316.65 435.828 316.212C436.824 315.827 437.729 315.237 438.485 314.482C439.24 313.726 439.83 312.821 440.215 311.825C440.653 310.66 440.89 309.429 440.915 308.184C440.988 306.584 441.005 306.073 441.005 302C441.005 297.927 440.988 297.415 440.915 295.816C440.889 294.571 440.653 293.34 440.215 292.175C439.838 291.174 439.247 290.268 438.485 289.518C437.736 288.755 436.828 288.164 435.827 287.788C434.662 287.35 433.431 287.113 432.186 287.088C430.587 287.018 430.075 287 426 287C421.925 287 421.416 287.017 419.816 287.091Z" fill="white"/>
<path d="M527.585 344.469V332.851H531.485L532.069 328.323H527.585V325.433C527.585 324.122 527.949 323.233 529.829 323.233H532.229V319.178C531.068 319.055 529.902 318.996 528.735 319C525.278 319 522.912 321.11 522.912 324.985V328.324H519.002V332.852H522.912V344.469H527.588H527.585Z" fill="white"/>
<path d="M44.6318 330.65L31.2888 317.31L29.9788 316L19.9518 326.027L15.3678 330.65C15.2514 330.761 15.1588 330.894 15.0955 331.042C15.0322 331.19 14.9995 331.349 14.9995 331.509C14.9995 331.67 15.0322 331.829 15.0955 331.977C15.1588 332.125 15.2514 332.258 15.3678 332.369L30.0198 347.021L40.0468 336.994L40.2108 336.83L44.6308 332.369C44.7473 332.258 44.84 332.125 44.9034 331.977C44.9668 331.829 44.9996 331.67 44.9997 331.51C44.9998 331.349 44.9672 331.19 44.904 331.042C44.8407 330.894 44.7482 330.761 44.6318 330.65V330.65ZM29.9798 336.094L25.3958 331.51L29.9798 326.926L34.5638 331.51L29.9798 336.094Z" fill="white"/>
<path d="M29.9789 326.928C28.547 325.481 27.7405 323.529 27.7328 321.493C27.7252 319.457 28.517 317.499 29.9379 316.041L19.9109 326.068L25.3539 331.511L29.9789 326.928Z" fill="white"/>
<path d="M34.604 331.471L29.979 336.096C31.4206 337.541 32.2302 339.498 32.2302 341.539C32.2302 343.58 31.4206 345.538 29.979 346.983L40.047 336.915L34.604 331.471Z" fill="white"/>
<path d="M465.75 88.579V111.079C465.71 111.575 465.773 112.074 465.934 112.545C466.095 113.016 466.352 113.449 466.688 113.817C467.023 114.184 467.431 114.479 467.885 114.682C468.34 114.886 468.831 114.994 469.329 114.999C469.829 115.001 470.324 114.898 470.782 114.697C471.24 114.496 471.65 114.201 471.987 113.832C472.325 113.463 472.581 113.027 472.74 112.553C472.898 112.079 472.956 111.577 472.909 111.079V88.75C472.931 88.2659 472.855 87.7823 472.686 87.3284C472.516 86.8745 472.256 86.4597 471.921 86.1092C471.586 85.7586 471.184 85.4796 470.739 85.289C470.293 85.0983 469.814 85 469.329 85C468.384 85.0152 467.483 85.3971 466.815 86.0651C466.147 86.733 465.765 87.6345 465.75 88.579V88.579Z" fill="white"/>
<path d="M456.375 100.001V111.081C456.335 111.577 456.398 112.076 456.559 112.547C456.72 113.018 456.977 113.451 457.313 113.819C457.648 114.186 458.056 114.481 458.51 114.684C458.965 114.888 459.456 114.996 459.954 115.001C460.454 115.003 460.949 114.9 461.407 114.699C461.865 114.498 462.275 114.203 462.612 113.834C462.95 113.465 463.206 113.029 463.365 112.555C463.523 112.081 463.581 111.579 463.534 111.081V100.171C463.556 99.6869 463.48 99.2033 463.311 98.7494C463.141 98.2955 462.881 97.8807 462.546 97.5302C462.211 97.1797 461.809 96.9006 461.364 96.71C460.918 96.5193 460.439 96.421 459.954 96.421C459.009 96.4362 458.108 96.8183 457.44 97.4865C456.772 98.1546 456.39 99.0564 456.375 100.001V100.001Z" fill="white"/>
<path d="M450.58 115.001C452.557 115.001 454.16 113.398 454.16 111.421C454.16 109.444 452.557 107.841 450.58 107.841C448.603 107.841 447 109.444 447 111.421C447 113.398 448.603 115.001 450.58 115.001Z" fill="white"/>
<path d="M83.1321 476.999C83.1318 479.416 83.8119 481.783 85.0944 483.831C86.3769 485.879 88.21 487.525 90.3841 488.58L84.2461 471.763C83.5104 473.411 83.1308 475.195 83.1321 476.999V476.999ZM104.687 476.35C104.67 475.091 104.303 473.863 103.626 472.801C102.935 471.931 102.497 470.887 102.362 469.784C102.347 469.195 102.566 468.624 102.971 468.196C103.376 467.768 103.934 467.518 104.523 467.5C104.58 467.5 104.634 467.507 104.69 467.51C103.316 466.252 101.685 465.307 99.9102 464.741C98.1352 464.175 96.2584 464.001 94.4097 464.232C92.5609 464.462 90.7843 465.091 89.2026 466.076C87.621 467.061 86.272 468.377 85.2491 469.934C85.5491 469.943 85.8351 469.949 86.0771 469.949C87.4231 469.949 89.5061 469.786 89.5061 469.786C89.6436 469.78 89.7779 469.828 89.8808 469.92C89.9837 470.011 90.0472 470.139 90.058 470.276C90.0687 470.413 90.0259 470.549 89.9384 470.656C89.851 470.762 89.7258 470.83 89.5891 470.846C89.5891 470.846 88.8891 470.928 88.1161 470.969L92.8021 484.907L95.6161 476.459L93.6161 470.966C92.9231 470.925 92.2661 470.843 92.2661 470.843C92.1297 470.827 92.0049 470.759 91.9177 470.653C91.8305 470.547 91.7876 470.411 91.7981 470.274C91.8085 470.137 91.8715 470.01 91.9738 469.918C92.0761 469.827 92.2099 469.778 92.3471 469.783C92.3471 469.783 94.4721 469.946 95.7371 469.946C97.0821 469.946 99.1661 469.783 99.1661 469.783C99.3036 469.777 99.4379 469.825 99.5408 469.917C99.6437 470.008 99.7072 470.136 99.718 470.273C99.7287 470.41 99.6859 470.546 99.5984 470.653C99.511 470.759 99.3858 470.827 99.2491 470.843C99.2491 470.843 98.5491 470.925 97.7761 470.966L102.426 484.799L103.709 480.51C104.225 479.175 104.554 477.775 104.687 476.35V476.35Z" fill="white"/>
<path d="M96.226 478.125L92.365 489.344C94.9566 490.109 97.7233 490.039 100.273 489.144C100.237 489.088 100.206 489.029 100.181 488.967L96.226 478.125ZM107.291 470.825C107.35 471.264 107.379 471.706 107.378 472.148C107.356 473.734 107.024 475.299 106.4 476.757L102.469 488.121C105.369 486.435 107.496 483.683 108.396 480.451C109.297 477.22 108.9 473.764 107.291 470.821V470.825Z" fill="white"/>
<path d="M96 462C93.0333 462 90.1332 462.88 87.6665 464.528C85.1997 466.176 83.2771 468.519 82.1418 471.26C81.0065 474.001 80.7094 477.017 81.2882 479.926C81.867 482.836 83.2956 485.509 85.3934 487.607C87.4912 489.704 90.1639 491.133 93.0737 491.712C95.9834 492.291 98.9994 491.994 101.74 490.858C104.481 489.723 106.824 487.8 108.472 485.334C110.12 482.867 111 479.967 111 477C110.996 473.023 109.414 469.21 106.602 466.398C103.79 463.586 99.9769 462.004 96 462V462ZM96 491.312C93.1693 491.312 90.4021 490.473 88.0484 488.9C85.6947 487.328 83.8601 485.093 82.7767 482.478C81.6933 479.862 81.4098 476.985 81.9619 474.208C82.514 471.432 83.877 468.882 85.8785 466.88C87.8801 464.879 90.4302 463.515 93.2065 462.963C95.9828 462.411 98.8605 462.694 101.476 463.777C104.091 464.861 106.326 466.695 107.899 469.049C109.472 471.402 110.311 474.169 110.311 477C110.307 480.794 108.797 484.432 106.115 487.115C103.432 489.798 99.7942 491.307 96 491.312Z" fill="white"/>
<path fill-rule="evenodd" clip-rule="evenodd" d="M468.892 469.963C469.312 469.963 469.723 469.838 470.072 469.605C470.422 469.372 470.694 469.04 470.855 468.652C471.015 468.263 471.057 467.836 470.975 467.424C470.893 467.012 470.691 466.634 470.394 466.337C470.097 466.04 469.718 465.838 469.306 465.756C468.894 465.674 468.467 465.716 468.079 465.877C467.691 466.038 467.359 466.31 467.126 466.66C466.892 467.009 466.768 467.42 466.768 467.84C466.768 468.119 466.823 468.395 466.93 468.653C467.037 468.91 467.193 469.144 467.39 469.342C467.588 469.539 467.822 469.695 468.079 469.802C468.337 469.908 468.613 469.963 468.892 469.963V469.963ZM453.847 469.315L460.362 462.8C460.618 462.545 460.921 462.343 461.254 462.206C461.588 462.068 461.945 461.998 462.306 461.999H471.969C472.332 461.998 472.691 462.068 473.027 462.207C473.362 462.345 473.667 462.548 473.924 462.805C474.18 463.061 474.384 463.366 474.522 463.701C474.661 464.037 474.731 464.396 474.73 464.759V474.422C474.732 474.785 474.661 475.144 474.521 475.478C474.381 475.812 474.175 476.115 473.915 476.368L467.41 482.879L453.847 469.315Z" fill="white"/>
<path fill-rule="evenodd" clip-rule="evenodd" d="M467.413 482.88L459.384 490.916C458.862 491.433 458.159 491.726 457.424 491.731C457.062 491.73 456.704 491.657 456.37 491.517C456.036 491.377 455.733 491.173 455.478 490.916L445.815 481.253C445.556 481 445.35 480.697 445.21 480.363C445.07 480.029 444.998 479.669 445 479.307C445 478.943 445.072 478.582 445.212 478.245C445.352 477.909 445.557 477.603 445.815 477.346L453.848 469.313L467.413 482.88Z" fill="white"/>
<path fill-rule="evenodd" clip-rule="evenodd" d="M450.5 485.943L445.811 481.254C445.552 481.001 445.347 480.698 445.208 480.363C445.068 480.029 444.998 479.67 445 479.308C445 478.944 445.072 478.583 445.212 478.247C445.352 477.91 445.557 477.605 445.815 477.348L453.848 469.315L460.49 475.957L450.5 485.943Z" fill="white"/>
<path fill-rule="evenodd" clip-rule="evenodd" d="M473.779 462.667C473.277 462.234 472.635 461.997 471.972 461.999H462.306C461.945 461.998 461.587 462.068 461.253 462.205C460.919 462.342 460.616 462.544 460.36 462.799L453.845 469.314L460.487 475.957L467.252 469.192C466.916 468.785 466.744 468.267 466.769 467.739C466.794 467.212 467.015 466.712 467.389 466.339C467.762 465.965 468.261 465.745 468.789 465.719C469.316 465.694 469.835 465.866 470.242 466.202L473.779 462.667Z" fill="white"/>
<path d="M460.486 481.023C461.339 481.023 462.173 480.77 462.883 480.296C463.592 479.822 464.145 479.148 464.472 478.36C464.798 477.571 464.883 476.704 464.717 475.867C464.55 475.03 464.139 474.261 463.536 473.658C462.933 473.055 462.164 472.644 461.327 472.478C460.49 472.311 459.623 472.397 458.834 472.724C458.046 473.05 457.372 473.603 456.898 474.313C456.425 475.023 456.172 475.857 456.172 476.71C456.172 477.854 456.627 478.951 457.436 479.76C458.245 480.569 459.342 481.023 460.486 481.023V481.023Z" fill="white"/>
<path fill-rule="evenodd" clip-rule="evenodd" d="M466.363 475.442H460.626V477.902H463.926C463.773 478.645 463.352 479.306 462.744 479.76C462.136 480.214 461.382 480.429 460.626 480.364C459.649 480.332 458.722 479.922 458.042 479.219C457.362 478.516 456.982 477.577 456.982 476.599C456.982 475.621 457.362 474.682 458.042 473.979C458.722 473.277 459.649 472.866 460.626 472.834C461.458 472.835 462.262 473.133 462.893 473.674L464.684 471.821C463.578 470.801 462.13 470.233 460.626 470.228C459.803 470.24 458.99 470.415 458.234 470.742C457.479 471.069 456.795 471.542 456.223 472.134C455.651 472.726 455.202 473.425 454.901 474.191C454.599 474.958 454.453 475.776 454.469 476.599C454.453 477.422 454.599 478.24 454.901 479.007C455.202 479.773 455.651 480.472 456.223 481.064C456.795 481.656 457.479 482.129 458.234 482.456C458.99 482.784 459.803 482.958 460.626 482.97C463.705 482.97 466.503 480.653 466.503 476.599C466.498 476.209 466.451 475.821 466.363 475.441V475.442Z" fill="#49A9E4"/>
<path d="M140.87 301.882C140.87 302.441 140.59 302.527 139.881 302.527C139.128 302.527 138.999 302.398 138.913 301.839C138.874 301.118 138.572 300.436 138.065 299.921C137.558 299.406 136.881 299.094 136.16 299.044C135.644 299.001 135.515 298.807 135.515 298.162C135.515 297.562 135.601 297.28 136.074 297.28C137.319 297.26 138.521 297.732 139.419 298.594C140.318 299.456 140.839 300.637 140.87 301.882V301.882ZM145 301.882C145 297.56 142.076 293 135.322 293H121.9C121.629 293 121.462 293.142 121.462 293.389C121.469 293.454 121.489 293.517 121.522 293.573C121.555 293.63 121.6 293.679 121.654 293.716C122.334 294.215 123.061 294.648 123.824 295.008C124.756 295.474 125.475 295.776 126.206 296.073C126.506 296.196 126.628 296.329 126.628 296.508C126.628 296.741 126.463 296.89 126.128 296.89H115.467C115.409 296.883 115.35 296.889 115.294 296.906C115.238 296.923 115.186 296.952 115.142 296.991C115.098 297.03 115.063 297.077 115.038 297.13C115.014 297.184 115.001 297.241 115 297.3C115 297.388 115.019 297.476 115.055 297.556C115.092 297.637 115.144 297.709 115.21 297.768C116.493 299.015 117.919 300.106 119.459 301.016C121.292 302.153 123.182 303.194 125.123 304.134C125.413 304.274 125.513 304.434 125.507 304.601C125.499 304.793 125.347 304.957 125.007 304.957H120.128C119.85 304.957 119.696 305.103 119.696 305.327C119.721 305.485 119.804 305.628 119.929 305.727C121.503 307.04 123.276 308.092 125.183 308.844C128.324 310.244 131.722 310.978 135.161 311C142 311 145 305.882 145 301.882ZM136.075 308.011C135.276 308.011 134.484 307.854 133.746 307.548C133.008 307.242 132.337 306.794 131.772 306.228C131.206 305.663 130.758 304.992 130.452 304.254C130.146 303.516 129.989 302.724 129.989 301.925C129.989 301.126 130.146 300.334 130.452 299.596C130.758 298.858 131.206 298.187 131.772 297.622C132.337 297.056 133.008 296.608 133.746 296.302C134.484 295.996 135.276 295.839 136.075 295.839C136.874 295.839 137.666 295.996 138.404 296.302C139.142 296.608 139.813 297.056 140.378 297.622C140.944 298.187 141.392 298.858 141.698 299.596C142.004 300.334 142.161 301.126 142.161 301.925C142.161 302.724 142.004 303.516 141.698 304.254C141.392 304.992 140.944 305.663 140.378 306.228C139.813 306.794 139.142 307.242 138.404 307.548C137.666 307.854 136.874 308.011 136.075 308.011Z" fill="white"/>
<path d="M223.7 197.552C223.609 195.268 203.509 187.228 220.817 150.024C244.169 106.139 257.155 107.274 273.534 105.016C301.77 105.304 322.019 138.566 321.932 153.406C321.87 164.237 325.482 166.456 329.154 176.645C331.632 183.521 336.998 188.876 341.284 194.793C353.321 211.426 356.429 235.509 344.901 252.499C337.54 263.346 324.587 271.699 323.648 284.775C322.755 297.223 333.998 304.932 333.872 317.267C333.761 328.166 328.256 338.891 320.165 346.041C309.009 355.909 293.643 359.878 278.752 360.163C243.275 360.839 204.921 341.408 191.99 307.191C182.786 282.846 185.29 260.233 198.728 238.434C202.832 231.776 205.301 226.324 211.055 220.767C218.324 213.748 224.138 208.576 223.702 197.547" fill="#33220D"/>
<path d="M222.268 383.048C222.268 383.048 219.122 396.986 213.141 396.986C207.16 396.986 162.9 382.607 136.548 384.153C113.139 385.526 106.473 396.214 102.714 407.553C102.714 407.553 92.3209 437.463 148.773 450.453C216.073 465.941 298.627 463.845 339.873 461.098C381.119 458.351 439.041 441.868 442.818 416.456C446.595 391.044 430.54 382.804 403.151 382.456C375.762 382.108 336.121 396.73 334.232 394.326C332.343 391.922 328.452 381.716 328.452 381.716L222.268 383.048Z" fill="#1D2848"/>
<path d="M263.036 450.177C263.036 450.177 259.206 450.131 253.105 444.412C247.004 438.693 238.724 438.48 227.77 446.812C216.816 455.144 206.321 448.926 190.14 452.062C181.869 453.662 166.959 466.745 181.548 467.484C196.137 468.223 193.733 465.316 218.529 470.131C243.325 474.946 267.584 471.285 267.584 471.285L263.036 450.177Z" fill="#F2C4B8"/>
<path d="M444.745 421.661C450.625 402.344 436.038 382.83 417.413 384.061C412.122 384.482 406.911 385.6 401.913 387.387C370.557 398.137 297.35 436.287 259.825 443.964C259.825 443.964 252.669 463.532 267 474.589C267 474.589 409.121 453.423 432.165 438.116C438.187 434.307 442.649 428.47 444.743 421.659" fill="#2A3D66"/>
<path d="M425.414 426.018C391.701 441.136 357.987 434.19 336.262 437.459C314.537 440.728 308.168 455.845 292.81 452.168C286.219 450.59 281.703 444.797 278.689 438.699C272.51 440.82 266.212 442.579 259.828 443.967C259.828 443.967 252.671 463.535 267.003 474.592C267.003 474.592 409.124 453.426 432.168 438.119C437.843 434.53 442.143 429.132 444.372 422.798C446.601 416.463 446.629 409.562 444.452 403.21C443.633 411.357 438.913 419.964 425.414 426.018" fill="#1D2848"/>
<path d="M287.876 430.658C287.876 430.658 291.692 430.305 297.392 424.113C303.092 417.921 311.335 417.045 322.82 424.481C334.305 431.917 344.354 424.87 360.702 426.702C369.059 427.638 384.81 439.487 370.31 441.394C355.81 443.301 358.01 440.208 333.61 446.994C309.21 453.78 284.765 452.076 284.765 452.076L287.876 430.658Z" fill="#F2C4B8"/>
<g style="mix-blend-mode:multiply" opacity="0.5">
<path d="M371.491 431.449C370.55 434.049 367.832 436.233 361.359 436.233C345.251 436.233 337.759 435.007 326.897 436.233C316.035 437.459 309.291 428.878 303.297 431.333C298.14 433.443 300.177 440.385 286.297 441.504L284.759 452.083C284.759 452.083 309.2 453.786 333.608 447C358.016 440.214 355.808 443.3 370.308 441.4C379.225 440.228 376.697 435.3 371.489 431.455" fill="#F2C4B8"/>
</g>
<path d="M103.4 427.919C95.644 409.407 106.47 388.096 126.854 387.319C132.141 387.145 137.428 387.643 142.59 388.801C174.826 395.801 251.379 425.107 289.445 428.326C289.445 428.326 298.495 446.938 285.345 459.617C285.345 459.617 141.96 455.3 117.536 442.795C111.173 439.719 106.147 434.431 103.4 427.919" fill="#2A3D66"/>
<path d="M279.324 451.759C271.458 449.716 268.461 443.179 262.842 445.222C257.223 447.265 257.972 450.533 248.233 450.533C238.494 450.533 225.758 442.361 198.788 442.361C171.818 442.361 123.121 441.544 111.134 419.48C108.04 414.019 105.634 408.195 103.972 402.142C102.04 406.148 100.99 410.522 100.892 414.969C100.794 419.415 101.65 423.831 103.403 427.919C106.148 434.432 111.172 439.722 117.535 442.8C141.959 455.306 285.343 459.622 285.343 459.622C298.497 446.943 289.443 428.331 289.443 428.331C289.443 428.331 287.186 453.802 279.32 451.759" fill="#243255"/>
<path d="M238 218.84C243.811 217.768 249.46 215.95 254.805 213.43C263.205 209.373 260.056 188.749 260.056 188.749L285.263 187.735C285.263 187.735 283.968 207.08 289.647 211.735C295.623 216.628 309.133 218.76 309.133 218.76C309.133 218.76 313.971 217.831 310.47 236.76C306.969 255.689 286.313 277.67 255.855 261.779C225.397 245.888 238 218.84 238 218.84Z" fill="#F2C4B8"/>
<g style="mix-blend-mode:multiply" opacity="0.5">
<path d="M285.26 187.735L260.053 188.749C260.053 188.749 261.536 198.463 259.753 205.869C266.509 209.233 275.702 210.996 286.513 205.817C284.549 198.417 285.262 187.735 285.262 187.735" fill="#F2C4B8"/>
</g>
<path d="M127.211 370.248C127.211 370.248 120.599 374.812 118.829 374.812C117.059 374.812 106.455 372.778 99.9189 373.982C93.3829 375.186 89.6109 375.891 87.6629 375.907C86.8929 375.914 86.5739 378.074 90.6629 378.917C94.7519 379.76 100.063 378.435 101.323 380.626C102.023 381.84 94.3979 384.556 91.4019 384.556C89.8499 384.556 90.0799 378.778 87.9399 378.256C85.8279 377.739 86.3059 378.956 86.3059 379.756C86.3059 381.889 86.4569 386.463 88.4939 388.263C90.5309 390.063 96.7939 387.58 96.7939 387.58C93.7144 388.97 90.463 389.941 87.1259 390.469C81.6789 391.311 76.5039 391.669 78.4109 393.358C80.3179 395.047 88.3589 394.366 95.1599 392.636C91.2558 393.826 87.2806 394.77 83.2579 395.46C80.3519 395.794 80.9999 398.713 87.4879 398C91.0574 397.581 94.5805 396.833 98.0119 395.764C98.0119 395.764 89.1609 398.171 89.1609 399.616C89.1609 401.061 98.1489 399.736 105.638 397.208C113.127 394.68 122.258 388.615 125.798 386.808C129.338 385.001 140.198 380.091 140.198 380.091L127.211 370.248Z" fill="#F2C4B8"/>
<g style="mix-blend-mode:multiply" opacity="0.5">
<path d="M132.566 374.311C131.583 375.836 128.396 379.811 124.292 380.09C119.024 380.454 118.083 378 115.636 378C113.189 378 116.201 381.271 114.601 387.359C113.001 393.447 96.3009 398.859 92.9619 399.459C91.7117 399.652 90.4458 399.723 89.1819 399.671C89.4069 401.027 98.2439 399.71 105.637 397.214C113.127 394.687 122.257 388.621 125.798 386.814C129.339 385.007 140.198 380.097 140.198 380.097L132.566 374.311Z" fill="#F2C4B8"/>
</g>
<path d="M412.521 370.248C412.521 370.248 419.133 374.812 420.903 374.812C422.673 374.812 433.277 372.778 439.813 373.982C446.349 375.186 450.121 375.891 452.069 375.907C452.839 375.914 453.158 378.074 449.069 378.917C444.98 379.76 439.669 378.435 438.409 380.626C437.709 381.84 445.334 384.556 448.33 384.556C449.882 384.556 449.652 378.778 451.792 378.256C453.904 377.739 453.426 378.956 453.426 379.756C453.426 381.889 453.275 386.463 451.238 388.263C449.201 390.063 442.938 387.58 442.938 387.58C446.017 388.97 449.269 389.941 452.606 390.469C458.053 391.311 463.228 391.669 461.321 393.358C459.414 395.047 451.373 394.366 444.572 392.636C448.474 393.825 452.447 394.767 456.467 395.457C459.373 395.791 458.721 398.71 452.237 398.001C448.667 397.582 445.144 396.834 441.713 395.765C441.713 395.765 450.564 398.172 450.564 399.617C450.564 401.062 441.576 399.737 434.087 397.209C426.598 394.681 417.467 388.616 413.927 386.809C410.387 385.002 399.527 380.092 399.527 380.092L412.521 370.248Z" fill="#F2C4B8"/>
<g style="mix-blend-mode:multiply" opacity="0.5">
<path d="M407.165 374.311C408.148 375.836 411.335 379.811 415.439 380.09C420.708 380.454 421.648 378 424.095 378C426.542 378 423.53 381.271 425.13 387.359C426.73 393.447 443.43 398.859 446.769 399.459C448.019 399.652 449.285 399.723 450.549 399.671C450.324 401.027 441.487 399.71 434.094 397.214C426.604 394.687 417.474 388.621 413.933 386.814C410.392 385.007 399.533 380.097 399.533 380.097L407.165 374.311Z" fill="#F2C4B8"/>
</g>
<path d="M134.009 387.979C134.009 387.979 192.1 358.488 205.156 336.9C218.212 315.312 220.191 285.023 220.191 285.023C220.191 285.023 220.891 293.883 227.867 317.301C233.701 336.878 211.817 394.515 211.817 394.515C211.817 394.515 235.948 408.693 285.092 405.907C334.236 403.121 339.525 393.249 339.525 393.249C339.525 393.249 318.239 323.697 322.078 309.073C325.917 294.449 328.011 283.891 328.011 283.891C328.011 283.891 329.311 323.956 338.811 336.476C352.53 354.542 406.227 386.139 406.227 386.139C406.227 386.139 407.434 375.014 420.488 371.532C420.488 371.532 369.528 332.49 364.242 310.941C355.821 276.621 351.828 237.457 342.614 229.796C333.4 222.135 309.125 218.756 309.125 218.756C309.125 218.756 299.516 269.264 274.403 269.074C246.03 268.859 238 218.84 238 218.84C238 218.84 213.143 222.221 203.636 236.76C198.279 244.953 191.787 292.92 178.057 323.121C170.278 340.232 122.309 369.863 122.309 369.863C122.309 369.863 130.06 375.163 134.009 387.979" fill="#2A3D66"/>
<g style="mix-blend-mode:multiply" opacity="0.5">
<path d="M226.464 312.486C226.341 311.911 221.087 287.336 221.087 274.609C221.087 261.732 218.517 252.774 218.517 255.853C218.517 258.932 209.096 314.221 204.893 318.28C200.69 322.339 198.226 322.2 198.226 324.999C198.226 327.798 200.545 327.238 198.226 329.478C195.907 331.718 196.197 331.158 194.167 333.117C192.137 335.076 193.298 335.077 191.267 339.836C189.236 344.595 170.977 360.831 154.744 368.39C146.072 372.565 136.537 374.63 126.915 374.418C130.128 378.441 132.537 383.045 134.009 387.979C134.009 387.979 192.1 358.488 205.156 336.9C218.212 315.312 220.191 285.023 220.191 285.023C220.191 285.023 220.801 292.674 226.464 312.486Z" fill="#FF5FA8"/>
</g>
<g style="mix-blend-mode:multiply" opacity="0.5">
<path d="M328.012 283.891C328.012 283.891 329.312 323.956 338.812 336.476C352.531 354.542 406.228 386.139 406.228 386.139C406.811 382.786 408.366 379.677 410.7 377.2C406.706 377.445 400.941 376.027 393.024 370.246C374.762 356.909 347.513 338.713 349.542 332.834C351.571 326.955 353.966 324.156 349.435 324.156C344.904 324.156 343.455 326.116 343.455 317.437C343.455 308.758 332.155 292.523 332.155 279.085C332.155 265.647 333.894 247.172 332.155 248.852C330.416 250.532 324.328 273.207 320.27 284.404C316.212 295.601 297.949 303.44 286.354 300.921C274.759 298.402 264.323 304 251.569 302.321C238.815 300.642 239.104 307.64 258.816 310.44C278.528 313.24 296.79 313.24 304.037 323.04C306.109 325.84 309.9 332.784 314.358 341.469C325.13 362.452 318.244 323.698 322.084 309.069C325.924 294.44 328.017 283.887 328.017 283.887" fill="#FF5FA8"/>
</g>
<path d="M299.592 130.565C295.274 112.3 274.285 111.908 272.36 111.91C270.435 111.912 249.446 112.303 245.128 130.565C241.656 145.249 242.228 160.188 244.81 175.087C246.91 187.201 259.322 200.594 272.36 200.38C285.398 200.594 297.81 187.201 299.91 175.087C302.492 160.187 303.064 145.249 299.592 130.565" fill="#F2C4B8"/>
<path d="M280.048 163.427C280.63 164.532 281.544 165.426 282.662 165.983C283.779 166.54 285.043 166.733 286.276 166.533C289.765 165.917 290.765 163.643 290.765 163.643C290.987 163.867 291.254 164.043 291.547 164.16C291.841 164.277 292.156 164.332 292.471 164.322C292.787 164.312 293.098 164.237 293.383 164.101C293.669 163.966 293.923 163.773 294.131 163.535C293.883 164.117 293.46 164.608 292.92 164.938C292.38 165.267 291.751 165.42 291.12 165.375C291.352 165.701 291.657 165.968 292.011 166.156C292.364 166.344 292.757 166.447 293.157 166.457C292.207 166.768 291.183 166.768 290.234 166.457C290.234 166.457 283.553 171.88 280.048 163.427" fill="#151B30"/>
<path d="M295.782 160.078C295.782 160.078 293.4 156.694 287.882 157.195C282.364 157.696 280.736 158.951 280.736 157.195C280.736 155.439 284.623 153.435 289.636 154.438C291.077 154.728 292.411 155.407 293.494 156.401C294.577 157.395 295.367 158.667 295.779 160.078" fill="#151B30"/>
<path d="M264.672 163.427C264.09 164.532 263.176 165.426 262.058 165.983C260.941 166.54 259.676 166.733 258.444 166.533C254.955 165.917 253.955 163.643 253.955 163.643C253.732 163.867 253.466 164.043 253.172 164.16C252.879 164.277 252.564 164.332 252.248 164.322C251.933 164.312 251.622 164.237 251.337 164.101C251.051 163.966 250.797 163.773 250.589 163.535C250.836 164.117 251.26 164.608 251.799 164.938C252.339 165.267 252.969 165.42 253.6 165.375C253.367 165.701 253.062 165.968 252.709 166.156C252.355 166.344 251.963 166.447 251.563 166.457C252.512 166.768 253.536 166.768 254.486 166.457C254.486 166.457 261.167 171.88 264.672 163.427" fill="#151B30"/>
<path d="M248.938 160.078C248.938 160.078 251.32 156.694 256.838 157.195C262.356 157.696 263.984 158.951 263.984 157.195C263.984 155.439 260.097 153.435 255.084 154.438C253.643 154.728 252.308 155.407 251.226 156.401C250.143 157.395 249.353 158.667 248.941 160.078" fill="#151B30"/>
<path d="M268 176.634C268 176.634 270.808 178.861 272.454 178.861C274.1 178.861 276.714 176.634 276.714 175.569C276.714 174.504 273.521 169.764 273.906 165.403C273.906 165.403 272.15 169.193 274.95 174.15C276.743 177.326 271.389 177.796 268 176.634" fill="#C8735C"/>
<path d="M264.06 183.125C269.252 185.146 275.014 185.146 280.206 183.125C277.797 184.671 274.995 185.494 272.133 185.494C269.271 185.494 266.469 184.671 264.06 183.125" fill="#B45741"/>
<path d="M268.8 187.76C268.8 187.76 272.271 189.985 275.466 187.76C275.466 187.76 272.417 193.188 268.8 187.76Z" fill="#C8735C"/>
<path d="M242.291 178.069C242.291 178.069 240.539 150.049 258.666 134.369C258.666 134.369 265.797 149.081 286.875 150.782C307.953 152.483 298.841 159.111 303.006 177.482C306.327 192.13 316.49 201.302 330.382 206.571C325.982 204.287 322.927 199.943 321.288 195.271C319.649 190.599 319.288 185.578 319.188 180.627C318.713 157.84 321.231 135.409 300.306 120.289C296.41 117.573 292.241 115.272 287.868 113.421C280.797 110.287 273.292 107.744 265.558 107.676C257.629 107.607 235.139 128.61 233.49 133.819C228.533 149.475 231.177 165.676 242.29 178.069" fill="#33220D"/>
<path d="M326.687 347.824H227.714C226.615 339.054 224.757 330.396 222.161 321.947C220.754 317.699 219.09 313.541 217.179 309.496C213.963 302.281 210.638 294.821 210.109 287.528C209.649 281.186 211.809 275.091 213.909 269.196C214.694 266.984 215.436 264.896 216.018 262.842C216.008 262.634 215.09 241.784 216.463 232.284C220.413 228.019 224.89 223.815 230.551 221.201C235.601 218.869 240.976 218.291 246.666 216.621H246.675C249.362 215.832 252.141 215.021 254.965 214.096L253.121 232.988C253.976 236.773 255.356 246.85 257.103 259.609L257.115 259.697V259.707C259.504 277.153 262.476 298.864 265.715 316.528C267.478 326.128 274.194 347.564 275.738 347.564C277.379 347.564 285.198 323.783 287.356 313.258C291.305 293.997 294.999 270.822 297.696 253.9C299.208 244.41 300.402 236.914 301.064 233.815L291.615 212.815C292.222 212.565 293.804 212.515 296.825 213.072C300.66 214.398 305.625 216.119 307.334 216.619C312.835 218.082 318.222 219.947 323.45 222.199C328.779 224.574 333.571 228.004 337.537 232.282C338.91 241.782 337.992 262.632 337.982 262.84C338.548 264.734 339.252 266.668 339.996 268.716C341.131 271.68 342.109 274.701 342.928 277.767C343.768 280.886 344.1 284.12 343.912 287.345C343.375 294.459 340.097 301.787 336.927 308.874V308.879C334.997 312.942 333.323 317.123 331.915 321.395C329.3 330.01 327.548 338.863 326.687 347.825V347.824Z" fill="#2A3D66"/>
<path d="M226.885 342.198C226.4 338.34 230.428 334.25 234.854 333.525C247.778 331.41 255.854 331.873 268.893 331.873C267.953 327.951 267.021 323.467 266.106 318.611C245.923 315.811 222.067 315.824 214.727 295.636C212.119 287.441 214.846 274.881 216.437 266.175C216.426 265.051 216.284 263.931 216.014 262.84C213.896 270.309 209.474 278.79 210.108 287.526C210.952 299.144 218.901 311.211 222.16 321.945" fill="#1D2848"/>
<path d="M331.915 321.394C335.121 310.744 343.053 298.769 343.915 287.344C344.39 281.034 342.241 274.892 340.188 269.233C341.216 281.301 344.128 296.596 334.757 307.409C322.957 321.17 303.673 317.352 286.525 317.247C285.386 322.583 284.234 327.51 283.09 331.775C291.89 332.175 307.79 331.596 319.428 334.01C325.278 334.173 324.983 341.448 327.164 342.603" fill="#1D2848"/>
<path d="M275.739 347.56C274.908 347.56 272.648 341.404 270.81 335.642C268.76 329.368 267.06 322.986 265.716 316.524C262.473 298.86 259.502 277.152 257.116 259.71V259.702V259.694L257.103 259.606L257.088 259.498C255.351 246.809 253.979 236.787 253.123 232.998C254.761 240.229 260.465 247.91 264.963 253.081C267.912 256.468 271.07 259.666 274.418 262.658L274.43 262.668C278.71 259.876 282.791 256.788 286.643 253.428C292.377 248.428 299.535 240.966 301.068 233.828C300.396 236.975 299.154 244.782 297.715 253.823L297.702 253.902L297.668 254.114V254.12C294.978 270.985 291.294 294.083 287.362 313.261C285.733 320.395 283.73 327.438 281.362 334.361C279.219 340.738 276.621 347.56 275.739 347.56Z" fill="#E1E9ED"/>
<path d="M277.168 261.512C284.14 256.882 292.241 251.883 300.208 254.446C306.422 256.446 304.489 262.413 307.357 267.973C305.607 254.829 305.59 241.685 303.505 228.541C302.934 224.941 302.329 221.248 300.476 218.111C298.623 214.974 295.206 212.482 291.576 212.811C291.576 212.811 293.521 230.679 292.333 234.511C291.145 238.343 274.75 263.116 277.166 261.511" fill="#EDF2F4"/>
<path d="M271.155 261.036C264.183 256.406 255.779 251.42 247.812 253.983C241.598 255.983 243.532 261.95 240.663 267.51C242.413 254.366 242.43 241.222 244.515 228.078C245.086 224.478 245.691 220.785 247.544 217.648C249.397 214.511 252.814 212.019 256.444 212.348C256.444 212.348 254.499 230.216 255.687 234.048C256.875 237.88 273.573 262.64 271.157 261.035" fill="#EDF2F4"/>
<path d="M276 550.042C277.545 550.042 278.798 548.789 278.798 547.244C278.798 545.699 277.545 544.446 276 544.446C274.455 544.446 273.202 545.699 273.202 547.244C273.202 548.789 274.455 550.042 276 550.042Z" fill="white"/>
<path fill-rule="evenodd" clip-rule="evenodd" d="M276 541.558C279.349 541.51 282.684 541.998 285.879 543.003C289.05 544.095 290.999 545.749 290.999 547.248C290.999 548.809 288.933 550.567 285.528 551.695C282.437 552.613 279.223 553.052 275.999 552.995C272.71 553.069 269.429 552.626 266.277 551.682C262.984 550.558 261 548.776 261 547.244C261 545.758 262.861 544.116 265.988 543.026C269.225 542.003 272.606 541.508 276 541.558V541.558Z" stroke="white" stroke-width="1.663"/>
<path fill-rule="evenodd" clip-rule="evenodd" d="M271.047 544.415C272.678 541.49 274.767 538.844 277.234 536.579C279.764 534.378 282.172 533.516 283.47 534.264C284.823 535.044 285.313 537.712 284.589 541.225C283.839 544.36 282.613 547.362 280.953 550.125C279.375 553.012 277.354 555.634 274.963 557.894C272.342 560.185 269.809 561.014 268.482 560.249C267.195 559.507 266.702 557.074 267.32 553.821C268.05 550.506 269.308 547.329 271.046 544.413L271.047 544.415Z" stroke="white" stroke-width="1.663"/>
<path fill-rule="evenodd" clip-rule="evenodd" d="M271.052 550.137C269.332 547.263 268.083 544.132 267.352 540.863C266.709 537.572 267.164 535.055 268.461 534.305C269.812 533.523 272.369 534.43 275.051 536.812C277.395 539.029 279.385 541.592 280.951 544.412C282.664 547.22 283.926 550.28 284.69 553.479C285.366 556.894 284.819 559.503 283.49 560.27C282.204 561.015 279.85 560.226 277.341 558.07C274.833 555.782 272.709 553.105 271.051 550.143L271.052 550.137Z" stroke="white" stroke-width="1.663"/>
</svg>
