<svg width="81" height="76" viewBox="0 0 81 76" fill="none" xmlns="http://www.w3.org/2000/svg">
<path d="M3.89096 19.1162H71.769C71.769 16.8922 71.902 14.7092 71.731 12.5502C71.5995 11.4991 71.0848 10.5335 70.2853 9.83855C69.4859 9.14357 68.4581 8.76813 67.399 8.78419C65.064 8.76219 62.728 8.7842 60.393 8.7762C59.227 8.7762 58.529 8.2162 58.538 7.3202C58.547 6.4242 59.238 5.8802 60.42 5.8932C63.1212 5.8142 65.8248 5.87361 68.52 6.0712C70.222 6.27518 71.7896 7.09811 72.9241 8.38326C74.0586 9.66841 74.6807 11.326 74.672 13.0402C74.733 21.4002 74.699 29.7602 74.692 38.1202C74.7137 38.3279 74.6912 38.5378 74.626 38.7362C74.5608 38.9346 74.4543 39.1169 74.3136 39.2712C74.1728 39.4255 74.001 39.5482 73.8094 39.6312C73.6178 39.7143 73.4108 39.7559 73.202 39.7532C72.363 39.7202 71.815 39.0612 71.813 38.0182C71.8056 33.1002 71.8056 28.1825 71.813 23.2652V22.1222H3.89196V23.1082C3.89196 34.4495 3.89196 45.7912 3.89196 57.1332C3.83857 57.78 3.92661 58.4307 4.14995 59.04C4.37329 59.6494 4.72659 60.2028 5.18531 60.6619C5.64403 61.121 6.19718 61.4748 6.80635 61.6986C7.41552 61.9225 8.06612 62.0111 8.71296 61.9582C19.653 61.9582 30.5926 61.9582 41.532 61.9582C42.976 61.9582 43.684 62.4182 43.709 63.3702C43.7343 64.3535 42.9993 64.8459 41.504 64.8472C30.6566 64.8472 19.809 64.8472 8.96096 64.8472C4.09296 64.8472 1.00396 61.7722 1.00296 56.9132C0.999625 42.4979 0.999625 28.0825 1.00296 13.6672C0.947752 12.6341 1.11013 11.601 1.47957 10.6347C1.84901 9.66833 2.41728 8.79036 3.14758 8.05761C3.87789 7.32485 4.75395 6.75364 5.71903 6.38097C6.68412 6.00829 7.71671 5.84245 8.74996 5.89419C10.471 5.89419 12.192 5.88619 13.913 5.89419C15.001 5.90019 15.686 6.4732 15.683 7.3432C15.68 8.2132 14.999 8.7732 13.902 8.7782C12.12 8.7872 10.337 8.7782 8.55496 8.7782C7.93863 8.74684 7.32254 8.84431 6.74599 9.06438C6.16945 9.28446 5.64511 9.62231 5.20643 10.0564C4.76776 10.4904 4.4244 11.0112 4.19824 11.5854C3.97209 12.1595 3.86812 12.7746 3.89296 13.3912C3.88296 15.2642 3.89296 17.1372 3.89296 19.1142" fill="#164160"/>
<path d="M80.9999 57.4961C80.9938 61.0159 79.9435 64.4547 77.9822 67.3773C76.0208 70.2999 73.2365 72.5749 69.9816 73.9145C66.7267 75.254 63.1476 75.5978 59.6973 74.9023C56.2469 74.2068 53.0804 72.5034 50.5986 70.0076C48.1168 67.5118 46.4312 64.3357 45.7551 60.8815C45.0791 57.4273 45.443 53.8502 46.8009 50.6029C48.1587 47.3556 50.4493 44.5841 53.383 42.6392C56.3166 40.6943 59.7612 39.6635 63.2809 39.6771C67.991 39.6986 72.5006 41.586 75.8218 44.9259C79.143 48.2659 81.005 52.786 80.9999 57.4961M78.1549 57.4741C78.1442 54.5235 77.2593 51.6421 75.6119 49.1941C73.9644 46.7462 71.6284 44.8413 68.899 43.7203C66.1695 42.5993 63.169 42.3124 60.2766 42.8958C57.3842 43.4792 54.7295 44.9069 52.648 46.9983C50.5665 49.0897 49.1515 51.7511 48.5819 54.6463C48.0122 57.5414 48.3133 60.5405 49.4473 63.2646C50.5813 65.9887 52.4972 68.3156 54.953 69.9514C57.4087 71.5872 60.2942 72.4585 63.2449 72.4551C67.2072 72.4408 71.0021 70.8556 73.7972 68.0472C76.5923 65.2388 78.1594 61.4364 78.1549 57.4741" fill="#164160"/>
<path d="M18.7019 5.80018C18.7019 4.45118 18.6939 3.10018 18.7019 1.75318C18.7099 0.676179 19.2939 -0.0128192 20.1609 0.000180806C21.0279 0.0131808 21.5849 0.69018 21.5879 1.78618C21.5952 4.51485 21.5952 7.24318 21.5879 9.97118C21.5879 11.0542 20.9999 11.7342 20.1299 11.7242C19.2599 11.7142 18.7129 11.0382 18.7049 9.93818C18.6949 8.55918 18.7049 7.17918 18.7049 5.79918" fill="#164160"/>
<path d="M36.4029 5.87916C36.4029 4.50016 36.3939 3.12016 36.4029 1.74016C36.4129 0.663163 37.0029 -0.0188393 37.8749 0.00116066C38.7139 0.0201607 39.2799 0.681161 39.2849 1.70816C39.2963 4.46683 39.2963 7.22583 39.2849 9.98516C39.2849 11.0592 38.6849 11.7462 37.8139 11.7252C36.9749 11.7052 36.4139 11.0442 36.4019 10.0172C36.3869 8.63816 36.4019 7.25816 36.4019 5.87816" fill="#164160"/>
<path d="M56.993 5.94013C56.993 7.28913 57.002 8.64013 56.993 9.98713C56.984 11.0661 56.393 11.7481 55.523 11.7261C54.682 11.7051 54.115 11.0451 54.111 10.0201C54.1004 7.2608 54.1004 4.5018 54.111 1.74313C54.111 0.667135 54.711 -0.0168677 55.582 0.0041323C56.425 0.0241323 56.982 0.680134 56.992 1.71013C57.006 3.12013 56.992 4.53013 56.992 5.94113" fill="#164160"/>
<path d="M29.0659 5.89207C30.3839 5.89207 31.7019 5.88607 33.0199 5.89207C34.1749 5.89807 34.8749 6.46407 34.8589 7.35907C34.8439 8.22407 34.1589 8.77607 33.0669 8.77907C30.3696 8.78574 27.6726 8.78574 24.9759 8.77907C23.8179 8.77907 23.1199 8.20907 23.1379 7.31407C23.1559 6.41907 23.8379 5.89807 25.0219 5.89307C26.3709 5.88707 27.7219 5.89307 29.0679 5.89307" fill="#164160"/>
<path d="M46.796 5.89328C48.145 5.89328 49.496 5.88328 50.842 5.89328C51.87 5.90328 52.532 6.45728 52.559 7.29328C52.588 8.16328 51.902 8.76928 50.83 8.77328C48.0714 8.78328 45.3127 8.78328 42.554 8.77328C41.52 8.77328 40.864 8.21428 40.837 7.37328C40.809 6.50328 41.496 5.90128 42.566 5.89128C43.976 5.87828 45.386 5.89128 46.796 5.89128" fill="#164160"/>
<path d="M54.097 29.8403C54.6622 29.8515 55.2116 30.0291 55.6765 30.3508C56.1413 30.6725 56.5011 31.1241 56.7108 31.6491C56.9204 32.1741 56.9707 32.7493 56.8553 33.3027C56.7399 33.8562 56.464 34.3633 56.062 34.7608C55.6599 35.1583 55.1497 35.4285 54.595 35.5376C54.0403 35.6467 53.4657 35.59 52.9431 35.3744C52.4205 35.1588 51.973 34.7939 51.6566 34.3254C51.3401 33.857 51.1688 33.3056 51.1639 32.7403C51.1639 32.3566 51.24 31.9768 51.3878 31.6228C51.5356 31.2688 51.7522 30.9476 52.025 30.6779C52.2978 30.4082 52.6214 30.1953 52.977 30.0515C53.3327 29.9077 53.7134 29.8359 54.097 29.8403" fill="#52B3E2"/>
<path d="M43.7519 45.9213C43.1829 45.9149 42.6285 45.7398 42.159 45.4182C41.6895 45.0966 41.3259 44.6429 41.1143 44.1146C40.9028 43.5863 40.8527 43.0071 40.9704 42.4503C41.0882 41.8936 41.3685 41.3842 41.7758 40.9868C42.1832 40.5894 42.6993 40.3218 43.2588 40.2178C43.8183 40.1139 44.3961 40.1782 44.9191 40.4028C45.442 40.6274 45.8865 41.002 46.1964 41.4793C46.5063 41.9567 46.6676 42.5152 46.6599 43.0843C46.6434 43.8438 46.3295 44.5665 45.7857 45.097C45.2419 45.6276 44.5117 45.9235 43.7519 45.9213" fill="#52B3E2"/>
<path d="M33.403 56.2471C32.834 56.2362 32.281 56.0569 31.814 55.7316C31.347 55.4064 30.987 54.9499 30.7795 54.4199C30.5721 53.89 30.5265 53.3104 30.6487 52.7545C30.7708 52.1987 31.055 51.6915 31.4655 51.2973C31.876 50.9031 32.3942 50.6395 32.9545 50.54C33.5148 50.4404 34.0921 50.5093 34.6132 50.738C35.1344 50.9666 35.576 51.3448 35.8821 51.8245C36.1883 52.3043 36.3452 52.8641 36.333 53.4331C36.3105 54.1924 35.991 54.9126 35.4431 55.4388C34.8952 55.9651 34.1626 56.2553 33.403 56.2471" fill="#52B3E2"/>
<path d="M33.408 29.8391C33.9772 29.8439 34.5321 30.0175 35.0026 30.3378C35.4731 30.6582 35.8379 31.111 36.0509 31.6388C36.2639 32.1667 36.3154 32.7458 36.1991 33.303C36.0827 33.8602 35.8036 34.3703 35.3972 34.7687C34.9907 35.1672 34.4752 35.4361 33.9158 35.5414C33.3564 35.6467 32.7784 35.5836 32.2549 35.3602C31.7314 35.1368 31.286 34.763 30.975 34.2863C30.664 33.8096 30.5015 33.2513 30.508 32.6821C30.5214 31.9224 30.833 31.1984 31.3756 30.6665C31.9182 30.1346 32.6482 29.8374 33.408 29.8391" fill="#52B3E2"/>
<path d="M43.706 29.8391C44.2755 29.8381 44.8325 30.0062 45.3065 30.322C45.7804 30.6379 46.1499 31.0873 46.3682 31.6133C46.5865 32.1393 46.6438 32.7183 46.5328 33.2769C46.4218 33.8355 46.1475 34.3486 45.7446 34.7512C45.3418 35.1537 44.8285 35.4277 44.2698 35.5383C43.7111 35.6489 43.1322 35.5913 42.6063 35.3726C42.0804 35.1539 41.6313 34.7841 41.3158 34.3099C41.0003 33.8358 40.8326 33.2786 40.834 32.7091C40.8418 31.95 41.147 31.2243 41.6839 30.6877C42.2209 30.1511 42.9469 29.8464 43.706 29.8391" fill="#52B3E2"/>
<path d="M64.361 35.5902C63.7957 35.5754 63.2472 35.3944 62.7842 35.0698C62.3212 34.7451 61.9642 34.2912 61.7577 33.7648C61.5512 33.2384 61.5044 32.6628 61.6231 32.1099C61.7419 31.557 62.021 31.0514 62.4255 30.6563C62.83 30.2611 63.3419 29.9939 63.8974 29.888C64.4529 29.7822 65.0273 29.8423 65.5487 30.0611C66.0702 30.2798 66.5157 30.6473 66.8294 31.1178C67.1432 31.5882 67.3114 32.1407 67.3129 32.7062C67.3102 33.0899 67.2315 33.4693 67.0813 33.8224C66.9312 34.1755 66.7126 34.4954 66.4381 34.7635C66.1636 35.0317 65.8387 35.2428 65.4822 35.3847C65.1257 35.5266 64.7446 35.5964 64.361 35.5902" fill="#52B3E2"/>
<path d="M12.812 45.9183C12.2429 45.9191 11.6863 45.7509 11.2127 45.4352C10.7391 45.1195 10.3699 44.6704 10.1517 44.1447C9.93352 43.619 9.87623 43.0404 9.98708 42.4822C10.0979 41.9239 10.3719 41.4111 10.7744 41.0086C11.1768 40.6062 11.6896 40.3322 12.2479 40.2213C12.8062 40.1105 13.3848 40.1678 13.9105 40.3859C14.4361 40.6041 14.8853 40.9733 15.201 41.4469C15.5167 41.9205 15.6848 42.4771 15.684 43.0463C15.6749 43.8051 15.3694 44.5304 14.8328 45.067C14.2961 45.6037 13.5709 45.9092 12.812 45.9183" fill="#52B3E2"/>
<path d="M23.12 40.1672C23.6851 40.179 24.2341 40.3571 24.6986 40.6791C25.1631 41.0012 25.5224 41.453 25.7316 41.978C25.9408 42.5031 25.9906 43.0782 25.8749 43.6314C25.7592 44.1847 25.483 44.6915 25.0809 45.0887C24.6788 45.4859 24.1685 45.7558 23.6139 45.8647C23.0593 45.9736 22.4849 45.9166 21.9624 45.701C21.44 45.4853 20.9927 45.1205 20.6764 44.652C20.3601 44.1836 20.1888 43.6324 20.184 43.0672C20.1839 42.6833 20.2601 42.3033 20.4081 41.949C20.5561 41.5948 20.7729 41.2735 21.046 41.0038C21.3192 40.734 21.6431 40.5211 21.9991 40.3775C22.3551 40.2339 22.7361 40.1625 23.12 40.1672Z" fill="#52B3E2"/>
<path d="M33.43 45.9221C32.8646 45.9165 32.3134 45.7444 31.8453 45.4273C31.3771 45.1103 31.0128 44.6623 30.7977 44.1394C30.5827 43.6164 30.5265 43.0418 30.6362 42.4871C30.7459 41.9324 31.0166 41.4224 31.4145 41.0207C31.8123 40.6189 32.3198 40.3434 32.8734 40.2284C33.427 40.1134 34.0022 40.164 34.5271 40.374C35.0521 40.584 35.5035 40.9441 35.8251 41.4091C36.1466 41.8742 36.324 42.4238 36.335 42.9891C36.3394 43.3731 36.2674 43.7542 36.1233 44.1102C35.9792 44.4662 35.7659 44.79 35.4956 45.0628C35.2253 45.3357 34.9036 45.5521 34.549 45.6996C34.1944 45.8471 33.814 45.9228 33.43 45.9221" fill="#52B3E2"/>
<path d="M12.771 56.2452C12.2058 56.2378 11.6553 56.0641 11.1883 55.7457C10.7213 55.4273 10.3585 54.9784 10.1451 54.455C9.93178 53.9316 9.87739 53.3569 9.98874 52.8028C10.1001 52.2486 10.3723 51.7396 10.7713 51.3392C11.1702 50.9389 11.6783 50.665 12.2321 50.5517C12.7858 50.4385 13.3607 50.4909 13.8848 50.7025C14.409 50.914 14.8591 51.2753 15.1791 51.7412C15.4991 52.2071 15.6747 52.757 15.684 53.3222C15.687 53.706 15.6138 54.0867 15.4687 54.442C15.3235 54.7974 15.1092 55.1204 14.8382 55.3923C14.5672 55.6642 14.245 55.8796 13.8901 56.026C13.5352 56.1724 13.1549 56.2469 12.771 56.2452" fill="#52B3E2"/>
<path d="M23.083 56.2472C22.5177 56.2371 21.968 56.0608 21.5024 55.7401C21.0368 55.4195 20.676 54.9688 20.465 54.4443C20.2541 53.9198 20.2023 53.3448 20.3162 52.7911C20.4301 52.2373 20.7046 51.7294 21.1054 51.3308C21.5063 50.9321 22.0157 50.6604 22.57 50.5495C23.1244 50.4387 23.6991 50.4936 24.2224 50.7074C24.7458 50.9212 25.1945 51.2845 25.5126 51.7519C25.8307 52.2192 26.004 52.7699 26.011 53.3352C26.0126 53.7194 25.9378 54.1001 25.7911 54.4552C25.6443 54.8103 25.4284 55.1326 25.156 55.4036C24.8836 55.6745 24.56 55.8886 24.2042 56.0334C23.8483 56.1783 23.4672 56.2509 23.083 56.2472Z" fill="#52B3E2"/>
<path d="M51.161 57.5223C51.1612 55.1362 51.8688 52.8038 53.1943 50.8198C54.5199 48.8357 56.4038 47.2892 58.6081 46.3757C60.8124 45.4622 63.238 45.2227 65.5784 45.6874C67.9187 46.1522 70.0688 47.3003 71.7568 48.9868C73.4448 50.6732 74.5949 52.8222 75.0618 55.1622C75.5286 57.5021 75.2913 59.928 74.3798 62.1331C73.4683 64.3382 71.9235 66.2235 69.9407 67.5509C67.9579 68.8782 65.6261 69.5879 63.24 69.5903C61.6544 69.5913 60.0841 69.28 58.6189 68.674C57.1536 68.0681 55.8221 67.1794 54.7004 66.0587C53.5787 64.938 52.6888 63.6073 52.0815 62.1426C51.4742 60.6779 51.1614 59.1079 51.161 57.5223V57.5223Z" fill="#52B3E2"/>
<path d="M63.8599 57.2793L67.8739 55.8703C68.2909 55.7243 68.7029 55.5643 69.1239 55.4303C69.2763 55.3563 69.4422 55.3139 69.6114 55.3057C69.7807 55.2976 69.9498 55.3238 70.1086 55.3827C70.2675 55.4417 70.4128 55.5322 70.5357 55.6488C70.6586 55.7654 70.7567 55.9057 70.8239 56.0613C70.8897 56.226 70.9187 56.4031 70.9089 56.5802C70.8992 56.7573 70.8508 56.9301 70.7673 57.0866C70.6838 57.2431 70.5671 57.3794 70.4254 57.4861C70.2837 57.5928 70.1204 57.6673 69.9469 57.7043C67.8982 58.4529 65.8446 59.1863 63.7859 59.9043C63.5058 60.0242 63.1906 60.0336 62.9038 59.9307C62.617 59.8277 62.3798 59.62 62.2399 59.3493C60.5666 56.6546 58.8999 53.9546 57.2399 51.2493C57.1368 51.1145 57.0631 50.9596 57.0234 50.7947C56.9837 50.6297 56.9789 50.4582 57.0094 50.2913C57.0399 50.1244 57.105 49.9657 57.2004 49.8254C57.2959 49.6851 57.4196 49.5663 57.5636 49.4767C57.7077 49.387 57.8689 49.3285 58.037 49.3049C58.205 49.2812 58.3761 49.293 58.5393 49.3393C58.7025 49.3857 58.8542 49.4657 58.9847 49.5742C59.1152 49.6827 59.2215 49.8173 59.2969 49.9693C60.6679 52.1483 62.0179 54.3393 63.3769 56.5253C63.5239 56.7623 63.6769 56.9943 63.8579 57.2693" fill="white"/>
</svg>
