<svg width="103" height="88" viewBox="0 0 103 88" fill="none" xmlns="http://www.w3.org/2000/svg">
<path d="M4.68798 22.3542H91.2307C91.2307 19.7535 91.4003 17.2007 91.1823 14.676C91.0147 13.4469 90.3584 12.3177 89.3391 11.505C88.3199 10.6923 87.0095 10.2533 85.6591 10.2721C82.682 10.2463 79.7037 10.2721 76.7266 10.2627C75.24 10.2627 74.3501 9.60785 74.3615 8.56008C74.373 7.5123 75.254 6.87615 76.761 6.89136C80.2051 6.79898 83.652 6.86846 87.0883 7.09951C89.2584 7.33804 91.257 8.30037 92.7035 9.80321C94.1499 11.306 94.9431 13.2444 94.932 15.249C95.0097 25.0251 94.9664 34.8012 94.9575 44.5773C94.9852 44.8201 94.9566 45.0656 94.8734 45.2976C94.7903 45.5296 94.6545 45.7428 94.475 45.9232C94.2956 46.1036 94.0765 46.2471 93.8322 46.3443C93.5879 46.4414 93.324 46.49 93.0578 46.4869C91.9881 46.4483 91.2894 45.6776 91.2868 44.458C91.2775 38.7069 91.2775 32.9562 91.2868 27.206V25.8694H4.68926V27.0224C4.68926 40.2848 4.68926 53.5476 4.68926 66.8108C4.62119 67.5672 4.73343 68.3281 5.01819 69.0406C5.30294 69.7532 5.75339 70.4004 6.33825 70.9373C6.92311 71.4741 7.62836 71.8878 8.40504 72.1496C9.18171 72.4114 10.0112 72.5149 10.8359 72.4531C24.7841 72.4531 38.7319 72.4531 52.6793 72.4531C54.5204 72.4531 55.4231 72.991 55.4549 74.1043C55.4872 75.2542 54.5501 75.8299 52.6436 75.8315C38.8135 75.8315 24.983 75.8315 11.1521 75.8315C4.94552 75.8315 1.00713 72.2356 1.00585 66.5536C1.0016 49.6964 1.0016 32.8393 1.00585 15.9822C0.935467 14.7741 1.14249 13.566 1.61352 12.436C2.08454 11.306 2.80907 10.2793 3.74019 9.4224C4.67131 8.56552 5.78827 7.89755 7.01873 7.46175C8.24919 7.02594 9.56572 6.83201 10.8831 6.89252C13.0773 6.89252 15.2715 6.88317 17.4658 6.89252C18.853 6.89954 19.7263 7.56961 19.7225 8.58697C19.7187 9.60434 18.8504 10.2592 17.4518 10.265C15.1797 10.2756 12.9065 10.265 10.6345 10.265C9.84866 10.2284 9.06316 10.3424 8.32808 10.5997C7.59299 10.8571 6.92447 11.2521 6.36518 11.7597C5.80589 12.2673 5.3681 12.8763 5.07976 13.5477C4.79142 14.2192 4.65886 14.9384 4.69053 15.6594C4.67778 17.8497 4.69053 20.04 4.69053 22.3518" fill="#164160"/>
<path d="M103 67.2352C102.992 71.3511 101.653 75.3724 99.1524 78.7901C96.6517 82.2078 93.1018 84.8682 88.9519 86.4346C84.802 88.001 80.2387 88.403 75.8396 87.5898C71.4405 86.7765 67.4033 84.7845 64.239 81.8659C61.0748 78.9473 58.9257 75.2333 58.0637 71.194C57.2018 67.1547 57.6658 62.9717 59.397 59.1743C61.1282 55.377 64.0487 52.136 67.789 49.8617C71.5293 47.5874 75.9211 46.3819 80.4087 46.3979C86.4139 46.4229 92.1635 48.63 96.398 52.5357C100.632 56.4414 103.006 61.7272 103 67.2352M99.3726 67.2095C99.359 63.759 98.2307 60.3896 96.1303 57.5269C94.0299 54.6643 91.0515 52.4368 87.5715 51.1259C84.0915 49.815 80.266 49.4795 76.5782 50.1618C72.8904 50.844 69.5058 52.5134 66.852 54.9591C64.1981 57.4048 62.3941 60.517 61.6677 63.9026C60.9414 67.2882 61.3254 70.7953 62.7712 73.9808C64.2169 77.1663 66.6597 79.8874 69.7907 81.8003C72.9218 83.7131 76.6007 84.732 80.3628 84.7281C85.4146 84.7113 90.253 82.8577 93.8167 79.5735C97.3804 76.2894 99.3784 71.8429 99.3726 67.2095" fill="#164160"/>
<path d="M23.5715 6.78266C23.5715 5.20516 23.5614 3.62531 23.5715 2.05015C23.5817 0.790716 24.3263 -0.0149906 25.4317 0.000211433C26.5371 0.0154135 27.2473 0.807089 27.2511 2.08874C27.2605 5.27961 27.2605 8.47009 27.2511 11.6602C27.2511 12.9266 26.5014 13.7218 25.3922 13.7101C24.283 13.6984 23.5856 12.9079 23.5754 11.6216C23.5626 10.009 23.5754 8.39525 23.5754 6.7815" fill="#164160"/>
<path d="M46.1399 6.8749C46.1399 5.26231 46.1284 3.64856 46.1399 2.0348C46.1526 0.775371 46.9049 -0.0221546 48.0167 0.0012332C49.0864 0.0234516 49.808 0.796418 49.8144 1.99738C49.8288 5.22333 49.8288 8.44968 49.8144 11.6764C49.8144 12.9323 49.0494 13.7357 47.9389 13.7111C46.8692 13.6878 46.1539 12.9148 46.1386 11.7138C46.1195 10.1012 46.1386 8.48749 46.1386 6.87373" fill="#164160"/>
<path d="M72.3917 6.94644C72.3917 8.52394 72.4032 10.1038 72.3917 11.679C72.3802 12.9407 71.6267 13.7382 70.5175 13.7125C69.4452 13.688 68.7223 12.9162 68.7172 11.7175C68.7036 8.49081 68.7036 5.26447 68.7172 2.03851C68.7172 0.780252 69.4822 -0.0196128 70.5927 0.00494436C71.6675 0.0283321 72.3777 0.795453 72.3904 1.99992C72.4083 3.64876 72.3904 5.2976 72.3904 6.94761" fill="#164160"/>
<path d="M36.7854 6.89033C38.4658 6.89033 40.1462 6.88331 41.8266 6.89033C43.2992 6.89734 44.1917 7.55921 44.1713 8.60581C44.1522 9.61733 43.2789 10.2628 41.8866 10.2664C38.4476 10.2741 35.0089 10.2741 31.5708 10.2664C30.0943 10.2664 29.2044 9.5998 29.2274 8.55319C29.2503 7.50659 30.1198 6.89734 31.6294 6.89149C33.3493 6.88448 35.0718 6.89149 36.788 6.89149" fill="#164160"/>
<path d="M59.3908 6.89143C61.1107 6.89143 62.8332 6.87973 64.5493 6.89143C65.86 6.90312 66.704 7.55096 66.7384 8.52856C66.7754 9.54593 65.9008 10.2546 64.534 10.2593C61.0168 10.271 57.4995 10.271 53.9823 10.2593C52.664 10.2593 51.8276 9.60557 51.7932 8.62212C51.7575 7.60475 52.6334 6.90077 53.9976 6.88908C55.7953 6.87388 57.593 6.88908 59.3908 6.88908" fill="#164160"/>
<path d="M68.6994 34.895C69.42 34.9081 70.1205 35.1158 70.7132 35.492C71.3059 35.8682 71.7646 36.3963 72.0319 37.0102C72.2992 37.6242 72.3633 38.2968 72.2162 38.9439C72.069 39.5911 71.7172 40.1842 71.2047 40.649C70.6921 41.1138 70.0416 41.4298 69.3343 41.5574C68.6271 41.685 67.8945 41.6186 67.2282 41.3665C66.5619 41.1144 65.9914 40.6877 65.5879 40.1399C65.1845 39.5921 64.966 38.9473 64.9598 38.2862C64.9598 37.8376 65.0568 37.3934 65.2453 36.9795C65.4337 36.5655 65.7098 36.1899 66.0576 35.8745C66.4054 35.5591 66.818 35.3101 67.2715 35.142C67.7249 34.9738 68.2103 34.8899 68.6994 34.895" fill="#52B3E2"/>
<path d="M55.5097 53.6998C54.7842 53.6923 54.0774 53.4876 53.4787 53.1115C52.8801 52.7354 52.4166 52.2049 52.1468 51.5871C51.8771 50.9693 51.8133 50.292 51.9634 49.6409C52.1135 48.9898 52.4709 48.3942 52.9902 47.9295C53.5096 47.4647 54.1676 47.1518 54.881 47.0302C55.5944 46.9087 56.3311 46.9839 56.9978 47.2465C57.6645 47.5091 58.2312 47.9472 58.6263 48.5054C59.0215 49.0636 59.2271 49.7168 59.2173 50.3822C59.1963 51.2704 58.7961 52.1155 58.1027 52.7359C57.4094 53.3563 56.4783 53.7024 55.5097 53.6998" fill="#52B3E2"/>
<path d="M42.3152 65.7748C41.5897 65.7621 40.8846 65.5524 40.2892 65.172C39.6938 64.7917 39.2348 64.2578 38.9703 63.6381C38.7058 63.0184 38.6477 62.3406 38.8034 61.6906C38.9591 61.0406 39.3216 60.4476 39.8449 59.9866C40.3682 59.5256 41.0289 59.2174 41.7433 59.101C42.4577 58.9845 43.1937 59.0651 43.8582 59.3325C44.5226 59.5999 45.0857 60.0421 45.476 60.6031C45.8663 61.1641 46.0663 61.8187 46.0508 62.4841C46.0222 63.3721 45.6148 64.2143 44.9162 64.8296C44.2176 65.445 43.2837 65.7843 42.3152 65.7748" fill="#52B3E2"/>
<path d="M42.3214 34.8933C43.0471 34.8989 43.7547 35.1019 44.3545 35.4765C44.9543 35.8512 45.4195 36.3806 45.691 36.9979C45.9626 37.6151 46.0284 38.2924 45.88 38.9439C45.7316 39.5955 45.3758 40.192 44.8576 40.6579C44.3394 41.1239 43.682 41.4384 42.9689 41.5615C42.2557 41.6846 41.5187 41.6108 40.8513 41.3496C40.1838 41.0883 39.6159 40.6513 39.2194 40.0938C38.8229 39.5363 38.6157 38.8835 38.624 38.2179C38.6411 37.3295 39.0384 36.4829 39.7302 35.8609C40.4219 35.2389 41.3527 34.8913 42.3214 34.8933" fill="#52B3E2"/>
<path d="M55.4512 34.8933C56.1773 34.8922 56.8875 35.0887 57.4917 35.458C58.096 35.8274 58.5671 36.3529 58.8455 36.968C59.1238 37.5831 59.1968 38.2602 59.0553 38.9134C58.9138 39.5667 58.564 40.1666 58.0504 40.6374C57.5368 41.1082 56.8823 41.4285 56.17 41.5579C55.4577 41.6873 54.7196 41.6198 54.0491 41.3641C53.3786 41.1084 52.806 40.6759 52.4037 40.1214C52.0015 39.5669 51.7877 38.9155 51.7894 38.2495C51.7994 37.3618 52.1885 36.5131 52.8731 35.8856C53.5577 35.2581 54.4833 34.9018 55.4512 34.8933" fill="#52B3E2"/>
<path d="M81.7857 41.6186C81.065 41.6014 80.3658 41.3897 79.7754 41.0101C79.1851 40.6304 78.7299 40.0997 78.4666 39.4841C78.2033 38.8685 78.1436 38.1953 78.2951 37.5488C78.4465 36.9023 78.8023 36.3111 79.318 35.849C79.8337 35.3868 80.4865 35.0744 81.1947 34.9506C81.903 34.8268 82.6352 34.8972 83.3001 35.153C83.965 35.4087 84.5329 35.8385 84.933 36.3886C85.333 36.9388 85.5474 37.5848 85.5494 38.2461C85.546 38.6948 85.4456 39.1385 85.2542 39.5514C85.0627 39.9643 84.784 40.3384 84.434 40.6519C84.0841 40.9655 83.6699 41.2124 83.2153 41.3783C82.7608 41.5442 82.2749 41.6259 81.7857 41.6186" fill="#52B3E2"/>
<path d="M16.0621 53.6961C15.3364 53.697 14.6268 53.5004 14.023 53.1312C13.4192 52.762 12.9484 52.2368 12.6702 51.6221C12.3921 51.0073 12.319 50.3307 12.4603 49.6779C12.6017 49.0251 12.951 48.4254 13.4641 47.9548C13.9772 47.4841 14.6311 47.1637 15.3429 47.0341C16.0546 46.9045 16.7923 46.9715 17.4626 47.2266C18.1328 47.4817 18.7054 47.9135 19.1079 48.4673C19.5105 49.0211 19.7248 49.672 19.7238 50.3376C19.7122 51.225 19.3227 52.0731 18.6385 52.7006C17.9543 53.3282 17.0296 53.6854 16.0621 53.6961" fill="#52B3E2"/>
<path d="M29.2044 46.9712C29.9249 46.985 30.6249 47.1932 31.2171 47.5699C31.8093 47.9465 32.2674 48.4748 32.5341 49.0888C32.8009 49.7028 32.8644 50.3753 32.7169 51.0222C32.5694 51.6692 32.2173 52.2619 31.7046 52.7264C31.1919 53.1908 30.5413 53.5064 29.8342 53.6338C29.127 53.7611 28.3947 53.6945 27.7286 53.4423C27.0625 53.1901 26.4922 52.7635 26.0889 52.2157C25.6856 51.668 25.4672 51.0234 25.4611 50.3624C25.461 49.9135 25.5582 49.4691 25.7468 49.0549C25.9355 48.6406 26.212 48.2649 26.5602 47.9495C26.9084 47.634 27.3214 47.3851 27.7753 47.2172C28.2292 47.0492 28.715 46.9656 29.2044 46.9712Z" fill="#52B3E2"/>
<path d="M42.3496 53.7009C41.6287 53.6944 40.926 53.4931 40.3291 53.1224C39.7322 52.7516 39.2677 52.2277 38.9935 51.6162C38.7194 51.0047 38.6477 50.3327 38.7876 49.6841C38.9274 49.0355 39.2726 48.439 39.7798 47.9692C40.2871 47.4995 40.9341 47.1772 41.6399 47.0427C42.3457 46.9083 43.0791 46.9675 43.7484 47.2131C44.4177 47.4587 44.9933 47.8797 45.4033 48.4235C45.8132 48.9674 46.0393 49.61 46.0534 50.2711C46.059 50.7202 45.9672 51.1658 45.7835 51.5821C45.5998 51.9984 45.3278 52.377 44.9832 52.6961C44.6386 53.0152 44.2284 53.2683 43.7763 53.4408C43.3242 53.6133 42.8392 53.7017 42.3496 53.7009" fill="#52B3E2"/>
<path d="M16.0098 65.7727C15.2892 65.7641 14.5874 65.5609 13.9919 65.1886C13.3965 64.8163 12.9339 64.2913 12.6619 63.6793C12.3899 63.0672 12.3205 62.3952 12.4625 61.7472C12.6045 61.0992 12.9515 60.5039 13.4602 60.0357C13.9689 59.5676 14.6167 59.2473 15.3227 59.1148C16.0287 58.9824 16.7616 59.0437 17.4299 59.2911C18.0982 59.5385 18.6721 59.961 19.0801 60.5058C19.4881 61.0506 19.7119 61.6937 19.7238 62.3545C19.7277 62.8034 19.6344 63.2485 19.4492 63.6641C19.2641 64.0796 18.9909 64.4574 18.6454 64.7753C18.2999 65.0933 17.8891 65.3452 17.4366 65.5164C16.9842 65.6876 16.4992 65.7747 16.0098 65.7727" fill="#52B3E2"/>
<path d="M29.1572 65.775C28.4366 65.7632 27.7357 65.557 27.1421 65.182C26.5484 64.8071 26.0884 64.28 25.8194 63.6667C25.5504 63.0534 25.4844 62.381 25.6297 61.7334C25.7749 61.0859 26.1249 60.492 26.6359 60.0258C27.147 59.5596 27.7965 59.2418 28.5033 59.1122C29.21 58.9826 29.9428 59.0468 30.61 59.2968C31.2772 59.5469 31.8494 59.9717 32.2549 60.5182C32.6605 61.0647 32.8815 61.7087 32.8904 62.3698C32.8924 62.8191 32.7971 63.2642 32.61 63.6794C32.4228 64.0947 32.1476 64.4717 31.8003 64.7885C31.4529 65.1053 31.0404 65.3557 30.5867 65.525C30.133 65.6944 29.6471 65.7794 29.1572 65.775Z" fill="#52B3E2"/>
<path d="M64.9561 67.2658C64.9563 64.4756 65.8585 61.7481 67.5485 59.428C69.2385 57.1079 71.6405 55.2994 74.4509 54.2312C77.2613 53.1629 80.3539 52.8828 83.3378 53.4263C86.3217 53.9697 89.063 55.3124 91.2151 57.2845C93.3673 59.2566 94.8336 61.7696 95.4289 64.5059C96.0242 67.2422 95.7216 70.079 94.5594 72.6576C93.3973 75.2362 91.4277 77.441 88.8997 78.9932C86.3717 80.5453 83.3987 81.3753 80.3565 81.378C78.3349 81.3793 76.3328 81.0152 74.4646 80.3066C72.5965 79.5979 70.8988 78.5587 69.4687 77.2482C68.0386 75.9377 66.9039 74.3816 66.1296 72.6688C65.3553 70.956 64.9566 69.12 64.9561 67.2658V67.2658Z" fill="#52B3E2"/>
<path d="M81.1469 66.9817L86.2646 65.334C86.7963 65.1633 87.3216 64.9762 87.8584 64.8195C88.0527 64.7329 88.2641 64.6834 88.4799 64.6738C88.6957 64.6643 88.9113 64.6949 89.1139 64.7639C89.3164 64.8328 89.5016 64.9387 89.6584 65.075C89.8151 65.2114 89.9401 65.3755 90.0258 65.5573C90.1097 65.75 90.1467 65.9571 90.1342 66.1642C90.1218 66.3713 90.0601 66.5734 89.9537 66.7564C89.8472 66.9394 89.6984 67.0988 89.5177 67.2236C89.337 67.3483 89.1288 67.4354 88.9077 67.4786C86.2957 68.3541 83.6773 69.2117 81.0525 70.0513C80.6954 70.1916 80.2936 70.2026 79.9279 70.0822C79.5622 69.9618 79.2598 69.7189 79.0814 69.4023C76.948 66.2512 74.823 63.0938 72.7066 59.9303C72.5751 59.7726 72.4811 59.5916 72.4305 59.3986C72.3799 59.2057 72.3738 59.0052 72.4127 58.8101C72.4516 58.6149 72.5345 58.4293 72.6562 58.2652C72.7779 58.1012 72.9356 57.9623 73.1193 57.8574C73.303 57.7526 73.5086 57.6841 73.7228 57.6565C73.937 57.6288 74.1552 57.6426 74.3633 57.6968C74.5714 57.751 74.7648 57.8446 74.9311 57.9714C75.0975 58.0983 75.2331 58.2557 75.3292 58.4334C77.0772 60.9815 78.7984 63.5437 80.5311 66.1C80.7185 66.3771 80.9136 66.6484 81.1443 66.97" fill="white"/>
</svg>
