<svg width="403" height="267" viewBox="0 0 403 267" fill="none" xmlns="http://www.w3.org/2000/svg">
<path d="M380.55 210.158C378.768 212.342 376.378 213.949 373.683 214.775C370.987 215.6 368.108 215.608 365.408 214.796C362.709 213.984 360.31 212.389 358.517 210.214C356.725 208.039 355.617 205.38 355.336 202.576C355.054 199.771 355.611 196.945 356.937 194.457C358.262 191.969 360.295 189.93 362.779 188.598C365.264 187.266 368.088 186.701 370.893 186.975C373.699 187.248 376.361 188.348 378.541 190.135C381.462 192.524 383.315 195.975 383.692 199.73C384.069 203.485 382.939 207.236 380.55 210.158Z" fill="#52B3E2"/>
<path d="M365.392 208.721L363.847 210.663L362.114 209.283L363.614 207.394C362.112 206.12 360.998 204.45 360.4 202.573L363.036 201.216C363.478 202.703 364.3 204.05 365.42 205.124L367.72 202.224C366.167 200.224 364.528 197.873 366.501 195.394C367.964 193.557 370.554 193.041 373.541 194.909L375.072 192.985L376.806 194.364L375.306 196.254C376.492 197.309 377.409 198.631 377.984 200.111L375.421 201.554C374.982 200.431 374.325 199.408 373.486 198.542L371.141 201.49C372.706 203.471 374.311 205.796 372.366 208.24C370.932 210.04 368.372 210.555 365.388 208.718M369.752 199.676L371.71 197.214C370.626 196.691 369.862 196.904 369.41 197.477C368.928 198.083 369.186 198.827 369.756 199.677M369.413 206.228C369.896 205.621 369.655 204.892 369.113 204.038L367.213 206.431C368.232 206.931 368.972 206.783 369.413 206.231" fill="white"/>
<path d="M332.496 0H35.107C32.6452 0 30.2843 0.977923 28.5436 2.71864C26.8029 4.45935 25.825 6.82026 25.825 9.282V219.335C25.825 221.797 26.8028 224.158 28.5435 225.899C30.2842 227.64 32.6451 228.618 35.107 228.618H149.249L143.715 265.318H226.47L221.85 228.618H332.497C334.959 228.618 337.319 227.64 339.06 225.899C340.801 224.158 341.779 221.798 341.779 219.336V9.283C341.779 6.821 340.801 4.45983 339.06 2.71893C337.319 0.978029 334.958 0 332.496 0Z" fill="#2A3D66"/>
<path d="M187.773 206.527C191.819 212.309 185.487 218.64 179.704 214.595C179.51 214.459 179.34 214.289 179.204 214.095C175.169 208.315 181.493 201.995 187.272 206.027C187.466 206.163 187.636 206.333 187.772 206.527" fill="#E1E9ED"/>
<path d="M333.5 190.19H34.142V15.623C34.142 13.6073 34.9427 11.6743 36.368 10.249C37.7932 8.82371 39.7263 8.02299 41.742 8.02299H325.896C327.912 8.02299 329.845 8.82371 331.27 10.249C332.695 11.6743 333.496 13.6073 333.496 15.623L333.5 190.19Z" fill="#1D2848"/>
<path d="M325.737 15.55H42.2589V182.659H325.737V15.55Z" fill="white"/>
<path d="M325.737 15.551H42.2589V29.437H325.737V15.551Z" fill="#E1E9ED"/>
<path d="M53.278 22.784C53.2913 23.1808 53.1858 23.5726 52.975 23.9091C52.7642 24.2456 52.4577 24.5114 52.0948 24.6726C51.7319 24.8337 51.3291 24.8827 50.9381 24.8134C50.5472 24.7441 50.1858 24.5595 49.9004 24.2834C49.615 24.0074 49.4186 23.6523 49.3363 23.2639C49.2541 22.8754 49.2897 22.4713 49.4387 22.1032C49.5877 21.7351 49.8432 21.42 50.1725 21.1981C50.5018 20.9763 50.8899 20.8578 51.287 20.858C51.8063 20.8497 52.3077 21.0479 52.681 21.409C53.0543 21.7701 53.269 22.2647 53.278 22.784Z" fill="white"/>
<path d="M59.215 22.784C59.2283 23.1808 59.1228 23.5726 58.912 23.9091C58.7012 24.2456 58.3947 24.5114 58.0318 24.6726C57.6689 24.8337 57.2661 24.8827 56.8751 24.8134C56.4841 24.7441 56.1228 24.5595 55.8374 24.2834C55.552 24.0074 55.3556 23.6523 55.2733 23.2639C55.1911 22.8754 55.2267 22.4713 55.3757 22.1032C55.5247 21.7351 55.7802 21.42 56.1095 21.1981C56.4388 20.9763 56.8269 20.8578 57.224 20.858C57.7433 20.8497 58.2447 21.0479 58.618 21.409C58.9913 21.7701 59.206 22.2647 59.215 22.784Z" fill="white"/>
<path d="M64.8589 22.784C64.8723 23.1808 64.7668 23.5726 64.5559 23.9091C64.3451 24.2456 64.0386 24.5114 63.6757 24.6726C63.3128 24.8337 62.91 24.8827 62.519 24.8134C62.1281 24.7441 61.7667 24.5595 61.4813 24.2834C61.1959 24.0074 60.9995 23.6523 60.9173 23.2639C60.835 22.8754 60.8706 22.4713 61.0196 22.1032C61.1686 21.7351 61.4241 21.42 61.7534 21.1981C62.0828 20.9763 62.4708 20.8578 62.8679 20.858C63.3872 20.8497 63.8886 21.0479 64.2619 21.409C64.6352 21.7701 64.85 22.2647 64.8589 22.784Z" fill="white"/>
<path d="M325.791 50.115H42.205V109.861H325.791V50.115Z" fill="#E1E9ED"/>
<path d="M81.5639 37.55H53.8469V44.61H81.5639V37.55Z" fill="#2A3D66"/>
<path d="M275.736 35.95H255.671V43.01H275.736V35.95Z" fill="#E1E9ED"/>
<path d="M242.934 35.762H222.869V42.822H242.934V35.762Z" fill="#E1E9ED"/>
<path d="M173.418 101.543C173.435 102.045 173.302 102.541 173.035 102.967C172.768 103.393 172.38 103.729 171.921 103.933C171.462 104.137 170.952 104.199 170.457 104.111C169.963 104.024 169.505 103.79 169.144 103.441C168.783 103.092 168.534 102.642 168.43 102.151C168.326 101.659 168.371 101.148 168.56 100.682C168.748 100.216 169.071 99.8175 169.488 99.5367C169.905 99.2558 170.396 99.1059 170.898 99.106C171.555 99.0953 172.19 99.3459 172.662 99.8029C173.135 100.26 173.407 100.886 173.418 101.543Z" fill="#2A3D66"/>
<path d="M183.456 101.543C183.473 102.045 183.339 102.541 183.073 102.967C182.806 103.393 182.418 103.729 181.959 103.933C181.5 104.137 180.99 104.199 180.495 104.111C180.001 104.024 179.543 103.79 179.182 103.441C178.821 103.092 178.572 102.642 178.468 102.151C178.364 101.659 178.409 101.148 178.597 100.682C178.786 100.216 179.109 99.8175 179.526 99.5367C179.942 99.2558 180.433 99.1059 180.936 99.106C181.593 99.0953 182.228 99.3459 182.7 99.8029C183.173 100.26 183.445 100.886 183.456 101.543Z" fill="white"/>
<path d="M193.037 101.543C193.054 102.045 192.92 102.541 192.654 102.967C192.387 103.393 191.999 103.729 191.54 103.933C191.081 104.137 190.571 104.199 190.076 104.111C189.582 104.024 189.124 103.79 188.763 103.441C188.402 103.092 188.153 102.642 188.049 102.151C187.945 101.659 187.99 101.148 188.178 100.682C188.367 100.216 188.69 99.8175 189.107 99.5367C189.523 99.2558 190.015 99.1059 190.517 99.106C191.174 99.0953 191.809 99.3459 192.281 99.8029C192.754 100.26 193.026 100.886 193.037 101.543Z" fill="white"/>
<path d="M140.176 94.291H66.002V101.727H140.176V94.291Z" fill="white"/>
<path d="M143.544 120.723H100.68V158.114H143.544V120.723Z" fill="#E1E9ED"/>
<path d="M200.474 120.052H164.333V156.193H200.474V120.052Z" fill="#E1E9ED"/>
<path d="M256.886 118.941H218.523V157.304H256.886V118.941Z" fill="#E1E9ED"/>
<path d="M148.48 130.034C148.48 130.034 137.737 117.891 136.38 117.117C135.443 116.689 134.448 116.401 133.428 116.261C132.84 116.135 132.244 116.049 131.645 116.002L131.52 115.989C128.233 115.7 123.242 115.838 123.242 115.838C123.242 115.838 123.156 120.229 117.565 122.064C111.816 123.319 109.515 119.58 109.515 119.58C109.515 119.58 105.143 121.993 102.458 123.909L102.358 123.985C101.865 124.329 101.395 124.706 100.952 125.112C100.144 125.751 99.4332 126.504 98.843 127.348C98.069 128.701 94.974 144.617 94.974 144.617L106.474 146.917L107.642 139.076L113.852 164.622L127.526 160.896L128.689 160.578L142.519 156.808L134.751 131.687L139.736 137.85L148.48 130.034Z" fill="#52B3E2"/>
<path d="M109.353 145.352C109.058 144.606 108.821 143.839 108.644 143.057C108.244 141.619 107.722 139.609 107.144 137.337L107.178 137.407L106.504 136.514C104.938 134.434 103.537 132.537 102.539 131.153C102.039 130.461 101.639 129.897 101.374 129.501C101.217 129.307 101.087 129.092 100.989 128.863C101.182 129.021 101.353 129.205 101.496 129.409C101.802 129.776 102.234 130.315 102.762 130.986C103.817 132.328 105.253 134.198 106.819 136.278L107.49 137.173L107.514 137.204L107.523 137.242C108.086 139.517 108.567 141.542 108.895 142.993C109.107 143.766 109.259 144.554 109.35 145.351" fill="#263238"/>
<path d="M136.409 137.984C136.084 137.252 135.817 136.496 135.609 135.722C135.153 134.301 134.543 132.315 133.873 130.07L133.862 130.032V129.992C133.902 129.637 133.944 129.261 133.987 128.881C134.281 126.293 134.57 123.953 134.797 122.262C134.911 121.416 135.01 120.733 135.088 120.262C135.108 120.014 135.161 119.769 135.247 119.535C135.279 119.782 135.276 120.033 135.239 120.279C135.208 120.756 135.152 121.444 135.073 122.294C134.916 123.994 134.673 126.338 134.373 128.926C134.329 129.306 134.286 129.682 134.245 130.037L134.238 129.96C134.897 132.209 135.462 134.209 135.851 135.649C136.095 136.413 136.28 137.194 136.405 137.986" fill="#263238"/>
<path d="M129.893 137.2L129.07 137.423C128.579 137.556 128.066 137.592 127.561 137.527C127.056 137.462 126.569 137.298 126.127 137.045C125.686 136.792 125.298 136.454 124.987 136.051C124.676 135.649 124.447 135.188 124.314 134.697L122.883 129.422L131.183 127.168L132.615 132.443C132.748 132.934 132.784 133.447 132.719 133.952C132.654 134.457 132.49 134.944 132.237 135.386C131.984 135.827 131.646 136.215 131.243 136.526C130.84 136.837 130.38 137.066 129.889 137.199" fill="white"/>
<path d="M130.141 137.074C130.131 137.043 130.418 136.974 130.873 136.707C131.424 136.386 131.874 135.918 132.174 135.356C132.475 134.793 132.613 134.158 132.573 133.522C132.48 132.911 132.335 132.308 132.139 131.722C131.776 130.422 131.374 128.981 130.939 127.438L131.169 127.569L126.569 128.832L123.198 129.746L123.333 129.511L124.602 134.262C124.702 134.622 124.782 134.979 124.897 135.287C125.017 135.589 125.178 135.873 125.376 136.131C125.736 136.59 126.209 136.949 126.748 137.172C127.537 137.486 128.41 137.517 129.219 137.26C129.519 137.17 129.827 137.109 130.139 137.078C129.854 137.209 129.558 137.314 129.254 137.389C128.418 137.709 127.493 137.713 126.654 137.402C126.064 137.178 125.543 136.803 125.143 136.315C124.921 136.039 124.739 135.732 124.602 135.405C124.466 135.058 124.38 134.705 124.277 134.35C123.877 132.905 123.432 131.311 122.96 129.612L122.909 129.428L123.095 129.377L126.463 128.454L131.063 127.209L131.245 127.16L131.293 127.34C131.705 128.889 132.093 130.332 132.436 131.64C132.628 132.25 132.764 132.876 132.841 133.511C132.862 134.073 132.753 134.632 132.524 135.145C132.198 135.871 131.633 136.462 130.924 136.822C130.739 136.918 130.544 136.992 130.343 137.043C130.206 137.077 130.134 137.089 130.131 137.078" fill="#263238"/>
<path d="M141.394 165.916H104.003V170.91H141.394V165.916Z" fill="#E1E9ED"/>
<path d="M200.245 165.916H162.854V170.91H200.245V165.916Z" fill="#E1E9ED"/>
<path d="M257.256 166.043H221.757V170.784H257.256V166.043Z" fill="#E1E9ED"/>
<path d="M252.069 132.746C250.469 128.979 248.252 125.446 244.062 123.569C241.446 122.472 238.608 122.006 235.778 122.209C232.948 122.412 230.205 123.278 227.772 124.737C223.013 127.503 219.264 134.381 218.467 139.328C229.393 149.308 251.216 151.089 254.627 144.937C255.045 141.044 253.664 136.512 252.069 132.745" fill="#52B3E2"/>
<path d="M264.612 149.079C264.167 147.522 262.464 146.757 260.98 146.105C257.238 144.46 253.742 142.303 250.593 139.697L218.466 139.327C225.735 149.795 239.354 156.989 252.08 156.312C255.503 156.247 258.86 155.355 261.865 153.712C263.528 152.722 265.144 150.939 264.611 149.078" fill="#52B3E2"/>
<path d="M254.979 142.894C254.984 143.034 254.97 143.173 254.936 143.309C254.761 144.237 254.376 145.114 253.811 145.87C253.245 146.626 252.513 147.243 251.672 147.673C250.771 148.155 249.805 148.502 248.803 148.703C248.248 148.812 247.689 148.892 247.126 148.941C246.532 149.013 245.936 149.053 245.338 149.061C242.679 149.119 240.023 148.869 237.422 148.315C232.699 147.316 228.158 145.596 223.959 143.215C222.696 142.486 221.471 141.692 220.289 140.837L219.349 140.11C219.233 140.033 219.129 139.94 219.038 139.835C219.166 139.889 219.287 139.959 219.398 140.044L220.38 140.707C221.235 141.278 222.497 142.067 224.1 142.962C228.305 145.248 232.818 146.916 237.5 147.913C240.07 148.46 242.694 148.718 245.322 148.682C245.911 148.68 246.499 148.647 247.085 148.582C247.637 148.54 248.187 148.469 248.732 148.369C249.706 148.188 250.649 147.868 251.532 147.418C252.818 146.767 253.847 145.701 254.454 144.393C254.863 143.458 254.937 142.883 254.977 142.893" fill="#263238"/>
<path d="M247.816 148.697C247.791 148.511 247.785 148.324 247.796 148.137C247.801 147.73 247.809 147.198 247.818 146.537C247.877 145.148 247.846 143.137 247.718 140.661C247.549 137.765 247.071 134.896 246.292 132.102C246.064 131.299 245.785 130.51 245.458 129.742C245.131 128.937 244.751 128.155 244.319 127.401C243.441 125.807 242.18 124.457 240.651 123.472C240.481 123.369 240.302 123.28 240.118 123.206L240.227 123.212C238.473 123.562 236.822 124.309 235.402 125.396C234.103 126.445 232.931 127.642 231.909 128.962C230.104 131.147 228.595 133.56 227.42 136.139C226.411 138.339 225.765 140.188 225.287 141.453L224.736 142.911C224.68 143.085 224.606 143.252 224.517 143.411C224.547 143.232 224.595 143.056 224.659 142.886L225.139 141.403C225.572 140.122 226.177 138.251 227.16 136.023C228.309 133.402 229.809 130.949 231.619 128.731C232.651 127.38 233.84 126.155 235.16 125.083C236.625 123.956 238.329 123.18 240.141 122.816L240.202 122.803L240.25 122.822C240.458 122.905 240.659 123.005 240.85 123.122C242.442 124.142 243.752 125.545 244.661 127.203C245.099 127.974 245.485 128.774 245.815 129.598C246.144 130.379 246.423 131.181 246.65 131.998C247.421 134.822 247.875 137.723 248.004 140.647C248.097 142.613 248.086 144.582 247.972 146.547C247.931 147.209 247.899 147.741 247.872 148.147C247.87 148.334 247.849 148.52 247.81 148.703" fill="#263238"/>
<path d="M241.262 123.574L239.304 123.235L239.422 122.547C239.442 122.432 239.484 122.322 239.547 122.223C239.609 122.124 239.691 122.039 239.786 121.971C239.882 121.904 239.99 121.856 240.104 121.831C240.218 121.805 240.336 121.802 240.451 121.822L240.651 121.857C240.766 121.877 240.876 121.919 240.975 121.982C241.074 122.044 241.159 122.126 241.227 122.221C241.294 122.317 241.342 122.425 241.367 122.539C241.393 122.653 241.396 122.771 241.376 122.886L241.262 123.574Z" fill="#263238"/>
<path d="M239.735 138.133L238.916 141.743C238.916 141.743 243.696 144.35 248.189 143.459C249.829 143.213 251.322 142.377 252.389 141.108L252.089 137.983C252.089 137.983 250.809 139.449 246.955 139.539C244.498 139.395 242.071 138.922 239.739 138.133" fill="white"/>
<path d="M263.13 152.636C263.139 152.647 263.054 152.731 262.882 152.881C262.636 153.105 262.374 153.312 262.098 153.499C261.089 154.202 259.993 154.769 258.837 155.187C255.001 156.528 250.913 156.992 246.874 156.544C242.854 156.058 238.943 154.909 235.299 153.144C233.899 152.481 232.799 151.883 232.054 151.444C231.678 151.231 231.395 151.05 231.202 150.929C231.009 150.808 230.913 150.736 230.921 150.724C231.337 150.888 231.741 151.083 232.129 151.305C232.897 151.697 234.013 152.253 235.419 152.879C239.06 154.55 242.937 155.649 246.914 156.136C250.896 156.572 254.926 156.156 258.735 154.914C260.296 154.359 261.774 153.591 263.127 152.634" fill="#263238"/>
<path d="M159.753 131.816C159.753 131.816 164.028 123.751 169.221 123.216C169.221 123.216 178.792 128.716 180.261 128.353C181.73 127.99 179.598 125.236 181.61 123.668C183.622 122.1 185.653 123.856 186.475 125.068C187.297 126.28 193.067 139.452 197.954 142.809C202.841 146.166 210.516 152.896 209.278 155.921C208.351 158.183 208.597 157.353 204.265 158.17C199.933 158.987 185.605 152.083 180.982 147.38C173.735 140.009 164.518 132.21 159.754 131.814" fill="#52B3E2"/>
<path d="M207.536 159.052C207.741 158.943 207.901 158.765 207.986 158.549C208.071 158.333 208.077 158.094 208.002 157.874C207.928 157.654 207.777 157.469 207.578 157.35C207.378 157.231 207.143 157.187 206.914 157.226C206.663 157.274 206.409 157.303 206.153 157.311C203.226 157.411 199.453 156.279 194.768 154.248C190.083 152.217 188.387 150.876 182.458 146.394C176.529 141.912 171.608 134.154 166.937 132.81C164.693 132.084 162.342 131.741 159.984 131.794C159.836 131.802 159.691 131.847 159.564 131.924C156.318 133.878 150.324 141.619 153.437 143.666C155.59 145.081 163.059 146.004 168.292 147.817C173.525 149.63 185.132 154.727 191.692 157.006C198.252 159.285 204.935 160.3 207.457 159.09C207.481 159.077 207.507 159.066 207.532 159.052" fill="white"/>
<path d="M207.536 159.055C207.444 159.119 207.343 159.169 207.236 159.202C206.932 159.331 206.615 159.428 206.291 159.491C205.041 159.696 203.769 159.731 202.509 159.596C197.885 159.087 193.354 157.943 189.043 156.196C183.538 154.15 177.117 151.372 169.88 148.596C166.054 147.263 162.136 146.208 158.158 145.438C157.13 145.19 156.092 144.938 155.058 144.598C154.531 144.431 154.02 144.215 153.534 143.952C153.267 143.818 153.032 143.627 152.846 143.393C152.66 143.159 152.526 142.888 152.455 142.598C152.295 141.457 152.507 140.294 153.06 139.283C153.542 138.264 154.125 137.296 154.799 136.392C155.462 135.485 156.188 134.627 156.973 133.823C157.743 133.002 158.617 132.286 159.573 131.693C159.857 131.595 160.159 131.554 160.459 131.573C160.736 131.573 161.01 131.573 161.284 131.589C161.831 131.615 162.373 131.668 162.91 131.739C163.973 131.886 165.027 132.095 166.066 132.366C167.109 132.599 168.105 133.004 169.014 133.566C169.889 134.125 170.714 134.758 171.482 135.457C173.003 136.826 174.358 138.288 175.692 139.697C178.118 142.445 180.815 144.943 183.74 147.152C186.223 149.16 188.855 150.976 191.613 152.585C196.821 155.228 201.361 156.843 204.613 157.185C205.329 157.274 206.053 157.276 206.77 157.191C206.918 157.155 207.073 157.148 207.224 157.172C207.375 157.195 207.52 157.248 207.65 157.328C207.856 157.478 208.003 157.695 208.064 157.943C208.111 158.107 208.113 158.28 208.07 158.445C208.027 158.609 207.941 158.76 207.821 158.88C207.761 158.94 207.691 158.99 207.615 159.027C207.59 159.041 207.565 159.053 207.538 159.062C207.626 158.997 207.711 158.926 207.791 158.851C207.897 158.733 207.971 158.589 208.005 158.434C208.039 158.278 208.032 158.117 207.984 157.965C207.922 157.741 207.783 157.546 207.593 157.413C207.473 157.344 207.34 157.3 207.203 157.283C207.066 157.265 206.926 157.276 206.793 157.313C206.066 157.413 205.329 157.424 204.6 157.345C202.609 157.121 200.653 156.657 198.773 155.965C196.272 155.095 193.834 154.052 191.478 152.845C188.695 151.246 186.04 149.435 183.536 147.428C182.084 146.381 180.704 145.239 179.403 144.01C178.06 142.744 176.753 141.37 175.419 139.96C174.085 138.55 172.725 137.102 171.219 135.754C170.467 135.072 169.659 134.455 168.804 133.908C167.927 133.37 166.967 132.983 165.962 132.764C164.939 132.498 163.9 132.294 162.853 132.151C162.326 132.082 161.794 132.03 161.26 132.005C160.993 131.992 160.726 131.987 160.46 131.99C160.216 131.974 159.972 132.002 159.738 132.073C158.831 132.649 158 133.337 157.264 134.12C156.494 134.91 155.78 135.754 155.128 136.644C154.471 137.526 153.901 138.471 153.428 139.464C152.917 140.391 152.712 141.456 152.844 142.507C153.056 143.525 154.219 143.87 155.182 144.226C156.19 144.559 157.224 144.813 158.246 145.06C162.239 145.84 166.169 146.909 170.007 148.26C177.254 151.06 183.656 153.86 189.141 155.941C193.423 157.703 197.922 158.884 202.518 159.453C203.766 159.603 205.027 159.594 206.273 159.426C206.594 159.372 206.91 159.29 207.216 159.179C207.426 159.11 207.534 159.071 207.534 159.071" fill="#263238"/>
<path d="M192.226 135.715C192.237 135.834 191.226 135.989 190.064 136.446C188.902 136.903 188.048 137.461 187.976 137.365C188.519 136.794 189.182 136.35 189.917 136.065C190.651 135.78 191.44 135.66 192.226 135.715Z" fill="white"/>
<path d="M194.28 138.55C193.058 139.556 191.671 140.341 190.18 140.873C191.402 139.867 192.789 139.081 194.28 138.55Z" fill="white"/>
<path d="M196.596 141.371C196.668 141.46 196.027 142.096 195.239 142.871C194.451 143.646 193.802 144.271 193.714 144.199C193.626 144.127 194.147 143.368 194.954 142.579C195.398 142.051 195.961 141.637 196.597 141.371" fill="white"/>
<path d="M169.222 123.216C169.241 123.283 168.522 123.489 167.46 124.03C166.082 124.746 164.813 125.653 163.689 126.724C162.558 127.79 161.566 128.995 160.738 130.31C160.107 131.323 159.804 132.01 159.738 131.979C159.885 131.337 160.138 130.723 160.487 130.164C161.26 128.774 162.245 127.513 163.406 126.427C164.555 125.324 165.884 124.425 167.335 123.769C167.923 123.467 168.562 123.279 169.22 123.215" fill="#263238"/>
<path d="M180.701 128.003C180.808 127.649 184.987 134.517 187.812 137.188C184.667 134.873 181.447 131.135 178.974 128.112C178.974 128.112 180.449 128.84 180.701 128.003Z" fill="black"/>
<path d="M198.022 144.608C197.855 144.741 197.66 144.834 197.451 144.878C196.893 145.04 196.308 145.088 195.731 145.021C194.873 144.922 194.045 144.639 193.306 144.192C192.416 143.64 191.618 142.954 190.939 142.157C190.572 141.744 190.239 141.326 189.921 140.916L189.065 139.701L187.636 137.63C187.168 137.012 186.756 136.353 186.405 135.662C186.945 136.218 187.435 136.82 187.869 137.462L189.364 139.476L190.236 140.676C190.552 141.076 190.886 141.489 191.244 141.892C191.897 142.659 192.658 143.328 193.502 143.877C194.192 144.314 194.963 144.607 195.769 144.741C196.522 144.835 197.285 144.792 198.022 144.614" fill="#263238"/>
<path d="M190.749 136.015C190.65 135.768 190.591 135.507 190.576 135.241C190.478 134.525 190.452 133.8 190.498 133.079C190.559 132.005 190.757 130.943 191.089 129.919C191.284 129.313 191.525 128.724 191.811 128.155C191.961 127.849 192.128 127.551 192.311 127.263C192.419 127.099 192.559 126.957 192.721 126.846C192.817 126.781 192.927 126.739 193.042 126.722C193.158 126.706 193.275 126.716 193.386 126.751C193.573 126.841 193.733 126.98 193.849 127.151C193.966 127.323 194.036 127.523 194.051 127.73C194.097 128.07 194.119 128.413 194.116 128.756C194.122 129.395 194.067 130.033 193.951 130.662C193.759 131.725 193.402 132.751 192.894 133.704C192.557 134.346 192.145 134.945 191.666 135.489C191.505 135.701 191.311 135.885 191.09 136.034C191.663 135.252 192.18 134.43 192.636 133.574C193.092 132.632 193.409 131.63 193.58 130.598C193.681 129.991 193.726 129.376 193.715 128.761C193.714 128.441 193.693 128.121 193.651 127.804C193.6 127.509 193.46 127.198 193.258 127.14C193.053 127.058 192.817 127.24 192.642 127.497C192.47 127.769 192.312 128.049 192.168 128.337C191.886 128.885 191.644 129.454 191.445 130.037C191.107 131.03 190.885 132.058 190.785 133.102C190.616 134.891 190.827 136.007 190.749 136.015Z" fill="white"/>
<path d="M190.791 135.851C190.924 135.611 191.088 135.39 191.279 135.194C191.615 134.794 192.11 134.213 192.767 133.538C193.533 132.736 194.38 132.014 195.294 131.385C195.842 131.016 196.422 130.698 197.029 130.437C197.357 130.277 197.708 130.172 198.07 130.126C198.282 130.092 198.498 130.118 198.696 130.2C198.894 130.282 199.065 130.418 199.191 130.591C199.3 130.769 199.367 130.97 199.386 131.178C199.406 131.386 199.378 131.595 199.305 131.791C199.175 132.134 198.988 132.453 198.751 132.734C198.331 133.255 197.833 133.708 197.274 134.077C196.334 134.684 195.295 135.124 194.205 135.377C193.482 135.552 192.749 135.686 192.011 135.777C191.743 135.832 191.468 135.851 191.195 135.834C191.18 135.76 192.338 135.589 194.13 135.096C195.173 134.814 196.164 134.364 197.063 133.765C197.583 133.41 198.046 132.978 198.437 132.485C198.837 131.993 199.18 131.328 198.851 130.819C198.766 130.706 198.652 130.62 198.52 130.569C198.388 130.519 198.245 130.506 198.107 130.533C197.787 130.574 197.476 130.667 197.186 130.807C196.599 131.054 196.036 131.353 195.502 131.7C194.598 132.303 193.75 132.987 192.97 133.744C191.627 135.039 190.841 135.898 190.792 135.852" fill="white"/>
<path d="M314.488 59.033H293.158C292.359 59.033 291.593 58.7156 291.028 58.1505C290.462 57.5855 290.145 56.8191 290.145 56.02V34.69C290.145 34.2942 290.223 33.9023 290.374 33.5367C290.525 33.171 290.747 32.8387 291.027 32.5588C291.307 32.2789 291.639 32.0569 292.005 31.9054C292.37 31.754 292.762 31.676 293.158 31.676H314.489C314.885 31.676 315.277 31.754 315.642 31.9054C316.008 32.0569 316.34 32.2789 316.62 32.5588C316.9 32.8387 317.122 33.171 317.273 33.5367C317.424 33.9023 317.502 34.2942 317.502 34.69V56.021C317.502 56.4167 317.424 56.8085 317.273 57.174C317.121 57.5396 316.899 57.8717 316.62 58.1515C316.34 58.4313 316.008 58.6532 315.642 58.8046C315.277 58.9561 314.885 59.034 314.489 59.034" fill="#FF725E"/>
<path d="M308.38 47.743H299.345C299.241 47.743 299.141 47.7017 299.068 47.6282C298.994 47.5547 298.953 47.455 298.953 47.351C298.953 47.247 298.994 47.1473 299.068 47.0738C299.141 47.0003 299.241 46.959 299.345 46.959H308.052L308.991 41.648H298.491C298.387 41.648 298.287 41.6067 298.214 41.5332C298.14 41.4597 298.099 41.36 298.099 41.256C298.099 41.152 298.14 41.0523 298.214 40.9788C298.287 40.9053 298.387 40.864 298.491 40.864H309.456C309.513 40.8638 309.57 40.8763 309.622 40.9004C309.674 40.9245 309.72 40.9598 309.757 41.0037C309.793 41.0475 309.82 41.099 309.835 41.1543C309.85 41.2097 309.852 41.2676 309.842 41.324L308.763 47.419C308.747 47.5098 308.699 47.592 308.629 47.6512C308.558 47.7105 308.469 47.743 308.377 47.743" fill="white"/>
<path d="M308.081 49.875L299.481 49.845C299.386 49.8448 299.294 49.81 299.223 49.7471C299.151 49.6841 299.105 49.5974 299.093 49.503L297.877 40.025H295.454C295.35 40.025 295.25 39.9837 295.177 39.9102C295.103 39.8367 295.062 39.737 295.062 39.633C295.062 39.529 295.103 39.4293 295.177 39.3558C295.25 39.2823 295.35 39.241 295.454 39.241H298.217C298.312 39.2409 298.404 39.2756 298.476 39.3386C298.548 39.4016 298.594 39.4884 298.606 39.583L299.823 49.062L308.084 49.09C308.188 49.09 308.288 49.1313 308.361 49.2048C308.435 49.2783 308.476 49.378 308.476 49.482C308.476 49.586 308.435 49.6857 308.361 49.7592C308.288 49.8327 308.188 49.874 308.084 49.874" fill="white"/>
<path d="M300.88 52.937C300.591 52.937 300.308 52.8512 300.067 52.6904C299.827 52.5297 299.639 52.3012 299.528 52.0339C299.418 51.7665 299.389 51.4724 299.445 51.1886C299.502 50.9048 299.641 50.6441 299.845 50.4395C300.05 50.2349 300.311 50.0955 300.595 50.0391C300.878 49.9826 301.173 50.0116 301.44 50.1224C301.707 50.2331 301.936 50.4206 302.096 50.6612C302.257 50.9018 302.343 51.1846 302.343 51.474C302.342 51.8618 302.188 52.2337 301.914 52.5079C301.64 52.7822 301.268 52.9365 300.88 52.937ZM300.88 50.795C300.746 50.795 300.614 50.8348 300.503 50.9094C300.391 50.984 300.304 51.0901 300.253 51.2141C300.201 51.3382 300.188 51.4747 300.214 51.6065C300.24 51.7382 300.305 51.8592 300.4 51.9541C300.495 52.0491 300.616 52.1137 300.748 52.1399C300.879 52.1661 301.016 52.1527 301.14 52.1013C301.264 52.0499 301.37 51.9629 301.445 51.8512C301.519 51.7396 301.559 51.6083 301.559 51.474C301.559 51.294 301.487 51.1214 301.36 50.9942C301.233 50.8669 301.06 50.7953 300.88 50.795Z" fill="white"/>
<path d="M306.821 52.937C306.532 52.937 306.249 52.8512 306.008 52.6904C305.768 52.5297 305.58 52.3012 305.469 52.0339C305.359 51.7665 305.33 51.4724 305.386 51.1886C305.442 50.9048 305.582 50.6441 305.786 50.4395C305.991 50.2349 306.252 50.0955 306.535 50.0391C306.819 49.9826 307.113 50.0116 307.381 50.1224C307.648 50.2331 307.877 50.4206 308.037 50.6612C308.198 50.9018 308.284 51.1846 308.284 51.474C308.283 51.8618 308.129 52.2337 307.855 52.5079C307.581 52.7822 307.209 52.9365 306.821 52.937ZM306.821 50.795C306.687 50.795 306.555 50.8348 306.444 50.9094C306.332 50.984 306.245 51.0901 306.194 51.2141C306.142 51.3382 306.129 51.4747 306.155 51.6065C306.181 51.7382 306.246 51.8592 306.341 51.9541C306.436 52.0491 306.557 52.1137 306.688 52.1399C306.82 52.1661 306.957 52.1527 307.081 52.1013C307.205 52.0499 307.311 51.9629 307.385 51.8512C307.46 51.7396 307.5 51.6083 307.5 51.474C307.5 51.294 307.428 51.1214 307.301 50.9942C307.173 50.8669 307.001 50.7953 306.821 50.795Z" fill="white"/>
<path d="M302.135 47.743C302.035 47.7429 301.939 47.7048 301.867 47.6365C301.794 47.5681 301.75 47.4746 301.744 47.375L301.376 41.475C301.37 41.3712 301.405 41.2692 301.474 41.1912C301.542 41.1132 301.639 41.0657 301.743 41.059C301.795 41.0552 301.846 41.0617 301.895 41.0782C301.944 41.0947 301.989 41.1208 302.028 41.155C302.067 41.1892 302.098 41.2308 302.121 41.2773C302.143 41.3238 302.156 41.3744 302.159 41.426L302.527 47.326C302.53 47.3774 302.524 47.4291 302.507 47.4779C302.49 47.5267 302.464 47.5717 302.43 47.6104C302.396 47.649 302.354 47.6806 302.308 47.7032C302.262 47.7257 302.211 47.7389 302.16 47.742H302.136" fill="white"/>
<path d="M305.439 47.743H305.417C305.366 47.7402 305.315 47.7273 305.269 47.705C305.223 47.6827 305.181 47.6515 305.147 47.6131C305.113 47.5747 305.086 47.53 305.069 47.4814C305.052 47.4328 305.045 47.3814 305.048 47.33L305.377 41.43C305.379 41.3783 305.391 41.3276 305.413 41.2808C305.435 41.234 305.467 41.1921 305.505 41.1575C305.544 41.123 305.589 41.0966 305.638 41.0798C305.687 41.0631 305.738 41.0563 305.79 41.06C305.841 41.0628 305.892 41.0757 305.938 41.098C305.984 41.1203 306.026 41.1515 306.06 41.1899C306.095 41.2283 306.121 41.273 306.138 41.3216C306.155 41.3702 306.162 41.4216 306.159 41.473L305.83 47.373C305.824 47.4729 305.781 47.5669 305.708 47.6357C305.635 47.7045 305.539 47.7429 305.439 47.743Z" fill="white"/>
<path d="M298.825 44.794C298.721 44.794 298.621 44.7527 298.548 44.6792C298.474 44.6057 298.433 44.506 298.433 44.402C298.433 44.298 298.474 44.1983 298.548 44.1248C298.621 44.0513 298.721 44.01 298.825 44.01L308.917 43.91C309.02 43.9119 309.119 43.953 309.193 44.0251C309.268 44.0971 309.312 44.1947 309.317 44.298C309.318 44.3498 309.309 44.4013 309.29 44.4495C309.271 44.4978 309.242 44.5418 309.206 44.579C309.17 44.6162 309.127 44.6458 309.08 44.6663C309.032 44.6867 308.981 44.6975 308.929 44.698L298.837 44.798L298.825 44.794Z" fill="white"/>
<path d="M71.3899 86.355C69.8335 86.0512 68.3308 85.5181 66.9309 84.773L69.4439 78.733C70.5802 79.3989 71.8098 79.8907 73.0919 80.192C74.4318 80.5352 75.8088 80.7122 77.1919 80.719C77.9383 80.7613 78.6863 80.6723 79.4019 80.456C79.5769 80.4081 79.7322 80.3057 79.8451 80.1637C79.958 80.0216 80.0227 79.8473 80.0299 79.666C80.0299 79.3147 79.7666 79.0713 79.2399 78.936C78.3909 78.7489 77.5313 78.6136 76.6659 78.531C75.1079 78.3614 73.5635 78.0837 72.0439 77.7C70.7708 77.3613 69.6142 76.6815 68.6989 75.734C68.1933 75.1687 67.8056 74.5081 67.5585 73.791C67.3114 73.074 67.2099 72.3148 67.2599 71.558C67.2474 70.1646 67.7055 68.8078 68.5599 67.707C69.5764 66.463 70.9161 65.5232 72.4319 64.991C74.4117 64.2707 76.5088 63.9271 78.6149 63.978C80.2677 63.9763 81.9168 64.1323 83.5399 64.444C84.97 64.6956 86.356 65.153 87.6549 65.802L85.1419 71.843C83.1823 70.7586 80.9754 70.1998 78.7359 70.221C76.7359 70.221 75.7359 70.5723 75.7359 71.275C75.7359 71.627 76.0062 71.877 76.5469 72.025C77.3874 72.2257 78.2408 72.368 79.1009 72.451C80.6534 72.6192 82.191 72.9036 83.7009 73.302C84.9655 73.658 86.1129 74.3434 87.0259 75.288C87.5315 75.8533 87.9193 76.5139 88.1664 77.2309C88.4134 77.948 88.5149 78.7072 88.4649 79.464C88.4681 80.8312 88.0101 82.1594 87.1649 83.234C86.1435 84.4812 84.7968 85.4213 83.2739 85.95C81.2598 86.673 79.1292 87.0165 76.9899 86.963C75.1087 86.9641 73.233 86.7602 71.3959 86.355" fill="white"/>
<path d="M113.206 66.45C114.869 68.0993 115.7 70.586 115.699 73.91V86.558H106.537V75.49C106.537 72.95 105.632 71.6797 103.821 71.679C103.352 71.6624 102.885 71.7501 102.454 71.9359C102.023 72.1216 101.638 72.4007 101.328 72.753C100.612 73.7291 100.273 74.9316 100.375 76.138V86.557H91.2129V56.474H100.375V66.163C102.115 64.6896 104.338 63.9101 106.618 63.974C107.826 63.9196 109.033 64.1107 110.165 64.5357C111.298 64.9608 112.332 65.6109 113.206 66.447" fill="white"/>
<path d="M125.166 85.483C123.286 84.5665 121.694 83.1501 120.566 81.389C119.479 79.5987 118.903 77.5442 118.903 75.4495C118.903 73.3548 119.479 71.3003 120.566 69.51C121.691 67.7511 123.284 66.3404 125.166 65.436C127.251 64.4741 129.52 63.976 131.816 63.976C134.112 63.976 136.381 64.4741 138.466 65.436C140.345 66.337 141.933 67.7489 143.047 69.51C144.121 71.305 144.688 73.3577 144.688 75.4495C144.688 77.5413 144.121 79.594 143.047 81.389C141.929 83.1522 140.343 84.5697 138.466 85.483C136.385 86.458 134.114 86.9634 131.816 86.9634C129.518 86.9634 127.247 86.458 125.166 85.483ZM134.389 78.672C135.112 77.7591 135.473 76.6114 135.402 75.449C135.475 74.2934 135.113 73.1522 134.389 72.249C134.058 71.891 133.657 71.6053 133.21 71.4099C132.764 71.2145 132.282 71.1136 131.794 71.1136C131.307 71.1136 130.825 71.2145 130.378 71.4099C129.932 71.6053 129.531 71.891 129.2 72.249C128.475 73.152 128.113 74.2932 128.186 75.449C128.115 76.6116 128.476 77.7594 129.2 78.672C129.527 79.0356 129.927 79.3264 130.374 79.5254C130.821 79.7244 131.305 79.8273 131.794 79.8273C132.284 79.8273 132.768 79.7244 133.214 79.5254C133.661 79.3264 134.062 79.0356 134.389 78.672Z" fill="white"/>
<path d="M167.733 65.376C169.385 66.3259 170.734 67.7241 171.625 69.409C172.571 71.2929 173.064 73.3719 173.064 75.48C173.064 77.5881 172.571 79.6671 171.625 81.551C170.73 83.2274 169.381 84.6181 167.733 85.564C166.097 86.497 164.244 86.98 162.361 86.964C161.343 87.0352 160.321 86.9039 159.353 86.5778C158.386 86.2517 157.493 85.7372 156.726 85.064V94.429H147.564V64.382H156.28V66.21C157.605 64.724 159.632 63.981 162.361 63.981C164.244 63.9646 166.097 64.4477 167.733 65.381M162.767 78.698C163.492 77.7948 163.853 76.6536 163.78 75.498C163.851 74.3356 163.49 73.1879 162.767 72.275C162.44 71.9113 162.039 71.6206 161.592 71.4216C161.145 71.2225 160.661 71.1197 160.172 71.1197C159.683 71.1197 159.199 71.2225 158.752 71.4216C158.305 71.6206 157.904 71.9113 157.577 72.275C156.854 73.1879 156.493 74.3356 156.564 75.498C156.491 76.6536 156.852 77.7948 157.577 78.698C157.908 79.0559 158.309 79.3415 158.756 79.5368C159.202 79.7322 159.685 79.833 160.172 79.833C160.659 79.833 161.142 79.7322 161.588 79.5368C162.035 79.3415 162.436 79.0559 162.767 78.698Z" fill="white"/>
<path d="M276.691 77.549L236.883 91.681C236.518 91.8053 236.119 91.7809 235.772 91.613C235.425 91.4452 235.159 91.1475 235.03 90.7843C234.901 90.4212 234.92 90.0219 235.084 89.673C235.247 89.324 235.541 89.0535 235.903 88.92L274.559 75.198L270.259 49.593L223.596 66.158C223.413 66.2287 223.218 66.2621 223.023 66.2562C222.827 66.2503 222.634 66.2052 222.456 66.1235C222.278 66.0418 222.118 65.9253 221.986 65.7808C221.854 65.6363 221.752 65.4667 221.686 65.2821C221.621 65.0975 221.593 64.9016 221.604 64.7061C221.616 64.5105 221.666 64.3193 221.753 64.1436C221.84 63.968 221.961 63.8115 222.109 63.6834C222.257 63.5553 222.43 63.4583 222.616 63.398L270.927 46.248C271.129 46.1764 271.343 46.1498 271.556 46.1702C271.769 46.1905 271.975 46.2573 272.16 46.3657C272.344 46.4742 272.503 46.6218 272.624 46.798C272.745 46.9743 272.827 47.175 272.862 47.386L277.642 75.926C277.699 76.2654 277.635 76.614 277.46 76.9106C277.286 77.2072 277.012 77.4329 276.688 77.548" fill="white"/>
<path d="M278.707 87.409H278.701L240.746 100.741C240.411 100.858 240.044 100.85 239.715 100.717C239.385 100.585 239.115 100.337 238.954 100.02L218.625 59.877L207.663 63.769C207.298 63.8933 206.899 63.8688 206.552 63.701C206.206 63.5332 205.939 63.2354 205.81 62.8723C205.681 62.5092 205.7 62.1099 205.864 61.7609C206.027 61.412 206.322 61.1415 206.683 61.008L218.861 56.685C219.197 56.5648 219.566 56.5715 219.897 56.704C220.229 56.8364 220.5 57.0853 220.661 57.404L240.991 97.552L277.738 84.652C278.104 84.5243 278.506 84.5468 278.855 84.7147C279.205 84.8826 279.473 85.1821 279.602 85.5477C279.731 85.9133 279.71 86.315 279.543 86.665C279.377 87.015 279.078 87.2847 278.713 87.415" fill="white"/>
<path d="M251.767 112.162C250.56 112.59 249.254 112.651 248.013 112.336C246.772 112.022 245.652 111.347 244.795 110.396C243.938 109.445 243.382 108.261 243.197 106.994C243.013 105.727 243.208 104.434 243.759 103.278C244.309 102.123 245.19 101.156 246.29 100.501C247.389 99.8454 248.659 99.531 249.937 99.5972C251.216 99.6634 252.446 100.107 253.472 100.873C254.499 101.638 255.275 102.69 255.703 103.897C256.275 105.515 256.182 107.294 255.444 108.843C254.706 110.393 253.384 111.586 251.767 112.162ZM248.416 102.723C247.756 102.958 247.18 103.383 246.761 103.944C246.343 104.506 246.1 105.18 246.064 105.879C246.028 106.579 246.2 107.274 246.559 107.875C246.918 108.477 247.447 108.959 248.079 109.26C248.712 109.561 249.42 109.668 250.113 109.567C250.806 109.467 251.454 109.162 251.974 108.693C252.495 108.224 252.865 107.611 253.037 106.932C253.209 106.253 253.176 105.538 252.942 104.878C252.627 103.992 251.974 103.268 251.125 102.864C250.276 102.46 249.302 102.409 248.416 102.723Z" fill="white"/>
<path d="M277.935 102.872C276.728 103.3 275.422 103.36 274.181 103.046C272.94 102.731 271.82 102.056 270.963 101.105C270.106 100.154 269.55 98.9701 269.366 97.7033C269.182 96.4364 269.377 95.1433 269.928 93.9876C270.478 92.8318 271.359 91.8652 272.459 91.2101C273.559 90.5549 274.828 90.2406 276.107 90.3069C277.385 90.3732 278.615 90.8172 279.642 91.5826C280.668 92.348 281.444 93.4005 281.872 94.607C282.444 96.2252 282.351 98.0042 281.613 99.5537C280.875 101.103 279.552 102.297 277.935 102.872ZM274.584 93.433C273.924 93.6677 273.348 94.0928 272.93 94.6547C272.511 95.2166 272.268 95.8899 272.233 96.5896C272.197 97.2893 272.369 97.984 272.728 98.5857C273.087 99.1875 273.616 99.6694 274.248 99.9705C274.881 100.272 275.589 100.378 276.282 100.277C276.975 100.176 277.623 99.8718 278.143 99.4027C278.664 98.9335 279.033 98.3206 279.205 97.6414C279.377 96.9623 279.344 96.2473 279.11 95.587C278.795 94.7016 278.141 93.9775 277.293 93.5736C276.444 93.1698 275.47 93.1192 274.584 93.433Z" fill="white"/>
<path d="M249.174 87.317C248.823 87.4413 248.438 87.4273 248.096 87.2778C247.755 87.1283 247.484 86.8545 247.337 86.512L236.491 61.1C236.339 60.7426 236.335 60.3394 236.479 59.9789C236.624 59.6184 236.906 59.33 237.263 59.177C237.439 59.0938 237.63 59.0478 237.824 59.0419C238.019 59.0361 238.212 59.0705 238.393 59.143C238.573 59.2154 238.737 59.3245 238.873 59.4632C239.009 59.6019 239.116 59.7673 239.185 59.949L250.031 85.361C250.183 85.7184 250.188 86.1217 250.043 86.4823C249.898 86.8428 249.616 87.1312 249.259 87.284C249.23 87.297 249.2 87.307 249.174 87.317Z" fill="white"/>
<path d="M263.73 82.149C263.706 82.158 263.679 82.167 263.651 82.174C263.467 82.2281 263.273 82.2453 263.082 82.2246C262.891 82.2039 262.706 82.1457 262.537 82.0534C262.368 81.9611 262.22 81.8365 262.099 81.6866C261.979 81.5367 261.889 81.3646 261.835 81.18L254.06 54.68C253.998 54.4956 253.975 54.3004 253.992 54.1066C254.009 53.9129 254.066 53.7247 254.16 53.5541C254.253 53.3834 254.381 53.2339 254.535 53.115C254.688 52.996 254.865 52.9103 255.054 52.863C255.239 52.809 255.433 52.7921 255.624 52.8131C255.816 52.8342 256.001 52.8929 256.17 52.9858C256.339 53.0787 256.488 53.204 256.608 53.3545C256.728 53.5051 256.818 53.6779 256.871 53.863L264.645 80.363C264.75 80.7219 264.714 81.1075 264.544 81.4405C264.374 81.7735 264.082 82.0288 263.73 82.154" fill="white"/>
<path d="M229.991 79.494C229.627 79.6202 229.228 79.5979 228.88 79.4318C228.532 79.2658 228.264 78.9694 228.133 78.6069C228.002 78.2443 228.02 77.8449 228.181 77.4951C228.343 77.1452 228.636 76.8732 228.997 76.738L273.307 60.522H273.32C273.684 60.3958 274.083 60.4181 274.431 60.5842C274.779 60.7502 275.047 61.0466 275.178 61.4091C275.309 61.7717 275.291 62.1711 275.13 62.5209C274.968 62.8707 274.675 63.1427 274.314 63.278L230.004 79.486H229.991" fill="white"/>
<path d="M395.214 173.076H291.295C290.535 173.076 289.783 172.927 289.081 172.636C288.379 172.345 287.741 171.919 287.203 171.382C286.666 170.844 286.24 170.206 285.949 169.504C285.658 168.802 285.509 168.05 285.509 167.29V36.164C285.509 35.4041 285.658 34.6517 285.949 33.9496C286.24 33.2476 286.666 32.6097 287.203 32.0724C287.741 31.5351 288.379 31.1089 289.081 30.8182C289.783 30.5274 290.535 30.3779 291.295 30.378H395.214C396.749 30.378 398.22 30.9876 399.305 32.0727C400.39 33.1578 401 34.6295 401 36.164V167.29C401 168.05 400.85 168.802 400.56 169.504C400.269 170.206 399.843 170.844 399.305 171.381C398.768 171.919 398.13 172.345 397.428 172.636C396.726 172.926 395.974 173.076 395.214 173.076Z" fill="white"/>
<path d="M395.214 173.076H291.295C290.535 173.076 289.783 172.927 289.081 172.636C288.379 172.345 287.741 171.919 287.203 171.382C286.666 170.844 286.24 170.206 285.949 169.504C285.658 168.802 285.509 168.05 285.509 167.29V36.164C285.509 35.4041 285.658 34.6517 285.949 33.9496C286.24 33.2476 286.666 32.6097 287.203 32.0724C287.741 31.5351 288.379 31.1089 289.081 30.8182C289.783 30.5274 290.535 30.3779 291.295 30.378H395.214C396.749 30.378 398.22 30.9876 399.305 32.0727C400.39 33.1578 401 34.6295 401 36.164V167.29C401 168.05 400.85 168.802 400.56 169.504C400.269 170.206 399.843 170.844 399.305 171.381C398.768 171.919 398.13 172.345 397.428 172.636C396.726 172.926 395.974 173.076 395.214 173.076" stroke="#2A3D66" stroke-width="4"/>
<path d="M400.829 47.103H285.329V35.211C285.329 33.9292 285.838 32.6999 286.744 31.7935C287.651 30.8872 288.88 30.378 290.162 30.378H395.992C397.274 30.378 398.503 30.8872 399.409 31.7935C400.316 32.6999 400.825 33.9292 400.825 35.211L400.829 47.103Z" fill="#2A3D66"/>
<path d="M297.097 38.74C297.097 39.2697 296.94 39.7876 296.646 40.2282C296.352 40.6687 295.934 41.0122 295.444 41.215C294.955 41.4178 294.416 41.4709 293.897 41.3676C293.377 41.2643 292.9 41.0092 292.525 40.6346C292.151 40.2601 291.896 39.7828 291.792 39.2632C291.689 38.7436 291.742 38.2051 291.945 37.7157C292.148 37.2263 292.491 36.8081 292.932 36.5139C293.372 36.2197 293.89 36.0628 294.42 36.063C295.13 36.063 295.811 36.345 296.313 36.8471C296.815 37.3491 297.097 38.03 297.097 38.74Z" fill="white"/>
<path d="M304.817 38.74C304.817 39.2697 304.66 39.7876 304.366 40.2282C304.072 40.6687 303.654 41.0122 303.164 41.215C302.675 41.4178 302.136 41.4709 301.617 41.3676C301.097 41.2643 300.62 41.0092 300.245 40.6346C299.871 40.2601 299.616 39.7828 299.512 39.2632C299.409 38.7436 299.462 38.2051 299.665 37.7157C299.868 37.2263 300.211 36.8081 300.652 36.5139C301.092 36.2197 301.61 36.0628 302.14 36.063C302.85 36.063 303.531 36.345 304.033 36.8471C304.535 37.3491 304.817 38.03 304.817 38.74Z" fill="white"/>
<path d="M312.538 38.74C312.538 39.2697 312.381 39.7876 312.087 40.2282C311.793 40.6687 311.375 41.0122 310.885 41.215C310.396 41.4178 309.857 41.4709 309.338 41.3676C308.818 41.2643 308.341 41.0092 307.966 40.6346C307.592 40.2601 307.337 39.7828 307.233 39.2632C307.13 38.7436 307.183 38.2051 307.386 37.7157C307.589 37.2263 307.932 36.8081 308.373 36.5139C308.813 36.2197 309.331 36.0628 309.861 36.063C310.571 36.063 311.252 36.345 311.754 36.8471C312.256 37.3491 312.538 38.03 312.538 38.74Z" fill="white"/>
<path d="M358.049 88.691H332.275C331.476 88.691 330.709 88.3736 330.144 87.8085C329.579 87.2435 329.262 86.4771 329.262 85.678V59.904C329.262 59.5082 329.34 59.1163 329.491 58.7507C329.642 58.385 329.864 58.0527 330.144 57.7728C330.424 57.493 330.756 57.2709 331.122 57.1194C331.487 56.968 331.879 56.89 332.275 56.89H358.05C358.446 56.89 358.838 56.968 359.203 57.1194C359.569 57.2709 359.901 57.493 360.181 57.7728C360.461 58.0527 360.683 58.385 360.834 58.7507C360.985 59.1163 361.063 59.5082 361.063 59.904V85.679C361.063 86.4781 360.745 87.2445 360.18 87.8095C359.615 88.3746 358.849 88.692 358.05 88.692" fill="#52B3E2"/>
<path d="M338.879 97.979H303.38V102.721H338.879V97.979Z" fill="#E1E9ED"/>
<path d="M382.792 97.979H368.974V102.721H382.792V97.979Z" fill="#E1E9ED"/>
<path d="M349.264 108.048H303.38V112.79H349.264V108.048Z" fill="#E1E9ED"/>
<path d="M382.792 108.048H368.974V112.79H382.792V108.048Z" fill="#E1E9ED"/>
<path d="M324.864 118.116H303.381V122.858H324.864V118.116Z" fill="#E1E9ED"/>
<path d="M382.792 118.116H368.974V122.858H382.792V118.116Z" fill="#E1E9ED"/>
<path d="M382.792 127.698H368.974V132.44H382.792V127.698Z" fill="#2A3D66"/>
<path d="M341.116 159.7H315.447C313.472 159.7 311.578 158.915 310.181 157.519C308.785 156.122 308 154.228 308 152.253V151.453C308 149.478 308.785 147.584 310.181 146.187C311.578 144.791 313.472 144.006 315.447 144.006H369.81C371.785 144.006 373.679 144.791 375.076 146.187C376.473 147.584 377.258 149.478 377.258 151.453V152.253C377.258 154.228 376.473 156.122 375.076 157.519C373.679 158.915 371.785 159.7 369.81 159.7" fill="#52B3E2"/>
<path d="M293.944 213.374C293.91 213.374 293.877 212.915 293.719 212.1C293.503 210.948 293.162 209.824 292.7 208.747C292.032 207.147 291.046 205.7 289.8 204.494C288.291 202.991 286.249 202.145 284.12 202.137C281.99 202.13 279.943 202.963 278.424 204.456C277.172 205.656 276.178 207.099 275.505 208.697C275.039 209.772 274.693 210.894 274.474 212.045C274.312 212.861 274.274 213.322 274.246 213.318C274.233 213.206 274.235 213.093 274.252 212.982C274.268 212.661 274.302 212.341 274.352 212.024C274.527 210.851 274.846 209.704 275.3 208.609C275.958 206.965 276.954 205.478 278.224 204.244C278.999 203.473 279.918 202.862 280.93 202.447C281.941 202.032 283.024 201.82 284.117 201.823C285.211 201.827 286.292 202.046 287.301 202.468C288.309 202.89 289.225 203.507 289.995 204.283C291.258 205.523 292.248 207.014 292.901 208.66C293.35 209.757 293.664 210.905 293.836 212.078C293.886 212.395 293.919 212.715 293.936 213.036C293.951 213.147 293.952 213.26 293.941 213.372" fill="white"/>
<path d="M293.944 213.374C293.91 213.374 293.877 212.915 293.719 212.1C293.503 210.948 293.162 209.824 292.7 208.747C292.032 207.147 291.046 205.7 289.8 204.494C288.291 202.991 286.249 202.145 284.12 202.137C281.99 202.13 279.943 202.963 278.424 204.456C277.172 205.656 276.178 207.099 275.505 208.697C275.039 209.772 274.693 210.894 274.474 212.045C274.312 212.861 274.274 213.322 274.246 213.318C274.233 213.206 274.235 213.093 274.252 212.982C274.268 212.661 274.302 212.341 274.352 212.024C274.527 210.851 274.846 209.704 275.3 208.609C275.958 206.965 276.954 205.478 278.224 204.244C278.999 203.473 279.918 202.862 280.93 202.447C281.941 202.032 283.024 201.82 284.117 201.823C285.211 201.827 286.292 202.046 287.301 202.468C288.309 202.89 289.225 203.507 289.995 204.283C291.258 205.523 292.248 207.014 292.901 208.66C293.35 209.757 293.664 210.905 293.836 212.078C293.886 212.395 293.919 212.715 293.936 213.036C293.951 213.147 293.952 213.26 293.941 213.372" stroke="white"/>
<path d="M297.345 213.374C297.312 213.374 297.279 212.915 297.12 212.1C296.904 210.948 296.563 209.824 296.101 208.747C295.433 207.147 294.446 205.7 293.201 204.494C291.691 202.991 289.65 202.144 287.52 202.137C285.39 202.13 283.343 202.963 281.824 204.456C280.572 205.656 279.579 207.099 278.906 208.697C278.44 209.772 278.094 210.894 277.875 212.045C277.713 212.861 277.675 213.322 277.646 213.318C277.634 213.206 277.636 213.093 277.652 212.982C277.669 212.661 277.702 212.341 277.752 212.024C277.926 210.851 278.244 209.704 278.699 208.609C279.358 206.965 280.354 205.478 281.624 204.244C282.399 203.473 283.318 202.862 284.33 202.447C285.341 202.032 286.424 201.82 287.517 201.823C288.611 201.827 289.692 202.046 290.701 202.468C291.709 202.89 292.625 203.507 293.395 204.283C294.658 205.523 295.648 207.014 296.301 208.66C296.75 209.757 297.064 210.905 297.236 212.078C297.286 212.395 297.319 212.715 297.336 213.036C297.35 213.148 297.35 213.26 297.336 213.372" fill="white"/>
<path d="M297.345 213.374C297.312 213.374 297.279 212.915 297.12 212.1C296.904 210.948 296.563 209.824 296.101 208.747C295.433 207.147 294.446 205.7 293.201 204.494C291.691 202.991 289.65 202.144 287.52 202.137C285.39 202.13 283.343 202.963 281.824 204.456C280.572 205.656 279.579 207.099 278.906 208.697C278.44 209.772 278.094 210.894 277.875 212.045C277.713 212.861 277.675 213.322 277.646 213.318C277.634 213.206 277.636 213.093 277.652 212.982C277.669 212.661 277.702 212.341 277.752 212.024C277.926 210.851 278.244 209.704 278.699 208.609C279.358 206.965 280.354 205.478 281.624 204.244C282.399 203.473 283.318 202.862 284.33 202.447C285.341 202.032 286.424 201.82 287.517 201.823C288.611 201.827 289.692 202.046 290.701 202.468C291.709 202.89 292.625 203.507 293.395 204.283C294.658 205.523 295.648 207.014 296.301 208.66C296.75 209.757 297.064 210.905 297.236 212.078C297.286 212.395 297.319 212.715 297.336 213.036C297.35 213.148 297.35 213.26 297.336 213.372" stroke="white"/>
<path d="M264.513 212.159L302.926 211.866L303.764 264.228H260.663L264.513 212.159Z" fill="#52B3E2"/>
<path d="M302.925 211.869H307.747L311.899 264.231H303.763L302.925 211.869Z" fill="#1C8CC2"/>
<path d="M294.784 232.481H269.636V236.694H294.784V232.481Z" fill="white"/>
<path d="M66.663 117.33L61.222 117.012C58.0165 119.997 53.8104 121.675 49.4304 121.717C45.0504 121.758 40.8133 120.159 37.5521 117.235C34.291 114.311 32.2415 110.273 31.8067 105.914C31.3718 101.556 32.5831 97.1919 35.2023 93.6811C37.8214 90.1703 41.6591 87.7661 45.961 86.9412C50.2628 86.1164 54.7176 86.9304 58.4496 89.2234C62.1817 91.5164 64.9211 95.1225 66.1293 99.3327C67.3376 103.543 66.9272 108.053 64.979 111.976L64.986 111.969L66.663 117.33Z" fill="#52B3E2"/>
<path d="M55.926 101.771C55.7523 100.933 55.3253 100.169 54.703 99.582C54.1154 98.9838 53.3551 98.5847 52.529 98.441C51.8261 98.336 51.1082 98.4651 50.486 98.8085C49.8638 99.1518 49.3718 99.6904 49.086 100.341C48.7027 99.7714 48.1482 99.3385 47.5027 99.1048C46.8572 98.8711 46.154 98.8487 45.495 99.041C44.6958 99.2959 43.9964 99.7945 43.495 100.467C42.9586 101.133 42.6396 101.948 42.581 102.802C42.5248 103.891 42.8204 104.97 43.424 105.878C44.1166 106.793 45.018 107.529 46.053 108.024C47.734 108.887 49.943 109.959 49.943 109.959C49.943 109.959 51.643 108.493 53.196 107.41C54.1543 106.779 54.9475 105.927 55.509 104.926C55.9838 103.944 56.13 102.836 55.926 101.765" fill="white"/>
<path d="M386.798 29.958L371.459 5.24001C371.252 4.89776 370.977 4.6023 370.65 4.37245C370.322 4.14261 369.951 3.98341 369.559 3.90501L355.998 1.18001C355.292 1.03843 354.559 1.16622 353.943 1.53823C353.326 1.91024 352.872 2.49951 352.668 3.19001L348.761 16.457C348.649 16.8402 348.618 17.2426 348.669 17.6385C348.721 18.0345 348.854 18.4154 349.061 18.757L364.398 43.476C364.793 44.1299 365.431 44.6002 366.173 44.7834C366.914 44.9666 367.698 44.8478 368.352 44.453L385.818 33.911C386.142 33.7156 386.424 33.4584 386.648 33.154C386.872 32.8496 387.035 32.504 387.125 32.1369C387.216 31.7698 387.234 31.3884 387.177 31.0146C387.12 30.6407 386.99 30.2817 386.795 29.958M359.348 10.334C358.873 10.578 358.337 10.6757 357.807 10.615C357.276 10.5543 356.776 10.3378 356.369 9.99291C355.962 9.64798 355.666 9.1901 355.519 8.67709C355.371 8.16408 355.38 7.61896 355.542 7.11059C355.704 6.60222 356.014 6.15341 356.431 5.82084C356.849 5.48828 357.355 5.28688 357.887 5.24209C358.419 5.1973 358.952 5.31112 359.419 5.56919C359.887 5.82725 360.267 6.21798 360.512 6.69201C360.675 7.00747 360.775 7.35204 360.804 7.70596C360.834 8.05989 360.794 8.41622 360.686 8.75454C360.578 9.09285 360.404 9.40651 360.174 9.67755C359.945 9.94858 359.664 10.1717 359.348 10.334Z" fill="#52B3E2"/>
<path d="M357.414 26.267C355.914 23.857 356.525 21.461 358.577 20.186C360.649 18.898 363.067 19.411 364.566 21.821C366.077 24.251 365.455 26.627 363.383 27.915C361.331 29.191 358.926 28.698 357.414 26.267ZM362.155 23.32C361.275 21.906 360.431 21.657 359.755 22.079C359.118 22.479 358.926 23.367 359.806 24.779C360.686 26.191 361.57 26.417 362.206 26.02C362.884 25.599 363.034 24.732 362.155 23.32ZM366.939 15.237L369.808 13.454L368.952 33.318L366.084 35.102L366.939 15.237ZM371.339 26.718C369.839 24.308 370.43 21.925 372.502 20.637C374.574 19.349 376.992 19.862 378.49 22.272C380.001 24.702 379.379 27.078 377.308 28.366C375.237 29.654 372.851 29.149 371.339 26.718ZM376.08 23.77C375.201 22.356 374.336 22.12 373.68 22.529C373.024 22.938 372.852 23.818 373.731 25.229C374.61 26.64 375.475 26.879 376.131 26.47C376.787 26.061 376.96 25.182 376.08 23.77Z" fill="white"/>
<path d="M334.974 66.227V65.939C335.035 65.8024 335.139 65.6894 335.27 65.6172C335.401 65.545 335.552 65.5175 335.7 65.539C336.5 65.555 337.3 65.539 338.1 65.544C338.245 65.5262 338.392 65.5659 338.509 65.6546C338.626 65.7433 338.703 65.874 338.725 66.019C338.788 66.238 338.848 66.458 338.911 66.677C339.01 67.0203 339.11 67.3637 339.211 67.707H339.446C343.874 67.707 348.302 67.707 352.729 67.707C352.874 67.6884 353.022 67.7173 353.15 67.7894C353.277 67.8615 353.379 67.9729 353.438 68.107V68.395C353.414 68.455 353.385 68.513 353.368 68.575C352.675 70.997 351.982 73.4193 351.29 75.842C351.172 76.254 351.024 76.364 350.59 76.364H341.297C341.263 76.428 341.242 76.478 341.213 76.523C340.895 77.013 341.231 77.466 341.78 77.455C343.258 77.426 344.736 77.445 346.215 77.445C347.694 77.445 349.196 77.445 350.686 77.445C350.76 77.4395 350.835 77.4493 350.905 77.474C350.976 77.4986 351.04 77.5375 351.095 77.5883C351.15 77.639 351.193 77.7005 351.223 77.7688C351.253 77.8372 351.268 77.9109 351.268 77.9855C351.268 78.0601 351.253 78.1338 351.223 78.2022C351.193 78.2705 351.15 78.332 351.095 78.3827C351.04 78.4335 350.976 78.4724 350.905 78.497C350.835 78.5217 350.76 78.5315 350.686 78.526C350.486 78.526 350.286 78.526 350.091 78.526H348.858C349.262 78.6069 349.621 78.8355 349.865 79.167C350.11 79.4985 350.222 79.9093 350.18 80.319C350.137 80.7124 349.953 81.0767 349.66 81.3434C349.368 81.61 348.989 81.7607 348.593 81.767C348.197 81.7732 347.813 81.6347 347.512 81.3774C347.212 81.1201 347.016 80.7618 346.961 80.37C346.908 79.9522 347.017 79.53 347.265 79.1893C347.512 78.8487 347.88 78.6151 348.294 78.536H343.374C343.78 78.6079 344.145 78.8288 344.397 79.1557C344.65 79.4825 344.771 79.8916 344.737 80.303C344.699 80.6973 344.518 81.0641 344.228 81.3343C343.939 81.6044 343.56 81.7592 343.164 81.7694C342.768 81.7796 342.382 81.6445 342.079 81.3897C341.776 81.1349 341.576 80.7778 341.518 80.386C341.462 79.9613 341.572 79.5313 341.824 79.1853C342.076 78.8392 342.452 78.6035 342.874 78.527C342.43 78.527 342.029 78.527 341.629 78.527C341.352 78.5277 341.08 78.4577 340.839 78.3236C340.597 78.1895 340.393 77.9958 340.247 77.7609C340.102 77.526 340.018 77.2577 340.005 76.9815C339.993 76.7053 340.051 76.4305 340.174 76.183C340.241 76.042 340.312 75.904 340.382 75.763L337.774 66.627C337.074 66.627 336.389 66.615 335.705 66.632C335.555 66.6544 335.403 66.6269 335.271 66.5537C335.138 66.4804 335.034 66.3656 334.974 66.227" fill="white"/>
<path d="M355.801 66.87C355.801 67.549 355.6 68.2128 355.223 68.7775C354.846 69.3422 354.31 69.7824 353.682 70.0424C353.055 70.3024 352.365 70.3705 351.699 70.2382C351.033 70.1058 350.421 69.7789 349.941 69.2988C349.461 68.8188 349.134 68.2071 349.001 67.5411C348.869 66.8751 348.936 66.1848 349.196 65.5575C349.456 64.9301 349.896 64.3939 350.461 64.0166C351.025 63.6394 351.689 63.438 352.368 63.438C353.278 63.438 354.151 63.7995 354.795 64.4431C355.439 65.0867 355.801 65.9597 355.801 66.87Z" fill="#2A3D66"/>
<path d="M352.849 66.687C352.938 66.7037 353.023 66.7359 353.101 66.782C353.178 66.8264 353.246 66.8847 353.301 66.954C353.357 67.0253 353.399 67.1059 353.427 67.192C353.457 67.2854 353.472 67.3829 353.471 67.481C353.472 67.6104 353.443 67.7383 353.385 67.854C353.327 67.9646 353.244 68.0601 353.143 68.133C353.029 68.2156 352.901 68.2769 352.765 68.314C352.604 68.3586 352.437 68.3801 352.27 68.378C352.078 68.3893 351.885 68.3606 351.704 68.2936C351.523 68.2267 351.359 68.123 351.22 67.989L351.6 67.489C351.677 67.5681 351.769 67.6307 351.871 67.673C351.987 67.717 352.112 67.7374 352.236 67.733C352.569 67.733 352.736 67.611 352.736 67.367C352.739 67.3085 352.727 67.2502 352.701 67.1976C352.675 67.1451 352.636 67.1001 352.588 67.067C352.446 66.9893 352.284 66.9545 352.122 66.967H351.985V66.459H352.131C352.267 66.4673 352.402 66.4323 352.517 66.359C352.561 66.3292 352.596 66.2891 352.621 66.2421C352.645 66.1951 352.657 66.1429 352.656 66.09C352.659 66.0478 352.651 66.0055 352.634 65.967C352.616 65.9284 352.59 65.8948 352.556 65.869C352.476 65.8156 352.381 65.7896 352.285 65.795C352.17 65.7936 352.056 65.8233 351.956 65.881C351.854 65.9414 351.769 66.0255 351.707 66.126L351.264 65.614C351.316 65.5473 351.379 65.4893 351.449 65.442C351.53 65.3865 351.618 65.3412 351.71 65.307C351.812 65.269 351.917 65.2402 352.024 65.221C352.137 65.2002 352.253 65.1899 352.368 65.19C352.512 65.1885 352.657 65.207 352.796 65.245C352.915 65.2769 353.028 65.3308 353.127 65.404C353.215 65.4695 353.288 65.5539 353.339 65.651C353.39 65.7499 353.416 65.8598 353.414 65.971C353.414 66.0568 353.4 66.142 353.372 66.223C353.345 66.3008 353.305 66.3737 353.255 66.439C353.206 66.5031 353.145 66.5576 353.076 66.6C353.007 66.6431 352.929 66.6726 352.849 66.687Z" fill="white"/>
<path d="M321 148.02H323.83C324.436 147.985 325.034 148.17 325.515 148.54C325.711 148.699 325.869 148.9 325.976 149.129C326.082 149.357 326.135 149.608 326.13 149.86C326.128 150.241 325.99 150.609 325.741 150.897C325.491 151.185 325.147 151.374 324.77 151.43C325.199 151.483 325.593 151.698 325.87 152.03C326.145 152.346 326.296 152.751 326.295 153.17C326.303 153.425 326.25 153.679 326.141 153.91C326.033 154.141 325.871 154.343 325.67 154.5C325.187 154.856 324.594 155.033 323.995 155H321.005L321 148.02ZM322.41 149.1V150.91H323.68C323.949 150.925 324.213 150.841 324.425 150.675C324.518 150.592 324.591 150.489 324.639 150.374C324.686 150.259 324.707 150.134 324.7 150.01C324.707 149.885 324.686 149.76 324.638 149.644C324.591 149.528 324.518 149.424 324.425 149.34C324.215 149.171 323.949 149.085 323.68 149.1H322.41ZM322.41 153.92H323.83C324.105 153.933 324.375 153.842 324.585 153.665C324.681 153.575 324.756 153.466 324.806 153.344C324.855 153.222 324.877 153.091 324.87 152.96C324.877 152.828 324.854 152.695 324.804 152.573C324.754 152.45 324.677 152.34 324.58 152.25C324.368 152.071 324.097 151.978 323.82 151.99H322.41V153.92ZM331.32 149.46H332.73V155H331.32V154.16C331.146 154.458 330.892 154.7 330.587 154.861C330.283 155.022 329.939 155.094 329.595 155.07C329.309 155.08 329.024 155.029 328.759 154.921C328.493 154.814 328.253 154.651 328.055 154.445C327.633 153.969 327.417 153.345 327.455 152.71V149.46H328.855V152.51C328.831 152.874 328.949 153.232 329.185 153.51C329.302 153.629 329.442 153.721 329.597 153.782C329.753 153.842 329.919 153.869 330.085 153.86C330.252 153.868 330.419 153.841 330.575 153.781C330.731 153.721 330.872 153.628 330.99 153.51C331.229 153.234 331.349 152.874 331.325 152.51L331.32 149.46ZM335.72 154.9L333.55 149.46H335.13L336.54 153.4L338.03 149.46H339.5L336.04 157.62H334.57L335.72 154.9ZM347.895 148H349.305V155H347.895L344.73 150.16V155H343.32V148H344.73L347.895 152.84V148ZM353.265 153.89C353.455 153.892 353.644 153.854 353.818 153.779C353.993 153.704 354.15 153.594 354.28 153.455C354.429 153.288 354.543 153.094 354.616 152.883C354.689 152.671 354.719 152.448 354.705 152.225C354.719 152.003 354.688 151.78 354.615 151.57C354.542 151.36 354.428 151.166 354.28 151C354.15 150.862 353.993 150.752 353.818 150.678C353.643 150.604 353.455 150.567 353.265 150.57C353.077 150.567 352.89 150.603 352.716 150.677C352.543 150.752 352.388 150.861 352.26 151C351.967 151.34 351.82 151.782 351.85 152.23C351.82 152.678 351.967 153.12 352.26 153.46C352.387 153.598 352.542 153.708 352.714 153.782C352.886 153.856 353.072 153.893 353.26 153.89H353.265ZM351.235 154.29C350.964 154.02 350.752 153.696 350.613 153.34C350.473 152.984 350.409 152.602 350.425 152.22C350.409 151.838 350.473 151.457 350.615 151.102C350.756 150.747 350.971 150.426 351.245 150.16C351.516 149.902 351.835 149.701 352.185 149.567C352.534 149.433 352.906 149.37 353.28 149.38C353.654 149.37 354.026 149.433 354.375 149.567C354.725 149.701 355.044 149.902 355.315 150.16C355.589 150.426 355.804 150.747 355.945 151.102C356.087 151.457 356.151 151.838 356.135 152.22C356.15 152.604 356.084 152.987 355.941 153.343C355.798 153.7 355.581 154.023 355.305 154.29C355.033 154.551 354.713 154.755 354.362 154.89C354.011 155.026 353.636 155.09 353.26 155.08C352.886 155.091 352.513 155.027 352.165 154.891C351.816 154.756 351.498 154.551 351.23 154.29H351.235ZM363.535 149.46H364.885L363.18 155H361.68L360.73 151.28L359.77 155H358.27L356.57 149.46H357.995L359.015 153.67L360.035 149.46H361.515L362.515 153.66L363.535 149.46Z" fill="white"/>
<path d="M76.922 130.079H18.411C17.3749 130.079 16.349 130.283 15.3917 130.679C14.4345 131.076 13.5646 131.657 12.832 132.389C12.0993 133.122 11.5182 133.992 11.1216 134.949C10.7251 135.906 10.521 136.932 10.521 137.968V257.543C10.5215 259.635 11.353 261.642 12.8326 263.121C14.3122 264.601 16.3187 265.432 18.411 265.432H76.922C77.9581 265.432 78.984 265.228 79.9413 264.832C80.8985 264.435 81.7684 263.854 82.501 263.122C83.2337 262.389 83.8149 261.52 84.2114 260.562C84.6079 259.605 84.812 258.579 84.812 257.543V137.968C84.8115 135.876 83.98 133.869 82.5004 132.39C81.0209 130.911 79.0143 130.079 76.922 130.079Z" fill="#1D2848"/>
<path d="M80.985 140.832H14.347V254.68H80.985V140.832Z" fill="white"/>
<path d="M34.333 135.827H61.42C61.6091 135.827 61.7904 135.902 61.9242 136.036C62.0579 136.17 62.133 136.351 62.133 136.54C62.133 136.729 62.0579 136.911 61.9242 137.044C61.7904 137.178 61.6091 137.253 61.42 137.253H34.333C34.1439 137.253 33.9625 137.178 33.8288 137.044C33.6951 136.911 33.62 136.729 33.62 136.54V136.54C33.62 136.351 33.6951 136.17 33.8288 136.036C33.9625 135.902 34.1439 135.827 34.333 135.827V135.827Z" fill="white"/>
<path d="M51.058 260.165C51.0576 260.812 50.8653 261.445 50.5055 261.983C50.1457 262.521 49.6344 262.94 49.0364 263.187C48.4383 263.435 47.7804 263.499 47.1456 263.373C46.5109 263.247 45.9279 262.935 45.4703 262.477C45.0128 262.019 44.7012 261.436 44.575 260.801C44.4487 260.167 44.5135 259.509 44.7611 258.911C45.0087 258.313 45.4281 257.802 45.9662 257.442C46.5043 257.082 47.1369 256.89 47.7841 256.89C48.2141 256.89 48.64 256.975 49.0374 257.139C49.4347 257.304 49.7957 257.545 50.0997 257.849C50.4038 258.153 50.6449 258.514 50.8093 258.912C50.9738 259.309 51.0583 259.735 51.058 260.165Z" fill="#E1E9ED"/>
<path d="M48.76 261.528H46.808C46.7051 261.528 46.6065 261.487 46.5337 261.414C46.4609 261.342 46.42 261.243 46.42 261.14V259.185C46.42 259.082 46.4609 258.984 46.5337 258.911C46.6065 258.838 46.7051 258.797 46.808 258.797H48.76C48.8627 258.797 48.9611 258.838 49.0337 258.911C49.1062 258.984 49.147 259.082 49.147 259.185V261.137C49.1474 261.188 49.1377 261.239 49.1184 261.286C49.0991 261.334 49.0708 261.377 49.0348 261.413C48.9988 261.449 48.9561 261.478 48.9089 261.498C48.8618 261.518 48.8111 261.528 48.76 261.528ZM46.808 258.906C46.7332 258.906 46.6615 258.936 46.6086 258.989C46.5558 259.042 46.526 259.113 46.526 259.188V261.14C46.526 261.215 46.5558 261.287 46.6086 261.339C46.6615 261.392 46.7332 261.422 46.808 261.422H48.76C48.8348 261.422 48.9066 261.392 48.9595 261.339C49.0124 261.287 49.042 261.215 49.042 261.14V259.185C49.042 259.11 49.0124 259.039 48.9595 258.986C48.9066 258.933 48.8348 258.903 48.76 258.903L46.808 258.906Z" stroke="#2A3D66" stroke-width="0.4"/>
<path d="M81.142 140.832H14.504V146.874H81.142V140.832Z" fill="#D0E1F5"/>
<path d="M53.151 154.278H63.781V158.217C63.781 159.627 63.221 160.979 62.2243 161.975C61.2275 162.972 59.8756 163.532 58.466 163.532C57.0564 163.532 55.7045 162.972 54.7077 161.975C53.711 160.979 53.151 159.627 53.151 158.217V154.278Z" fill="#52B3E2"/>
<path d="M42.52 154.278H53.15V158.217C53.15 159.627 52.59 160.979 51.5933 161.975C50.5965 162.972 49.2446 163.532 47.835 163.532C46.4254 163.532 45.0735 162.972 44.0767 161.975C43.08 160.979 42.52 159.627 42.52 158.217V154.278Z" fill="#E1E9ED"/>
<path d="M31.89 154.278H42.52V158.217C42.52 159.627 41.96 160.979 40.9633 161.975C39.9665 162.972 38.6146 163.532 37.205 163.532C35.7954 163.532 34.4435 162.972 33.4467 161.975C32.45 160.979 31.89 159.627 31.89 158.217V154.278Z" fill="#52B3E2"/>
<path d="M21.26 154.278H31.89V158.217C31.89 159.627 31.33 160.979 30.3333 161.975C29.3365 162.972 27.9846 163.532 26.575 163.532C25.1654 163.532 23.8135 162.972 22.8167 161.975C21.82 160.979 21.26 159.627 21.26 158.217V154.278Z" fill="#E1E9ED"/>
<path d="M10.63 154.278H21.26V158.217C21.26 159.627 20.7 160.979 19.7033 161.975C18.7065 162.972 17.3546 163.532 15.945 163.532C14.5354 163.532 13.1835 162.972 12.1867 161.975C11.19 160.979 10.63 159.627 10.63 158.217V154.278Z" fill="#52B3E2"/>
<path d="M85.016 154.278H95.646V158.217C95.646 159.627 95.086 160.979 94.0893 161.975C93.0925 162.972 91.7406 163.532 90.331 163.532C88.9214 163.532 87.5695 162.972 86.5727 161.975C85.576 160.979 85.016 159.627 85.016 158.217V154.278Z" fill="#E1E9ED"/>
<path d="M74.386 154.278H85.016V158.217C85.016 159.627 84.456 160.979 83.4593 161.975C82.4625 162.972 81.1106 163.532 79.701 163.532C78.2914 163.532 76.9395 162.972 75.9427 161.975C74.946 160.979 74.386 159.627 74.386 158.217V154.278Z" fill="#52B3E2"/>
<path d="M63.781 154.278H74.411V158.217C74.411 159.627 73.851 160.979 72.8543 161.975C71.8575 162.972 70.5056 163.532 69.096 163.532C67.6864 163.532 66.3345 162.972 65.3377 161.975C64.341 160.979 63.781 159.627 63.781 158.217V154.278Z" fill="#E1E9ED"/>
<path d="M0 154.278H10.63V158.217C10.63 159.627 10.07 160.979 9.07327 161.975C8.07652 162.972 6.72463 163.532 5.315 163.532C3.90537 163.532 2.55348 162.972 1.55673 161.975C0.559972 160.979 0 159.627 0 158.217L0 154.278Z" fill="#E1E9ED"/>
<path d="M51.615 140.832H44.057L42.521 154.277H53.151L51.615 140.832Z" fill="#CFD2D4"/>
<path d="M44.056 140.832H36.498L31.89 154.277H42.52L44.056 140.832Z" fill="#1C8CC2"/>
<path d="M36.499 140.832H28.941L21.26 154.277H31.89L36.499 140.832Z" fill="#CFD2D4"/>
<path d="M28.941 140.832H21.383L10.63 154.277H21.26L28.941 140.832Z" fill="#1C8CC2"/>
<path d="M21.383 140.832H13.825L0 154.277H10.63L21.383 140.832Z" fill="#CFD2D4"/>
<path d="M81.7941 140.832H74.2361L85.014 154.277H95.644L81.7941 140.832Z" fill="#CFD2D4"/>
<path d="M74.2761 140.832H66.718L74.3871 154.277H85.0171L74.2761 140.832Z" fill="#1C8CC2"/>
<path d="M66.718 140.832H59.16L63.781 154.277H74.411L66.718 140.832Z" fill="#CFD2D4"/>
<path d="M59.1591 140.832H51.6011L53.15 154.277H63.78L59.1591 140.832Z" fill="#1C8CC2"/>
<path d="M30.723 225.421H64.923C66.9182 225.421 68.8317 226.214 70.2425 227.625C71.6534 229.035 72.446 230.949 72.446 232.944C72.446 234.939 71.6534 236.853 70.2425 238.264C68.8317 239.675 66.9182 240.467 64.923 240.467H30.722C28.7269 240.467 26.8136 239.675 25.4028 238.264C23.992 236.853 23.1992 234.94 23.199 232.945V232.945C23.199 230.95 23.9917 229.036 25.4027 227.625C26.8137 226.214 28.7275 225.421 30.723 225.421V225.421Z" fill="#52B3E2"/>
<path d="M48.301 213.29C60.1862 213.29 69.821 203.655 69.821 191.77C69.821 179.885 60.1862 170.25 48.301 170.25C36.4158 170.25 26.781 179.885 26.781 191.77C26.781 203.655 36.4158 213.29 48.301 213.29Z" fill="#E1E9ED"/>
<path d="M60.037 189.127H35.902C35.281 189.127 34.866 189.471 34.974 189.896L37.82 201C37.8924 201.221 38.032 201.414 38.2194 201.551C38.4067 201.689 38.6325 201.765 38.865 201.768H57.073C57.3056 201.765 57.5314 201.689 57.7188 201.552C57.9062 201.414 58.0458 201.221 58.118 201C59.0667 197.298 60.0153 193.596 60.964 189.894C61.073 189.469 60.658 189.125 60.036 189.125M39.404 199.936C39.404 199.995 39.37 200.043 39.328 200.043H38.846C38.804 200.043 38.771 199.995 38.771 199.936V196.279H39.404V199.936ZM39.404 195.621H38.771V191.964C38.771 191.905 38.804 191.857 38.846 191.857H39.328C39.37 191.857 39.404 191.905 39.404 191.964V195.621ZM40.589 199.936C40.589 199.995 40.555 200.043 40.513 200.043H40.031C39.989 200.043 39.955 199.995 39.955 199.936V196.279H40.588L40.589 199.936ZM40.589 195.621H39.956V191.964C39.956 191.905 39.99 191.857 40.032 191.857H40.514C40.556 191.857 40.59 191.905 40.59 191.964L40.589 195.621ZM41.773 199.936C41.773 199.995 41.739 200.043 41.698 200.043H41.216C41.174 200.043 41.141 199.995 41.141 199.936V196.279H41.774L41.773 199.936ZM41.773 195.621H41.14V191.964C41.14 191.905 41.173 191.857 41.215 191.857H41.694C41.736 191.857 41.769 191.905 41.769 191.964L41.773 195.621ZM44.142 199.936C44.142 199.995 44.108 200.043 44.067 200.043H43.585C43.543 200.043 43.51 199.995 43.51 199.936V196.279H44.143L44.142 199.936ZM44.142 195.621H43.509V191.964C43.509 191.905 43.542 191.857 43.584 191.857H44.066C44.108 191.857 44.141 191.905 44.141 191.964L44.142 195.621ZM45.326 199.936C45.326 199.995 45.292 200.043 45.25 200.043H44.768C44.726 200.043 44.693 199.995 44.693 199.936V196.279H45.326V199.936ZM45.326 195.621H44.694V191.964C44.694 191.905 44.727 191.857 44.769 191.857H45.251C45.293 191.857 45.327 191.905 45.327 191.964L45.326 195.621ZM46.51 199.936C46.51 199.995 46.476 200.043 46.435 200.043H45.952C45.911 200.043 45.877 199.995 45.877 199.936V196.279H46.51V199.936ZM46.51 195.621H45.877V191.964C45.877 191.905 45.91 191.857 45.952 191.857H46.435C46.477 191.857 46.51 191.905 46.51 191.964V195.621ZM47.695 199.936C47.695 199.995 47.661 200.043 47.619 200.043H47.137C47.095 200.043 47.062 199.995 47.062 199.936V196.279H47.694L47.695 199.936ZM47.695 195.621H47.062V191.964C47.062 191.905 47.095 191.857 47.137 191.857H47.619C47.661 191.857 47.695 191.905 47.695 191.964V195.621ZM48.879 199.936C48.879 199.995 48.845 200.043 48.803 200.043H48.321C48.279 200.043 48.245 199.995 48.245 199.936V196.279H48.878L48.879 199.936ZM48.879 195.621H48.246V191.964C48.246 191.905 48.28 191.857 48.322 191.857H48.804C48.846 191.857 48.88 191.905 48.88 191.964L48.879 195.621ZM50.063 199.936C50.063 199.995 50.029 200.043 49.987 200.043H49.505C49.463 200.043 49.429 199.995 49.429 199.936V196.279H50.062L50.063 199.936ZM50.063 195.621H49.43V191.964C49.43 191.905 49.464 191.857 49.506 191.857H49.988C50.03 191.857 50.064 191.905 50.064 191.964L50.063 195.621ZM51.248 199.936C51.248 199.995 51.214 200.043 51.172 200.043H50.69C50.648 200.043 50.615 199.995 50.615 199.936V196.279H51.248V199.936ZM51.248 195.621H50.614V191.964C50.614 191.905 50.648 191.857 50.689 191.857H51.171C51.213 191.857 51.247 191.905 51.247 191.964L51.248 195.621ZM52.432 199.936C52.432 199.995 52.398 200.043 52.357 200.043H51.875C51.833 200.043 51.799 199.995 51.799 199.936V196.279H52.432V199.936ZM52.432 195.621H51.794V191.964C51.794 191.905 51.828 191.857 51.87 191.857H52.352C52.394 191.857 52.427 191.905 52.427 191.964L52.432 195.621ZM54.801 199.936C54.801 199.995 54.767 200.043 54.726 200.043H54.244C54.202 200.043 54.169 199.995 54.169 199.936V196.279H54.802L54.801 199.936ZM54.801 195.621H54.168V191.964C54.168 191.905 54.201 191.857 54.243 191.857H54.725C54.767 191.857 54.8 191.905 54.8 191.964L54.801 195.621ZM55.986 199.936C55.986 199.995 55.952 200.043 55.91 200.043H55.428C55.386 200.043 55.352 199.995 55.352 199.936V196.279H55.985L55.986 199.936ZM55.986 195.621H55.353V191.964C55.353 191.905 55.387 191.857 55.429 191.857H55.911C55.953 191.857 55.987 191.905 55.987 191.964L55.986 195.621ZM57.17 199.936C57.17 199.995 57.136 200.043 57.095 200.043H56.613C56.571 200.043 56.538 199.995 56.538 199.936V196.279H57.171L57.17 199.936ZM57.17 195.621H56.537V191.964C56.537 191.905 56.57 191.857 56.612 191.857H57.094C57.136 191.857 57.169 191.905 57.169 191.964L57.17 195.621Z" fill="#52B3E2"/>
<path d="M62.464 189.774C62.4675 189.861 62.4363 189.947 62.377 190.011C62.3178 190.076 62.2355 190.114 62.148 190.118H33.791C33.7036 190.114 33.6214 190.076 33.5623 190.011C33.5033 189.947 33.4722 189.861 33.476 189.774V188.512C33.4722 188.425 33.5033 188.339 33.5623 188.275C33.6214 188.21 33.7036 188.172 33.791 188.168H62.148C62.2355 188.172 62.3178 188.21 62.377 188.275C62.4363 188.339 62.4675 188.424 62.464 188.512V189.774Z" fill="#52B3E2"/>
<path d="M61.891 190.115C61.891 190.16 55.706 190.197 48.078 190.197C40.45 190.197 34.264 190.16 34.264 190.115C34.264 190.07 40.448 190.033 48.078 190.033C55.708 190.033 61.891 190.07 61.891 190.115Z" fill="#263238"/>
<path d="M35.582 190.114C39.439 190.794 43.3466 191.145 47.263 191.165C51.7654 191.271 56.2669 190.919 60.698 190.114H35.582Z" fill="#1C8CC2"/>
<path d="M48.4371 189.704C48.3497 189.741 48.2558 189.76 48.1609 189.761C48.066 189.762 47.9719 189.744 47.8839 189.708C47.796 189.673 47.7159 189.62 47.6483 189.553C47.5807 189.487 47.527 189.407 47.4901 189.32L43.1901 179.176C43.1153 178.999 43.1137 178.8 43.1857 178.622C43.2577 178.445 43.3974 178.303 43.5741 178.228C43.7507 178.153 43.9498 178.152 44.1276 178.224C44.3054 178.296 44.4473 178.435 44.5221 178.612L48.8221 188.756C48.8967 188.932 48.8982 189.131 48.8264 189.309C48.7546 189.486 48.6153 189.628 48.4391 189.703" fill="#52B3E2"/>
<path d="M48.6441 189.03C48.6431 189.131 48.6121 189.229 48.5552 189.312C48.4983 189.395 48.4179 189.46 48.3243 189.497C48.2307 189.535 48.128 189.544 48.0294 189.523C47.9308 189.502 47.8406 189.452 47.7702 189.38C47.6999 189.307 47.6527 189.216 47.6345 189.117C47.6163 189.018 47.6279 188.915 47.668 188.823C47.708 188.73 47.7746 188.652 47.8594 188.597C47.9442 188.542 48.0433 188.514 48.1441 188.516C48.2791 188.516 48.4085 188.57 48.504 188.665C48.5994 188.76 48.6531 188.89 48.6531 189.025" fill="#2A3D66"/>
<path d="M39.172 234.482C39.563 234.046 39.7667 233.475 39.739 232.89C39.7683 232.307 39.5655 231.736 39.175 231.302C38.9848 231.104 38.7549 230.95 38.5005 230.847C38.2461 230.745 37.9729 230.698 37.699 230.709C37.4242 230.699 37.1505 230.747 36.8957 230.851C36.641 230.954 36.411 231.11 36.221 231.309C35.8285 231.742 35.6239 232.313 35.652 232.897C35.6239 233.481 35.8285 234.052 36.221 234.485C36.411 234.684 36.641 234.84 36.8957 234.943C37.1505 235.047 37.4242 235.095 37.699 235.085C37.9732 235.095 38.2464 235.046 38.5004 234.942C38.7544 234.838 38.9833 234.681 39.172 234.482ZM37.699 236.314C37.2499 236.325 36.8033 236.245 36.3859 236.079C35.9685 235.913 35.5889 235.664 35.27 235.348C34.9451 235.029 34.6898 234.647 34.5203 234.225C34.3507 233.803 34.2706 233.35 34.285 232.895C34.2708 232.44 34.3514 231.987 34.5219 231.564C34.6923 231.142 34.9488 230.76 35.275 230.442C35.5943 230.126 35.9739 229.878 36.3912 229.712C36.8085 229.546 37.255 229.466 37.704 229.476C38.1524 229.465 38.5984 229.545 39.0151 229.711C39.4318 229.877 39.8107 230.126 40.129 230.442C40.4538 230.76 40.7091 231.143 40.8787 231.565C41.0482 231.987 41.1283 232.44 41.114 232.895C41.1283 233.35 41.0482 233.803 40.8787 234.225C40.7091 234.647 40.4538 235.029 40.129 235.348C39.8099 235.664 39.4302 235.913 39.0126 236.079C38.595 236.245 38.1482 236.325 37.699 236.314ZM43.524 230.948V231.885C43.6542 231.582 43.8705 231.325 44.1459 231.144C44.4213 230.964 44.7436 230.868 45.073 230.869V232.249H44.739C44.5751 232.237 44.4105 232.257 44.2545 232.308C44.0985 232.36 43.9542 232.441 43.83 232.549C43.5955 232.841 43.4856 233.214 43.524 233.587V236.247H42.175V230.947L43.524 230.948ZM49.406 234.74C49.5504 234.588 49.6623 234.409 49.7347 234.212C49.8071 234.015 49.8385 233.806 49.827 233.597C49.8385 233.388 49.8071 233.178 49.7347 232.982C49.6623 232.785 49.5504 232.606 49.406 232.454C49.2785 232.322 49.1255 232.216 48.9562 232.145C48.7868 232.073 48.6048 232.037 48.421 232.038C48.2379 232.036 48.0564 232.072 47.8876 232.143C47.7188 232.214 47.5661 232.318 47.439 232.45C47.2957 232.601 47.1849 232.78 47.1133 232.976C47.0418 233.172 47.011 233.38 47.023 233.588C47.0118 233.798 47.0435 234.008 47.116 234.205C47.1886 234.403 47.3005 234.583 47.445 234.736C47.5709 234.869 47.7229 234.975 47.8914 235.048C48.06 235.12 48.2415 235.157 48.425 235.157C48.6082 235.158 48.7897 235.121 48.9583 235.049C49.1269 234.978 49.2792 234.872 49.406 234.74ZM46.369 235.553C45.8845 235.015 45.6287 234.31 45.656 233.587C45.6275 232.868 45.8816 232.165 46.364 231.631C46.5919 231.383 46.8707 231.186 47.1812 231.055C47.4918 230.924 47.827 230.861 48.164 230.871C48.4966 230.858 48.8265 230.935 49.1193 231.093C49.4121 231.251 49.6569 231.485 49.828 231.771V229.169H51.166V236.247H49.827V235.357C49.6618 235.655 49.4187 235.902 49.1239 236.072C48.829 236.242 48.4934 236.329 48.153 236.323C47.8177 236.331 47.4847 236.266 47.1768 236.133C46.8689 236 46.5934 235.802 46.369 235.553ZM54.839 236.323C54.4895 236.336 54.1413 236.275 53.8167 236.145C53.4921 236.016 53.1982 235.819 52.954 235.569C52.707 235.303 52.5155 234.99 52.3907 234.65C52.2659 234.309 52.2102 233.947 52.227 233.584C52.2103 233.223 52.2666 232.863 52.3923 232.524C52.5181 232.185 52.7108 231.875 52.959 231.613C53.2065 231.365 53.5025 231.171 53.8284 231.043C54.1543 230.915 54.5031 230.856 54.853 230.869C55.2031 230.856 55.5522 230.913 55.8798 231.037C56.2075 231.161 56.507 231.35 56.761 231.591C57.0124 231.843 57.2087 232.144 57.3371 232.476C57.4656 232.808 57.5234 233.163 57.507 233.518C57.5079 233.691 57.4952 233.863 57.469 234.034H53.605C53.6236 234.35 53.7604 234.647 53.988 234.866C54.2188 235.079 54.5247 235.193 54.839 235.182C55.0477 235.193 55.2552 235.145 55.4379 235.043C55.6205 234.942 55.7709 234.791 55.872 234.608H57.325C57.1767 235.108 56.8646 235.544 56.439 235.845C55.9711 236.173 55.4099 236.34 54.839 236.323ZM56.111 233.169C56.1081 233.009 56.0722 232.852 56.0056 232.707C55.939 232.563 55.8431 232.433 55.724 232.327C55.4853 232.116 55.1761 232.004 54.858 232.011C54.5456 232.002 54.2421 232.115 54.012 232.327C53.7797 232.55 53.6356 232.849 53.606 233.169H56.111ZM59.918 230.95V231.887C60.0479 231.584 60.2641 231.326 60.5395 231.145C60.8149 230.964 61.1374 230.868 61.467 230.869V232.249H61.132C60.9681 232.237 60.8035 232.257 60.6475 232.308C60.4915 232.36 60.3472 232.441 60.223 232.549C59.9885 232.841 59.8786 233.214 59.917 233.587V236.247H58.569V230.947L59.918 230.95Z" fill="white"/>
</svg>
