<svg width="1457" height="378" viewBox="0 0 1457 378" fill="none" xmlns="http://www.w3.org/2000/svg">
<mask id="mask0_101_21" style="mask-type:alpha" maskUnits="userSpaceOnUse" x="0" y="0" width="1457" height="378">
<path d="M1457 378H0V0H1457V378Z" fill="#D9D9D9"/>
</mask>
<g mask="url(#mask0_101_21)">
<path d="M-370.761 -89.79C-370.761 -89.79 -103.758 -141.69 82.6277 62.49C269.012 266.68 407.931 192.982 591.931 168.982C775.931 144.98 784.139 317.32 975.334 357.578C1166.53 397.836 1247.13 190.889 1433.53 345.936C1619.93 500.983 1459.93 608.982 1763.93 608.982" stroke="#52B3E2" stroke-width="2"/>
<path d="M-387.583 -33.46C-387.583 -33.46 -123.663 -99.2599 73.1534 94.89C269.97 289.048 404.84 208.181 587.332 174.584C769.824 140.99 787.041 312.658 980.08 342.855C1173.12 373.051 1242.78 162.17 1437.04 307.249C1631.3 452.328 1477.17 568.553 1780.75 552.643" stroke="#52B3E2" stroke-width="2"/>
<path d="M-401.435 23.69C-401.435 23.69 -141.32 -55.84 65.3875 127.75C272.095 311.335 402.549 223.52 583.032 180.418C763.516 137.32 789.693 307.852 984.049 327.904C1178.4 347.956 1236.93 133.72 1438.52 268.431C1640.1 403.144 1492.27 527.277 1794.6 495.5" stroke="#52B3E2" stroke-width="2"/>
<path d="M-412.254 81.14C-412.254 81.14 -156.574 -11.88 59.498 160.707C275.57 333.299 401.296 238.766 579.333 186.285C757.37 133.8 792.426 302.787 987.618 312.667C1182.81 322.547 1230.09 105.48 1438.49 229.523C1646.89 353.563 1505.7 485.282 1806.05 437.75" stroke="#52B3E2" stroke-width="2.00056"/>
<path d="M-422 159.26C-422 159.26 -173.516 48.63 54.0248 205.654C281.565 362.681 400.344 259.622 574.23 194.846C748.115 130.07 794.881 296.144 990.231 292.361C1185.58 288.578 1217.56 68.8 1434.07 177.946C1650.57 287.088 1518.96 428.312 1815.17 359.927" stroke="#52B3E2" stroke-width="2"/>
</g>
</svg>
