<svg width="110" height="96" viewBox="0 0 110 96" fill="none" xmlns="http://www.w3.org/2000/svg">
<path d="M109 68.227C108.87 68.544 108.736 68.86 108.611 69.179C108.165 70.4875 107.234 71.5756 106.011 72.22C91.7517 79.476 77.4963 86.7397 63.245 94.011C61.7794 94.8286 60.1146 95.2205 58.4382 95.1426C56.7617 95.0647 55.1404 94.52 53.757 93.57C49.146 90.677 44.511 87.827 39.905 84.927C39.5731 84.7032 39.1945 84.558 38.7981 84.5022C38.4017 84.4464 37.9978 84.4815 37.617 84.605C34.037 85.592 30.442 86.525 26.777 87.497C26.777 88.347 26.783 89.151 26.777 89.954C26.8288 90.4475 26.7708 90.9464 26.607 91.4148C26.4432 91.8832 26.1778 92.3096 25.8297 92.6633C25.4817 93.017 25.0596 93.2892 24.5939 93.4605C24.1282 93.6318 23.6303 93.6979 23.136 93.654C21.415 93.687 19.693 93.662 17.971 93.662C13.825 93.662 9.677 93.596 5.533 93.69C3.469 93.739 1.91 93.154 1 91.227V57.47C1.767 55.57 3.161 54.855 5.212 54.883C11.043 54.965 16.875 54.911 22.712 54.912C25.524 54.912 26.612 55.951 26.792 58.795C26.8153 58.9264 26.8487 59.0558 26.892 59.182C28.977 58.277 31.028 57.388 33.076 56.497C34.845 55.727 36.61 54.949 38.376 54.183C39.5325 53.6597 40.7869 53.3881 42.0562 53.386C43.3255 53.3839 44.5808 53.6515 45.739 54.171C54.6723 57.9943 63.596 61.8327 72.51 65.686C73.1275 65.9878 73.6398 66.4687 73.98 67.066C74.41 67.9569 74.7707 68.8796 75.059 69.826C75.309 69.752 75.659 69.657 76.004 69.544C84.304 66.844 92.647 64.244 100.889 61.366C101.675 61.1001 102.506 60.9954 103.334 61.0582C104.161 61.121 104.967 61.3501 105.704 61.7316C106.44 62.1132 107.092 62.6394 107.621 63.2788C108.15 63.9182 108.544 64.6577 108.78 65.453C108.838 65.6113 108.91 65.7642 108.995 65.91L109 68.227ZM26.822 83.921C27.234 83.847 27.509 83.821 27.773 83.747C30.656 82.985 33.559 82.288 36.412 81.428C37.3436 81.1193 38.3343 81.0325 39.3054 81.1745C40.2764 81.3165 41.2009 81.6834 42.005 82.246C46.434 85.095 50.952 87.806 55.395 90.633C56.348 91.2981 57.4713 91.6766 58.6325 91.7239C59.7936 91.7712 60.9441 91.4854 61.948 90.9C75.972 83.7167 90.0083 76.5577 104.057 69.423C104.373 69.2911 104.659 69.097 104.899 68.8522C105.139 68.6074 105.326 68.3169 105.451 67.9979C105.576 67.679 105.636 67.3382 105.626 66.9958C105.617 66.6534 105.538 66.3165 105.396 66.005C105.276 65.6933 105.095 65.4088 104.863 65.1683C104.632 64.9277 104.354 64.7361 104.047 64.6045C103.74 64.473 103.41 64.4043 103.076 64.4025C102.742 64.4007 102.411 64.4658 102.103 64.594C97.2657 66.1653 92.429 67.7396 87.593 69.317C83.193 70.753 78.803 72.198 74.479 73.617C74.142 74.185 73.873 74.678 73.569 75.148C71.826 77.842 67.511 79.422 64.569 77.806C62.369 76.596 59.947 75.777 57.625 74.781C55.852 74.021 54.071 73.281 52.311 72.481C52.0928 72.4086 51.8923 72.2912 51.7223 72.1364C51.5524 71.9816 51.4168 71.7929 51.3243 71.5825C51.2319 71.372 51.1846 71.1445 51.1856 70.9146C51.1865 70.6848 51.2358 70.4576 51.33 70.248C51.4197 70.0366 51.5518 69.8459 51.7182 69.6876C51.8845 69.5293 52.0815 69.4067 52.2971 69.3275C52.5126 69.2484 52.7421 69.2142 52.9713 69.2272C53.2006 69.2401 53.4248 69.3 53.63 69.403C53.83 69.474 54.018 69.568 54.211 69.651C58.177 71.351 62.139 73.062 66.116 74.736C66.6184 74.9693 67.171 75.0741 67.724 75.041C68.4293 74.965 69.1048 74.7156 69.6903 74.3152C70.2759 73.9148 70.7533 73.3758 71.08 72.7462C71.4067 72.1165 71.5725 71.4158 71.5628 70.7065C71.553 69.9972 71.3679 69.3014 71.024 68.681C62.046 64.836 53.024 60.955 43.983 57.115C43.3119 56.8436 42.5913 56.7161 41.8678 56.7408C41.1443 56.7654 40.4341 56.9416 39.783 57.258C37.3403 58.3246 34.896 59.3913 32.45 60.458C30.56 61.283 28.671 62.11 26.822 62.919V83.921ZM23.329 58.356H4.442V90.24H23.329V58.356Z" fill="white" stroke="#52B3E2"/>
<path d="M39.1159 44.093L37.348 43.376C36.297 44.054 35.231 44.733 34.176 45.426C33.8123 45.7159 33.3495 45.8517 32.8868 45.8044C32.4242 45.7571 31.9984 45.5304 31.7009 45.173C30.3276 43.8123 28.9523 42.4533 27.5749 41.096C27.2291 40.8138 27.0059 40.4087 26.952 39.9656C26.8981 39.5225 27.0178 39.0758 27.286 38.719C27.957 37.649 28.623 36.577 29.319 35.462L28.5739 33.693C27.3739 33.435 26.174 33.193 24.974 32.915C24.7252 32.9003 24.4824 32.8333 24.2614 32.7183C24.0404 32.6034 23.8461 32.443 23.6913 32.2478C23.5365 32.0526 23.4247 31.827 23.3631 31.5855C23.3015 31.3441 23.2916 31.0925 23.334 30.847C23.314 28.984 23.296 27.12 23.302 25.257C23.302 24.021 23.68 23.564 24.887 23.267C26.078 22.973 27.274 22.699 28.498 22.409L29.221 20.643C28.544 19.592 27.868 18.565 27.221 17.524C27.0567 17.3472 26.9317 17.1378 26.854 16.9093C26.7763 16.6809 26.7477 16.4387 26.7701 16.1984C26.7924 15.9582 26.8653 15.7254 26.9838 15.5153C27.1023 15.3051 27.2639 15.1224 27.458 14.979C28.7753 13.613 30.1086 12.261 31.458 10.923C31.6002 10.7289 31.7814 10.5668 31.9899 10.4469C32.1985 10.327 32.4297 10.2519 32.669 10.2266C32.9082 10.2013 33.1501 10.2262 33.3791 10.2998C33.6081 10.3734 33.8193 10.494 33.999 10.654C35.048 11.29 36.082 11.954 37.14 12.609L38.903 11.877C39.144 10.754 39.389 9.59496 39.642 8.43796C39.953 7.01796 40.43 6.63196 41.891 6.61996C43.684 6.60596 45.4769 6.58896 47.2689 6.59196C48.58 6.59196 49.0289 6.95096 49.3389 8.20796C49.6329 9.39796 49.909 10.593 50.195 11.794L51.947 12.516C52.977 11.854 54.029 11.162 55.097 10.495C55.2764 10.3342 55.4876 10.2128 55.7168 10.1388C55.9461 10.0648 56.1884 10.0396 56.4279 10.0651C56.6675 10.0905 56.8991 10.166 57.1077 10.2865C57.3163 10.4071 57.4973 10.5701 57.639 10.765C58.9776 12.061 60.3053 13.3683 61.622 14.687C61.827 14.8293 61.9994 15.0137 62.1278 15.2277C62.2562 15.4418 62.3376 15.6807 62.3667 15.9286C62.3959 16.1765 62.372 16.4277 62.2967 16.6657C62.2214 16.9037 62.0964 17.1229 61.93 17.309C61.2939 18.357 60.63 19.391 59.9869 20.427L60.7239 22.186C61.763 22.414 62.8239 22.652 63.8799 22.875C65.6549 23.248 65.9499 23.601 65.9799 25.421C65.9799 25.66 66.0019 25.9 66.0189 26.253H71.3549V24.968C71.3549 20.5013 71.3549 16.0346 71.3549 11.568C71.3549 8.20796 72.6649 6.89096 75.9939 6.88596C78.3139 6.88596 80.634 6.87829 82.954 6.86296C83.0234 6.85227 83.0909 6.83102 83.1539 6.79996C85.0159 2.45796 88.054 0.582956 91.943 1.37096C93.6114 1.72635 95.105 2.64922 96.1693 3.98233C97.2337 5.31544 97.8029 6.97633 97.78 8.68205C97.7571 10.3878 97.1436 12.0328 96.0439 13.3369C94.9442 14.641 93.4263 15.5234 91.749 15.834C88.735 16.386 84.763 15.2 83.159 10.343H74.8149V26.173H83.1859C83.4709 25.0798 83.9986 24.0648 84.7297 23.2035C85.4608 22.3422 86.3766 21.6567 87.409 21.198C88.9604 20.4918 90.7124 20.3604 92.352 20.827C93.6044 21.1784 94.7419 21.8544 95.6493 22.7866C96.5567 23.7188 97.2019 24.874 97.5195 26.1355C97.8372 27.397 97.816 28.72 97.4583 29.9707C97.1005 31.2215 96.4188 32.3555 95.4821 33.2582C94.5454 34.1609 93.3869 34.8003 92.1238 35.1116C90.8608 35.4229 89.5379 35.3951 88.289 35.0311C87.0401 34.6671 85.9094 33.9797 85.0114 33.0385C84.1134 32.0973 83.4799 30.9356 83.1749 29.671H74.8129V45.544H83.174C83.47 44.4179 84.0218 43.3753 84.7865 42.4974C85.5512 41.6194 86.5082 40.9297 87.583 40.482C89.1213 39.836 90.8353 39.7403 92.436 40.211C94.0661 40.6773 95.4855 41.6917 96.4546 43.0831C97.4236 44.4745 97.883 46.1576 97.7551 47.8483C97.6273 49.5391 96.9201 51.1339 95.7528 52.3638C94.5855 53.5936 93.0297 54.3831 91.348 54.599C87.765 55.15 84.738 53.109 83.148 49.006C80.728 49.006 78.2719 49.006 75.8149 49.006C72.7669 49.006 71.3579 47.606 71.3549 44.563C71.3496 40.0296 71.3496 35.494 71.3549 30.956V29.674H66.123C66.069 29.8621 66.0309 30.0545 66.009 30.249C65.944 32.049 65.6979 32.355 63.9739 32.749C62.9479 32.984 61.92 33.214 60.83 33.461L60.0729 35.228C60.7219 36.239 61.3919 37.266 62.0449 38.303C62.2228 38.4914 62.3576 38.7162 62.4402 38.9617C62.5228 39.2073 62.5511 39.4679 62.5233 39.7255C62.4954 39.9831 62.4121 40.2316 62.2789 40.4539C62.1457 40.6761 61.966 40.8669 61.7519 41.013C60.478 42.3243 59.1946 43.6263 57.902 44.919C57.7581 45.1228 57.5728 45.2939 57.3582 45.4212C57.1436 45.5484 56.9045 45.6288 56.6567 45.6571C56.4088 45.6854 56.1577 45.661 55.92 45.5855C55.6822 45.51 55.4631 45.3851 55.277 45.219C54.258 44.599 53.251 43.958 52.177 43.287L50.4099 44.017C50.1519 45.199 49.91 46.4 49.626 47.593C49.326 48.865 48.8509 49.255 47.5889 49.269C45.7249 49.285 43.8623 49.293 42.001 49.293C40.759 49.293 40.286 48.929 39.987 47.739C39.688 46.549 39.4169 45.351 39.1189 44.09M33.2969 41.959C34.2879 41.325 35.213 40.759 36.113 40.15C36.4248 39.9203 36.7966 39.7862 37.1833 39.7638C37.5699 39.7415 37.9547 39.8318 38.291 40.024C39.0368 40.4132 39.8159 40.7351 40.6189 40.986C41.0659 41.0875 41.4706 41.3244 41.7779 41.6645C42.0852 42.0045 42.28 42.4311 42.336 42.886C42.527 43.878 42.782 44.857 43.011 45.85H46.545C46.778 44.762 47.011 43.736 47.217 42.705C47.2735 42.3041 47.4454 41.9284 47.7118 41.6235C47.9781 41.3187 48.3273 41.0978 48.717 40.988C49.5461 40.7044 50.3538 40.3619 51.134 39.963C51.4833 39.7578 51.8845 39.6581 52.2892 39.6759C52.694 39.6936 53.0849 39.8281 53.415 40.063C54.315 40.656 55.2489 41.21 55.9899 41.671L58.651 39.271C57.9858 38.3501 57.3844 37.3848 56.8509 36.382C56.6118 35.7545 56.5727 35.0685 56.7389 34.418C56.9389 33.577 57.4629 32.818 57.7009 31.981C57.8026 31.5341 58.0396 31.1295 58.3796 30.8222C58.7196 30.5149 59.1461 30.32 59.6009 30.264C60.6149 30.064 61.6179 29.801 62.5729 29.578V26.064C61.5289 25.835 60.541 25.589 59.541 25.409C59.103 25.3638 58.6896 25.1852 58.3564 24.8975C58.0232 24.6097 57.7864 24.2266 57.678 23.8C57.4364 23.0303 57.1203 22.2861 56.734 21.578C56.4963 21.2073 56.3772 20.7729 56.3928 20.3329C56.4083 19.8928 56.5577 19.4679 56.8209 19.115C57.4109 18.249 57.936 17.339 58.4459 16.515L56.0009 13.936C55.0359 14.553 54.1089 15.116 53.2139 15.728C52.902 15.9576 52.5309 16.0931 52.1444 16.1184C51.7579 16.1438 51.3722 16.0579 51.0329 15.871C50.2474 15.4827 49.4361 15.1486 48.6049 14.871C48.1956 14.7689 47.8254 14.5483 47.5408 14.2369C47.2562 13.9254 47.0698 13.5369 47.0049 13.12C46.792 12.095 46.542 11.078 46.305 10.029H42.7689C42.5449 11.066 42.31 12.055 42.123 13.053C42.076 13.4907 41.8971 13.9039 41.6102 14.2378C41.3232 14.5717 40.9417 14.8106 40.516 14.923C39.7141 15.1787 38.9383 15.5099 38.1989 15.912C37.8376 16.1311 37.4188 16.2369 36.9967 16.2157C36.5746 16.1945 36.1685 16.0472 35.831 15.793C34.96 15.212 34.0559 14.68 33.2419 14.173L30.6869 16.673C31.2449 17.538 31.794 18.433 32.387 19.298C32.6446 19.6328 32.796 20.0373 32.8215 20.459C32.8469 20.8808 32.7454 21.3005 32.53 21.664C32.1489 22.4136 31.8328 23.1944 31.585 23.998C31.4824 24.4083 31.2608 24.7792 30.948 25.0639C30.6352 25.3486 30.2451 25.5344 29.8269 25.598C28.8019 25.807 27.787 26.062 26.75 26.298V29.835C27.831 30.066 28.857 30.296 29.887 30.502C30.2879 30.5588 30.6638 30.7307 30.9689 30.997C31.2741 31.2633 31.4954 31.6124 31.606 32.002C31.8902 32.8308 32.232 33.6388 32.6289 34.42C32.8342 34.7692 32.9348 35.1701 32.9186 35.5748C32.9025 35.9796 32.7704 36.3712 32.538 36.703C31.946 37.603 31.3899 38.535 30.8119 39.463L33.291 41.963M86.405 27.963C86.4044 28.4897 86.5085 29.0112 86.7113 29.4973C86.9141 29.9834 87.2115 30.4244 87.5862 30.7945C87.9609 31.1646 88.4054 31.4566 88.894 31.6534C89.3825 31.8502 89.9053 31.948 90.432 31.941C90.9572 31.9381 91.4768 31.8319 91.9611 31.6282C92.4453 31.4246 92.8846 31.1276 93.2541 30.7542C93.6235 30.3808 93.9158 29.9382 94.1142 29.4518C94.3126 28.9654 94.4133 28.4447 94.4105 27.9195C94.4076 27.3942 94.3014 26.8746 94.0977 26.3904C93.8941 25.9061 93.5971 25.4668 93.2237 25.0973C92.8502 24.7279 92.4077 24.4356 91.9213 24.2372C91.4349 24.0388 90.9142 23.9381 90.389 23.941C89.8625 23.9415 89.3414 24.0462 88.8557 24.2491C88.3699 24.452 87.9292 24.749 87.5588 25.1231C87.1884 25.4972 86.8958 25.9409 86.6977 26.4287C86.4997 26.9164 86.4002 27.4386 86.405 27.965M90.364 12.572C90.8905 12.5758 91.4126 12.4756 91.9004 12.2772C92.3881 12.0787 92.8319 11.786 93.2062 11.4156C93.5805 11.0453 93.878 10.6047 94.0817 10.1191C94.2853 9.63353 94.3911 9.11251 94.393 8.58596C94.3762 7.52304 93.9437 6.509 93.1881 5.76125C92.4325 5.0135 91.414 4.59158 90.351 4.58596C89.3063 4.60154 88.3091 5.02461 87.572 5.76494C86.8348 6.50526 86.4161 7.50428 86.405 8.54896C86.3929 9.07535 86.4866 9.59881 86.6804 10.0884C86.8742 10.5779 87.1643 11.0236 87.5334 11.3991C87.9026 11.7746 88.3433 12.0722 88.8295 12.2743C89.3156 12.4765 89.8374 12.579 90.364 12.576M90.364 43.321C89.8465 43.3177 89.3334 43.4164 88.8541 43.6115C88.3748 43.8066 87.9387 44.0943 87.5706 44.4581C87.2026 44.8219 86.9098 45.2546 86.7091 45.7316C86.5084 46.2086 86.4037 46.7205 86.4009 47.238C86.3838 48.3015 86.7894 49.3283 87.5287 50.0931C88.2679 50.8579 89.2805 51.298 90.344 51.317C91.4072 51.3106 92.4258 50.8886 93.1821 50.1411C93.9383 49.3937 94.3722 48.3801 94.391 47.317C94.3867 46.2529 93.9604 45.234 93.2055 44.484C92.4507 43.734 91.429 43.3143 90.365 43.317" fill="white"/>
<path d="M39.1159 44.093L37.348 43.376C36.297 44.054 35.231 44.733 34.176 45.426C33.8123 45.7159 33.3495 45.8517 32.8868 45.8044C32.4242 45.7571 31.9984 45.5304 31.7009 45.173C30.3276 43.8123 28.9523 42.4533 27.5749 41.096C27.2291 40.8138 27.0059 40.4087 26.952 39.9656C26.8981 39.5225 27.0178 39.0758 27.286 38.719C27.957 37.649 28.623 36.577 29.319 35.462L28.5739 33.693C27.3739 33.435 26.174 33.193 24.974 32.915C24.7252 32.9003 24.4824 32.8333 24.2614 32.7183C24.0404 32.6034 23.8461 32.443 23.6913 32.2478C23.5365 32.0526 23.4247 31.827 23.3631 31.5855C23.3015 31.3441 23.2916 31.0925 23.334 30.847C23.314 28.984 23.296 27.12 23.302 25.257C23.302 24.021 23.68 23.564 24.887 23.267C26.078 22.973 27.274 22.699 28.498 22.409L29.221 20.643C28.544 19.592 27.868 18.565 27.221 17.524C27.0567 17.3472 26.9317 17.1378 26.854 16.9093C26.7763 16.6809 26.7477 16.4387 26.7701 16.1984C26.7924 15.9582 26.8653 15.7254 26.9838 15.5153C27.1023 15.3051 27.2639 15.1224 27.458 14.979C28.7753 13.613 30.1086 12.261 31.458 10.923C31.6002 10.7289 31.7814 10.5668 31.9899 10.4469C32.1985 10.327 32.4297 10.2519 32.669 10.2266C32.9082 10.2013 33.1501 10.2262 33.3791 10.2998C33.6081 10.3734 33.8193 10.494 33.999 10.654C35.048 11.29 36.082 11.954 37.14 12.609L38.903 11.877C39.144 10.754 39.389 9.59496 39.642 8.43796C39.953 7.01796 40.43 6.63196 41.891 6.61996C43.684 6.60596 45.4769 6.58896 47.2689 6.59196C48.5799 6.59196 49.0289 6.95096 49.3389 8.20796C49.6329 9.39796 49.909 10.593 50.195 11.794L51.947 12.516C52.977 11.854 54.029 11.162 55.097 10.495C55.2764 10.3342 55.4876 10.2128 55.7168 10.1388C55.9461 10.0648 56.1884 10.0396 56.4279 10.0651C56.6675 10.0905 56.8991 10.166 57.1077 10.2865C57.3163 10.4071 57.4973 10.5701 57.639 10.765C58.9776 12.061 60.3053 13.3683 61.622 14.687C61.827 14.8293 61.9994 15.0137 62.1278 15.2277C62.2562 15.4418 62.3376 15.6807 62.3667 15.9286C62.3959 16.1765 62.372 16.4277 62.2967 16.6657C62.2214 16.9037 62.0964 17.1229 61.93 17.309C61.294 18.357 60.6299 19.391 59.9869 20.427L60.7239 22.186C61.7629 22.414 62.8239 22.652 63.8799 22.875C65.6549 23.248 65.9499 23.601 65.9799 25.421C65.9799 25.66 66.0019 25.9 66.0189 26.253H71.3549V24.968C71.3549 20.5013 71.3549 16.0346 71.3549 11.568C71.3549 8.20796 72.6649 6.89096 75.9939 6.88596C78.3139 6.88596 80.634 6.87829 82.954 6.86296C83.0234 6.85227 83.0909 6.83102 83.1539 6.79996C85.0159 2.45796 88.054 0.582956 91.943 1.37096C93.6114 1.72635 95.105 2.64922 96.1693 3.98233C97.2337 5.31544 97.8029 6.97633 97.78 8.68205C97.7571 10.3878 97.1436 12.0328 96.0439 13.3369C94.9442 14.641 93.4263 15.5234 91.749 15.834C88.735 16.386 84.763 15.2 83.159 10.343H74.8149V26.173H83.1859C83.4709 25.0798 83.9986 24.0648 84.7297 23.2035C85.4608 22.3422 86.3766 21.6567 87.409 21.198C88.9604 20.4919 90.7124 20.3604 92.352 20.827C93.6044 21.1784 94.7419 21.8544 95.6493 22.7866C96.5567 23.7188 97.2019 24.874 97.5195 26.1355C97.8372 27.397 97.816 28.72 97.4583 29.9707C97.1005 31.2215 96.4188 32.3555 95.4821 33.2582C94.5454 34.1609 93.3869 34.8003 92.1238 35.1116C90.8608 35.4229 89.5379 35.3951 88.289 35.0311C87.0401 34.6671 85.9094 33.9797 85.0114 33.0385C84.1134 32.0973 83.4799 30.9356 83.1749 29.671H74.8129V45.544H83.174C83.47 44.4179 84.0218 43.3753 84.7865 42.4974C85.5512 41.6194 86.5082 40.9297 87.583 40.482C89.1213 39.836 90.8353 39.7403 92.436 40.211C94.0661 40.6773 95.4855 41.6917 96.4546 43.0831C97.4236 44.4745 97.883 46.1576 97.7551 47.8483C97.6273 49.5391 96.9201 51.1339 95.7528 52.3638C94.5855 53.5936 93.0297 54.3831 91.348 54.599C87.765 55.15 84.738 53.109 83.148 49.006C80.728 49.006 78.2719 49.006 75.8149 49.006C72.7669 49.006 71.3579 47.606 71.3549 44.563C71.3496 40.0296 71.3496 35.494 71.3549 30.956V29.674H66.123C66.069 29.8621 66.0309 30.0545 66.009 30.249C65.944 32.049 65.6979 32.355 63.9739 32.749C62.9479 32.984 61.92 33.214 60.83 33.461L60.0729 35.228C60.7219 36.239 61.3919 37.266 62.0449 38.303C62.2228 38.4914 62.3576 38.7162 62.4402 38.9617C62.5228 39.2073 62.5511 39.4679 62.5233 39.7255C62.4954 39.9831 62.4121 40.2316 62.2789 40.4539C62.1457 40.6761 61.9659 40.8669 61.7519 41.013C60.4779 42.3243 59.1946 43.6263 57.902 44.919C57.7581 45.1228 57.5728 45.294 57.3582 45.4212C57.1436 45.5484 56.9045 45.6288 56.6567 45.6571C56.4088 45.6854 56.1577 45.661 55.92 45.5855C55.6822 45.51 55.4631 45.3851 55.277 45.219C54.258 44.599 53.251 43.958 52.177 43.287L50.4099 44.017C50.1519 45.199 49.91 46.4 49.626 47.593C49.326 48.865 48.8509 49.255 47.5889 49.269C45.7249 49.285 43.8623 49.293 42.001 49.293C40.759 49.293 40.286 48.929 39.987 47.739C39.688 46.549 39.4169 45.351 39.1189 44.09M33.2969 41.959C34.2879 41.325 35.213 40.759 36.113 40.15C36.4248 39.9203 36.7966 39.7862 37.1833 39.7638C37.5699 39.7415 37.9547 39.8318 38.291 40.024C39.0368 40.4132 39.8159 40.7351 40.6189 40.986C41.0659 41.0875 41.4706 41.3244 41.7779 41.6645C42.0852 42.0045 42.28 42.4311 42.336 42.886C42.527 43.878 42.782 44.857 43.011 45.85H46.545C46.778 44.762 47.011 43.736 47.217 42.705C47.2735 42.3041 47.4454 41.9284 47.7118 41.6235C47.9781 41.3187 48.3273 41.0978 48.717 40.988C49.5461 40.7044 50.3538 40.3619 51.134 39.963C51.4833 39.7578 51.8845 39.6581 52.2892 39.6759C52.6939 39.6936 53.0849 39.8281 53.415 40.063C54.315 40.656 55.2489 41.21 55.9899 41.671L58.651 39.271C57.9858 38.3501 57.3844 37.3848 56.8509 36.382C56.6118 35.7545 56.5727 35.0685 56.7389 34.418C56.9389 33.577 57.4629 32.818 57.7009 31.981C57.8026 31.5341 58.0396 31.1295 58.3796 30.8222C58.7196 30.5149 59.1461 30.32 59.6009 30.264C60.6149 30.064 61.6179 29.801 62.5729 29.578V26.064C61.5289 25.835 60.541 25.589 59.541 25.409C59.103 25.3638 58.6896 25.1852 58.3564 24.8975C58.0232 24.6097 57.7864 24.2266 57.678 23.8C57.4364 23.0303 57.1203 22.2861 56.734 21.578C56.4963 21.2073 56.3772 20.7729 56.3928 20.3329C56.4083 19.8928 56.5577 19.4679 56.8209 19.115C57.4109 18.249 57.9359 17.339 58.4459 16.515L56.0009 13.936C55.0359 14.553 54.1089 15.116 53.2139 15.728C52.902 15.9576 52.5309 16.0931 52.1444 16.1184C51.7579 16.1438 51.3722 16.0579 51.0329 15.871C50.2474 15.4827 49.4361 15.1486 48.6049 14.871C48.1956 14.7689 47.8254 14.5483 47.5408 14.2369C47.2562 13.9254 47.0698 13.5369 47.0049 13.12C46.7919 12.095 46.542 11.078 46.305 10.029H42.7689C42.5449 11.066 42.31 12.055 42.123 13.053C42.076 13.4907 41.8971 13.9039 41.6102 14.2378C41.3232 14.5717 40.9417 14.8106 40.516 14.923C39.7141 15.1787 38.9383 15.5099 38.1989 15.912C37.8376 16.1311 37.4188 16.2369 36.9967 16.2157C36.5746 16.1945 36.1685 16.0472 35.831 15.793C34.96 15.212 34.0559 14.68 33.2419 14.173L30.6869 16.673C31.2449 17.538 31.794 18.433 32.387 19.298C32.6446 19.6328 32.796 20.0373 32.8215 20.459C32.8469 20.8808 32.7454 21.3005 32.53 21.664C32.1489 22.4136 31.8328 23.1944 31.585 23.998C31.4824 24.4083 31.2608 24.7792 30.948 25.0639C30.6352 25.3486 30.2451 25.5344 29.8269 25.598C28.8019 25.807 27.787 26.062 26.75 26.298V29.835C27.831 30.066 28.857 30.296 29.887 30.502C30.2879 30.5588 30.6638 30.7307 30.9689 30.997C31.2741 31.2633 31.4954 31.6124 31.606 32.002C31.8902 32.8308 32.232 33.6388 32.6289 34.42C32.8342 34.7692 32.9348 35.1701 32.9186 35.5748C32.9025 35.9796 32.7704 36.3712 32.538 36.703C31.946 37.603 31.3899 38.535 30.8119 39.463L33.291 41.963M86.405 27.963C86.4044 28.4897 86.5085 29.0112 86.7113 29.4973C86.9141 29.9834 87.2115 30.4244 87.5862 30.7945C87.9609 31.1646 88.4054 31.4566 88.894 31.6534C89.3825 31.8502 89.9053 31.948 90.432 31.941C90.9572 31.9381 91.4768 31.8319 91.9611 31.6282C92.4453 31.4246 92.8846 31.1276 93.2541 30.7542C93.6235 30.3808 93.9158 29.9382 94.1142 29.4518C94.3126 28.9654 94.4133 28.4447 94.4105 27.9195C94.4076 27.3942 94.3014 26.8746 94.0977 26.3904C93.8941 25.9061 93.5971 25.4668 93.2237 25.0973C92.8502 24.7279 92.4077 24.4356 91.9213 24.2372C91.4349 24.0388 90.9142 23.9381 90.389 23.941C89.8625 23.9415 89.3414 24.0462 88.8557 24.2491C88.3699 24.452 87.9292 24.749 87.5588 25.1231C87.1884 25.4972 86.8958 25.9409 86.6977 26.4287C86.4997 26.9164 86.4002 27.4386 86.405 27.965M90.364 12.572C90.8905 12.5758 91.4126 12.4756 91.9004 12.2772C92.3881 12.0787 92.8319 11.786 93.2062 11.4156C93.5805 11.0453 93.878 10.6047 94.0817 10.1191C94.2853 9.63353 94.3911 9.11251 94.393 8.58596C94.3762 7.52304 93.9437 6.509 93.1881 5.76125C92.4325 5.0135 91.414 4.59158 90.351 4.58596C89.3063 4.60154 88.3091 5.02461 87.572 5.76494C86.8348 6.50526 86.4161 7.50428 86.405 8.54896C86.3929 9.07535 86.4866 9.59881 86.6804 10.0884C86.8742 10.5779 87.1643 11.0236 87.5334 11.3991C87.9026 11.7746 88.3433 12.0722 88.8295 12.2743C89.3156 12.4765 89.8374 12.579 90.364 12.576M90.364 43.321C89.8465 43.3177 89.3334 43.4164 88.8541 43.6115C88.3748 43.8066 87.9387 44.0943 87.5706 44.4581C87.2026 44.8219 86.9098 45.2546 86.7091 45.7316C86.5084 46.2086 86.4037 46.7205 86.4009 47.238C86.3838 48.3015 86.7894 49.3283 87.5287 50.0931C88.2679 50.8579 89.2805 51.298 90.344 51.317C91.4072 51.3106 92.4258 50.8886 93.1821 50.1411C93.9383 49.3937 94.3722 48.3801 94.391 47.317C94.3867 46.2529 93.9604 45.234 93.2055 44.484C92.4507 43.734 91.429 43.3143 90.365 43.317" stroke="#52B3E2"/>
<path d="M16.8419 61.4749C17.0694 61.4705 17.2954 61.513 17.5057 61.5998C17.7161 61.6865 17.9063 61.8157 18.0645 61.9793C18.2227 62.1428 18.3455 62.3372 18.4252 62.5503C18.505 62.7634 18.5399 62.9907 18.5279 63.2179C18.5414 63.4454 18.509 63.6732 18.4327 63.8879C18.3564 64.1026 18.2377 64.2997 18.0837 64.4677C17.9297 64.6356 17.7435 64.7708 17.5362 64.8653C17.3289 64.9599 17.1047 65.0118 16.8769 65.0179C16.4176 65.0057 15.9814 64.8143 15.6613 64.4847C15.3412 64.1551 15.1627 63.7134 15.1639 63.2539C15.155 63.0264 15.1915 62.7993 15.2715 62.5861C15.3515 62.3729 15.4733 62.1778 15.6297 62.0123C15.7861 61.8468 15.9739 61.7141 16.1823 61.6222C16.3906 61.5303 16.6152 61.4809 16.8429 61.4769" fill="white"/>
<path d="M16.8419 61.4749C17.0694 61.4705 17.2954 61.513 17.5057 61.5998C17.7161 61.6865 17.9063 61.8157 18.0645 61.9793C18.2227 62.1428 18.3455 62.3372 18.4252 62.5503C18.505 62.7634 18.5399 62.9907 18.5279 63.2179C18.5414 63.4454 18.509 63.6732 18.4327 63.8879C18.3564 64.1026 18.2377 64.2997 18.0837 64.4677C17.9297 64.6356 17.7435 64.7708 17.5362 64.8653C17.3289 64.9599 17.1047 65.0118 16.8769 65.0179C16.4176 65.0057 15.9814 64.8143 15.6613 64.4847C15.3412 64.1551 15.1627 63.7134 15.1639 63.2539C15.155 63.0264 15.1915 62.7993 15.2715 62.5861C15.3515 62.3729 15.4733 62.1778 15.6297 62.0123C15.7861 61.8468 15.9739 61.7141 16.1823 61.6222C16.3906 61.5303 16.6152 61.4809 16.8429 61.4769" stroke="#52B3E2"/>
<path d="M54.4881 28.082C54.4605 30.0279 53.8567 31.922 52.7531 33.525C51.6496 35.128 50.0956 36.368 48.2877 37.0882C46.4797 37.8085 44.4988 37.9768 42.5953 37.5718C40.6917 37.1667 38.951 36.2067 37.5928 34.8128C36.2347 33.4189 35.3201 31.6537 34.9647 29.7403C34.6092 27.8269 34.8289 25.8511 35.5958 24.0624C36.3628 22.2738 37.6427 20.7526 39.2738 19.691C40.9049 18.6294 42.8141 18.075 44.7601 18.098C47.3719 18.1388 49.8612 19.2119 51.6841 21.0828C53.507 22.9536 54.5151 25.47 54.4881 28.082ZM44.7711 21.473C43.4928 21.4478 42.2356 21.8016 41.1581 22.4898C40.0806 23.1781 39.2309 24.1699 38.7162 25.3403C38.2016 26.5107 38.0449 27.8073 38.2661 29.0666C38.4872 30.3259 39.0762 31.4915 39.9588 32.4165C40.8414 33.3416 41.9782 33.9846 43.2257 34.2646C44.4732 34.5445 45.7757 34.4489 46.969 33.9897C48.1622 33.5305 49.1928 32.7283 49.9309 31.6843C50.6689 30.6402 51.0813 29.4011 51.1161 28.123C51.1508 26.4014 50.5031 24.7359 49.3144 23.49C48.1257 22.2442 46.4924 21.5191 44.7711 21.473Z" fill="white"/>
<path d="M54.4881 28.082C54.4605 30.0279 53.8567 31.922 52.7531 33.525C51.6496 35.128 50.0956 36.368 48.2877 37.0882C46.4797 37.8085 44.4988 37.9768 42.5953 37.5718C40.6917 37.1668 38.951 36.2067 37.5928 34.8128C36.2347 33.4189 35.3201 31.6537 34.9647 29.7403C34.6092 27.8269 34.8289 25.8511 35.5958 24.0624C36.3628 22.2738 37.6427 20.7526 39.2738 19.691C40.9049 18.6294 42.8141 18.075 44.7601 18.098C47.3719 18.1388 49.8612 19.2119 51.6841 21.0828C53.507 22.9536 54.5151 25.47 54.4881 28.082M44.7711 21.473C43.4928 21.4478 42.2356 21.8016 41.1581 22.4898C40.0806 23.1781 39.2309 24.1699 38.7162 25.3403C38.2016 26.5107 38.0449 27.8073 38.2661 29.0666C38.4872 30.3259 39.0762 31.4915 39.9588 32.4165C40.8414 33.3416 41.9782 33.9846 43.2257 34.2646C44.4732 34.5445 45.7757 34.4489 46.969 33.9897C48.1622 33.5305 49.1928 32.7283 49.9309 31.6843C50.6689 30.6402 51.0813 29.4011 51.1161 28.123C51.1508 26.4014 50.5031 24.7359 49.3144 23.49C48.1257 22.2442 46.4924 21.5191 44.7711 21.473Z" stroke="#52B3E2"/>
</svg>
