<svg width="110" height="110" viewBox="0 0 110 110" fill="none" xmlns="http://www.w3.org/2000/svg">
<path d="M95.0301 15.197V85.038C98.896 88.886 102.802 92.764 106.696 96.655C107.709 97.5627 108.432 98.7484 108.776 100.064C109.119 101.38 109.068 102.768 108.628 104.055C108.272 105.177 107.641 106.193 106.792 107.009C105.943 107.825 104.903 108.416 103.767 108.727C102.631 109.038 101.436 109.061 100.289 108.792C99.143 108.523 98.0819 107.972 97.203 107.188C96.5542 106.549 95.9476 105.869 95.3871 105.151C94.9041 105.945 94.674 106.722 94.1571 107.062C93.5297 107.355 92.8351 107.474 92.146 107.406C66.0567 107.421 39.9674 107.425 13.8781 107.417C8.03405 107.417 3.33905 104.151 1.62805 98.839C1.29038 97.7101 1.08369 96.5461 1.01205 95.37C0.89905 93.941 1.61705 93.242 3.04805 93.235C6.04105 93.219 9.03405 93.23 12.0281 93.23H13.397V91.787C13.397 64.633 13.397 37.4786 13.397 10.324C13.397 5.93696 15.8211 2.51396 19.7761 1.38796C20.6641 1.13961 21.5819 1.01411 22.5041 1.01496C46.5974 0.994961 70.691 0.991962 94.785 1.00596C97.906 0.947505 100.934 2.0673 103.266 4.14214C105.598 6.21697 107.063 9.09444 107.368 12.201C107.637 14.482 107.02 15.188 104.754 15.189H95.0291M16.9451 93.234H76.2631C76.6324 93.2202 77.0022 93.2255 77.371 93.25C77.7872 93.248 78.1882 93.4061 78.4912 93.6914C78.7942 93.9767 78.976 94.3674 78.9991 94.783C79.1301 97.36 80.6111 99.089 82.4991 100.546C85.0438 102.565 88.1593 103.731 91.4041 103.88V101.332C87.9411 97.9 84.3921 94.396 80.8591 90.875C80.6109 90.7054 80.4077 90.4781 80.267 90.2126C80.1262 89.9471 80.0521 89.6514 80.051 89.3509C80.0499 89.0503 80.1219 88.7541 80.2608 88.4876C80.3996 88.2211 80.6012 87.9923 80.8481 87.821C81.5781 87.094 82.3641 86.421 83.0271 85.821L75.0891 77.897C69.8103 82.4539 62.9509 84.7516 55.9924 84.294C49.0338 83.8363 42.5345 80.66 37.8981 75.451H27.6631V71.917H35.1931L33.278 68.344H27.6781V64.787H32.0781L31.3511 61.273H27.6711V57.733H31.0871C31.1801 56.539 31.2681 55.424 31.3651 54.185H27.6771V50.611H32.112L33.312 47.091H27.6631V43.585H35.2031L37.903 39.951H27.6551V36.497H41.7951C46.3166 33.0948 51.8073 31.227 57.4656 31.1662C63.1238 31.1054 68.6534 32.8548 73.247 36.159C73.6202 36.3781 74.0488 36.4843 74.481 36.465C78.5461 36.487 82.6121 36.478 86.6811 36.478H87.8211V40.067H77.6691L80.3241 43.615H87.8241V47.168H82.204C82.622 48.375 83.0041 49.48 83.4181 50.674H87.841V54.247H84.1171C84.2281 55.484 84.329 56.606 84.4361 57.799H87.8361V61.337H84.122L83.409 64.902H87.842V68.402H82.163L80.289 71.997H87.8211V75.552H78.3051L85.7391 83.046C86.0521 82.692 86.384 82.296 86.7391 81.92C87.119 81.52 87.509 81.12 87.913 80.743C88.0791 80.5428 88.2857 80.3801 88.5192 80.2655C88.7527 80.1509 89.0078 80.087 89.2677 80.078C89.5277 80.069 89.7866 80.1152 90.0274 80.2134C90.2682 80.3116 90.4855 80.4597 90.6651 80.648C90.8771 80.826 91.079 81.015 91.385 81.288V4.55096H23.146C18.983 4.55096 16.946 6.58096 16.946 10.727C16.946 37.773 16.946 64.819 16.946 91.865L16.9451 93.234ZM34.6901 57.863C34.7099 62.405 36.0705 66.84 38.6014 70.6116C41.1323 74.3833 44.7206 77.3235 48.9162 79.0634C53.1118 80.8033 57.7278 81.2655 62.1851 80.3919C66.6423 79.5183 70.7424 77.3479 73.9707 74.1529C77.1991 70.9579 79.4121 66.8806 80.332 62.4327C81.2518 57.9847 80.8377 53.3642 79.1415 49.1507C77.4452 44.9373 74.5425 41.3186 70.7974 38.7486C67.0523 36.1787 62.6316 34.772 58.09 34.705C55.0261 34.6639 51.9847 35.2331 49.143 36.3794C46.3013 37.5257 43.7162 39.226 41.5382 41.3814C39.3603 43.5369 37.6331 46.1042 36.4574 48.9338C35.2817 51.7635 34.6809 54.7988 34.6901 57.863ZM75.6981 96.85H4.79805C5.2049 98.8874 6.32407 100.713 7.95497 102C9.58587 103.288 11.6219 103.952 13.6981 103.874C35.6894 103.881 57.6804 103.881 79.6711 103.874H80.9631C78.4432 102.217 76.5816 99.7312 75.7001 96.847M84.4 89.405C89.434 94.439 94.4351 99.456 99.4611 104.449C99.8758 104.878 100.4 105.185 100.977 105.338C101.554 105.49 102.161 105.482 102.734 105.314C103.365 105.16 103.942 104.834 104.4 104.374C104.859 103.914 105.182 103.337 105.335 102.705C105.487 102.073 105.463 101.412 105.265 100.793C105.066 100.174 104.701 99.6222 104.21 99.197C99.4227 94.3816 94.6227 89.5793 89.8101 84.79C89.6661 84.646 89.498 84.525 89.384 84.429L84.4031 89.405M95.0611 11.579H103.611C102.927 7.56796 98.8221 4.25296 95.0611 4.66196V11.579Z" fill="white"/>
<path d="M95.0301 15.197V85.038C98.8961 88.886 102.802 92.764 106.696 96.655C107.709 97.5627 108.432 98.7484 108.776 100.064C109.119 101.38 109.068 102.768 108.628 104.055C108.272 105.177 107.641 106.193 106.792 107.009C105.943 107.825 104.903 108.416 103.767 108.727C102.631 109.038 101.436 109.061 100.289 108.792C99.143 108.523 98.0819 107.972 97.203 107.188C96.5542 106.549 95.9476 105.869 95.3871 105.151C94.9041 105.945 94.6741 106.722 94.1571 107.062C93.5297 107.355 92.8351 107.474 92.146 107.406C66.0567 107.421 39.9674 107.425 13.8781 107.417C8.03405 107.417 3.33905 104.151 1.62805 98.839C1.29038 97.7101 1.08369 96.5461 1.01205 95.37C0.89905 93.941 1.61705 93.242 3.04805 93.235C6.04105 93.219 9.03405 93.23 12.0281 93.23H13.397V91.787C13.397 64.633 13.397 37.4786 13.397 10.324C13.397 5.93696 15.8211 2.51396 19.7761 1.38796C20.6641 1.13961 21.5819 1.01411 22.5041 1.01496C46.5974 0.994961 70.691 0.991962 94.785 1.00596C97.906 0.947505 100.934 2.0673 103.266 4.14214C105.598 6.21697 107.063 9.09444 107.368 12.201C107.637 14.482 107.02 15.188 104.754 15.189H95.0291M34.6901 57.863C34.7098 62.405 36.0705 66.84 38.6014 70.6116C41.1323 74.3833 44.7206 77.3235 48.9162 79.0634C53.1118 80.8033 57.7278 81.2655 62.1851 80.3919C66.6423 79.5183 70.7424 77.3479 73.9707 74.1529C77.1991 70.9579 79.4121 66.8806 80.332 62.4327C81.2518 57.9847 80.8377 53.3642 79.1415 49.1507C77.4452 44.9373 74.5425 41.3186 70.7974 38.7486C67.0523 36.1787 62.6316 34.772 58.09 34.705C55.0261 34.6639 51.9847 35.2331 49.143 36.3794C46.3013 37.5257 43.7162 39.226 41.5382 41.3814C39.3603 43.5369 37.6331 46.1042 36.4574 48.9338C35.2817 51.7635 34.6809 54.7988 34.6901 57.863M75.6981 96.85H4.79805C5.2049 98.8874 6.32407 100.713 7.95497 102C9.58587 103.288 11.6219 103.952 13.6981 103.874C35.6894 103.881 57.6804 103.881 79.6711 103.874H80.9631C78.4432 102.217 76.5816 99.7312 75.7001 96.847M84.4 89.405C89.434 94.439 94.4351 99.456 99.4611 104.449C99.8758 104.878 100.4 105.185 100.977 105.338C101.554 105.49 102.161 105.482 102.734 105.314C103.365 105.16 103.942 104.834 104.4 104.374C104.859 103.914 105.182 103.337 105.335 102.705C105.487 102.073 105.463 101.412 105.265 100.793C105.066 100.174 104.701 99.6222 104.21 99.197C99.4227 94.3816 94.6227 89.5793 89.8101 84.79C89.6661 84.646 89.498 84.525 89.384 84.429L84.4031 89.405M16.9451 93.234H76.2631C76.6324 93.2202 77.0022 93.2255 77.371 93.25C77.7872 93.248 78.1882 93.4061 78.4912 93.6914C78.7942 93.9767 78.976 94.3674 78.9991 94.783C79.1301 97.36 80.6111 99.089 82.4991 100.546C85.0438 102.565 88.1593 103.731 91.4041 103.88V101.332C87.9411 97.9 84.3921 94.396 80.8591 90.875C80.6109 90.7054 80.4077 90.4781 80.267 90.2126C80.1262 89.9471 80.0521 89.6514 80.051 89.3509C80.0499 89.0503 80.1219 88.7541 80.2608 88.4876C80.3996 88.2211 80.6012 87.9923 80.8481 87.821C81.5781 87.094 82.3641 86.421 83.0271 85.821L75.0891 77.897C69.8103 82.4539 62.9509 84.7516 55.9924 84.294C49.0338 83.8363 42.5345 80.66 37.8981 75.451H27.6631V71.917H35.1931L33.278 68.344H27.6781V64.787H32.0781L31.3511 61.273H27.6711V57.733H31.0871C31.1801 56.539 31.2681 55.424 31.3651 54.185H27.6771V50.611H32.112L33.312 47.091H27.6631V43.585H35.2031L37.903 39.951H27.6551V36.497H41.7951C46.3166 33.0948 51.8073 31.227 57.4656 31.1662C63.1238 31.1054 68.6534 32.8548 73.247 36.159C73.6202 36.3781 74.0488 36.4843 74.481 36.465C78.546 36.487 82.6121 36.478 86.6811 36.478H87.8211V40.067H77.6691L80.3241 43.615H87.8241V47.168H82.204C82.622 48.375 83.0041 49.48 83.4181 50.674H87.841V54.247H84.1171C84.2281 55.484 84.3291 56.606 84.4361 57.799H87.8361V61.337H84.122L83.409 64.902H87.842V68.402H82.163L80.289 71.997H87.8211V75.552H78.3051L85.7391 83.046C86.0521 82.692 86.3841 82.296 86.7391 81.92C87.1191 81.52 87.509 81.12 87.913 80.743C88.0791 80.5428 88.2857 80.3801 88.5192 80.2655C88.7527 80.1509 89.0078 80.087 89.2677 80.078C89.5277 80.069 89.7866 80.1152 90.0274 80.2134C90.2682 80.3116 90.4856 80.4597 90.6651 80.648C90.8771 80.826 91.079 81.015 91.385 81.288V4.55096H23.146C18.983 4.55096 16.946 6.58096 16.946 10.727C16.946 37.773 16.946 64.819 16.946 91.865L16.9451 93.234ZM95.0611 11.579H103.611C102.927 7.56796 98.8221 4.25296 95.0611 4.66196V11.579Z" stroke="#52B3E2"/>
<path d="M54.2011 8.09798C61.0751 8.09798 67.9494 8.09798 74.8241 8.09798C76.7101 8.09798 77.2621 8.64998 77.2641 10.536C77.2641 13.714 77.2641 16.8917 77.2641 20.069C77.2641 21.658 76.6371 22.284 75.0461 22.284C61.1501 22.2887 47.2538 22.2887 33.3571 22.284C31.7671 22.284 31.1471 21.659 31.1431 20.067C31.1344 16.8157 31.1344 13.564 31.1431 10.312C31.1431 8.71998 31.7651 8.10098 33.3591 8.09898C40.3071 8.09298 47.2551 8.09298 54.2031 8.09898M34.7361 18.661H73.6641V11.705H34.7361V18.661Z" fill="white"/>
<path d="M54.2011 8.09798C61.0751 8.09798 67.9494 8.09798 74.8241 8.09798C76.7101 8.09798 77.2621 8.64998 77.2641 10.536C77.2641 13.714 77.2641 16.8917 77.2641 20.069C77.2641 21.658 76.6371 22.284 75.0461 22.284C61.1501 22.2887 47.2538 22.2887 33.3571 22.284C31.7671 22.284 31.1471 21.659 31.1431 20.067C31.1344 16.8157 31.1344 13.564 31.1431 10.312C31.1431 8.71998 31.7651 8.10098 33.3591 8.09898C40.3071 8.09298 47.2551 8.09298 54.2031 8.09898M34.7361 18.661H73.6641V11.705H34.7361V18.661Z" stroke="#52B3E2"/>
<path d="M23.96 36.567H20.515V39.952H23.96V36.567Z" fill="white" stroke="#52B3E2"/>
<path d="M23.973 43.649H20.541V47.06H23.973V43.649Z" fill="white" stroke="#52B3E2"/>
<path d="M23.96 50.757H20.515V54.142H23.96V50.757Z" fill="white" stroke="#52B3E2"/>
<path d="M23.9601 57.813H20.5551V61.237H23.9601V57.813Z" fill="white" stroke="#52B3E2"/>
<path d="M23.9831 64.924H20.5331V68.314H23.9831V64.924Z" fill="white" stroke="#52B3E2"/>
<path d="M23.9661 72.0339H20.5481V75.4319H23.9661V72.0339Z" fill="white" stroke="#52B3E2"/>
<path d="M71.2101 52.1489C71.6451 52.2769 71.9621 52.3679 72.2761 52.4629C72.6976 52.551 73.0739 52.7867 73.3371 53.1275C73.6004 53.4683 73.7333 53.8918 73.7121 54.3219C73.7174 56.6119 73.7174 58.9023 73.7121 61.1929C73.7336 61.623 73.6012 62.0466 73.3385 62.3879C73.0759 62.7291 72.7003 62.9656 72.2791 63.0549C71.9651 63.1549 71.6481 63.2349 71.2541 63.3469C71.4541 63.7179 71.6251 64.0289 71.7881 64.3469C72.0065 64.696 72.0961 65.1104 72.0413 65.5186C71.9865 65.9267 71.7908 66.3028 71.4881 66.5819C69.8781 68.2109 68.2541 69.8269 66.6351 71.4469C65.5271 72.5549 64.4791 71.9469 63.3711 71.2409C63.2541 71.6049 63.1461 71.9019 63.0641 72.2069C62.9785 72.6669 62.724 73.0782 62.3506 73.36C61.9772 73.6418 61.5119 73.7738 61.0461 73.7299C58.9771 73.7179 56.9071 73.7299 54.8381 73.7299C53.1711 73.7299 52.8381 73.4699 52.3451 71.8359C52.2931 71.6619 52.2111 71.4969 52.1271 71.2909C51.8051 71.4609 51.5111 71.6099 51.2271 71.7679C50.8695 72.0081 50.4373 72.1112 50.0098 72.0583C49.5824 72.0054 49.1883 71.8 48.9001 71.4799C47.2741 69.8659 45.6534 68.2469 44.0381 66.6229C42.9191 65.5019 43.6161 64.4609 44.2681 63.3599C43.8581 63.2439 43.5061 63.1599 43.1621 63.0449C42.7611 62.9516 42.4049 62.7218 42.1545 62.395C41.904 62.0681 41.7749 61.6645 41.7891 61.2529C41.7798 58.9256 41.7798 56.5983 41.7891 54.2709C41.7756 53.8593 41.9062 53.4559 42.1583 53.1302C42.4104 52.8045 42.7682 52.577 43.1701 52.4869C43.5131 52.3779 43.8621 52.2929 44.2621 52.1869C44.0551 51.8119 43.8971 51.5229 43.7371 51.2349C43.4978 50.8769 43.3963 50.4443 43.4515 50.0172C43.5067 49.5901 43.7147 49.1974 44.0371 48.9119C45.6531 47.2893 47.2734 45.6699 48.8981 44.0539C49.1857 43.7333 49.5798 43.5279 50.0073 43.4756C50.4348 43.4234 50.8668 43.528 51.2231 43.7699C51.5091 43.9299 51.8031 44.0769 52.1551 44.2629C52.2551 43.8989 52.3491 43.5839 52.4411 43.2689C52.5323 42.8293 52.7808 42.438 53.14 42.1686C53.4993 41.8992 53.9445 41.7703 54.3921 41.8059C56.5351 41.8139 58.6781 41.8059 60.8211 41.8059C62.2661 41.8059 62.7071 42.1549 63.1031 43.5389C63.1631 43.7499 63.2401 43.9559 63.3371 44.2479C63.6561 44.0829 63.9371 43.9479 64.2091 43.7949C64.5765 43.5358 65.0267 43.4216 65.4732 43.4742C65.9197 43.5268 66.331 43.7425 66.6281 44.0799C68.2281 45.6709 69.8121 47.2709 71.4111 48.8589C72.5231 49.9589 71.9671 51.0059 71.2061 52.1589M55.6561 45.4029C54.1861 49.3179 54.1861 49.3179 50.6161 47.6129L47.5791 50.6829C47.8871 51.7609 49.2791 52.5829 48.6681 54.0269C48.0571 55.4709 46.4391 55.0709 45.3681 55.7019V59.8869C49.3011 61.1279 49.3011 61.1279 47.6271 64.8319L50.6861 67.9239C51.7501 67.6159 52.5721 66.2239 54.0181 66.8529C55.4641 67.4819 55.0261 69.1009 55.6631 70.1359H59.8221C60.4361 69.0119 60.0341 67.4619 61.4651 66.8419C62.9401 66.2019 63.7791 67.6839 64.9431 67.9619L67.9351 64.9969C67.6221 63.7969 66.1561 62.9599 66.8141 61.4759C67.4491 60.0429 69.0901 60.5179 70.0881 59.8449V55.6739C68.9551 55.0739 67.4061 55.4559 66.7971 54.0209C66.1721 52.5489 67.6691 51.7209 67.9041 50.6559L64.9161 47.5819C61.2771 49.3459 61.2771 49.3459 59.8101 45.4049L55.6561 45.4029Z" fill="white"/>
<path d="M71.2101 52.1489C71.6451 52.2769 71.9621 52.3679 72.2761 52.4629C72.6976 52.551 73.0739 52.7867 73.3371 53.1275C73.6004 53.4683 73.7333 53.8918 73.7121 54.3219C73.7174 56.6119 73.7174 58.9023 73.7121 61.1929C73.7336 61.623 73.6012 62.0466 73.3385 62.3879C73.0759 62.7291 72.7003 62.9656 72.2791 63.0549C71.9651 63.1549 71.6481 63.2349 71.2541 63.3469C71.4541 63.7179 71.6251 64.0289 71.7881 64.3469C72.0065 64.696 72.0961 65.1104 72.0413 65.5186C71.9865 65.9267 71.7908 66.3028 71.4881 66.5819C69.8781 68.2109 68.2541 69.8269 66.6351 71.4469C65.5271 72.5549 64.4791 71.9469 63.3711 71.2409C63.2541 71.6049 63.1461 71.9019 63.0641 72.2069C62.9785 72.6669 62.724 73.0782 62.3506 73.36C61.9772 73.6418 61.5119 73.7738 61.0461 73.7299C58.9771 73.7179 56.9071 73.7299 54.8381 73.7299C53.1711 73.7299 52.8381 73.4699 52.3451 71.8359C52.2931 71.6619 52.2111 71.4969 52.1271 71.2909C51.8051 71.4609 51.5111 71.6099 51.2271 71.7679C50.8695 72.0081 50.4373 72.1112 50.0098 72.0583C49.5824 72.0054 49.1883 71.8 48.9001 71.4799C47.2741 69.8659 45.6534 68.2469 44.0381 66.6229C42.9191 65.5019 43.6161 64.4609 44.2681 63.3599C43.8581 63.2439 43.5061 63.1599 43.1621 63.0449C42.7611 62.9516 42.4049 62.7218 42.1545 62.395C41.904 62.0681 41.7749 61.6645 41.7891 61.2529C41.7798 58.9256 41.7798 56.5983 41.7891 54.2709C41.7756 53.8593 41.9062 53.4559 42.1583 53.1302C42.4104 52.8045 42.7682 52.577 43.1701 52.4869C43.5131 52.3779 43.8621 52.2929 44.2621 52.1869C44.0551 51.8119 43.8971 51.5229 43.7371 51.2349C43.4978 50.8769 43.3963 50.4443 43.4515 50.0172C43.5067 49.5901 43.7147 49.1974 44.0371 48.9119C45.6531 47.2893 47.2734 45.6699 48.8981 44.0539C49.1857 43.7333 49.5798 43.5279 50.0073 43.4756C50.4348 43.4234 50.8668 43.528 51.2231 43.7699C51.5091 43.9299 51.8031 44.0769 52.1551 44.2629C52.2551 43.8989 52.3491 43.5839 52.4411 43.2689C52.5323 42.8293 52.7808 42.438 53.14 42.1686C53.4993 41.8992 53.9445 41.7703 54.3921 41.8059C56.5351 41.8139 58.6781 41.8059 60.8211 41.8059C62.2661 41.8059 62.7071 42.1549 63.1031 43.5389C63.1631 43.7499 63.2401 43.9559 63.3371 44.2479C63.6561 44.0829 63.9371 43.9479 64.2091 43.7949C64.5765 43.5358 65.0267 43.4216 65.4732 43.4742C65.9197 43.5268 66.331 43.7425 66.6281 44.0799C68.2281 45.6709 69.8121 47.2709 71.4111 48.8589C72.5231 49.9589 71.9671 51.0059 71.2061 52.1589M55.6561 45.4029C54.1861 49.3179 54.1861 49.3179 50.6161 47.6129L47.5791 50.6829C47.8871 51.7609 49.2791 52.5829 48.6681 54.0269C48.0571 55.4709 46.4391 55.0709 45.3681 55.7019V59.8869C49.3011 61.1279 49.3011 61.1279 47.6271 64.8319L50.6861 67.9239C51.7501 67.6159 52.5721 66.2239 54.0181 66.8529C55.4641 67.4819 55.0261 69.1009 55.6631 70.1359H59.8221C60.4361 69.0119 60.0341 67.4619 61.4651 66.8419C62.9401 66.2019 63.7791 67.6839 64.9431 67.9619L67.9351 64.9969C67.6221 63.7969 66.1561 62.9599 66.8141 61.4759C67.4491 60.0429 69.0901 60.5179 70.0881 59.8449V55.6739C68.9551 55.0739 67.4061 55.4559 66.7971 54.0209C66.1721 52.5489 67.6691 51.7209 67.9041 50.6559L64.9161 47.5819C61.2771 49.3459 61.2771 49.3459 59.8101 45.4049L55.6561 45.4029Z" stroke="#52B3E2"/>
<path d="M57.8061 64.854C56.4045 64.8652 55.0311 64.4608 53.8591 63.6921C52.6872 62.9233 51.7693 61.8245 51.2213 60.5345C50.6733 59.2445 50.5197 57.821 50.78 56.4438C51.0403 55.0666 51.7029 53.7974 52.6839 52.7964C53.665 51.7954 54.9206 51.1075 56.2923 50.8195C57.664 50.5316 59.0903 50.6564 60.391 51.1784C61.6918 51.7003 62.8088 52.596 63.601 53.7522C64.3932 54.9085 64.8251 56.2735 64.8421 57.675C64.8602 59.5598 64.1293 61.3746 62.81 62.7208C61.4907 64.0669 59.6909 64.8342 57.8061 64.854ZM57.6991 54.218C56.9976 54.2279 56.3148 54.4458 55.7373 54.8443C55.1598 55.2427 54.7137 55.8037 54.4555 56.4561C54.1973 57.1084 54.1386 57.8228 54.287 58.5085C54.4353 59.1943 54.784 59.8205 55.2887 60.3078C55.7934 60.7951 56.4315 61.1216 57.1221 61.2457C57.8126 61.3699 58.5244 61.2862 59.1673 61.0052C59.8102 60.7243 60.3552 60.2587 60.7331 59.6676C61.111 59.0765 61.3049 58.3864 61.2901 57.685C61.2683 56.7508 60.8791 55.8629 60.2068 55.2138C59.5345 54.5648 58.6335 54.2069 57.6991 54.218Z" fill="white"/>
<path d="M57.8061 64.854C56.4045 64.8652 55.0311 64.4608 53.8591 63.6921C52.6872 62.9233 51.7693 61.8245 51.2213 60.5345C50.6733 59.2445 50.5197 57.821 50.78 56.4438C51.0403 55.0666 51.7029 53.7974 52.6839 52.7964C53.665 51.7954 54.9206 51.1075 56.2923 50.8195C57.664 50.5316 59.0903 50.6564 60.391 51.1784C61.6918 51.7003 62.8088 52.596 63.601 53.7522C64.3932 54.9085 64.8251 56.2735 64.8421 57.675C64.8602 59.5598 64.1293 61.3746 62.81 62.7208C61.4907 64.0669 59.6909 64.8342 57.8061 64.854M57.6991 54.218C56.9976 54.2279 56.3148 54.4458 55.7373 54.8443C55.1598 55.2427 54.7137 55.8037 54.4555 56.4561C54.1973 57.1084 54.1386 57.8228 54.287 58.5085C54.4353 59.1943 54.784 59.8205 55.2887 60.3078C55.7934 60.7951 56.4315 61.1216 57.1221 61.2457C57.8126 61.3699 58.5244 61.2862 59.1673 61.0052C59.8102 60.7243 60.3552 60.2587 60.7331 59.6676C61.111 59.0765 61.3049 58.3864 61.2901 57.685C61.2683 56.7508 60.8791 55.8629 60.2068 55.2138C59.5345 54.5648 58.6335 54.2069 57.6991 54.218" stroke="#52B3E2"/>
</svg>
