<svg width="88" height="110" viewBox="0 0 88 110" fill="none" xmlns="http://www.w3.org/2000/svg">
<path d="M79.464 109H8.58103C8.45991 108.933 8.33266 108.878 8.20103 108.835C6.04886 108.45 4.11053 107.295 2.74855 105.585C1.38657 103.874 0.694231 101.727 0.801026 99.543C0.794359 73.4397 0.794359 47.3363 0.801026 21.233C0.801026 15.64 4.68903 11.801 10.311 11.786C13.157 11.778 16.003 11.786 18.849 11.786H22.704C23.1801 10.6028 24.0317 9.60891 25.1279 8.95717C26.2242 8.30544 27.5042 8.03202 28.771 8.179C30.23 8.241 31.693 8.19 33.233 8.19C33.233 7.59 33.245 7.14 33.233 6.69C33.1697 5.84414 33.3175 4.9958 33.6631 4.22117C34.0087 3.44655 34.5413 2.7699 35.213 2.252C35.9344 1.77373 36.6936 1.35501 37.483 1L50.559 1C50.6648 1.07965 50.7784 1.14834 50.898 1.205C52.0781 1.5341 53.1095 2.25801 53.8202 3.25588C54.5309 4.25376 54.8778 5.4652 54.803 6.688C54.803 7.165 54.803 7.642 54.803 8.188H55.998C57.333 8.188 58.668 8.179 60.004 8.188C61.1563 8.16876 62.2868 8.50288 63.2434 9.14542C64.2001 9.78796 64.937 10.7081 65.355 11.782C69.47 11.782 73.544 11.763 77.619 11.796C78.5657 11.7888 79.5099 11.8935 80.432 12.108C84.64 13.166 87.232 16.708 87.237 21.337C87.241 47.3703 87.241 73.4037 87.237 99.437C87.237 99.718 87.237 100 87.223 100.28C87.1559 102.1 86.5417 103.858 85.4608 105.324C84.3798 106.79 82.8821 107.897 81.163 108.499C80.604 108.692 80.027 108.834 79.463 108.999M11.673 22.633V98.149H76.344V22.587C72.876 22.587 69.504 22.587 66.133 22.587C65.933 22.587 65.723 22.624 65.491 22.646C65.424 22.838 65.363 22.997 65.312 23.158C64.8088 25.0839 63.6719 26.7844 62.0843 27.9853C60.4968 29.1862 58.5512 29.8177 56.561 29.778C48.1944 29.8487 39.8277 29.8487 31.461 29.778C27.105 29.739 23.975 27.214 22.707 23.031C22.6549 22.8938 22.5937 22.7602 22.524 22.631L11.673 22.633ZM22.373 15.402C17.994 15.402 13.738 15.297 9.49103 15.437C6.45003 15.537 4.40603 17.93 4.40503 21.079C4.39503 47.305 4.39503 73.531 4.40503 99.757C4.36923 100.508 4.49105 101.259 4.76268 101.961C5.0343 102.662 5.44971 103.299 5.9822 103.831C6.5147 104.362 7.1525 104.776 7.85461 105.047C8.55673 105.317 9.30762 105.437 10.059 105.4C32.7017 105.409 55.3444 105.409 77.987 105.4C78.7384 105.437 79.4891 105.316 80.1909 105.045C80.8928 104.774 81.5302 104.36 82.0623 103.828C82.5945 103.296 83.0094 102.659 83.2806 101.958C83.5518 101.256 83.6732 100.505 83.637 99.754C83.651 73.528 83.651 47.302 83.637 21.076C83.6765 20.3158 83.5553 19.5558 83.2814 18.8455C83.0075 18.1352 82.587 17.4906 82.0474 16.9537C81.5077 16.4168 80.861 15.9996 80.1493 15.7293C79.4377 15.459 78.6771 15.3417 77.917 15.385C74.117 15.364 70.323 15.379 66.525 15.385C66.256 15.385 65.988 15.428 65.668 15.456V18.983H66.851C69.875 18.983 72.898 18.975 75.922 18.983C78.589 18.992 80.039 20.427 80.04 23.083C80.0454 47.973 80.0454 72.863 80.04 97.753C80.04 100.353 78.569 101.802 75.978 101.803C54.6714 101.806 33.3647 101.806 12.058 101.803C11.5109 101.863 10.9573 101.799 10.438 101.617C9.9188 101.434 9.44719 101.137 9.05804 100.748C8.6689 100.359 8.37215 99.8873 8.18972 99.368C8.00729 98.8487 7.94383 98.2951 8.00402 97.748C7.99869 72.8573 7.99869 47.9673 8.00402 23.078C8.00402 20.418 9.45203 18.988 12.125 18.978C15.149 18.968 18.172 18.978 21.196 18.978H22.374L22.373 15.402ZM43.921 26.193C48.033 26.193 52.145 26.212 56.257 26.187C59.805 26.165 61.978 23.987 62.004 20.468C62.02 18.325 62.016 16.181 62.004 14.037C61.995 12.421 61.378 11.788 59.78 11.787C49.2714 11.7803 38.763 11.7803 28.255 11.787C26.663 11.787 26.05 12.424 26.041 14.046C26.0304 16.1193 26.0304 18.1927 26.041 20.266C26.053 24.053 28.19 26.181 32.009 26.191C35.98 26.201 39.952 26.191 43.923 26.191M51.212 8.131C51.212 7.561 51.227 7.044 51.212 6.531C51.2352 6.27445 51.2023 6.01594 51.1156 5.77339C51.0288 5.53083 50.8904 5.31005 50.7098 5.12634C50.5293 4.94264 50.3109 4.80041 50.0699 4.70952C49.8288 4.61863 49.5709 4.58126 49.314 4.6C45.7734 4.57467 42.2327 4.57467 38.692 4.6C38.4447 4.58554 38.1972 4.62368 37.9657 4.71191C37.7343 4.80014 37.5242 4.93644 37.3492 5.11183C37.1743 5.28722 37.0386 5.49771 36.951 5.72941C36.8634 5.96111 36.8259 6.20876 36.841 6.456C36.818 7.004 36.841 7.556 36.841 8.125L51.212 8.131Z" fill="white"/>
<path d="M79.464 109H8.58103C8.45991 108.933 8.33266 108.878 8.20103 108.835C6.04886 108.45 4.11053 107.295 2.74855 105.585C1.38657 103.874 0.694231 101.727 0.801026 99.543C0.794359 73.4397 0.794359 47.3363 0.801026 21.233C0.801026 15.64 4.68903 11.801 10.311 11.786C13.157 11.778 16.003 11.786 18.849 11.786H22.704C23.1801 10.6028 24.0317 9.60891 25.1279 8.95717C26.2242 8.30544 27.5042 8.03202 28.771 8.179C30.23 8.241 31.693 8.19 33.233 8.19C33.233 7.59 33.245 7.14 33.233 6.69C33.1697 5.84414 33.3175 4.9958 33.6631 4.22117C34.0087 3.44655 34.5413 2.7699 35.213 2.252C35.9344 1.77373 36.6936 1.35501 37.483 1L50.559 1C50.6648 1.07965 50.7784 1.14834 50.898 1.205C52.0781 1.5341 53.1095 2.25801 53.8202 3.25588C54.5309 4.25376 54.8778 5.4652 54.803 6.688C54.803 7.165 54.803 7.642 54.803 8.188H55.998C57.333 8.188 58.668 8.179 60.004 8.188C61.1563 8.16875 62.2868 8.50288 63.2434 9.14542C64.2001 9.78795 64.937 10.7081 65.355 11.782C69.47 11.782 73.544 11.763 77.619 11.796C78.5657 11.7888 79.5099 11.8935 80.432 12.108C84.64 13.166 87.232 16.708 87.237 21.337C87.241 47.3703 87.241 73.4037 87.237 99.437C87.237 99.718 87.237 100 87.223 100.28C87.1559 102.1 86.5417 103.858 85.4608 105.324C84.3798 106.79 82.8821 107.897 81.163 108.499C80.604 108.692 80.027 108.834 79.463 108.999M43.921 26.193C48.033 26.193 52.145 26.212 56.257 26.187C59.805 26.165 61.978 23.987 62.004 20.468C62.02 18.325 62.016 16.181 62.004 14.037C61.995 12.421 61.378 11.788 59.78 11.787C49.2714 11.7803 38.763 11.7803 28.255 11.787C26.663 11.787 26.05 12.424 26.041 14.046C26.0304 16.1193 26.0304 18.1927 26.041 20.266C26.053 24.053 28.19 26.181 32.009 26.191C35.98 26.201 39.952 26.191 43.923 26.191M11.673 22.633V98.149H76.344V22.587C72.876 22.587 69.504 22.587 66.133 22.587C65.933 22.587 65.723 22.624 65.491 22.646C65.424 22.838 65.363 22.997 65.312 23.158C64.8088 25.0839 63.6719 26.7844 62.0843 27.9853C60.4968 29.1862 58.5512 29.8177 56.561 29.778C48.1944 29.8487 39.8277 29.8487 31.461 29.778C27.105 29.739 23.975 27.214 22.707 23.031C22.6549 22.8938 22.5937 22.7602 22.524 22.631L11.673 22.633ZM22.373 15.402C17.994 15.402 13.738 15.297 9.49103 15.437C6.45003 15.537 4.40603 17.93 4.40503 21.079C4.39503 47.305 4.39503 73.531 4.40503 99.757C4.36923 100.508 4.49105 101.259 4.76268 101.961C5.0343 102.662 5.44971 103.299 5.9822 103.831C6.5147 104.362 7.1525 104.776 7.85461 105.047C8.55673 105.317 9.30762 105.437 10.059 105.4C32.7017 105.409 55.3444 105.409 77.987 105.4C78.7384 105.437 79.4891 105.316 80.1909 105.045C80.8928 104.774 81.5302 104.36 82.0623 103.828C82.5945 103.296 83.0094 102.659 83.2806 101.958C83.5518 101.256 83.6732 100.505 83.637 99.754C83.651 73.528 83.651 47.302 83.637 21.076C83.6765 20.3158 83.5553 19.5558 83.2814 18.8455C83.0075 18.1352 82.587 17.4906 82.0474 16.9537C81.5077 16.4168 80.861 15.9996 80.1493 15.7293C79.4377 15.459 78.6771 15.3417 77.917 15.385C74.117 15.364 70.323 15.379 66.525 15.385C66.256 15.385 65.988 15.428 65.668 15.456V18.983H66.851C69.875 18.983 72.898 18.975 75.922 18.983C78.589 18.992 80.039 20.427 80.04 23.083C80.0454 47.973 80.0454 72.863 80.04 97.753C80.04 100.353 78.569 101.802 75.978 101.803C54.6714 101.806 33.3647 101.806 12.058 101.803C11.5109 101.863 10.9573 101.799 10.438 101.617C9.9188 101.434 9.44719 101.137 9.05804 100.748C8.6689 100.359 8.37215 99.8873 8.18972 99.368C8.00728 98.8487 7.94383 98.2951 8.00402 97.748C7.99869 72.8573 7.99869 47.9673 8.00402 23.078C8.00402 20.418 9.45203 18.988 12.125 18.978C15.149 18.968 18.172 18.978 21.196 18.978H22.374L22.373 15.402ZM51.212 8.131C51.212 7.561 51.227 7.044 51.212 6.531C51.2352 6.27445 51.2023 6.01594 51.1156 5.77339C51.0288 5.53083 50.8904 5.31005 50.7098 5.12634C50.5293 4.94264 50.3109 4.80041 50.0699 4.70952C49.8288 4.61863 49.5709 4.58126 49.314 4.6C45.7734 4.57467 42.2327 4.57467 38.692 4.6C38.4447 4.58554 38.1972 4.62368 37.9657 4.71191C37.7343 4.80014 37.5242 4.93644 37.3492 5.11183C37.1743 5.28722 37.0386 5.49771 36.951 5.72941C36.8634 5.96111 36.8259 6.20876 36.841 6.456C36.818 7.004 36.841 7.556 36.841 8.125L51.212 8.131Z" stroke="#2A3D66" stroke-width="1.2"/>
<path d="M27.773 89.188C24.333 89.188 20.893 89.188 17.453 89.188C16.036 89.188 15.223 88.51 15.238 87.376C15.252 86.276 16.052 85.6 17.394 85.598C24.344 85.5914 31.294 85.5887 38.244 85.59C39.167 85.59 40.017 85.827 40.236 86.769C40.3008 87.0777 40.3024 87.3963 40.2409 87.7056C40.1794 88.0149 40.056 88.3086 39.878 88.569C39.4132 88.9721 38.8129 89.1844 38.198 89.163C34.724 89.215 31.248 89.189 27.773 89.189" fill="white"/>
<path d="M27.773 89.188C24.333 89.188 20.893 89.188 17.453 89.188C16.036 89.188 15.223 88.51 15.238 87.376C15.252 86.276 16.052 85.6 17.394 85.598C24.344 85.5914 31.294 85.5887 38.244 85.59C39.167 85.59 40.017 85.827 40.236 86.769C40.3008 87.0777 40.3024 87.3963 40.2409 87.7056C40.1794 88.0149 40.056 88.3086 39.878 88.569C39.4132 88.9721 38.8129 89.1844 38.198 89.163C34.724 89.215 31.248 89.189 27.773 89.189" stroke="#164160" stroke-width="1.2"/>
<path d="M27.81 49.586C24.371 49.586 20.931 49.621 17.493 49.554C16.8118 49.5422 16.1556 49.2949 15.636 48.854C15.4523 48.6405 15.3249 48.3843 15.2656 48.1089C15.2063 47.8335 15.2169 47.5476 15.2964 47.2773C15.376 47.007 15.5219 46.761 15.721 46.5616C15.9201 46.3623 16.1659 46.216 16.436 46.136C16.8404 46.0235 17.2596 45.9739 17.679 45.989C24.4524 45.9803 31.2257 45.9787 37.999 45.984C38.2095 45.9775 38.4201 45.9818 38.63 45.997C39.1099 46.0083 39.5662 46.2073 39.9009 46.5513C40.2356 46.8954 40.422 47.357 40.42 47.837C40.4177 48.0756 40.3667 48.3112 40.2702 48.5293C40.1737 48.7475 40.0337 48.9437 39.8587 49.106C39.6838 49.2682 39.4776 49.393 39.2527 49.4728C39.0279 49.5526 38.7891 49.5857 38.551 49.57C34.972 49.597 31.392 49.58 27.812 49.58L27.81 49.586Z" fill="white" stroke="#164160" stroke-width="1.2"/>
<path d="M27.8881 69.381C24.4135 69.381 20.9385 69.381 17.4631 69.381C16.0331 69.381 15.2291 68.716 15.2371 67.581C15.2451 66.446 16.0661 65.787 17.4891 65.781C24.4038 65.7756 31.3184 65.7756 38.2331 65.781C39.9481 65.781 40.9211 67.143 40.1821 68.454C39.9935 68.7726 39.7163 69.0296 39.3843 69.1936C39.0523 69.3576 38.6798 69.4217 38.3121 69.378C34.8371 69.365 31.3621 69.372 27.8871 69.373" fill="white"/>
<path d="M27.8881 69.381C24.4135 69.381 20.9385 69.381 17.4631 69.381C16.0331 69.381 15.2291 68.716 15.2371 67.581C15.2451 66.446 16.0661 65.787 17.4891 65.781C24.4038 65.7756 31.3184 65.7756 38.2331 65.781C39.9481 65.781 40.9211 67.143 40.1821 68.454C39.9935 68.7726 39.7163 69.0296 39.3843 69.1936C39.0523 69.3576 38.6798 69.4217 38.3121 69.378C34.8371 69.365 31.3621 69.372 27.8871 69.373" stroke="#164160" stroke-width="1.2"/>
<path d="M43.0549 82C40.5249 82 37.9949 82.005 35.4649 82C34.0359 82 33.2379 81.335 33.2459 80.186C33.2539 79.037 34.0359 78.411 35.4939 78.41C40.5892 78.406 45.6842 78.406 50.7789 78.41C52.1789 78.41 53.0349 79.11 53.0229 80.216C53.0109 81.322 52.1619 81.997 50.7489 82C48.1839 82.006 45.6189 82 43.0489 82" fill="white"/>
<path d="M43.0549 82C40.5249 82 37.9949 82.005 35.4649 82C34.0359 82 33.2379 81.335 33.2459 80.186C33.2539 79.037 34.0359 78.411 35.4939 78.41C40.5892 78.406 45.6842 78.406 50.7789 78.41C52.1789 78.41 53.0349 79.11 53.0229 80.216C53.0109 81.322 52.1619 81.997 50.7489 82C48.1839 82.006 45.6189 82 43.0489 82" stroke="#164160" stroke-width="1.2"/>
<path d="M43.1811 62.188C40.5811 62.188 37.9811 62.195 35.3811 62.188C34.0181 62.183 33.2521 61.53 33.2471 60.407C33.2421 59.284 34.0291 58.607 35.3691 58.6C40.5344 58.5913 45.7011 58.5913 50.8691 58.6C52.1871 58.6 53.0231 59.317 53.0281 60.394C53.0331 61.471 52.2001 62.183 50.8811 62.188C48.3161 62.197 45.7511 62.188 43.1861 62.188" fill="white"/>
<path d="M43.1811 62.188C40.5811 62.188 37.9811 62.195 35.3811 62.188C34.0181 62.183 33.2521 61.53 33.2471 60.407C33.2421 59.284 34.0291 58.607 35.3691 58.6C40.5344 58.5913 45.7011 58.5913 50.8691 58.6C52.1871 58.6 53.0231 59.317 53.0281 60.394C53.0331 61.471 52.2001 62.183 50.8811 62.188C48.3161 62.197 45.7511 62.188 43.1861 62.188" stroke="#164160" stroke-width="1.2"/>
<path d="M43.1701 42.382C40.5701 42.382 37.9701 42.39 35.3701 42.382C34.0021 42.376 33.2441 41.723 33.2461 40.597C33.2461 39.487 34.0351 38.797 35.3791 38.797C40.5438 38.7863 45.7084 38.7863 50.8731 38.797C52.1901 38.797 53.0221 39.528 53.0201 40.608C53.0181 41.688 52.2001 42.381 50.8641 42.387C48.2991 42.398 45.7341 42.387 43.1701 42.387" fill="white"/>
<path d="M43.1701 42.382C40.5701 42.382 37.9701 42.39 35.3701 42.382C34.0021 42.376 33.2441 41.723 33.2461 40.597C33.2461 39.487 34.0351 38.797 35.3791 38.797C40.5438 38.7863 45.7084 38.7863 50.8731 38.797C52.1901 38.797 53.0221 39.528 53.0201 40.608C53.0181 41.688 52.2001 42.381 50.8641 42.387C48.2991 42.398 45.7341 42.387 43.1701 42.387" stroke="#164160" stroke-width="1.2"/>
<path d="M63.7771 45.313C65.5921 43.493 67.2771 41.805 68.9581 40.12C69.2443 39.8106 69.5492 39.519 69.8711 39.247C70.2093 38.9575 70.6452 38.8081 71.0898 38.8293C71.5343 38.8505 71.9541 39.0407 72.2631 39.361C72.5868 39.6681 72.7782 40.089 72.7968 40.5348C72.8155 40.9805 72.66 41.416 72.3631 41.749C69.9358 44.2403 67.4771 46.701 64.9871 49.131C64.8293 49.2876 64.6415 49.4108 64.4351 49.4934C64.2287 49.576 64.0078 49.6162 63.7855 49.6118C63.5632 49.6073 63.344 49.5582 63.1411 49.4673C62.9382 49.3765 62.7556 49.2458 62.6041 49.083C61.3528 47.901 60.1348 46.6847 58.9501 45.434C58.7872 45.2713 58.6585 45.0776 58.5717 44.8644C58.4848 44.6512 58.4416 44.4227 58.4445 44.1925C58.4474 43.9622 58.4963 43.7349 58.5885 43.5239C58.6807 43.3129 58.8142 43.1226 58.9811 42.964C59.3045 42.6322 59.7454 42.4409 60.2087 42.4314C60.6719 42.4218 61.1203 42.5948 61.4571 42.913C61.8531 43.2593 62.2303 43.6265 62.5871 44.013C62.9531 44.391 63.3001 44.787 63.7781 45.313" fill="white"/>
<path d="M63.7771 45.313C65.5921 43.493 67.2771 41.805 68.9581 40.12C69.2443 39.8106 69.5492 39.519 69.8711 39.247C70.2093 38.9575 70.6452 38.8081 71.0898 38.8293C71.5343 38.8505 71.9541 39.0407 72.2631 39.361C72.5868 39.6681 72.7782 40.089 72.7968 40.5348C72.8155 40.9805 72.66 41.416 72.3631 41.749C69.9358 44.2403 67.4771 46.701 64.9871 49.131C64.8293 49.2876 64.6415 49.4108 64.4351 49.4934C64.2287 49.576 64.0078 49.6162 63.7855 49.6118C63.5632 49.6073 63.344 49.5582 63.1411 49.4673C62.9382 49.3765 62.7556 49.2458 62.6041 49.083C61.3528 47.901 60.1348 46.6847 58.9501 45.434C58.7872 45.2713 58.6585 45.0776 58.5717 44.8644C58.4848 44.6512 58.4416 44.4227 58.4445 44.1925C58.4474 43.9622 58.4963 43.7349 58.5885 43.5239C58.6807 43.3129 58.8142 43.1226 58.9811 42.964C59.3045 42.6322 59.7454 42.4409 60.2087 42.4314C60.6719 42.4218 61.1203 42.5948 61.4571 42.913C61.8531 43.2593 62.2303 43.6265 62.5871 44.013C62.9531 44.391 63.3001 44.787 63.7781 45.313" stroke="#164160" stroke-width="1.2"/>
<path d="M63.7989 84.952C65.8789 82.852 67.7739 80.926 69.6819 79.015C69.9468 78.7012 70.3164 78.4939 70.7222 78.4314C71.1281 78.3689 71.5429 78.4554 71.8899 78.675C72.2401 78.8528 72.5149 79.1502 72.6644 79.5134C72.814 79.8765 72.8284 80.2812 72.7049 80.654C72.5775 81.051 72.3534 81.4101 72.0529 81.699C69.8103 83.9717 67.5539 86.231 65.2839 88.477C65.1153 88.7078 64.8943 88.8953 64.639 89.0241C64.3838 89.1528 64.1017 89.2191 63.8158 89.2175C63.53 89.216 63.2486 89.1466 62.9948 89.0151C62.741 88.8836 62.522 88.6937 62.3559 88.461C61.2779 87.405 60.2113 86.3384 59.1559 85.261C58.9604 85.1024 58.8003 84.9046 58.686 84.6803C58.5717 84.456 58.5057 84.2103 58.4923 83.9589C58.4789 83.7075 58.5184 83.4561 58.6082 83.2209C58.698 82.9857 58.8361 82.772 59.0137 82.5935C59.1912 82.415 59.4043 82.2758 59.639 82.1848C59.8737 82.0938 60.1249 82.053 60.3764 82.0651C60.6278 82.0772 60.8739 82.1419 61.0988 82.2551C61.3237 82.3683 61.5223 82.5273 61.6819 82.722C62.3819 83.403 63.0259 84.137 63.7979 84.955" fill="white"/>
<path d="M63.7989 84.952C65.8789 82.852 67.7739 80.926 69.6819 79.015C69.9468 78.7012 70.3164 78.4939 70.7222 78.4314C71.1281 78.3689 71.5429 78.4554 71.8899 78.675C72.2401 78.8528 72.5149 79.1502 72.6644 79.5134C72.814 79.8765 72.8284 80.2812 72.7049 80.654C72.5775 81.051 72.3534 81.4101 72.0529 81.699C69.8103 83.9717 67.5539 86.231 65.2839 88.477C65.1153 88.7078 64.8943 88.8953 64.639 89.0241C64.3838 89.1528 64.1017 89.2191 63.8158 89.2175C63.53 89.216 63.2486 89.1466 62.9948 89.0151C62.741 88.8836 62.522 88.6937 62.3559 88.461C61.2779 87.405 60.2113 86.3384 59.1559 85.261C58.9604 85.1024 58.8003 84.9046 58.686 84.6803C58.5717 84.456 58.5057 84.2103 58.4923 83.9589C58.4789 83.7075 58.5184 83.4561 58.6082 83.2209C58.698 82.9857 58.8361 82.772 59.0137 82.5935C59.1912 82.415 59.4043 82.2758 59.639 82.1848C59.8737 82.0938 60.1249 82.053 60.3764 82.0651C60.6278 82.0772 60.8739 82.1419 61.0988 82.2551C61.3237 82.3683 61.5223 82.5273 61.6819 82.722C62.3819 83.403 63.0259 84.137 63.7979 84.955" stroke="#164160" stroke-width="1.2"/>
<path d="M63.7811 65.15C65.8481 63.065 67.7221 61.17 69.6011 59.282C69.8677 58.9478 70.2468 58.7221 70.6677 58.6471C71.0885 58.572 71.5223 58.6526 71.8881 58.874C72.2384 59.051 72.5136 59.348 72.6636 59.7108C72.8135 60.0736 72.8282 60.4782 72.7051 60.851C72.5771 61.2476 72.3527 61.6063 72.0521 61.895C69.8107 64.167 67.5554 66.425 65.2861 68.669C65.1166 68.8984 64.8955 69.0848 64.6407 69.213C64.3859 69.3412 64.1045 69.4076 63.8193 69.407C63.5341 69.4063 63.253 69.3385 62.9988 69.2091C62.7446 69.0797 62.5244 68.8922 62.3561 68.662C61.2781 67.608 60.2114 66.5413 59.1561 65.462C58.9537 65.3057 58.7868 65.1081 58.6665 64.8824C58.5461 64.6568 58.4751 64.4081 58.4581 64.1529C58.4411 63.8977 58.4785 63.6419 58.5677 63.4022C58.657 63.1626 58.7962 62.9446 58.976 62.7628C59.1559 62.5809 59.3723 62.4394 59.6109 62.3474C59.8496 62.2555 60.105 62.2153 60.3604 62.2295C60.6157 62.2437 60.8652 62.312 61.0921 62.4298C61.3191 62.5476 61.5185 62.7123 61.6771 62.913C62.3771 63.594 63.0141 64.332 63.7771 65.15" fill="white"/>
<path d="M63.7811 65.15C65.8481 63.065 67.7221 61.17 69.6011 59.282C69.8677 58.9478 70.2468 58.7221 70.6677 58.6471C71.0885 58.572 71.5223 58.6526 71.8881 58.874C72.2384 59.051 72.5136 59.348 72.6636 59.7108C72.8135 60.0736 72.8282 60.4782 72.7051 60.851C72.5771 61.2476 72.3527 61.6063 72.0521 61.895C69.8107 64.167 67.5554 66.425 65.2861 68.669C65.1166 68.8984 64.8955 69.0848 64.6407 69.213C64.3859 69.3412 64.1045 69.4076 63.8193 69.407C63.5341 69.4063 63.253 69.3385 62.9988 69.2091C62.7446 69.0797 62.5244 68.8922 62.3561 68.662C61.2781 67.608 60.2114 66.5413 59.1561 65.462C58.9537 65.3057 58.7868 65.1081 58.6665 64.8824C58.5461 64.6568 58.4751 64.4081 58.4581 64.1529C58.4411 63.8977 58.4785 63.6419 58.5677 63.4022C58.657 63.1626 58.7962 62.9446 58.976 62.7628C59.1559 62.5809 59.3723 62.4394 59.6109 62.3474C59.8496 62.2555 60.105 62.2153 60.3604 62.2295C60.6157 62.2437 60.8652 62.312 61.0921 62.4298C61.3191 62.5476 61.5185 62.7123 61.6771 62.913C62.3771 63.594 63.0141 64.332 63.7771 65.15" stroke="#164160" stroke-width="1.2"/>
<path d="M22.3391 62.188C20.6551 62.188 18.9711 62.199 17.2871 62.188C16.0241 62.177 15.2521 61.496 15.2391 60.425C15.2345 60.1691 15.2845 59.9151 15.3859 59.68C15.4873 59.4449 15.6376 59.2342 15.8269 59.0619C16.0162 58.8895 16.2401 58.7595 16.4836 58.6806C16.7271 58.6016 16.9847 58.5755 17.2391 58.604C20.6771 58.5867 24.1154 58.5867 27.5541 58.604C27.8082 58.5754 28.0656 58.5994 28.31 58.6746C28.5545 58.7498 28.7808 58.8746 28.975 59.0411C29.1691 59.2076 29.3268 59.4124 29.4383 59.6426C29.5498 59.8728 29.6127 60.1234 29.6231 60.379C29.6401 61.452 28.7981 62.179 27.4961 62.19C25.7771 62.202 24.0581 62.19 22.3381 62.19" fill="white"/>
<path d="M22.3391 62.188C20.6551 62.188 18.9711 62.199 17.2871 62.188C16.0241 62.177 15.2521 61.496 15.2391 60.425C15.2345 60.1691 15.2845 59.9151 15.3859 59.68C15.4873 59.4449 15.6376 59.2342 15.8269 59.0619C16.0162 58.8895 16.2401 58.7595 16.4836 58.6806C16.7271 58.6016 16.9847 58.5755 17.2391 58.604C20.6771 58.5867 24.1154 58.5867 27.5541 58.604C27.8082 58.5754 28.0656 58.5994 28.31 58.6746C28.5545 58.7498 28.7808 58.8746 28.975 59.0411C29.1691 59.2076 29.3268 59.4124 29.4383 59.6426C29.5498 59.8728 29.6127 60.1234 29.6231 60.379C29.6401 61.452 28.7981 62.179 27.4961 62.19C25.7771 62.202 24.0581 62.19 22.3381 62.19" stroke="#164160" stroke-width="1.2"/>
<path d="M22.391 81.999C20.707 81.999 19.023 82.009 17.339 81.999C16.022 81.989 15.222 81.279 15.239 80.173C15.254 79.105 16.032 78.418 17.292 78.413C20.692 78.4016 24.0954 78.4016 27.502 78.413C28.802 78.413 29.645 79.161 29.623 80.232C29.601 81.303 28.765 81.993 27.444 82.001C25.76 82.011 24.076 82.001 22.392 82.001" fill="white"/>
<path d="M22.391 81.999C20.707 81.999 19.023 82.009 17.339 81.999C16.022 81.989 15.222 81.279 15.239 80.173C15.254 79.105 16.032 78.418 17.292 78.413C20.692 78.4016 24.0954 78.4016 27.502 78.413C28.802 78.413 29.645 79.161 29.623 80.232C29.601 81.303 28.765 81.993 27.444 82.001C25.76 82.011 24.076 82.001 22.392 82.001" stroke="#164160" stroke-width="1.2"/>
<path d="M22.336 42.382C20.652 42.382 18.968 42.394 17.284 42.382C16.012 42.369 15.251 41.694 15.24 40.62C15.236 40.3637 15.2866 40.1095 15.3885 39.8743C15.4904 39.639 15.6411 39.4282 15.8308 39.2557C16.0205 39.0833 16.2447 38.9532 16.4885 38.8741C16.7323 38.795 16.9902 38.7687 17.245 38.797C20.683 38.7757 24.1206 38.7757 27.558 38.797C27.8126 38.7691 28.0703 38.7939 28.3148 38.8701C28.5594 38.9462 28.7857 39.0719 28.9795 39.2395C29.1733 39.407 29.3304 39.6127 29.4412 39.8437C29.5519 40.0747 29.6138 40.326 29.623 40.582C29.638 41.658 28.808 42.374 27.492 42.382C25.773 42.395 24.054 42.382 22.335 42.382" fill="white"/>
<path d="M22.336 42.382C20.652 42.382 18.968 42.394 17.284 42.382C16.012 42.369 15.251 41.694 15.24 40.62C15.236 40.3637 15.2866 40.1095 15.3885 39.8743C15.4904 39.639 15.6411 39.4282 15.8308 39.2557C16.0205 39.0833 16.2447 38.9532 16.4885 38.8741C16.7323 38.795 16.9902 38.7687 17.245 38.797C20.683 38.7757 24.1206 38.7757 27.558 38.797C27.8126 38.7691 28.0703 38.7939 28.3148 38.8701C28.5594 38.9462 28.7857 39.0719 28.9795 39.2395C29.1733 39.407 29.3304 39.6127 29.4412 39.8437C29.5519 40.0747 29.6138 40.326 29.623 40.582C29.638 41.658 28.808 42.374 27.492 42.382C25.773 42.395 24.054 42.382 22.335 42.382" stroke="#164160" stroke-width="1.2"/>
</svg>
