<svg width="110" height="110" viewBox="0 0 110 110" fill="none" xmlns="http://www.w3.org/2000/svg">
<path d="M98.4099 46.8431C101.33 46.8431 104.091 46.8361 106.851 46.8431C108.408 46.8481 108.986 47.4011 108.99 48.9281C109.003 52.9761 109.003 57.0237 108.99 61.0711C108.99 62.6021 108.404 63.1711 106.867 63.1791C104.106 63.1901 101.346 63.1791 98.4359 63.1791C97.2651 69.1772 94.891 74.8759 91.4569 79.9311C93.3055 81.7777 95.1455 83.6161 96.9769 85.4461C98.7389 87.2081 98.7359 87.6581 96.9509 89.4461C94.3662 92.0354 91.7819 94.6244 89.1979 97.2131C87.7529 98.6581 87.1159 98.6661 85.6979 97.2521C83.8505 95.4121 82.0049 93.5704 80.1609 91.7271C80.063 91.6578 79.9589 91.5979 79.8499 91.5481C74.8152 94.9506 69.1418 97.295 63.1739 98.4391C63.1739 101.171 63.1739 103.848 63.1739 106.525C63.1739 108.531 62.6969 109.025 60.7259 109.025C56.8345 109.03 52.9432 109.03 49.0519 109.025C47.3789 109.025 46.8409 108.462 46.8369 106.768C46.8299 104.046 46.8369 101.323 46.8369 98.4601C40.8371 97.2916 35.1381 94.914 30.0869 91.4721C28.2069 93.3571 26.3469 95.2251 24.4869 97.0901C22.8629 98.7161 22.3409 98.7251 20.7399 97.1301C18.0925 94.4934 15.4485 91.8537 12.8079 89.2111C11.3609 87.7641 11.3589 87.1361 12.7779 85.7111C14.6199 83.8657 16.4609 82.0197 18.3009 80.1731C18.3688 80.0756 18.4271 79.9718 18.4749 79.8631C15.0726 74.8279 12.7282 69.1542 11.5839 63.1861C8.81086 63.1861 6.09386 63.1861 3.37786 63.1861C1.51586 63.1861 1.01186 62.6931 1.00986 60.8581C1.00453 56.9247 1.00453 52.9937 1.00986 49.0651C1.00986 47.3831 1.55886 46.8511 3.25486 46.8471C5.97686 46.8401 8.69786 46.8471 11.5639 46.8471C12.7367 40.8361 15.1182 35.1261 18.5639 30.0631C16.7125 28.2277 14.8665 26.3977 13.0259 24.5731C11.2589 22.8141 11.2639 22.3571 13.0459 20.5731C15.6592 17.9584 18.2732 15.3441 20.8879 12.7301C22.2469 11.3741 22.9269 11.3841 24.3089 12.7681C26.2089 14.6681 28.0949 16.5681 30.0649 18.5461C35.1222 15.1097 40.8276 12.7413 46.8319 11.5861C46.8319 8.81506 46.8319 6.10006 46.8319 3.38606C46.8319 1.52206 47.3319 1.00606 49.1519 1.00306C53.0852 0.995725 57.0152 0.995725 60.9419 1.00306C62.6219 1.00306 63.1599 1.56106 63.1639 3.25206C63.1709 5.97406 63.1639 8.69706 63.1639 11.5661C69.1627 12.7372 74.862 15.1116 79.9179 18.5461C81.7605 16.6994 83.5972 14.8597 85.4279 13.0271C87.1919 11.2631 87.6539 11.2701 89.4279 13.0471C91.6279 15.2471 93.8302 17.4471 96.0349 19.6471C98.9659 22.5751 98.9679 22.5761 96.0759 25.4641C94.5639 26.9741 93.0459 28.4791 91.4619 30.0551C94.8971 35.1168 97.2611 40.8274 98.4089 46.8361M105.585 50.2361H104.267C102.049 50.2361 99.8309 50.2451 97.6129 50.2361C95.9519 50.2261 95.4879 49.8281 95.2129 48.1791C94.2009 42.1358 91.8277 36.4019 88.2729 31.4111C87.3029 30.0341 87.3459 29.4451 88.5209 28.2711C90.3879 26.4081 92.2649 24.5541 94.0389 22.7941L87.2579 15.9861C85.4069 17.8391 83.4939 19.7721 81.5579 21.6861C81.4075 21.8938 81.2142 22.0668 80.9911 22.1932C80.768 22.3196 80.5203 22.3965 80.2649 22.4187C80.0094 22.4409 79.7521 22.4079 79.5106 22.3218C79.269 22.2358 79.0488 22.0988 78.8649 21.9201C73.7367 18.2213 67.819 15.765 61.5789 14.7451C60.2039 14.5181 59.8149 14.0141 59.7979 12.5981C59.7759 10.8081 59.7919 9.01706 59.7909 7.22706C59.7909 6.30206 59.7909 5.37806 59.7909 4.41106H50.2199V5.72106C50.2199 8.02106 50.2349 10.3131 50.2129 12.6101C50.1999 14.0101 49.7899 14.5221 48.4129 14.7481C42.1741 15.7736 36.2579 18.2312 31.1289 21.9281C30.9432 22.1046 30.7219 22.2392 30.4799 22.3231C30.2378 22.4069 29.9806 22.4379 29.7256 22.414C29.4705 22.3902 29.2236 22.312 29.0013 22.1847C28.779 22.0574 28.5865 21.8839 28.4369 21.6761C26.7469 20.0091 25.0789 18.3201 23.3959 16.6451C23.1339 16.3841 22.8459 16.1501 22.7089 16.0271L15.9929 22.7521C17.7169 24.4801 19.5269 26.2921 21.3349 28.1071C22.6829 29.4611 22.6849 29.9531 21.6629 31.5241C20.6039 33.1511 19.5529 34.7951 18.6569 36.5141C16.7462 40.1733 15.4391 44.1171 14.7859 48.1931C14.5229 49.8251 14.0409 50.2181 12.3719 50.2401C11.7889 50.2471 11.2049 50.2401 10.6209 50.2401H4.41086V59.7871C7.11686 59.7871 9.75386 59.7781 12.3899 59.7871C14.0479 59.7951 14.5169 60.2041 14.7899 61.8471C15.7865 67.8125 18.1104 73.478 21.5899 78.4251C22.7299 80.0671 22.6989 80.5421 21.3169 81.9251C19.5109 83.7381 17.7019 85.5491 15.9989 87.2551L22.7559 94.0241C24.5959 92.1811 26.5089 90.2471 28.4429 88.3341C28.5954 88.1283 28.7898 87.9572 29.0133 87.8321C29.2368 87.707 29.4842 87.6307 29.7394 87.6082C29.9945 87.5857 30.2515 87.6176 30.4934 87.7017C30.7353 87.7857 30.9567 87.9202 31.1429 88.0961C32.1489 88.7601 33.1369 89.4541 34.1709 90.0691C38.4808 92.6606 43.2417 94.4144 48.2029 95.2381C49.8219 95.5051 50.2029 95.9841 50.2189 97.6721C50.2269 98.6061 50.2189 99.5401 50.2189 100.472V105.612H59.7769C59.7769 102.943 59.7769 100.343 59.7769 97.7441C59.7769 95.9701 60.1489 95.5181 61.8389 95.2351C67.8034 94.2352 73.4672 91.9082 78.4119 88.4261C80.0559 87.2811 80.5119 87.3091 81.9119 88.7111C83.7119 90.5261 85.5119 92.3501 87.2049 94.0691L94.0349 87.2241C92.2409 85.4521 90.3549 83.6011 88.4829 81.7361C87.3619 80.6191 87.3829 80.0241 88.2059 78.6771C89.5609 76.4581 90.9419 74.2421 92.0929 71.9151C93.6324 68.7234 94.6845 65.3189 95.2139 61.8151C95.4709 60.2261 95.9449 59.8361 97.5339 59.8201C98.4679 59.8111 99.4019 59.8201 100.334 59.8201H105.586L105.585 50.2361Z" fill="white"/>
<path d="M98.4099 46.8431C101.33 46.8431 104.091 46.8361 106.851 46.8431C108.408 46.8481 108.986 47.4011 108.99 48.9281C109.003 52.9761 109.003 57.0237 108.99 61.0711C108.99 62.6021 108.404 63.1711 106.867 63.1791C104.106 63.1901 101.346 63.1791 98.4359 63.1791C97.2651 69.1772 94.891 74.8759 91.4569 79.9311C93.3055 81.7777 95.1455 83.6161 96.9769 85.4461C98.7389 87.2081 98.7359 87.6581 96.9509 89.4461C94.3662 92.0354 91.7819 94.6244 89.1979 97.2131C87.7529 98.6581 87.1159 98.6661 85.6979 97.2521C83.8505 95.4121 82.0049 93.5704 80.1609 91.7271C80.063 91.6578 79.9589 91.5979 79.8499 91.5481C74.8152 94.9506 69.1418 97.295 63.1739 98.4391C63.1739 101.171 63.1739 103.848 63.1739 106.525C63.1739 108.531 62.6969 109.025 60.7259 109.025C56.8345 109.03 52.9432 109.03 49.0519 109.025C47.3789 109.025 46.8409 108.462 46.8369 106.768C46.8299 104.046 46.8369 101.323 46.8369 98.4601C40.8371 97.2916 35.1381 94.914 30.0869 91.4721C28.2069 93.3571 26.3469 95.2251 24.4869 97.0901C22.8629 98.7161 22.3409 98.7251 20.7399 97.1301C18.0925 94.4934 15.4485 91.8537 12.8079 89.2111C11.3609 87.7641 11.3589 87.1361 12.7779 85.7111C14.6199 83.8657 16.4609 82.0197 18.3009 80.1731C18.3688 80.0756 18.4271 79.9718 18.4749 79.8631C15.0726 74.8279 12.7282 69.1542 11.5839 63.1861C8.81086 63.1861 6.09386 63.1861 3.37786 63.1861C1.51586 63.1861 1.01186 62.6931 1.00986 60.8581C1.00453 56.9247 1.00453 52.9937 1.00986 49.0651C1.00986 47.3831 1.55886 46.8511 3.25486 46.8471C5.97686 46.8401 8.69786 46.8471 11.5639 46.8471C12.7367 40.8361 15.1182 35.1261 18.5639 30.0631C16.7125 28.2277 14.8665 26.3977 13.0259 24.5731C11.2589 22.8141 11.2639 22.3571 13.0459 20.5731C15.6592 17.9584 18.2732 15.3441 20.8879 12.7301C22.2469 11.3741 22.9269 11.3841 24.3089 12.7681C26.2089 14.6681 28.0949 16.5681 30.0649 18.5461C35.1222 15.1097 40.8276 12.7413 46.8319 11.5861C46.8319 8.81506 46.8319 6.10006 46.8319 3.38606C46.8319 1.52206 47.3319 1.00606 49.1519 1.00306C53.0852 0.995725 57.0152 0.995725 60.9419 1.00306C62.6219 1.00306 63.1599 1.56106 63.1639 3.25206C63.1709 5.97406 63.1639 8.69706 63.1639 11.5661C69.1627 12.7372 74.862 15.1116 79.9179 18.5461C81.7605 16.6994 83.5972 14.8597 85.4279 13.0271C87.1919 11.2631 87.6539 11.2701 89.4279 13.0471C91.6279 15.2471 93.8302 17.4471 96.0349 19.6471C98.9659 22.5751 98.9679 22.5761 96.0759 25.4641C94.5639 26.9741 93.0459 28.4791 91.4619 30.0551C94.8971 35.1168 97.2611 40.8274 98.4089 46.8361M105.585 50.2361H104.267C102.049 50.2361 99.8309 50.2451 97.6129 50.2361C95.9519 50.2261 95.4879 49.8281 95.2129 48.1791C94.2008 42.1358 91.8277 36.4019 88.2729 31.4111C87.3029 30.0341 87.3459 29.4451 88.5209 28.2711C90.3879 26.4081 92.2649 24.5541 94.0389 22.7941L87.2579 15.9861C85.4069 17.8391 83.4939 19.7721 81.5579 21.6861C81.4075 21.8938 81.2142 22.0668 80.9911 22.1932C80.768 22.3196 80.5203 22.3965 80.2649 22.4187C80.0094 22.4409 79.7521 22.4079 79.5106 22.3218C79.269 22.2358 79.0488 22.0988 78.8649 21.9201C73.7367 18.2213 67.819 15.765 61.5789 14.7451C60.2039 14.5181 59.8149 14.0141 59.7979 12.5981C59.7759 10.8081 59.7919 9.01706 59.7909 7.22706C59.7909 6.30206 59.7909 5.37806 59.7909 4.41106H50.2199V5.72106C50.2199 8.02106 50.2349 10.3131 50.2129 12.6101C50.1999 14.0101 49.7899 14.5221 48.4129 14.7481C42.1741 15.7736 36.2579 18.2312 31.1289 21.9281C30.9432 22.1046 30.7219 22.2392 30.4799 22.3231C30.2378 22.4069 29.9806 22.4379 29.7256 22.414C29.4705 22.3902 29.2236 22.312 29.0013 22.1847C28.779 22.0574 28.5865 21.8839 28.4369 21.6761C26.7469 20.0091 25.0789 18.3201 23.3959 16.6451C23.1339 16.3841 22.8459 16.1501 22.7089 16.0271L15.9929 22.7521C17.7169 24.4801 19.5269 26.2921 21.3349 28.1071C22.6829 29.4611 22.6849 29.9531 21.6629 31.5241C20.6039 33.1511 19.5529 34.7951 18.6569 36.5141C16.7462 40.1733 15.4391 44.1171 14.7859 48.1931C14.5229 49.8251 14.0409 50.2181 12.3719 50.2401C11.7889 50.2471 11.2049 50.2401 10.6209 50.2401H4.41086V59.7871C7.11686 59.7871 9.75386 59.7781 12.3899 59.7871C14.0479 59.7951 14.5169 60.2041 14.7899 61.8471C15.7865 67.8125 18.1104 73.478 21.5899 78.4251C22.7299 80.0671 22.6989 80.5421 21.3169 81.9251C19.5109 83.7381 17.7019 85.5491 15.9989 87.2551L22.7559 94.0241C24.5959 92.1811 26.5089 90.2471 28.4429 88.3341C28.5954 88.1283 28.7898 87.9572 29.0133 87.8321C29.2368 87.707 29.4842 87.6307 29.7394 87.6082C29.9945 87.5857 30.2515 87.6176 30.4934 87.7017C30.7353 87.7857 30.9567 87.9202 31.1429 88.0961C32.1489 88.7601 33.1369 89.4541 34.1709 90.0691C38.4808 92.6606 43.2417 94.4144 48.2029 95.2381C49.8219 95.5051 50.2029 95.9841 50.2189 97.6721C50.2269 98.6061 50.2189 99.5401 50.2189 100.472V105.612H59.7769C59.7769 102.943 59.7769 100.343 59.7769 97.7441C59.7769 95.9701 60.1489 95.5181 61.8389 95.2351C67.8034 94.2352 73.4672 91.9082 78.4119 88.4261C80.0559 87.2811 80.5119 87.3091 81.9119 88.7111C83.7119 90.5261 85.5119 92.3501 87.2049 94.0691L94.0349 87.2241C92.2409 85.4521 90.3549 83.6011 88.4829 81.7361C87.3619 80.6191 87.3829 80.0241 88.2059 78.6771C89.5609 76.4581 90.9419 74.2421 92.0929 71.9151C93.6324 68.7234 94.6845 65.3189 95.2139 61.8151C95.4709 60.2261 95.9449 59.8361 97.5339 59.8201C98.4679 59.8111 99.4019 59.8201 100.334 59.8201H105.586L105.585 50.2361Z" stroke="#2A3D66" stroke-width="1.2"/>
<path d="M54.9509 85.9901C48.8267 85.9828 42.8423 84.1595 37.7544 80.7509C32.6665 77.3423 28.7037 72.5014 26.3671 66.8405C24.0305 61.1796 23.4252 54.953 24.6275 48.948C25.8299 42.9431 28.7861 37.4295 33.1221 33.1047C37.4581 28.7799 42.9793 25.838 48.9873 24.6511C54.9953 23.4643 61.2204 24.0857 66.8753 26.4369C72.5301 28.7881 77.3607 32.7634 80.7562 37.8601C84.1516 42.9568 85.9594 48.9459 85.9509 55.0701C85.9313 63.2784 82.6564 71.1438 76.8447 76.9404C71.033 82.7371 63.1592 85.9917 54.9509 85.9901ZM55.0079 82.5901C60.4599 82.5899 65.7896 80.9736 70.3234 77.9455C74.8572 74.9174 78.3916 70.6133 80.4802 65.5772C82.5687 60.541 83.1176 54.9988 82.0575 49.6508C80.9974 44.3028 78.3758 39.3891 74.524 35.5305C70.6723 31.6719 65.7632 29.0416 60.4171 27.972C55.071 26.9024 49.5278 27.4414 44.488 29.521C39.4482 31.6006 35.1378 35.1275 32.1017 39.6559C29.0655 44.1843 27.4398 49.511 27.4299 54.9631C27.424 58.5886 28.1329 62.1798 29.5161 65.5311C30.8994 68.8825 32.9297 71.9282 35.4911 74.4942C38.0525 77.0601 41.0947 79.0959 44.4435 80.4851C47.7924 81.8743 51.3823 82.5896 55.0079 82.5901Z" fill="white"/>
<path d="M70.7338 55.0291L64.4338 50.2001C64.1878 50.0111 63.9338 49.8341 63.6948 49.6331C63.4956 49.5091 63.3246 49.3448 63.1925 49.1509C63.0605 48.9569 62.9704 48.7375 62.9281 48.5068C62.8857 48.276 62.892 48.0389 62.9466 47.8107C63.0012 47.5825 63.1028 47.3683 63.245 47.1816C63.3871 46.995 63.5667 46.8401 63.7722 46.7268C63.9777 46.6136 64.2046 46.5446 64.4383 46.5241C64.672 46.5036 64.9075 46.5322 65.1295 46.6079C65.3516 46.6837 65.5554 46.805 65.7278 46.9641C67.1958 48.0481 68.6328 49.1741 70.0838 50.2811C71.4728 51.3411 72.8728 52.3871 74.2498 53.4631C75.4858 54.4291 75.5238 55.6081 74.3048 56.5531C71.4822 58.7424 68.6422 60.9091 65.7848 63.0531C65.6077 63.2207 65.3972 63.3488 65.167 63.4292C64.9368 63.5095 64.6921 63.5401 64.4492 63.519C64.2063 63.498 63.9706 63.4257 63.7577 63.3069C63.5448 63.1882 63.3594 63.0257 63.2138 62.8301C63.0793 62.6385 62.9859 62.4211 62.9393 62.1917C62.8927 61.9623 62.894 61.7258 62.9431 61.4969C62.9922 61.268 63.0881 61.0517 63.2247 60.8616C63.3612 60.6715 63.5356 60.5117 63.7368 60.3921C66.0038 58.6291 68.2938 56.8921 70.7298 55.0291" fill="white"/>
<path d="M39.2727 55.0231L45.4257 59.7281C45.6417 59.8931 45.8597 60.0561 46.0717 60.2281C47.1517 61.0961 47.3877 62.0841 46.7167 62.9091C46.0787 63.6941 45.0757 63.7091 44.0337 62.9171C41.4377 60.9431 38.8464 58.9621 36.2597 56.9741C36.0127 56.7851 35.7517 56.6131 35.5187 56.4091C35.2953 56.2499 35.1137 56.039 34.9895 55.7944C34.8653 55.5498 34.8021 55.2788 34.8053 55.0045C34.8085 54.7301 34.8781 54.4607 35.0081 54.2191C35.1381 53.9775 35.3246 53.7709 35.5517 53.6171C38.4317 51.3751 41.3317 49.1578 44.2517 46.9651C44.4218 46.8037 44.6238 46.6796 44.8447 46.6008C45.0656 46.5221 45.3005 46.4904 45.5344 46.5077C45.7682 46.5251 45.9959 46.5912 46.2027 46.7018C46.4095 46.8124 46.5909 46.965 46.7352 47.1498C46.8796 47.3346 46.9837 47.5476 47.0409 47.7751C47.098 48.0025 47.107 48.2394 47.0672 48.4705C47.0274 48.7016 46.9398 48.9218 46.8098 49.117C46.6799 49.3123 46.5106 49.4782 46.3127 49.6041C44.4847 51.0481 42.6207 52.4461 40.7727 53.8651C40.3157 54.2161 39.8627 54.5701 39.2727 55.0251" fill="white"/>
<path d="M52.15 67.1591C51.8601 67.165 51.5733 67.0977 51.3163 66.9635C51.0593 66.8292 50.8403 66.6323 50.6796 66.3909C50.5189 66.1496 50.4217 65.8716 50.3969 65.5827C50.3722 65.2938 50.4207 65.0033 50.538 64.7381C51.812 60.1008 53.0993 55.4674 54.4 50.8381C54.9833 48.7461 55.5703 46.6547 56.161 44.5641C56.537 43.2391 57.381 42.6311 58.389 42.9351C59.379 43.2351 59.781 44.1291 59.427 45.4051C57.5603 52.1324 55.6873 58.8577 53.808 65.5811C53.556 66.4811 53.074 67.1141 52.15 67.1601" fill="white"/>
<path d="M86.2428 48.8281C97.959 48.8281 107.457 39.3303 107.457 27.6141C107.457 15.8979 97.959 6.40009 86.2428 6.40009C74.5266 6.40009 65.0288 15.8979 65.0288 27.6141C65.0288 39.3303 74.5266 48.8281 86.2428 48.8281Z" fill="white"/>
<path d="M86.2428 46.5131C96.6804 46.5131 105.142 38.0517 105.142 27.6141C105.142 17.1765 96.6804 8.71509 86.2428 8.71509C75.8051 8.71509 67.3438 17.1765 67.3438 27.6141C67.3438 38.0517 75.8051 46.5131 86.2428 46.5131Z" fill="#2A3D66"/>
<path d="M83.3668 32.8611C86.9598 29.1771 90.2498 25.8001 93.5418 22.4291C93.8298 22.1291 94.1288 21.8481 94.4188 21.5561C95.1738 20.7951 96.0408 20.4391 96.8768 21.3101C97.6588 22.1251 97.2438 22.9211 96.5398 23.6161C95.3228 24.8161 94.1208 26.0321 92.9118 27.2411C90.2438 29.9081 87.5598 32.5601 84.9118 35.2511C83.8718 36.3091 82.9518 36.3511 81.9048 35.2641C80.1428 33.4421 78.3338 31.6641 76.5338 29.8811C75.7998 29.1481 75.2878 28.3221 76.1568 27.4421C77.0258 26.5621 77.8668 27.0631 78.5828 27.8191C80.0768 29.4001 81.5738 30.9721 83.3668 32.8611Z" fill="white"/>
</svg>
