<svg width="250" height="50" viewBox="0 0 250 50" fill="none" xmlns="http://www.w3.org/2000/svg">
<path d="M8.06804 49.995C7.52586 49.9958 6.99182 49.8632 6.51295 49.609C6.03409 49.3547 5.6251 48.9866 5.32204 48.537C2.16555 43.8552 0.34173 38.4032 0.0458363 32.7645C-0.250058 27.1258 0.993111 21.5127 3.64226 16.5263C6.2914 11.5399 10.2468 7.3678 15.0849 4.45668C19.9231 1.54556 25.4619 0.00504026 31.1083 1.23472e-05C36.7548 -0.00501556 42.2963 1.52561 47.1396 4.42811C51.983 7.33061 55.9458 11.4957 58.6038 16.4774C61.2618 21.4591 62.515 27.0698 62.2291 32.7091C61.9433 38.3483 60.1292 43.8036 56.981 48.491C56.7381 48.8517 56.4265 49.1609 56.064 49.4012C55.7015 49.6414 55.2953 49.8079 54.8685 49.8912C54.4416 49.9744 54.0026 49.9729 53.5764 49.8864C53.1502 49.8 52.7452 49.6305 52.3845 49.3875C52.0239 49.1446 51.7146 48.8329 51.4743 48.4705C51.2341 48.108 51.0676 47.7017 50.9843 47.2749C50.9011 46.8481 50.9027 46.4091 50.9891 45.9829C51.0756 45.5567 51.2451 45.1517 51.488 44.791C53.9654 41.1003 55.3926 36.8053 55.6167 32.3659C55.8409 27.9265 54.8537 23.5097 52.7607 19.5882C50.6677 15.6667 47.5478 12.3881 43.7348 10.1034C39.9218 7.81869 35.5593 6.61382 31.1142 6.61775C26.6692 6.62168 22.3088 7.83428 18.4999 10.1257C14.6909 12.4172 11.5768 15.7013 9.49078 19.6265C7.40474 23.5517 6.42531 27.9702 6.65735 32.4093C6.88938 36.8483 8.32413 41.1407 10.808 44.827C11.1442 45.3247 11.3386 45.9046 11.3705 46.5043C11.4023 47.1041 11.2704 47.7013 10.9889 48.2319C10.7074 48.7625 10.2868 49.2064 9.77232 49.5163C9.25779 49.8262 8.66867 49.9903 8.06804 49.991V49.995Z" fill="#AFDDFA"/>
<path d="M18.4871 42.517C17.945 42.5177 17.4111 42.3852 16.9323 42.1311C16.4534 41.8771 16.0444 41.5092 15.7411 41.0599C13.8579 38.2683 12.7695 35.0171 12.5924 31.6543C12.4152 28.2915 13.1561 24.9439 14.7356 21.9699C16.315 18.9959 18.6737 16.5075 21.5589 14.7711C24.4442 13.0348 27.7473 12.1159 31.1148 12.1128C34.4822 12.1097 37.787 13.0226 40.6754 14.7537C43.5638 16.4848 45.927 18.969 47.5119 21.9401C49.0968 24.9113 49.8437 28.2575 49.6727 31.6206C49.5017 34.9837 48.4192 38.2369 46.5411 41.032C46.2981 41.3927 45.9865 41.702 45.624 41.9422C45.2616 42.1825 44.8553 42.3489 44.4285 42.4322C44.0017 42.5154 43.5626 42.5138 43.1364 42.4274C42.7102 42.3409 42.3052 42.1714 41.9446 41.9285C41.5839 41.6855 41.2746 41.3739 41.0344 41.0114C40.7941 40.6489 40.6276 40.2427 40.5444 39.8159C40.4611 39.389 40.4627 38.95 40.5492 38.5238C40.6356 38.0976 40.8051 37.6927 41.0481 37.332C42.2551 35.5336 42.9505 33.4409 43.0597 31.2777C43.1689 29.1146 42.6878 26.9624 41.668 25.0516C40.6481 23.1409 39.128 21.5433 37.2701 20.4301C35.4122 19.3168 33.2865 18.7297 31.1206 18.7316C28.9547 18.7334 26.8301 19.3242 24.9741 20.4406C23.1181 21.5571 21.6007 23.1572 20.5841 25.0697C19.5676 26.9822 19.0902 29.1352 19.2031 31.2982C19.316 33.4611 20.0149 35.5526 21.2251 37.3489C21.5612 37.8467 21.7556 38.4265 21.7875 39.0263C21.8194 39.6261 21.6875 40.2233 21.4059 40.7539C21.1244 41.2844 20.7039 41.7284 20.1894 42.0383C19.6748 42.3482 19.0857 42.5122 18.4851 42.5129L18.4871 42.517Z" fill="#86CCF8"/>
<path d="M31.133 36.3171C34.386 36.3171 37.023 33.6801 37.023 30.4271C37.023 27.1742 34.386 24.5371 31.133 24.5371C27.8801 24.5371 25.243 27.1742 25.243 30.4271C25.243 33.6801 27.8801 36.3171 31.133 36.3171Z" fill="#36AAF3"/>
<path d="M94.184 27.4151C94.184 20.8611 91.081 15.4671 82.468 15.2641C74.841 15.0901 70.433 20.9481 70.52 27.6181C70.636 34.1431 74.464 39.7691 82.381 39.5081C91.023 39.2471 94.184 33.9691 94.184 27.4151ZM87.717 27.2121C87.833 30.8951 86.441 34.9261 82.381 35.1001C78.669 35.2161 77.335 31.1851 77.248 27.7051C77.161 24.0801 78.756 19.9331 82.381 19.9331C86.064 19.9331 87.572 23.7031 87.717 27.2121ZM114.099 38.8411V28.8361C114.099 25.0951 112.214 22.7461 109.111 22.4851C106.675 22.3111 104.732 22.7751 103.195 24.6311V22.8621H97.3083V38.8411H103.311V29.3001C103.311 27.5021 104.326 26.1391 105.834 26.2261C107.226 26.2841 108.154 27.6181 108.154 29.0101V38.8411H114.099ZM124.064 38.8701V15.9311H118.003V38.8701H124.064ZM134.623 20.1071V15.9311H128.707V20.1071H134.623ZM134.652 38.8411V22.8621H128.649V38.8411H134.652ZM155.135 38.8411V28.8361C155.135 25.0951 153.25 22.7461 150.147 22.4851C147.711 22.3111 145.768 22.7751 144.231 24.6311V22.8621H138.344V38.8411H144.347V29.3001C144.347 27.5021 145.362 26.1391 146.87 26.2261C148.262 26.2841 149.19 27.6181 149.19 29.0101V38.8411H155.135ZM175.482 31.9971C175.714 29.7931 175.482 22.3691 166.869 22.4561C161.446 22.4851 158.633 26.0231 158.401 30.5471C158.256 35.3611 160.634 39.4791 167.072 39.3921C175.192 39.2471 175.192 33.7951 175.25 33.6211H169.972C169.885 35.3611 168.319 35.9411 166.985 35.9411C163.737 35.9411 164.085 32.0261 164.085 31.9971H175.482ZM169.769 28.8071H164.172C164.056 27.9951 164.723 25.4721 167.014 25.3851C169.595 25.2981 169.914 27.9951 169.769 28.8071ZM195.638 38.8411L195.261 36.6081V27.1251C195.261 23.7901 191.723 22.3981 188.156 22.3981C183.255 22.3981 180.21 24.1381 180.007 27.6181H185.691C185.459 26.2261 186.3 25.2111 187.982 25.2111C189.084 25.2111 189.664 25.9361 189.664 26.8351V28.5461H187.025C183.255 28.5461 179.137 30.3151 178.963 34.0851C178.789 38.2031 181.573 39.1311 184.386 39.3051C186.735 39.4211 188.591 38.4931 189.809 36.4921V38.8411H195.638ZM189.664 32.4031C189.664 33.4471 189.345 34.5491 188.794 35.0131C187.866 35.8251 186.271 36.1441 185.401 35.2161C184.589 34.3751 184.705 33.1281 185.459 32.2291C186.213 31.3591 187.315 31.3591 188.533 31.3301H189.664V32.4031ZM217.427 30.8081C217.398 26.6611 215.281 22.4561 210.525 22.5431C208.466 22.5721 207.016 23.1231 205.537 24.6021V15.9311H199.476V38.8701H205.334V36.4051C206.581 38.2901 207.77 39.3921 210.322 39.3921C215.252 39.3341 217.485 35.1291 217.427 30.8081ZM211.308 30.8081C211.337 33.0701 210.67 35.8541 208.408 35.9121C206.117 35.9121 205.363 33.1281 205.363 30.8081C205.421 28.5751 206.204 25.8491 208.437 25.9361C210.612 25.9941 211.308 28.6331 211.308 30.8081ZM226.895 38.8701V15.9311H220.834V38.8701H226.895ZM248.01 31.9971C248.242 29.7931 248.01 22.3691 239.397 22.4561C233.974 22.4851 231.161 26.0231 230.929 30.5471C230.784 35.3611 233.162 39.4791 239.6 39.3921C247.72 39.2471 247.72 33.7951 247.778 33.6211H242.5C242.413 35.3611 240.847 35.9411 239.513 35.9411C236.265 35.9411 236.613 32.0261 236.613 31.9971H248.01ZM242.297 28.8071H236.7C236.584 27.9951 237.251 25.4721 239.542 25.3851C242.123 25.2981 242.442 27.9951 242.297 28.8071Z" fill="#36AAF3"/>
</svg>
