<svg width="1457" height="378" viewBox="0 0 1457 378" fill="none" xmlns="http://www.w3.org/2000/svg">
<mask id="mask0_101_11" style="mask-type:alpha" maskUnits="userSpaceOnUse" x="0" y="0" width="1457" height="378">
<rect width="1457" height="378" fill="#D9D9D9"/>
</mask>
<g mask="url(#mask0_101_11)">
<path d="M-370.761 467.79C-370.761 467.79 -103.758 519.69 82.6274 315.51C269.012 111.32 407.931 185.018 591.931 209.018C775.931 233.02 784.139 60.6801 975.334 20.4221C1166.53 -19.8359 1247.13 187.111 1433.53 32.0641C1619.93 -122.983 1459.93 -230.982 1763.93 -230.982" stroke="#52B3E2" stroke-width="2"/>
<path d="M-387.583 411.46C-387.583 411.46 -123.663 477.26 73.1534 283.11C269.97 88.9521 404.84 169.819 587.332 203.416C769.824 237.01 787.041 65.3421 980.08 35.1451C1173.12 4.94913 1242.78 215.83 1437.04 70.7511C1631.3 -74.3279 1477.17 -190.553 1780.75 -174.643" stroke="#52B3E2" stroke-width="2"/>
<path d="M-401.435 354.31C-401.435 354.31 -141.32 433.84 65.3876 250.25C272.095 66.665 402.549 154.48 583.032 197.582C763.516 240.68 789.693 70.148 984.049 50.096C1178.4 30.044 1236.93 244.28 1438.52 109.569C1640.1 -25.144 1492.27 -149.277 1794.6 -117.5" stroke="#52B3E2" stroke-width="2"/>
<path d="M-412.254 296.86C-412.254 296.86 -156.574 389.88 59.4979 217.293C275.57 44.701 401.296 139.234 579.333 191.715C757.37 244.2 792.426 75.213 987.618 65.333C1182.81 55.453 1230.09 272.52 1438.49 148.477C1646.89 24.437 1505.7 -107.282 1806.05 -59.75" stroke="#52B3E2" stroke-width="2.00056"/>
<path d="M-422 218.74C-422 218.74 -173.516 329.37 54.0248 172.346C281.565 15.319 400.344 118.378 574.23 183.154C748.115 247.93 794.881 81.8559 990.231 85.6389C1185.58 89.4219 1217.56 309.2 1434.07 200.054C1650.57 90.912 1518.96 -50.312 1815.17 18.073" stroke="#52B3E2" stroke-width="2"/>
</g>
</svg>
