<svg width="403" height="297" viewBox="0 0 403 297" fill="none" xmlns="http://www.w3.org/2000/svg">
<path d="M301.236 37.6C300.242 32.8346 298.357 28.2997 295.68 24.234L300.465 18.453L290.236 8.222L284.455 13.007C280.389 10.3308 275.854 8.44611 271.089 7.452L270.382 0H255.912L255.212 7.452C250.447 8.44581 245.912 10.3305 241.846 13.007L236.064 8.222L225.831 18.455L230.616 24.237C227.939 28.3017 226.054 32.8355 225.06 37.6L217.608 38.3V52.77L225.06 53.47C226.054 58.2351 227.939 62.7696 230.616 66.835L225.831 72.617L236.063 82.849L241.845 78.063C245.91 80.7409 250.445 82.6263 255.211 83.62L255.911 91.071H270.382L271.082 83.62C275.848 82.6268 280.383 80.7414 284.448 78.063L290.229 82.849L300.461 72.617L295.676 66.836C298.353 62.7726 300.24 58.2402 301.236 53.477L308.687 52.777V38.3L301.236 37.6ZM282.736 45.537C282.736 49.4115 281.587 53.1991 279.434 56.4206C277.282 59.6422 274.222 62.1531 270.643 63.6358C267.063 65.1185 263.124 65.5065 259.324 64.7506C255.524 63.9947 252.033 62.1289 249.294 59.3892C246.554 56.6495 244.688 53.1589 243.932 49.3588C243.176 45.5587 243.564 41.6198 245.047 38.0402C246.53 34.4606 249.041 31.4011 252.262 29.2485C255.484 27.0959 259.271 25.947 263.146 25.947C268.342 25.947 273.324 28.0109 276.998 31.6848C280.672 35.3586 282.736 40.3414 282.736 45.537Z" fill="#52B3E2"/>
<path d="M381.422 38.03C381.029 36.1404 380.283 34.3421 379.222 32.73L381.122 30.44L377.067 26.385L374.776 28.285C373.163 27.2246 371.365 26.4782 369.476 26.085L369.198 23.132H363.463L363.185 26.085C361.295 26.4781 359.497 27.2246 357.885 28.285L355.594 26.385L351.539 30.44L353.439 32.73C352.378 34.3421 351.631 36.1404 351.239 38.03L348.285 38.308V44.042L351.239 44.32C351.631 46.2096 352.378 48.0079 353.439 49.62L351.539 51.91L355.594 55.965L357.885 54.065C359.497 55.1258 361.295 55.8722 363.185 56.265L363.463 59.218H369.198L369.476 56.265C371.365 55.8722 373.164 55.1258 374.776 54.065L377.067 55.965L381.122 51.91L379.222 49.62C380.283 48.0079 381.029 46.2096 381.422 44.32L384.375 44.042V38.309L381.422 38.03ZM374.092 41.175C374.092 42.7103 373.636 44.2111 372.783 45.4875C371.93 46.764 370.718 47.7588 369.299 48.3463C367.881 48.9337 366.32 49.0874 364.814 48.7878C363.308 48.4882 361.925 47.7489 360.84 46.6633C359.754 45.5777 359.015 44.1945 358.715 42.6887C358.416 41.183 358.569 39.6222 359.157 38.2037C359.744 36.7852 360.739 35.5728 362.015 34.7197C363.292 33.8667 364.793 33.4112 366.328 33.411C367.348 33.4109 368.357 33.6116 369.299 34.0017C370.241 34.3919 371.097 34.9638 371.818 35.6847C372.539 36.4057 373.111 37.2617 373.501 38.2037C373.891 39.1457 374.092 40.1554 374.092 41.175Z" fill="#52B3E2"/>
<path d="M336.941 9.806C336.689 8.59374 336.209 7.44015 335.528 6.406L336.744 4.937L334.144 2.337L332.675 3.556C331.641 2.87476 330.487 2.39533 329.275 2.143L329.1 0.25H325.423L325.245 2.143C324.033 2.39602 322.879 2.8754 321.845 3.556L320.376 2.34L317.776 4.94L318.992 6.409C318.311 7.44321 317.832 8.5968 317.58 9.809L315.686 9.988V13.665L317.58 13.844C317.832 15.0562 318.311 16.2097 318.992 17.244L317.776 18.713L320.376 21.313L321.845 20.097C322.879 20.7777 324.033 21.2567 325.245 21.509L325.423 23.403H329.1L329.279 21.509C330.491 21.257 331.645 20.7779 332.679 20.097L334.148 21.313L336.748 18.713L335.532 17.237C336.213 16.2028 336.692 15.0492 336.945 13.837L338.838 13.658V9.985L336.941 9.806ZM332.241 11.824C332.241 12.8088 331.949 13.7714 331.402 14.5902C330.855 15.409 330.077 16.0471 329.167 16.424C328.258 16.8008 327.257 16.8994 326.291 16.7073C325.325 16.5152 324.438 16.041 323.741 15.3447C323.045 14.6484 322.571 13.7612 322.379 12.7954C322.187 11.8295 322.285 10.8284 322.662 9.91862C323.039 9.00883 323.677 8.23121 324.496 7.68411C325.315 7.13701 326.277 6.845 327.262 6.845C328.583 6.845 329.849 7.36957 330.783 8.30332C331.716 9.23706 332.241 10.5035 332.241 11.824Z" fill="#1C8CC2"/>
<path d="M65.5659 40.482V208.987C65.5659 211.349 66.5043 213.615 68.1747 215.285C69.8451 216.956 72.1106 217.894 74.4729 217.894H338.094C338.989 217.894 339.847 217.538 340.479 216.906C341.112 216.273 341.468 215.415 341.468 214.52V39.342C341.468 38.144 340.992 36.9951 340.145 36.148C339.298 35.3009 338.149 34.825 336.951 34.825H71.2229C70.48 34.825 69.7444 34.9713 69.0581 35.2556C68.3717 35.5399 67.7481 35.9566 67.2228 36.4819C66.6975 37.0072 66.2808 37.6308 65.9965 38.3172C65.7122 39.0035 65.5659 39.7391 65.5659 40.482Z" fill="#407BFF"/>
<path d="M65.5659 40.482V208.987C65.5659 213.906 69.5539 217.894 75.5419 217.858H339.165C339.958 217.894 341.465 216.383 341.465 214.52V39.342C341.465 38.144 340.989 36.9951 340.142 36.148C339.295 35.3009 338.146 34.825 336.948 34.825H71.2229C70.48 34.825 69.7444 34.9713 69.0581 35.2556C68.3717 35.5399 67.7481 35.9566 67.2228 36.4819C66.6975 37.0072 66.2808 37.6308 65.9965 38.3172C65.7122 39.0035 65.5659 39.7391 65.5659 40.482Z" fill="white"/>
<path d="M65.5659 40.482V208.987C65.5659 213.906 69.5539 217.894 75.5419 217.858H339.165C339.958 217.894 341.465 216.383 341.465 214.52V39.342C341.465 38.144 340.989 36.9951 340.142 36.148C339.295 35.3009 338.146 34.825 336.948 34.825H71.2229C70.48 34.825 69.7444 34.9713 69.0581 35.2556C68.3717 35.5399 67.7481 35.9566 67.2228 36.4819C66.6975 37.0072 66.2808 37.6308 65.9965 38.3172C65.7122 39.0035 65.5659 39.7391 65.5659 40.482" stroke="#2A3D66" stroke-width="4"/>
<path d="M341.472 49.52H65.5659V39.261C65.5658 38.6787 65.6804 38.1021 65.9032 37.5641C66.126 37.026 66.4526 36.5372 66.8643 36.1254C67.2761 35.7137 67.7649 35.3871 68.3029 35.1643C68.841 34.9415 69.4176 34.8269 69.9999 34.827H337.931C338.396 34.8269 338.856 34.9184 339.286 35.0963C339.716 35.2742 340.106 35.535 340.435 35.8639C340.764 36.1927 341.025 36.5831 341.203 37.0128C341.381 37.4425 341.472 37.903 341.472 38.368V49.52Z" fill="#2A3D66"/>
<path d="M307.985 79.542H99.0569C96.6941 79.542 94.4281 78.6034 92.7573 76.9326C91.0866 75.2619 90.1479 72.9958 90.1479 70.633C90.1479 68.2702 91.0866 66.0042 92.7573 64.3334C94.4281 62.6626 96.6941 61.724 99.0569 61.724H307.985C310.348 61.724 312.614 62.6626 314.285 64.3334C315.955 66.0042 316.894 68.2702 316.894 70.633C316.894 72.9958 315.955 75.2619 314.285 76.9326C312.614 78.6034 310.348 79.542 307.985 79.542Z" fill="#E1E9ED"/>
<path d="M307.19 70.156C307.19 70.9335 306.959 71.6935 306.527 72.3399C306.095 72.9864 305.482 73.4902 304.763 73.7878C304.045 74.0853 303.255 74.1631 302.492 74.0115C301.729 73.8598 301.029 73.4854 300.479 72.9356C299.929 72.3859 299.555 71.6854 299.403 70.9229C299.252 70.1604 299.33 69.37 299.627 68.6517C299.925 67.9334 300.428 67.3194 301.075 66.8875C301.721 66.4556 302.481 66.225 303.259 66.225C303.776 66.2233 304.288 66.3238 304.765 66.5207C305.243 66.7177 305.677 67.0072 306.042 67.3725C306.408 67.7379 306.697 68.1719 306.894 68.6496C307.091 69.1273 307.192 69.6393 307.19 70.156V70.156Z" stroke="#2A3D66" stroke-miterlimit="10"/>
<path d="M308.965 75.041L306.29 72.943" stroke="#2A3D66" stroke-linecap="round" stroke-linejoin="round"/>
<g opacity="0.4">
<path d="M298.457 196.966C298.302 197.669 297.925 198.303 297.382 198.775C296.993 199.1 295.76 199.755 295.619 198.828C295.663 198.247 295.779 197.675 295.962 197.122C296.262 196.398 296.591 196.872 297.081 196.967C297.571 197.062 298.056 196.602 298.457 196.967" fill="#E1E9ED"/>
<path d="M295.104 121.826C295.279 122.446 295.399 123.057 295.536 123.635C295.061 124.344 294.123 124.081 293.428 124.461C293.101 124.64 293.011 125.293 292.696 125.392C292.442 125.472 292.247 125.128 292.008 125.134C291.39 125.149 291.088 126.377 290.33 126.065C289.897 126.375 290.347 127.565 289.813 127.665C289.435 127.737 289.226 127.149 288.995 126.787C288.717 126.349 288.321 126.108 288.31 125.753C288.299 125.398 288.927 124.769 289.125 124.514C289.369 124.199 289.849 123.614 290.156 123.531C290.73 123.38 291.312 123.598 291.749 123.377C292.126 123.184 292.149 122.471 292.349 122.291C292.521 122.139 292.718 122.181 292.866 122.085C293.146 121.828 293.349 121.5 293.455 121.135C293.561 120.771 293.565 120.384 293.466 120.018C293.321 119.441 292.526 118.81 293.035 118.104C293.498 118.214 293.921 118.452 294.255 118.79C294.59 119.129 294.823 119.554 294.928 120.018C294.976 120.374 294.812 120.731 294.841 121.102C294.908 121.35 294.994 121.592 295.098 121.827" fill="#E1E9ED"/>
<path d="M295.276 116.192C295.176 116.456 294.985 116.401 294.803 116.553C294.621 116.705 294.419 117.175 294.203 117.226C293.857 117.304 293.469 116.819 293.126 116.917C292.726 117.032 292.959 117.403 292.826 117.846C292.59 117.774 292.379 117.639 292.212 117.458C292.046 117.276 291.931 117.053 291.88 116.812C291.87 116.512 292.19 116.334 292.268 115.986C292.395 115.395 292.068 115.097 291.88 114.539C291.866 114.456 291.921 114.45 291.922 114.384C292.343 114.278 293.168 115.23 294.117 115.417C294.729 115.539 295.242 115.474 295.278 116.193" fill="#E1E9ED"/>
<path d="M293.685 168.65C293.729 169.08 293.106 169.03 293.04 168.75C293.052 168.418 293.609 168.314 293.685 168.65Z" fill="#E1E9ED"/>
<path d="M290.674 111.852C291.1 112.122 292.131 112.735 291.405 113.299C291.144 113.169 290.931 112.957 290.8 112.697C290.668 112.436 290.624 112.14 290.674 111.852Z" fill="#E1E9ED"/>
<path d="M288.699 166.375C289.191 166.053 289.728 165.345 290.591 165.702C290.402 166.345 289.754 166.333 289.345 166.633C288.936 166.933 288.579 167.452 288.055 167.511C288.021 167.426 287.96 167.353 287.883 167.304C287.883 166.727 288.359 166.595 288.701 166.376" fill="#E1E9ED"/>
<path d="M287.53 156.657C288.03 156.657 288.511 156.47 288.861 156.709C288.796 158.001 287.128 157.018 286.024 157.226C285.789 157.269 285.724 157.488 285.464 157.379C285.481 157.156 285.569 156.945 285.717 156.777C285.864 156.61 286.062 156.495 286.281 156.45C286.597 156.411 287.068 156.65 287.53 156.656" fill="#E1E9ED"/>
<path d="M287.964 158.258C288.013 158.973 287.2 159.053 286.975 159.604C287.332 160.26 287.475 161.177 287.875 161.772C287.858 162.166 287.942 162.682 287.745 162.858C286.88 163.058 286.414 161.188 286.067 160.534C285.405 160.683 286.01 163.227 285.123 162.911C284.688 162.755 285.128 162.029 285.036 161.465C284.956 160.965 284.551 160.865 284.519 160.481C284.494 160.163 284.811 159.824 284.906 159.499C285.043 159.031 284.956 158.129 285.422 158.105C285.653 158.092 285.961 158.686 286.111 158.725C286.625 158.857 287.235 158.095 287.961 158.259" fill="#E1E9ED"/>
<path d="M286.373 165.959C286.215 166.35 285.331 166.159 285.256 165.804C285.407 165.396 286.299 165.519 286.373 165.959Z" fill="#E1E9ED"/>
<path d="M285.555 167.198C285.506 167.274 285.448 167.344 285.384 167.407C285.057 167.281 284.709 167.185 284.61 166.786C284.851 166.361 285.543 166.713 285.554 167.198" fill="#E1E9ED"/>
<path d="M284.393 165.907C284.175 166.279 283.418 165.877 283.147 166.268C282.699 166.255 282.247 166.249 282.157 165.804C282.287 165.425 282.694 165.685 283.017 165.649C283.536 165.592 284.255 165.154 284.393 165.907Z" fill="#E1E9ED"/>
<path d="M277.599 164.151C277.834 164.112 278.009 163.904 278.244 163.895C278.744 163.871 279.244 164.339 279.834 164.255C279.964 164.422 279.876 164.561 279.879 164.825C280.379 165.147 281.208 165.089 281.47 165.702C281.093 166.182 280.533 165.838 280.05 165.753C279.614 165.679 279.15 165.716 278.674 165.653C278.074 165.569 277.528 165.17 276.955 165.085C276.606 165.033 276.25 165.145 275.922 165.085C275.535 165.013 274.092 164.36 274.072 163.898C274.052 163.436 274.721 163.287 275.319 163.38C276.092 163.501 276.608 164.321 277.6 164.155" fill="#E1E9ED"/>
<path d="M278.763 160.585C278.438 160.475 278.133 160.536 277.991 160.43C277.696 160.212 277.74 159.593 277.645 159.241C277.55 158.889 277.193 158.694 277.002 158.207C276.721 157.507 276.602 155.925 277.345 155.779C277.645 155.719 277.953 155.995 278.162 155.934C278.576 155.812 278.504 155.167 278.85 154.899C279.043 154.75 279.395 154.812 279.669 154.693C279.955 154.513 280.192 154.264 280.356 153.969C280.537 153.712 280.677 153.278 280.915 153.091C281.182 152.879 281.43 152.875 281.646 152.678C282.21 152.161 282.228 151.441 282.678 150.816C283.06 150.289 283.664 151.324 283.711 151.747C283.925 152.076 284.345 152.157 284.528 152.523C284.274 153.432 283.56 153.51 283.711 154.796C283.764 155.098 283.851 155.393 283.969 155.676C284.092 155.976 284.455 156.305 284.442 156.502C284.414 156.888 283.766 156.872 283.624 157.277C283.493 157.653 283.634 157.677 283.582 158.259C283.4 158.681 282.915 158.782 282.764 159.294C282.582 159.909 282.79 160.703 282.377 161.156C282.091 161.137 281.777 161.456 281.433 161.412C281.056 161.371 280.696 160.75 280.097 160.739C279.87 160.739 279.597 160.915 279.366 160.895C279.183 160.879 279.035 160.675 278.766 160.586" fill="#E1E9ED"/>
<path d="M275.975 159.436C277.069 159.436 277.069 161.476 275.975 161.476C274.881 161.476 274.881 159.436 275.975 159.436Z" fill="#E1E9ED"/>
<path d="M274.372 159.189C274.664 159.472 274.872 159.83 274.972 160.224C274.957 160.588 274.502 160.568 274.372 161.052C274.172 161.794 274.463 162.635 274.115 163.017C273.842 163.126 273.545 163.16 273.255 163.117C272.483 162.421 271.79 161.641 271.19 160.791C270.928 160.506 270.697 160.194 270.501 159.86C270.277 159.367 270.201 158.824 269.943 158.36C269.718 157.955 269.303 157.666 269.083 157.224C268.903 156.86 268.883 156.384 268.697 156.034C268.519 155.709 268.219 155.57 268.007 155.31C267.87 155.14 267.792 154.877 267.664 154.69C267.123 153.913 266.084 153.506 266.031 152.365C266.251 152.065 266.478 152.477 266.89 152.572C267.157 152.632 267.473 152.545 267.665 152.623C268.056 152.78 268.326 153.514 268.74 153.915C268.973 154.139 269.276 154.295 269.513 154.534C269.768 154.792 269.956 155.16 270.159 155.31C270.439 155.516 270.827 155.652 271.192 155.931C271.692 156.311 272.576 156.706 272.698 157.482C272.727 157.675 272.622 157.999 272.654 158.151C272.713 158.424 272.999 158.541 273.17 158.772C273.382 159.059 273.426 159.49 273.729 159.547C274.029 159.647 274.047 159.134 274.374 159.185" fill="#E1E9ED"/>
<path d="M254.073 148.336C254.443 148.482 255.679 150.287 255.32 151.283C255.242 151.465 255.109 151.618 254.939 151.72C254.769 151.822 254.571 151.868 254.374 151.851C253.523 151.69 253.685 149.413 253.944 148.492C253.953 148.458 253.969 148.427 253.992 148.401C254.014 148.374 254.042 148.352 254.073 148.337" fill="#E1E9ED"/>
<path d="M225.469 174.488C225.521 173.995 225.715 173.527 226.028 173.142C226.428 172.789 226.961 172.825 227.362 172.574C227.764 172.336 228.115 172.02 228.393 171.644C228.601 171.321 228.612 170.954 228.781 170.713C228.897 170.547 229.157 170.503 229.297 170.301C229.421 170.119 229.397 169.779 229.597 169.578C230.197 169.271 230.366 170.585 230.458 171.488C230.512 171.727 230.555 171.969 230.585 172.212C230.524 172.624 230.145 172.712 230.027 172.989C229.951 174.038 229.704 175.067 229.295 176.036C229.009 176.836 228.842 177.721 228.607 178.414C228.521 178.666 228.341 178.863 228.264 179.086C227.953 179.965 227.84 181.346 227.274 181.721C226.896 181.905 226.491 182.027 226.074 182.083C225.802 182.051 225.547 181.934 225.346 181.747C225.146 181.561 225.01 181.315 224.958 181.046C224.927 180.737 224.913 180.426 224.914 180.115C224.792 179.712 224.72 179.295 224.699 178.874C224.799 177.823 225.647 177.312 225.689 176.446C225.72 175.794 225.413 175.146 225.474 174.483" fill="#E1E9ED"/>
<path d="M221.125 93.195C221 92.636 221.882 92.726 221.725 93.247C221.683 93.2848 221.634 93.3135 221.58 93.3315C221.527 93.3494 221.47 93.3562 221.414 93.3513C221.357 93.3464 221.303 93.33 221.253 93.3031C221.203 93.2763 221.16 93.2394 221.125 93.195Z" fill="#E1E9ED"/>
<path d="M215.835 124.1C215.855 123.673 216.664 123.517 216.823 123.894C216.77 124.309 216.002 124.594 215.835 124.1Z" fill="#E1E9ED"/>
<path d="M201.082 121.309C201.531 120.873 202.528 121.168 203.147 121.154C203.03 121.554 203.013 122.062 202.759 122.291C202.423 122.266 202.097 122.165 201.807 121.994C201.516 121.824 201.268 121.59 201.082 121.309Z" fill="#E1E9ED"/>
<path d="M197.942 118.567C198.533 117.826 199.153 118.217 198.931 119.652C198.791 120.079 198.175 120.652 197.898 120.014C197.967 119.535 197.981 119.049 197.942 118.567Z" fill="#E1E9ED"/>
<path d="M198.803 116.917C198.837 117.061 198.827 117.213 198.773 117.352C198.72 117.49 198.625 117.609 198.503 117.693C197.935 117.573 198.367 116.35 198.803 116.917Z" fill="#E1E9ED"/>
<path d="M190.459 106.427C190.472 106.267 190.443 106.107 190.375 105.962C190.307 105.817 190.202 105.692 190.071 105.599C189.93 105.504 189.713 105.548 189.555 105.444C189.136 105.167 188.984 104.591 188.739 104.462C188.689 104.015 188.689 103.565 188.739 103.118C188.967 102.717 189.292 102.379 189.684 102.137C190.06 101.977 190.453 102.12 190.674 101.776C190.711 101.767 190.75 101.767 190.787 101.775C190.825 101.784 190.859 101.802 190.888 101.827C190.888 102.153 190.658 102.207 190.63 102.499C190.683 102.969 191.372 102.675 191.447 103.119C191.382 103.602 191.02 103.698 191.017 104.05C191.017 104.357 191.538 104.939 191.791 105.342C191.98 105.642 192.31 105.863 192.48 106.17C192.628 106.437 192.661 106.756 192.78 106.893C193.005 107.15 193.516 107.193 193.555 107.565C193.604 108.059 193.044 108.253 193.124 108.805C192.534 109.363 191.548 109.074 190.585 109.219C190.15 109.285 189.67 109.806 189.209 109.374C189.102 109.026 189.591 108.98 189.64 108.65C189.606 108.35 189.284 108.388 189.209 108.134C189.334 107.734 189.725 107.649 189.683 107.048C189.923 106.733 190.383 106.848 190.458 106.428" fill="#E1E9ED"/>
<path d="M187.233 105.184C187.807 104.762 188.811 105.084 188.866 105.597C188.908 105.985 188.566 106.041 188.436 106.476C188.324 106.876 188.457 107.341 188.307 107.614C188.176 107.85 187.819 107.836 187.575 107.923C187.034 108.117 185.989 108.881 185.554 108.023C185.617 107.565 185.987 107.474 186.113 107.093C186.12 106.793 185.856 106.637 185.898 106.318C185.95 105.928 186.198 106.062 186.543 105.905C186.797 105.789 186.904 105.42 187.232 105.18" fill="#E1E9ED"/>
<path d="M157.857 93.971C157.947 94.43 156.725 95.03 156.61 94.437C156.517 93.962 157.545 93.368 157.857 93.971Z" fill="#E1E9ED"/>
<path d="M156.437 210.454H155.792C155.999 210.369 156.23 210.369 156.437 210.454Z" fill="#E1E9ED"/>
<path d="M154.501 90.302C154.518 90.2848 154.538 90.2712 154.56 90.2619C154.583 90.2527 154.606 90.2479 154.63 90.2479C154.655 90.2479 154.678 90.2527 154.701 90.2619C154.723 90.2712 154.743 90.2848 154.76 90.302C154.717 90.423 154.683 90.556 154.501 90.508V90.302Z" fill="#E1E9ED"/>
<path d="M150.673 98.518C150.682 98.803 149.818 99.274 149.726 98.724C149.715 98.6462 149.726 98.567 149.756 98.4945C149.786 98.4221 149.835 98.3591 149.898 98.312C150.128 98.142 150.665 98.239 150.673 98.518Z" fill="#E1E9ED"/>
<path d="M132.781 146.527C132.758 146.604 132.717 146.658 132.695 146.734C132.238 146.715 132.65 146.012 132.781 146.527Z" fill="#E1E9ED"/>
<path d="M115.318 110.405C115.618 110.193 115.909 110.723 115.706 110.973C115.374 111.051 115.289 110.593 115.318 110.405Z" fill="#E1E9ED"/>
<path d="M278.329 185.7C278.254 185.248 278.153 184.8 278.029 184.358C278.007 184.183 278.051 183.958 278.029 183.737C277.967 183.482 277.924 183.222 277.9 182.961C277.959 182.619 278.291 182.582 278.374 182.289C278.508 181.807 278.209 181.73 278.201 181.152C278.196 180.744 278.459 180.545 278.632 180.015C278.712 179.77 278.715 179.315 278.804 179.137C278.915 178.916 279.392 178.73 279.578 178.621C280.238 178.232 280.766 177.51 281.43 177.38C281.597 177.347 281.83 177.405 281.946 177.38C282.336 177.298 282.826 176.905 283.365 176.759C283.841 176.717 284.306 176.595 284.741 176.397C285.261 175.985 285.672 175.453 285.941 174.847C286.141 174.279 286.081 173.8 286.457 173.608C286.642 173.514 286.824 173.615 287.016 173.557C287.3 173.45 287.563 173.292 287.791 173.091C288.091 172.769 288.14 172.241 288.478 171.903C288.78 171.611 289.112 171.351 289.468 171.128C289.677 171.004 289.913 170.933 290.155 170.92C290.762 170.983 291.044 172 291.704 171.799C291.939 171.728 292.18 171.126 292.394 170.766C292.703 170.239 292.93 169.529 293.468 169.366C293.903 169.237 294.391 169.566 294.63 169.108C294.684 168.781 294.43 168.587 294.63 168.383C295.13 168.42 295.979 169.233 296.737 169.261C297.145 169.277 297.903 168.726 297.984 169.469C298.021 169.798 297.678 170.062 297.597 170.399C297.54 170.637 297.682 170.765 297.554 171.02C297.204 171.185 296.833 171.273 296.823 171.743C296.81 172.332 297.516 172.61 297.94 172.933C298.231 173.154 298.474 173.491 298.629 173.605C298.761 173.698 298.971 173.743 299.06 173.81C299.339 174.028 299.536 174.522 299.921 174.535C300.357 174.548 300.793 173.879 301.038 173.242C301.261 172.449 301.404 171.635 301.467 170.814C301.511 170.552 301.667 170.297 301.726 170.038C301.892 169.332 302.117 168.376 302.626 168.126C303.151 169.032 303.362 170.087 303.226 171.126C303.569 171.439 304.174 171.335 304.257 172.057C304.286 172.306 304.157 172.625 304.171 172.882C304.2 173.317 304.471 173.699 304.517 174.071C304.603 174.76 304.417 175.328 304.687 175.829C305.023 176.46 305.682 176.439 306.107 177.122C306.125 177.441 306.198 177.755 306.322 178.05C306.362 178.208 306.322 178.465 306.365 178.568C306.503 178.913 306.876 178.948 307.01 179.239C307.077 179.382 307.058 179.652 307.14 179.911C307.306 180.274 307.507 180.621 307.74 180.945C307.967 181.266 308.155 181.614 308.298 181.98C308.385 182.495 308.074 182.848 307.998 183.271C307.979 183.842 307.922 184.412 307.827 184.976C307.507 185.667 307.147 186.34 306.751 186.991C306.449 187.655 306.042 188.266 305.546 188.8C305.275 189.061 304.952 189.212 304.686 189.473C304.285 189.916 303.911 190.384 303.568 190.873C303.181 191.365 302.712 191.741 302.406 192.163C301.964 192.778 301.744 193.769 300.988 193.869C300.563 193.868 300.142 193.938 299.74 194.076C299.103 194.376 298.681 194.94 298.365 194.955C298.033 194.967 297.725 194.486 297.418 194.438C297.074 194.384 296.804 194.751 296.3 194.747C296.095 194.747 295.992 194.601 295.7 194.489C295.085 194.255 294.41 194.265 294.324 193.456C294.276 193.015 294.558 192.817 294.538 192.421C294.518 192.025 294.198 191.928 294.064 191.595C294.132 191.42 294.148 191.229 294.11 191.046C294.072 190.862 293.982 190.693 293.85 190.56C293.828 190.307 293.889 190.053 294.022 189.837C293.723 189.949 293.435 190.088 293.161 190.252C292.848 190.478 292.623 191 292.261 190.923C291.922 190.779 292.183 190.373 292.131 190.044C291.977 189.505 291.729 188.997 291.399 188.544C290.947 188.25 290.454 188.023 289.937 187.871C288.608 187.622 287.761 188.471 286.71 188.596C286.441 188.626 286.147 188.542 285.894 188.596C284.986 188.903 284.172 189.436 283.528 190.145C282.638 190.251 281.737 189.926 280.818 190.245C279.899 190.564 279.384 191.477 277.981 191.225C277.703 190.938 277.209 190.795 277.206 190.295C277.206 189.901 277.691 189.647 277.851 189.365C278.098 188.917 278.258 188.426 278.324 187.918C278.333 187.574 278.131 187.163 278.151 186.73C278.167 186.392 278.325 186.03 278.324 185.695" fill="#C3D7E1"/>
<path d="M204.739 100.948C204.788 101.814 203.639 101.706 203.491 102.448C203.425 102.783 203.625 103.231 203.578 103.532C203.489 104.075 203.053 103.917 202.503 104.205C202.221 104.351 201.949 104.888 201.642 104.928C201.358 104.964 201.186 104.728 200.997 104.774C200.714 104.839 200.809 105.255 200.397 105.343C200.067 105.411 199.489 104.988 199.451 105.498C199.426 105.825 199.971 105.998 200.312 105.962C200.582 105.931 200.779 105.707 201.042 105.704C201.552 105.699 201.883 106.158 202.204 106.169C202.942 106.194 203.667 105.35 204.441 105.444C204.79 105.488 204.998 105.785 205.258 105.755C205.672 105.708 206.025 105.133 206.333 104.927C206.203 104.056 206.345 102.909 207.022 102.86C207.487 102.827 208.184 103.814 208.268 102.86C208.275 102.674 208.214 102.491 208.094 102.348C207.975 102.205 207.807 102.111 207.623 102.084C207.376 102.09 207.051 102.673 206.849 102.184C206.849 101.711 207.292 101.836 207.537 101.719C207.719 101.631 207.849 101.392 208.053 101.306C209.076 100.874 210.494 101.729 210.891 100.685C209.984 99.755 208.438 101.024 207.407 100.944C207.147 100.91 206.901 100.805 206.697 100.641C206.492 100.476 206.336 100.259 206.246 100.013C206.201 99.853 206.239 99.64 206.202 99.342C206.164 99.012 206.021 98.666 206.031 98.462C206.074 97.529 208.008 97.352 208.008 96.189C207.744 95.9891 207.417 95.8894 207.086 95.9078C206.755 95.9261 206.442 96.0612 206.201 96.289C206.074 96.453 206.081 96.789 205.901 97.116C205.515 97.822 204.269 97.906 203.88 98.769C203.739 99.0944 203.68 99.4494 203.707 99.803C203.807 100.292 204.707 100.425 204.741 100.94M194.502 151.49C193.324 151.4 192.149 151.69 191.147 152.315C190.718 152.623 190.238 152.851 189.728 152.988C189.319 153.012 188.918 152.727 188.528 152.68C187.967 152.627 187.401 152.661 186.85 152.78C186.355 152.886 185.909 153.31 185.474 153.348C184.64 153.424 183.847 152.448 183.323 151.948C183.003 151.648 182.677 151.402 182.377 151.121C182.056 150.821 181.639 150.636 181.388 150.346C181.049 149.952 181.049 149.266 180.872 148.746C180.663 148.13 180.025 147.678 179.539 147.093C179.175 146.656 178.339 146.002 178.249 145.44C178.203 145.153 178.349 144.821 178.335 144.509C178.312 144.056 178.028 143.799 178.035 143.475C178.044 143.021 178.489 142.675 178.594 142.287C178.649 142.087 178.622 141.814 178.68 141.563C178.908 141.06 179.025 140.515 179.025 139.963C178.922 139.641 178.836 139.313 178.767 138.982C178.758 138.71 178.915 138.559 178.896 138.309C178.863 137.868 178.387 137.782 178.337 137.276C178.287 136.752 178.753 136.32 179.026 135.725C179.148 135.459 179.216 135.051 179.326 134.847C179.568 134.407 179.96 134.195 180.144 133.761C180.278 133.441 180.322 132.967 180.444 132.728C180.603 132.42 180.918 132.254 181.219 131.849C181.464 131.519 181.563 131.119 181.735 130.97C181.979 130.822 182.239 130.701 182.51 130.609C183.309 130.205 183.935 129.525 184.273 128.696C184.164 128.088 184.287 127.461 184.617 126.939C184.796 126.421 185.106 125.957 185.517 125.595C186.055 125.229 186.56 125.195 186.936 124.51C187.176 124.114 187.337 123.676 187.41 123.219C187.403 122.956 187.323 122.701 187.179 122.481C187.034 122.262 186.831 122.087 186.593 121.977C186.204 121.903 185.607 122.332 185.393 121.823C185.324 121.661 185.419 121.279 185.393 121.099C185.343 120.76 185.102 120.522 185.093 120.272C185.072 119.787 185.493 119.282 185.609 118.723C185.699 117.984 185.684 117.235 185.566 116.5C186.166 115.36 187.503 115.926 188.836 116.034C189.036 116.051 189.265 115.977 189.48 115.984C190.27 116.006 190.892 116.292 191.157 115.467C191.279 114.89 191.323 114.299 191.287 113.71C191.094 113.169 190.787 112.676 190.387 112.264C189.96 111.938 189.34 112.081 189.097 111.489C189.297 110.468 190.247 111.318 190.817 111.075C191.108 110.952 191.075 110.346 191.334 110.248C191.509 110.181 191.734 110.461 191.979 110.455C192.397 110.312 192.789 110.102 193.14 109.834C193.415 109.611 193.5 109.148 193.74 108.956C193.904 108.826 194.12 108.843 194.3 108.75C194.721 108.52 195.088 108.203 195.375 107.819C195.73 107.307 195.89 106.674 196.32 106.58C196.897 106.453 198.202 106.717 198.299 105.959C198.391 105.237 197.771 104.67 197.999 103.892C198.179 103.277 198.639 103.386 199.289 103.013C199.602 103.28 199.511 104.045 199.546 104.513C199.946 104.513 200.759 104.372 200.836 103.945C200.936 103.412 200.254 102.871 200.105 102.545C199.944 102.196 199.905 101.584 199.589 101.511C198.934 101.36 198.298 102.596 197.481 102.596C197.201 102.57 196.934 102.463 196.713 102.289C196.491 102.115 196.325 101.88 196.234 101.614C196.197 101.34 196.183 101.063 196.191 100.787C196.054 100.318 195.995 99.8292 196.019 99.341C196.347 98.662 197.107 98.553 197.653 98.203C197.859 98.071 198.025 97.79 198.253 97.687C198.638 97.515 199.208 97.687 199.586 97.428C199.825 97.266 199.758 96.984 199.93 96.653C200.038 96.445 200.3 96.324 200.446 96.085C200.546 95.919 200.559 95.668 200.661 95.516C201.034 94.958 201.717 94.751 201.993 94.173C202.115 93.917 201.781 93.823 201.865 93.449C202.004 93.089 202.54 93.349 202.853 93.294C203.281 93.214 203.676 92.589 204.143 92.467C204.637 92.4244 205.127 92.3381 205.606 92.209C205.876 92.084 206.125 91.789 206.381 91.744C206.471 91.728 206.725 91.802 206.854 91.796C207.017 91.788 207.194 91.666 207.412 91.641C207.787 91.6541 208.161 91.6874 208.532 91.741C209.211 91.758 209.858 91.496 210.424 91.793C210.724 91.948 210.687 92.351 211.068 92.516C211.261 92.599 211.515 92.483 211.8 92.516C212.222 92.564 212.661 92.916 213.219 92.982C213.419 93.005 213.619 92.952 213.819 92.982C214.475 93.1525 215.11 93.395 215.712 93.705C216.212 93.905 217.283 94.164 217.303 94.738C217.327 95.418 216.374 95.617 215.97 95.617C215.293 95.617 214.397 95.143 213.691 95.411C213.689 95.672 213.741 95.9307 213.843 96.1709C213.945 96.4111 214.096 96.6277 214.285 96.8071C214.475 96.9865 214.699 97.1249 214.945 97.2136C215.19 97.3024 215.452 97.3396 215.712 97.323C215.796 96.774 215.168 97.079 215.238 96.548C215.667 96.159 216.181 96.809 216.787 96.703C217.023 96.626 216.987 96.215 217.044 95.928C217.555 95.554 218.196 95.006 218.979 95.411C219.013 95.3258 219.073 95.2536 219.151 95.205C219.202 94.637 218.635 94.342 218.937 93.805C219.087 93.438 219.889 93.565 220.012 93.857C220.074 94.206 219.812 94.169 219.839 94.478C219.885 94.6212 219.978 94.7448 220.103 94.829C220.228 94.9133 220.377 94.9534 220.527 94.943C220.949 94.916 221.033 94.461 221.427 94.218C221.588 94.118 221.827 94.11 222.027 94.012C222.271 93.896 222.477 93.662 222.672 93.599C222.815 93.553 223.032 93.599 223.231 93.547C223.485 93.481 223.753 93.237 223.962 93.238C224.222 93.238 224.407 93.598 224.736 93.651C224.916 93.68 225.12 93.529 225.382 93.496C225.593 93.469 225.811 93.526 225.982 93.496C226.393 93.424 226.675 93.165 227.015 93.186C227.255 93.202 227.667 93.586 227.832 93.393C228.11 93.062 227.461 92.814 227.661 92.513C228.321 92.573 229.022 92.555 229.683 92.668C230.598 92.9815 231.531 93.2406 232.477 93.444C232.393 92.726 231.709 92.932 231.402 92.617C231.181 92.2907 231.022 91.9267 230.932 91.543C231.088 91.1098 231.289 90.6942 231.532 90.303C231.823 90.082 232.186 89.9755 232.55 90.0039C232.915 90.0323 233.256 90.1935 233.51 90.457C233.754 90.857 233.672 91.452 234.026 91.44C234.326 91.429 234.492 90.531 234.844 90.509C235.135 90.491 235.283 91.085 235.575 91.077C235.932 91.069 236.175 90.271 236.651 90.25C236.905 90.238 236.99 90.406 237.382 90.456C237.651 90.248 237.292 89.974 237.426 89.68C237.907 89.26 239.005 89.58 239.619 89.319C239.791 89.074 239.4 88.9 239.576 88.646C240.292 88.2545 241.085 88.0254 241.899 87.975C242.451 87.862 242.971 87.401 243.399 87.354C243.851 87.306 244.281 87.672 244.689 87.664C244.958 87.6465 245.222 87.5765 245.464 87.458C245.706 87.344 245.871 87.058 246.109 86.993C246.539 86.9638 246.97 86.9638 247.399 86.993C247.789 86.8757 248.192 86.8065 248.599 86.787C248.912 86.846 249.163 87.247 249.46 87.303C250.366 87.473 251.301 87.14 252.126 87.403C252.274 87.451 252.426 87.635 252.6 87.713C253.153 87.956 253.53 87.88 253.633 88.695C254.067 88.88 254.323 89.359 254.833 89.522C255.176 89.631 255.522 89.47 255.908 89.47C256.44 89.4613 256.972 89.4947 257.499 89.57C257.745 89.616 257.949 89.834 258.188 89.881C258.361 89.915 258.588 89.858 258.788 89.881C259.029 89.946 259.273 89.9977 259.519 90.036C259.97 90.019 260.312 89.536 260.68 89.467C260.899 89.4725 261.116 89.5061 261.326 89.567C262.043 89.5365 262.761 89.5539 263.476 89.619C263.922 89.8214 264.328 90.1014 264.676 90.446C264.93 90.678 265.083 91.046 265.321 91.221C265.622 91.4484 265.979 91.5913 266.354 91.635C266.63 91.582 266.641 91.214 266.912 91.066C267.766 90.838 269.28 91.393 269.966 91.014C270.232 90.867 270.18 90.529 270.396 90.342C271.687 90.266 272.973 90.406 274.181 90.442C274.595 90.3935 275.013 90.3764 275.43 90.391C275.855 90.48 276.166 90.991 276.59 91.166C276.872 91.281 277.369 91.222 277.79 91.321C278.076 91.389 278.309 91.595 278.521 91.631C278.969 91.6576 279.418 91.624 279.856 91.531C280.94 91.3524 282.052 91.4593 283.082 91.841C283.599 92.09 283.817 92.594 284.371 92.667C285.166 92.773 286.397 92.589 287.211 92.667C287.381 92.7111 287.553 92.7445 287.727 92.767C288 92.743 288.166 92.467 288.502 92.458C288.927 92.447 289.602 93.258 290.223 93.131C290.49 92.914 290.009 92.613 290.264 92.406C290.507 92.165 290.838 92.406 291.211 92.406C291.411 92.406 291.664 92.282 291.856 92.306C292.329 92.355 292.778 92.866 293.362 93.029C293.91 93.1674 294.479 93.2013 295.04 93.129C295.417 93.0192 295.808 92.9669 296.201 92.974C296.392 93.005 296.561 93.174 296.759 93.232C296.957 93.29 297.122 93.232 297.275 93.283C297.428 93.334 297.561 93.491 297.706 93.541C298.506 93.816 299.57 93.952 300.416 94.265C300.863 94.5129 301.34 94.7037 301.835 94.833C302.035 94.84 302.22 94.727 302.48 94.733C303.78 94.744 305.308 95.394 305.188 96.853C303.668 97.253 302.395 95.595 300.801 96.078C300.653 96.1342 300.526 96.2328 300.434 96.3615C300.342 96.4902 300.291 96.6431 300.286 96.801C300.345 97.701 302.233 97.626 302.392 98.506C302.083 98.784 301.745 98.522 301.492 98.558C300.998 98.718 300.554 99.0029 300.202 99.385C299.911 99.713 299.655 100.551 299.341 100.626C298.957 100.715 298.37 100.171 297.793 100.315C297.581 100.369 297.378 100.686 297.193 100.729C296.718 100.837 296.114 100.418 295.818 101.09C295.974 101.562 295.879 102.22 296.204 102.49C296.414 102.662 296.677 102.529 296.935 102.645C297.235 102.781 297.405 103.223 297.665 103.472C297.879 103.672 298.108 103.68 298.225 103.937C298.252 104.318 298.099 104.36 298.138 104.609C298.206 105.042 298.769 105.141 298.783 105.435C298.803 105.808 298.428 105.729 298.354 106.108C298.327 106.348 298.586 106.408 298.611 106.728C298.628 106.94 298.47 107.161 298.483 107.401C298.501 107.745 298.728 107.975 298.697 108.279C298.68 108.397 298.636 108.51 298.569 108.608C298.501 108.707 298.413 108.789 298.309 108.848C297.486 108.212 296.744 107.337 295.858 106.522C294.951 105.687 293.513 104.661 293.364 102.905C293.359 102.636 293.838 102.425 293.922 102.026C293.957 101.864 293.869 101.626 293.88 101.406C293.91 100.799 294.327 100.216 294.311 99.856C294.168 99.3353 293.829 98.8903 293.364 98.615C293.114 98.773 293.364 99.086 293.321 99.34C293.29 99.508 293.213 99.6642 293.099 99.7916C292.985 99.9191 292.838 100.013 292.675 100.063C291.862 100.148 291.775 98.804 290.481 99.185C290.227 99.3211 290.023 99.5351 289.9 99.7955C289.776 100.056 289.739 100.349 289.794 100.632C289.83 100.857 290.346 101.1 290.31 101.407C290.274 101.714 289.138 101.792 288.89 101.769C288.197 101.701 287.839 101.078 287.214 101.096C286.906 101.105 286.637 101.405 286.395 101.457C285.041 101.757 283.031 100.657 282.569 102.077C282.502 102.277 282.54 102.541 282.482 102.75C282.38 102.997 282.265 103.239 282.138 103.474C282.085 103.634 282.094 103.948 282.008 104.198C281.93 104.423 281.116 105.306 281.836 105.542C282.008 105.597 282.088 105.453 282.31 105.49C282.679 105.549 283.294 106.262 283.728 106.265C283.987 106.265 284.347 105.915 284.546 105.904C284.946 105.88 285.232 106.19 285.534 106.368C285.836 106.546 286.266 106.898 286.482 106.884C286.887 106.859 286.694 106.522 287.082 106.368C287.826 106.634 288.174 107.581 288.888 108.332C289.147 108.604 289.53 108.838 289.878 109.211C290.072 109.42 290.67 109.979 290.696 110.245C290.719 110.491 290.529 110.597 290.48 110.813C290.411 111.128 290.573 111.359 290.394 111.589C289.708 111.283 289.554 110.47 289.061 109.78C288.878 109.523 288.694 109.217 288.417 108.849C288.29 108.684 287.835 108.101 287.556 108.229C287.015 108.475 287.856 109.46 287.986 109.676C288.327 110.136 288.563 110.665 288.676 111.226C288.692 111.534 288.509 112.094 288.504 112.62C288.504 112.977 288.579 113.3 288.547 113.602C288.469 113.936 288.369 114.264 288.247 114.585C288.147 114.964 288.124 115.416 288.033 115.669C287.943 115.916 287.796 116.138 287.605 116.319C287.414 116.5 287.184 116.633 286.932 116.71C286.575 116.728 286.422 116.38 286.072 116.401C285.543 116.431 285.445 117.017 285.127 117.485C285.154 117.994 285.288 118.169 285.213 118.519C285.097 119.067 284.463 119.162 284.482 119.708C284.5 120.208 285.062 120.308 285.342 120.536C285.882 120.987 286.36 121.508 286.763 122.086C287.065 122.514 287.257 123.011 287.322 123.531C287.289 124.043 286.064 124.754 285.556 124.565C285.075 124.386 285.24 123.834 285.127 123.325C285.039 122.934 284.784 122.766 284.655 122.447C284.586 122.28 284.618 122.015 284.524 121.826C284.264 121.3 283.811 121.588 283.276 121.258C282.926 121.042 283.028 120.585 282.89 120.172C282.743 119.894 282.505 119.674 282.214 119.552C281.924 119.43 281.601 119.412 281.299 119.501C280.838 119.608 280.699 120.072 280.266 120.172C279.635 119.723 280.396 118.615 279.621 118.519C279.028 118.444 278.635 119.542 278.287 119.863C278.052 120.078 277.627 120.123 277.6 120.431C277.549 121.001 278.1 120.885 278.544 121.104C278.944 121.304 278.994 121.85 279.363 121.879C279.671 121.904 279.874 121.498 280.18 121.466C280.653 121.455 281.113 121.621 281.47 121.932C281.255 122.558 280.097 123.017 280.094 123.844C280.094 124.322 280.556 124.405 280.912 124.722C281.212 124.989 281.612 125.745 282.03 126.272C282.213 126.499 282.508 126.649 282.59 126.789C282.79 127.13 282.757 127.546 282.976 127.772C283.012 128.055 282.868 128.123 282.89 128.392C282.996 128.763 283.472 128.692 283.578 129.064C283.49 129.956 283.799 130.795 283.191 131.132C283.103 132.501 282.577 133.805 281.691 134.852C280.834 135.509 279.854 135.985 278.808 136.252C278.553 136.352 278.348 136.674 278.12 136.768C277.548 137.002 276.529 136.859 276.487 137.699C276.463 138.112 276.924 138.362 276.96 138.783C276.987 139.06 276.927 139.338 276.788 139.579C276.649 139.82 276.438 140.012 276.185 140.127C275.981 140.137 275.782 140.067 275.629 139.931C275.476 139.796 275.382 139.607 275.367 139.403C275.333 138.787 276.003 138.534 276.056 138.163C276.076 138.006 276.062 137.846 276.015 137.695C275.968 137.543 275.888 137.404 275.782 137.286C275.676 137.168 275.545 137.075 275.4 137.012C275.254 136.95 275.097 136.919 274.938 136.923C274.481 137.122 274.074 137.42 273.747 137.795C273.42 138.171 273.18 138.614 273.045 139.094C273.02 139.653 273.969 140.819 274.292 141.161C275.499 142.44 276.782 143.207 276.571 146.329C276.271 147.12 275.498 147.288 274.894 147.729C274.435 148.06 274.205 149.089 273.431 149.176C273.12 149.048 273.301 148.465 273.216 148.195C273.099 147.825 272.483 147.643 272.098 147.264C271.848 146.915 271.618 146.553 271.41 146.178C271.11 145.822 270.659 145.747 270.291 145.506C270.059 145.355 269.878 144.822 269.646 144.835C269.266 144.852 269.398 145.291 269.303 146.022C269.208 146.753 268.77 147.293 268.915 148.141C268.975 148.489 269.337 148.77 269.515 149.123C269.815 149.709 269.855 150.391 270.161 150.723C270.361 150.944 270.706 150.992 270.935 151.187C271.509 151.663 271.991 152.242 272.355 152.893C272.431 153.476 272.474 154.063 272.484 154.651C272.627 155.313 273.347 155.786 272.916 156.46C272.502 156.313 272.121 156.084 271.796 155.788C271.253 155.388 270.823 154.854 270.549 154.238C270.419 154.04 270.304 153.832 270.205 153.617C270.054 153.154 270.087 152.63 269.948 152.067C269.742 151.46 269.421 150.898 269.001 150.413C268.701 150.071 268.163 149.872 268.141 149.379C268.11 148.686 268.341 147.871 268.313 147.053C268.308 146.878 268.213 146.7 268.185 146.486C268.139 146.086 268.218 145.604 268.14 145.244C268.036 144.924 267.907 144.614 267.753 144.315C267.638 144.015 267.521 143.715 267.41 143.332C267.236 142.732 267.039 141.582 266.635 141.523C266.204 141.461 265.778 142.494 265.216 142.506C265.044 142.494 264.88 142.427 264.749 142.316C264.617 142.204 264.525 142.053 264.485 141.885C264.43 141.568 264.621 141.248 264.614 140.904C264.599 140.21 264.189 139.943 263.882 139.457C263.759 139.257 263.726 138.983 263.624 138.836C263.424 138.556 263.055 138.399 262.807 138.113C262.566 137.831 262.364 137.518 262.207 137.182C262.041 136.782 261.988 136.253 261.734 136.2C261.48 136.147 261.212 136.566 260.96 136.665C260.582 136.789 260.193 136.875 259.798 136.923C258.935 136.995 258.234 136.723 258.336 137.957C258.202 138.513 257.713 138.519 257.39 138.783C256.967 139.272 256.578 139.79 256.228 140.333C256.01 140.597 255.693 140.761 255.497 141.006C255.333 141.206 255.282 141.535 255.109 141.731C254.65 142.251 253.962 142.296 253.648 143.022C253.63 143.881 253.986 144.531 253.905 145.346C253.868 145.718 253.637 146.046 253.605 146.432C253.641 146.775 253.655 147.121 253.649 147.466C253.611 147.654 253.437 147.753 253.304 147.982C253.184 148.188 253.136 148.463 253.048 148.603C252.902 148.826 252.665 148.981 252.53 149.172C252.312 149.483 252.266 149.705 252.057 149.741C251.114 149.903 250.882 147.749 250.466 146.841C250.274 146.427 249.883 146.052 249.692 145.55C249.471 144.971 249.404 144.243 249.092 143.586C248.781 143.037 248.508 142.467 248.275 141.88C248.122 141.388 247.989 140.772 247.845 140.227C247.68 139.652 247.565 139.064 247.501 138.47C247.465 137.799 247.608 137.386 247.156 137.126C246.742 137.244 246.556 137.747 246.081 137.747C245.622 137.747 244.39 136.792 244.749 135.938C244.449 135.427 243.691 135.146 243.114 134.544C242.784 134.198 242.485 133.374 241.914 133.304C241.739 133.32 241.566 133.353 241.398 133.404C241.034 133.442 240.389 133.365 239.978 133.404C239.382 133.509 238.776 133.542 238.172 133.504C237.751 133.449 237.228 133.352 236.796 133.298C236.221 133.275 235.666 133.077 235.206 132.73C235.014 132.518 234.938 131.84 234.606 131.748C234.206 131.637 233.988 132.007 233.618 132.109C233.263 132.176 232.896 132.154 232.551 132.046C232.206 131.938 231.893 131.746 231.639 131.489C231.261 131.189 230.917 131.031 230.65 130.816C229.996 130.29 229.879 128.709 228.886 128.697C228.67 128.693 228.458 128.762 228.287 128.894C228.115 129.025 227.993 129.211 227.94 129.421C228.005 129.848 228.167 130.255 228.414 130.61C228.897 131.428 229.783 131.734 230.048 132.831C230.227 132.915 230.589 132.643 230.779 132.883C230.946 133.355 230.779 134.229 231.166 134.434C232.955 134.788 233.466 133.612 234.266 132.78C234.73 133.144 234.576 133.463 234.739 133.864C234.866 134.237 235.126 134.551 235.47 134.744C235.686 134.844 235.963 134.75 236.288 134.898C236.758 135.268 237.128 135.749 237.365 136.298C237.211 136.869 236.963 137.409 236.631 137.898C236.46 138.153 236.197 138.287 236.115 138.518C236.054 138.697 236.074 139.076 236.029 139.191C235.95 139.397 235.563 139.666 235.34 139.914C235.109 140.151 234.865 140.376 234.609 140.586C234.337 140.837 234.169 141.181 233.878 141.311C233.306 141.565 232.761 141.456 232.287 141.828C231.977 142.07 231.976 142.618 231.6 142.912C231.207 143.219 230.534 143.221 229.964 143.533C229.598 143.733 229.379 144.12 229.064 144.256C228.935 144.311 228.773 144.264 228.633 144.308C228.347 144.396 228.083 144.639 227.815 144.72C227.602 144.786 227.378 144.753 227.17 144.82C226.507 145.049 225.9 145.858 225.234 145.388C224.92 144.517 224.87 143.422 224.504 142.649C224.317 142.255 223.949 142.133 223.816 141.72C223.798 141.387 224.131 141.478 224.159 141.203C224.05 140.645 223.611 140.384 223.342 139.91C223.211 139.679 223.15 139.35 222.998 139.084C222.485 138.184 221.474 137.721 221.277 136.603C221.224 136.303 221.286 136.06 221.235 135.827C221.134 135.436 220.959 135.068 220.719 134.743C220.555 134.513 220.219 134.357 220.031 134.018C219.906 133.795 219.879 133.481 219.773 133.243C219.354 132.319 218.771 131.478 218.052 130.762C217.702 130.823 217.325 130.852 217.152 131.125C217.328 131.753 217.573 132.36 217.883 132.934C218.201 133.461 218.475 134.014 218.7 134.587C218.768 134.802 218.756 135.087 218.83 135.31C219.1 136.129 219.951 136.381 220.12 137.327C220.234 137.959 220.094 138.398 220.25 139.027C220.398 139.636 221.144 139.994 221.45 140.577C221.626 141.101 221.769 141.635 221.88 142.177C222.137 142.84 222.857 143.128 223.38 143.577C223.811 144.032 224.212 144.515 224.58 145.023C224.811 145.274 225.127 145.323 225.18 145.592C225.253 145.941 225.058 146.059 225.008 146.366C225.338 146.78 225.66 147.543 226.208 147.607C226.435 147.633 226.722 147.358 227.068 147.297C227.243 147.267 227.438 147.33 227.584 147.297C227.813 147.247 228.013 147.002 228.274 146.936C228.713 146.822 229.222 146.868 229.774 146.781C230.3 146.698 230.662 146.164 231.064 146.316C231.507 146.9 231.189 147.562 231.064 148.125C231.02 148.325 231.02 148.525 230.98 148.694C230.747 149.614 230.139 150.294 229.859 151.122C229.773 151.376 229.789 151.686 229.689 151.949C229.292 152.788 228.785 153.57 228.182 154.275C227.92 154.639 227.632 154.984 227.322 155.308C227.014 155.608 226.637 155.779 226.289 156.084C225.553 156.748 224.916 157.514 224.396 158.358C224.208 158.669 224.119 159.026 223.922 159.289C223.642 159.665 223.209 159.85 222.977 160.219C222.778 160.656 222.605 161.104 222.461 161.562C222.225 162.153 221.73 162.553 221.817 163.371C221.849 163.684 222.083 163.879 222.161 164.199C222.25 164.73 222.235 165.273 222.117 165.799C222.273 166.504 222.566 167.171 222.978 167.763C223.031 168.809 222.906 169.823 222.978 170.709C223.107 171.199 223.122 171.712 223.021 172.209C222.747 172.801 222.351 173.329 221.86 173.759C221.454 174.074 220.833 174.159 220.397 174.536C220.097 174.8 219.843 175.261 219.536 175.571C219.029 176.079 218.336 176.554 218.289 177.071C218.332 177.424 218.418 177.771 218.546 178.103C218.789 178.98 218.805 179.905 218.59 180.79C218.278 181.683 216.702 181.498 216.526 182.443C216.472 182.73 216.626 182.959 216.612 183.271C216.518 183.784 216.374 184.286 216.181 184.771C215.991 185.199 215.559 185.391 215.281 185.754C214.929 186.212 214.751 186.875 214.381 187.354C213.826 188.048 213.207 188.689 212.531 189.266C211.82 189.857 210.955 190.234 210.037 190.352C209.515 190.397 208.955 190.204 208.403 190.301C208.203 190.335 207.981 190.558 207.714 190.61C207.559 190.64 207.4 190.577 207.241 190.61C206.971 190.665 206.718 190.923 206.467 190.921C206.107 190.832 205.786 190.627 205.553 190.338C205.32 190.049 205.188 189.692 205.177 189.321C205.171 189.014 205.395 188.721 205.392 188.44C205.251 187.968 205.049 187.517 204.792 187.097C204.541 186.519 204.442 185.866 204.192 185.397C203.926 184.897 203.572 184.654 203.375 184.259C203.049 183.398 202.86 182.491 202.816 181.571C202.773 181.261 202.596 180.924 202.558 180.537C202.511 180.062 202.605 179.537 202.516 179.137C202.369 178.797 202.196 178.469 201.999 178.155C201.699 177.485 201.483 176.609 201.226 176.089C200.983 175.601 200.495 175.089 200.451 174.539C200.442 174.055 200.471 173.571 200.537 173.092C200.584 172.729 200.807 172.442 200.881 172.06C200.93 171.805 200.872 171.513 200.924 171.232C201.143 170.049 202.224 169.619 202.086 168.182C202.026 167.572 201.667 167.272 201.612 166.582C201.587 166.258 201.747 165.973 201.742 165.651C201.657 165.131 201.497 164.626 201.268 164.151C200.958 163.081 200.51 162.056 199.935 161.102C199.593 160.63 199.143 160.302 198.86 159.861C198.605 159.468 198.43 159.03 198.343 158.57C198.343 158.27 198.532 158.09 198.601 157.793C198.691 157.412 198.701 156.693 198.815 156.093C198.965 155.64 199.052 155.169 199.074 154.693C199.013 154.399 198.89 154.121 198.711 153.88C198.533 153.638 198.304 153.438 198.041 153.293C197.441 153.114 196.822 153.524 196.063 153.448C195.41 152.948 195.463 151.648 194.514 151.484M218.299 169.984C218.499 169.604 218.748 168.537 218.299 168.278H218.213C218.021 168.708 217.813 169.744 218.299 169.984ZM217.699 159.184C217.845 158.826 218.185 158.448 218.129 157.996C218.006 156.996 216.455 157.496 216.281 158.202C216.162 158.681 216.351 159.061 216.193 159.546C216.363 159.928 216.787 160.004 217.312 159.958C217.602 159.806 217.567 159.512 217.699 159.183M215.076 164.508C215.247 164.127 214.804 163.88 214.731 163.473C214.646 162.996 214.831 162.436 214.473 162.18H214.332C214.02 163.028 214.461 164.425 215.063 164.508M244.396 113.189C244.234 112.798 243.769 113.303 243.967 113.654C244.258 113.676 244.367 113.474 244.396 113.189ZM234.376 115.308C235.076 115.146 234.383 113.808 233.859 113.964C233.174 114.17 233.901 115.418 234.376 115.308ZM231.192 121.974C231.407 120.182 230.245 120.048 230.03 118.774C230.13 118.79 230.078 118.625 230.16 118.619C230.443 118.456 230.869 118.88 231.019 118.465C231.016 118.314 230.976 118.167 230.9 118.037C230.825 117.906 230.718 117.797 230.589 117.72C230.46 117.642 230.313 117.599 230.163 117.594C230.012 117.588 229.863 117.622 229.729 117.69C229.543 117.536 229.518 117.19 229.472 116.862C228.985 116.513 227.777 115.751 227.795 115.053C227.809 114.479 228.426 114.153 229.128 114.175C229.428 113.905 229.234 113.075 228.956 112.883C228.548 112.727 228.103 112.692 227.675 112.784C227.247 112.875 226.856 113.089 226.547 113.399C226.209 113.693 225.832 113.899 225.647 114.071C225.431 114.297 225.295 114.587 225.26 114.898C225.287 115.217 225.669 115.405 225.819 115.829C225.896 116.046 225.88 116.319 225.949 116.501C226.219 116.971 226.568 117.39 226.981 117.741C227.237 118.041 227.956 118.679 227.97 119.032C227.983 119.332 227.749 119.392 227.67 119.705C227.566 120.127 227.523 120.562 227.541 120.997C227.635 121.565 228.124 121.584 228.571 121.824C229.018 122.064 229.443 122.482 229.905 122.495C230.145 122.51 230.385 122.471 230.608 122.382C230.831 122.292 231.031 122.155 231.195 121.979M221.087 118.259C222.253 118.006 221.72 116.822 221.13 116.399C220.682 116.078 220.147 115.799 219.624 115.416C219.324 115.194 218.169 114.775 218.162 114.332C218.153 113.847 219.019 113.687 218.678 112.832C218.089 112.66 216.69 112.932 216.786 113.711C216.842 114.161 217.286 113.911 217.386 114.383C216.965 114.564 216.453 115.035 216.01 114.952C215.483 114.852 215.348 114.075 215.065 113.608C214.655 113.624 214.386 113.132 213.903 113.195C213.397 113.261 213.128 114.143 212.87 114.595C212.733 114.829 212.515 114.951 212.44 115.163C212.395 115.291 212.44 115.494 212.397 115.679C212.25 116.254 211.836 116.464 211.88 116.971C211.921 117.419 212.326 117.62 212.355 118.005C212.327 118.405 211.797 118.195 211.838 118.677C212.608 119.441 212.651 118.317 213.043 118.161C213.358 118.034 213.976 118.261 214.375 118.161C214.697 118.076 214.952 117.707 215.321 117.541C215.578 117.421 215.856 117.35 216.139 117.333C217.507 117.265 218.39 118.333 219.58 118.367C220.082 118.382 220.584 118.348 221.08 118.267M218.327 124.367C218.351 123.812 218.151 123.395 218.112 122.61C217.318 122.034 216.725 123.144 215.919 123.022C215.419 122.947 215.069 122.255 214.543 122.351C214.253 122.403 214.11 122.851 213.811 122.919C213.196 123.054 212.911 122.328 212.263 122.61C211.332 121.566 210.786 120.235 210.714 118.838C210.214 118.047 209.447 118.69 209.08 119.199C208.855 119.199 208.572 119.048 208.522 119.354C208.352 120.309 209.645 120.411 209.639 121.059C209.639 121.481 209.139 121.441 208.908 121.73C208.668 122.037 208.828 122.309 208.522 122.505C207.673 122.628 207.392 122.071 207.402 121.163C207.036 120.494 206.573 120.008 206.241 119.458C206.072 119.208 205.956 118.926 205.897 118.63C205.866 118.389 205.997 118.082 205.94 117.804C205.847 117.31 205.082 116.939 204.607 116.667C204.07 116.417 203.564 116.105 203.101 115.736C202.845 115.478 202.725 115.029 202.501 114.858C202.308 114.713 202.069 114.743 201.901 114.6C201.666 114.4 201.701 114.071 201.385 113.979C201.223 113.907 200.973 114.172 200.869 114.342C200.659 115.469 201.423 115.542 201.769 116.042C202.01 116.386 202.129 116.902 202.369 117.128C202.628 117.37 202.981 117.328 203.315 117.489C203.545 117.603 203.695 117.947 203.915 118.109C204.326 118.409 204.985 118.461 205.034 119.039C204.779 119.248 204.2 118.739 204.002 119.247C203.952 119.582 204.224 119.754 204.217 120.073C204.206 120.582 203.736 121.14 203.317 121.056C203.274 120.756 203.541 120.505 203.532 120.176C203.513 119.518 202.412 118.515 201.855 118.213C201.593 118.072 201.275 118.063 201.036 117.903C200.494 117.511 200.016 117.039 199.617 116.503C199.31 116.013 199.047 115.103 198.37 115.159C198.094 115.18 197.87 115.484 197.639 115.625C197.415 115.748 197.2 115.886 196.994 116.037C196.743 116.237 196.54 116.437 196.305 116.451C195.766 116.478 195.305 115.969 194.843 116.09C194.687 116.13 194.556 116.298 194.369 116.503C194.363 116.803 194.445 116.998 194.413 117.329C194.272 117.62 193.857 117.602 193.553 117.795C193.094 118.168 192.689 118.603 192.348 119.086C192.134 119.285 191.971 119.534 191.874 119.81C191.851 119.981 191.995 120.305 191.962 120.535C191.819 120.915 191.582 121.253 191.273 121.516C191.121 121.642 190.919 121.658 190.757 121.774C190.418 122.016 190.266 122.331 189.982 122.395C189.23 122.563 187.864 122.213 187.875 123.17C187.881 123.81 188.6 123.812 189.036 123.79C189.522 123.841 190.01 123.858 190.498 123.843C190.731 123.772 190.984 123.459 191.229 123.326C191.383 123.243 191.543 123.241 191.66 123.171C191.917 123.016 192.06 122.764 192.26 122.655C192.748 122.428 193.273 122.288 193.809 122.242C194.388 122.201 194.994 122.313 195.744 122.242C196.011 122.216 196.276 122.01 196.563 121.983C197.031 121.939 197.647 122.205 198.025 122.191C198.287 122.18 198.579 121.874 198.885 121.88C199.055 121.89 199.219 121.95 199.356 122.05C199.493 122.151 199.598 122.29 199.659 122.449C199.695 122.6 199.586 122.841 199.616 123.069C199.665 123.445 199.934 123.6 199.916 123.845C199.893 124.168 199.222 124.601 199.316 124.981C199.375 125.226 199.857 125.481 200.091 125.654C200.37 125.873 200.692 126.031 201.036 126.118C201.28 126.151 201.495 126.037 201.725 126.067C202.158 126.15 202.568 126.326 202.925 126.584C203.325 126.925 203.273 127.474 203.742 127.668C203.942 127.751 204.302 127.704 204.559 127.768C205.186 127.93 205.65 128.555 206.108 128.491C206.828 128.391 206.499 127.575 206.581 126.991C206.765 125.672 208.91 125.732 209.334 126.628C209.651 126.664 209.967 126.716 210.279 126.784C210.485 126.864 210.639 127.136 210.838 127.197C211.024 127.207 211.211 127.207 211.397 127.197C212.222 127.309 212.968 128.047 213.677 127.92C214.126 127.841 214.452 127.333 214.877 127.3C215.7 127.239 216.227 128.036 217.114 127.661C217.767 127.385 217.621 126.572 217.845 125.749C218.044 125.297 218.202 124.829 218.318 124.349M264.684 106.726C264.748 106.42 264.742 106.103 264.668 105.799C264.594 105.495 264.452 105.211 264.254 104.969C263.754 105.069 264.116 105.693 264.082 106.055C264.034 106.568 263.582 106.925 263.608 107.455C263.443 107.688 263.161 107.779 263.135 108.178C263.409 108.405 263.528 107.999 263.735 107.765C264.063 107.395 264.567 107.176 264.68 106.731M253.426 88.804C253.072 88.8248 252.737 88.9712 252.481 89.217C252.319 89.317 251.989 89.378 252.094 89.681C252.506 89.622 253.328 89.397 253.426 88.803M235.276 95.16C236.287 95.443 236.762 94.071 236.093 93.299C235.936 93.118 235.409 93.048 235.193 92.627C234.929 92.127 234.966 91.448 234.332 91.594C234.326 91.654 234.339 91.74 234.288 91.748C234.229 92.878 235.598 93.162 235.578 94.073C235.569 94.551 235.148 94.601 235.278 95.159" fill="#C3D7E1"/>
<path d="M162.198 112.316C161.998 112.256 161.723 112.268 161.467 112.216C161.248 112.169 160.987 112.091 160.78 112.061C160.249 111.985 159.674 112.17 159.36 111.803C159.903 110.972 160.522 110.193 161.21 109.477C161.41 109.267 161.826 109.123 161.726 108.701C161.36 108.315 160.91 108.725 160.564 108.96C160.21 109.257 159.802 109.485 159.364 109.632C158.653 109.759 157.709 109.382 157.127 109.838C157.047 110.229 157.789 110.077 157.685 110.666C157.555 110.715 157.413 110.727 157.276 110.699C157.14 110.672 157.013 110.607 156.912 110.511C156.712 110.294 156.826 109.969 156.697 109.838C156.259 109.617 155.76 109.545 155.277 109.632C155.053 109.664 154.846 109.767 154.684 109.925C154.522 110.083 154.415 110.288 154.377 110.511C154.92 110.811 155.815 110.196 156.012 110.976C155.712 111.619 155.012 111.976 155.112 112.836C155.139 113.012 155.208 113.178 155.312 113.322C155.416 113.466 155.553 113.583 155.712 113.664C155.949 113.713 156.083 113.43 156.312 113.457C156.541 113.484 156.5 113.818 156.786 113.767C157.2 113.554 157.429 112.856 157.904 112.888C158.473 113.718 157.39 114.123 156.786 114.388C156.097 114.688 155.203 114.848 154.678 115.113C154.403 115.252 153.363 116.46 153.216 115.525C153.11 114.852 153.731 115.046 153.861 114.491C153.195 114.336 152.574 114.836 151.968 115.112C151.104 115.505 149.638 115.754 149.43 116.921C149.388 117.155 149.515 117.592 149.387 117.748C149.287 117.873 148.667 117.895 148.398 118.006C147.983 118.177 147.621 118.542 147.365 118.626C147.172 118.69 146.886 118.672 146.765 118.726C146.424 118.886 146.298 119.441 145.905 119.811C145.744 119.962 145.388 120.072 145.26 120.224C145.037 120.49 145.008 121.157 144.615 121.258C144.365 121.284 144.162 121.032 143.926 121.206C144.016 121.945 144.001 122.693 143.884 123.428C143.352 123.911 142.776 124.343 142.164 124.72C141.803 124.964 141.481 125.027 141.044 125.289C140.736 125.475 140.454 125.916 140.099 126.168C139.582 126.423 139.142 126.811 138.824 127.293C138.507 127.774 138.323 128.331 138.292 128.907C138.292 129.225 138.43 129.569 138.464 129.941C138.485 130.16 138.443 130.374 138.464 130.613C138.515 131.153 138.841 131.841 138.464 132.213C137.885 131.926 137.149 131.831 136.744 131.334C136.634 130.824 136.968 130.404 136.916 129.94C136.875 129.567 136.438 128.902 136.184 128.854C135.93 128.806 135.684 129.138 135.41 129.112C135.089 129.082 134.79 128.55 134.378 128.492C133.772 128.407 133.328 128.658 132.657 128.545C132.008 128.961 131.818 129.702 131.024 129.629C130.744 129.604 130.487 129.347 130.163 129.268C129.759 129.141 129.339 129.072 128.916 129.062C128.183 129.12 127.652 129.754 127.023 130.146C126.468 130.494 125.683 130.925 125.523 131.646C125.433 132.034 125.508 132.579 125.393 132.938C125.29 133.168 125.175 133.392 125.048 133.609C124.433 134.84 124.251 136.242 124.532 137.589C124.72 138.196 124.965 138.784 125.263 139.345C125.588 139.717 126.026 139.971 126.51 140.069C126.848 140.019 127.18 139.933 127.499 139.811C127.876 139.768 128.25 139.699 128.618 139.605C129.548 139.247 129.364 137.736 130.295 137.227C130.797 137.01 131.34 136.904 131.886 136.918C132 137.052 132.086 137.209 132.137 137.377C132.189 137.546 132.206 137.724 132.186 137.899C132.091 138.199 131.976 138.493 131.842 138.778C131.742 139.108 131.723 139.494 131.627 139.761C131.499 140.11 131.214 140.361 131.111 140.692C131.043 140.905 131.081 141.169 131.025 141.363C130.925 141.703 130.547 141.943 130.725 142.293C131.646 142.733 132.761 142.168 133.564 142.346C133.833 142.421 134.075 142.574 134.258 142.785C134.441 142.997 134.559 143.257 134.596 143.534C134.596 144.004 134.296 144.312 134.252 144.826C134.2 145.474 133.975 146.266 133.952 146.789C133.915 147.647 135 149.127 135.759 149.115C136.577 149.102 137.054 148.137 138.038 148.651C138.365 148.82 138.711 149.457 139.071 149.426C139.371 149.4 139.818 148.774 140.017 148.34C140.259 147.812 140.276 147.366 140.704 147.101C141.166 146.814 141.533 146.952 142.124 146.687C142.39 146.548 142.635 146.375 142.855 146.171C143.063 145.999 143.283 145.547 143.543 145.861C143.887 146.273 143.123 146.505 143.414 146.946C144.014 147.327 144.314 146.241 144.748 146.223C145.063 146.343 145.354 146.518 145.608 146.739C145.944 147.005 146.058 147.376 146.425 147.463C146.661 147.519 147.04 147.354 147.371 147.41C147.81 147.487 148.071 147.939 148.404 147.927C148.809 147.914 149.004 147.384 149.35 147.307C150.109 147.14 150.391 147.407 150.726 147.979C151.1 148.057 151.114 147.458 151.457 147.67C151.269 148.121 151.521 148.328 151.671 148.704C151.771 148.945 151.753 149.116 151.844 149.22C152.049 149.455 152.444 149.455 152.744 149.685C153.078 150.045 153.366 150.444 153.604 150.873C153.953 151.41 154.49 151.797 155.11 151.958C155.583 151.995 155.967 151.797 156.358 151.858C157.162 152.038 157.886 152.474 158.422 153.099C158.77 153.42 159.084 153.643 159.196 154.028C159.274 154.296 159.236 154.657 159.326 154.959C159.516 155.602 160.297 155.913 160.014 157.026C160.144 157.352 160.434 157.469 160.745 157.699C160.995 157.882 161.206 158.267 161.476 158.319C161.651 158.353 161.841 158.256 161.992 158.267C162.433 158.342 162.856 158.5 163.239 158.732C163.507 158.811 163.766 158.916 164.014 159.044C164.232 159.22 164.26 159.815 164.53 159.972C164.706 160.072 165.098 159.933 165.39 159.972C165.852 160.037 166.479 160.372 166.896 160.387C167.149 160.393 167.359 160.261 167.583 160.287C168.637 160.387 169.234 161.899 170.251 162.355C170.566 162.497 171.065 162.398 171.282 162.51C171.663 162.71 171.982 164.11 172.013 164.731C172.101 166.609 170.9 167.211 170.207 168.453C170.062 168.712 169.983 169.124 169.777 169.486C169.364 170.216 168.905 170.368 168.959 171.709C168.975 172.077 169.131 172.436 169.131 172.846C169.136 173.382 169.092 173.918 169.001 174.446C168.93 174.789 168.694 175.067 168.657 175.378C168.62 175.689 168.734 175.936 168.7 176.205C168.587 176.601 168.427 176.982 168.226 177.341C167.826 178.222 167.741 179.26 166.936 179.614C166.462 179.822 165.821 179.706 165.303 179.924C165.093 180.013 164.828 180.245 164.571 180.388C163.823 180.807 162.756 181.372 162.55 182.3C162.366 183.128 162.806 183.786 162.679 184.73C162.525 185.033 162.353 185.326 162.163 185.608C161.978 185.903 161.885 186.247 161.689 186.54C161.431 186.929 161.028 187.101 160.872 187.625C160.819 187.803 160.852 188.014 160.786 188.297C160.761 188.397 160.603 188.563 160.528 188.761C160.459 188.944 160.461 189.18 160.398 189.33C160.198 189.807 159.617 190.891 159.198 191.035C158.305 191.335 157.364 190.58 156.746 190.723C156.835 191.242 157.146 191.188 157.346 191.552C157.445 191.8 157.559 192.042 157.689 192.275C157.882 192.544 158.053 192.643 158.077 192.947C158.084 193.229 158.029 193.508 157.918 193.767C157.807 194.026 157.641 194.258 157.432 194.447C157.047 194.664 156.623 194.804 156.185 194.86C155.867 194.924 155.045 194.928 154.895 195.171C154.673 195.531 155.012 196.417 154.852 196.771C154.531 197.527 153.666 196.75 153.218 196.977C153.188 197.156 153.204 197.34 153.264 197.511C153.325 197.683 153.427 197.836 153.562 197.958C153.833 198.15 154.243 197.901 154.422 198.269C154.333 198.784 153.874 198.849 153.777 199.355C153.789 199.849 153.915 199.977 153.863 200.284C153.751 200.948 152.892 200.921 152.917 201.628C152.954 202.687 154.607 202.253 154.637 203.283C154.654 203.906 154.163 203.913 153.992 204.521C153.9 204.847 154.046 204.921 153.992 205.193C153.921 205.56 153.562 205.666 153.562 206.072C153.562 206.567 154.162 207.11 154.462 207.519C154.755 207.981 155.117 208.396 155.535 208.749C156.135 209.149 157.035 209.059 157.299 209.782C157.216 210.217 156.867 210.333 156.524 210.453H156.435C156.228 210.369 155.997 210.369 155.79 210.453H155.19C154.615 210.135 153.916 209.929 153.212 209.628C152.957 209.519 152.671 209.261 152.395 209.112C152.187 208.998 151.954 208.954 151.795 208.852C151.425 208.618 151.007 207.861 150.634 207.561C150.407 207.378 150.051 207.281 149.903 207.094C149.774 206.843 149.659 206.585 149.558 206.321C149.419 206.083 149.164 205.909 148.999 205.648C148.612 205.123 148.334 204.525 148.182 203.891C148.182 203.477 148.511 203.197 148.397 202.807C148.291 202.44 147.631 202.52 147.537 202.082C147.48 201.818 147.727 201.374 147.709 200.999C147.7 200.782 147.36 200.485 147.495 200.17C147.649 199.809 147.94 200.2 148.183 200.016C148.001 199.27 148.198 198.07 147.583 197.844C147.265 198.165 147.906 198.887 147.368 199.086C146.848 198.808 146.968 197.986 146.852 197.38C146.735 196.991 146.649 196.593 146.595 196.191C146.587 195.965 146.669 195.703 146.638 195.469C146.547 194.769 145.902 194.202 145.863 193.503C145.908 193.17 145.98 192.842 146.078 192.521C146.108 192.277 146.05 192.004 146.078 191.746C146.116 191.417 146.267 191.115 146.293 190.815C146.334 190.142 146.305 189.466 146.207 188.799C145.991 188.224 145.804 187.637 145.648 187.043C145.627 186.807 145.713 186.414 145.691 186.112C145.671 185.832 145.542 185.554 145.519 185.232C145.527 184.92 145.556 184.61 145.605 184.302C145.651 183.653 145.505 182.93 145.519 182.285C145.524 182.096 145.607 181.956 145.605 181.769C145.6 181.236 145.452 180.698 145.433 180.169C145.469 179.308 145.455 178.445 145.391 177.586C145.324 176.85 145.179 176.122 144.96 175.416C144.535 174.787 143.995 174.245 143.369 173.816C143.069 173.616 142.708 173.546 142.38 173.352C141.68 172.94 140.321 172.066 140.015 171.234C139.926 170.992 139.937 170.674 139.842 170.406C139.595 169.884 139.307 169.383 138.982 168.906C138.451 167.931 138.021 166.706 137.476 165.706C137.236 165.189 136.963 164.688 136.659 164.206C136.482 163.966 135.915 163.742 135.842 163.378C135.672 162.892 135.556 162.389 135.498 161.878C135.559 161.383 136.359 160.985 136.358 160.536C136.358 160.152 135.931 159.929 135.842 159.605C135.724 158.941 135.862 158.258 136.229 157.692C136.315 157.476 136.398 157.128 136.487 156.968C136.644 156.684 136.965 156.604 137.174 156.296C137.292 156.124 137.366 155.764 137.518 155.52C137.846 154.998 138.373 154.803 138.508 154.331C138.645 153.355 138.659 152.366 138.55 151.386C138.411 151.033 138.253 150.688 138.078 150.352C137.884 149.728 137.838 149.052 137.303 149.06C136.973 149.067 136.741 149.506 136.528 149.784C136.477 150.152 136.504 150.55 136.184 150.662C135.695 150.835 135.507 150.043 134.937 149.835C134.711 149.752 134.348 149.757 134.206 149.681C133.791 149.456 133.656 148.724 133.217 148.439C132.85 148.203 132.536 148.286 132.317 147.922C132.266 147.58 132.252 147.233 132.275 146.888C131.803 146.557 131.404 145.321 130.855 145.028C130.491 144.834 129.933 144.852 129.479 144.667C129.285 144.567 129.085 144.481 128.879 144.409C128.614 144.373 128.354 144.304 128.106 144.202C127.254 143.694 126.795 142.048 125.74 142.083C125.291 142.098 124.858 142.603 124.45 142.6C123.881 142.48 123.341 142.251 122.858 141.928C122.331 141.633 121.747 141.473 121.31 141.205C120.958 140.989 120.71 140.593 120.41 140.428C120.174 140.303 119.83 140.281 119.636 140.171C119.318 139.933 119.018 139.674 118.736 139.394C118.388 139.146 118.142 138.779 118.047 138.362C118.033 137.962 118.357 137.613 118.392 137.224C118.371 136.173 117.974 135.165 117.273 134.382C116.921 133.842 116.508 133.382 116.155 132.882C116.175 132.641 116.175 132.4 116.155 132.159C115.868 131.764 115.609 131.349 115.38 130.918C115.124 130.496 114.627 130.047 114.563 129.575C114.484 128.995 114.746 128.485 114.563 127.921C114.257 126.985 113.176 127.408 113.316 128.645C113.355 128.986 113.754 129.445 113.875 129.782C113.996 130.119 113.975 130.557 114.089 130.971C114.2 131.371 114.533 131.712 114.648 132.16C114.831 132.867 114.825 133.63 114.992 134.072C115.14 134.465 115.685 134.838 115.379 135.312C114.972 135.412 114.815 134.924 114.562 134.639C114.421 134.481 113.91 134.181 113.831 133.813C113.766 133.513 113.992 133.099 113.917 132.727C113.769 131.998 112.545 131.98 112.54 131.227C112.54 130.756 113.053 130.7 113.057 130.244C113.057 129.744 112.491 129.324 112.368 128.902C112.267 128.391 112.209 127.873 112.196 127.352C112.2 126.851 112.171 126.35 112.109 125.852C111.943 125.435 111.659 125.076 111.292 124.818C110.914 124.566 110.616 124.67 110.431 124.302C110.269 123.87 110.168 123.418 110.131 122.959C110.069 122.338 110.117 121.659 110.088 120.995C110.031 120.324 110.031 119.65 110.088 118.979C110.301 118.479 110.688 118.233 110.906 117.739C111.057 117.394 111.078 116.969 111.249 116.602C111.686 115.911 112.175 115.255 112.712 114.638C113.226 113.957 113.645 113.209 113.959 112.415C114.148 112.008 114.265 111.57 114.303 111.123C114.246 110.623 113.467 110.216 113.528 109.623C113.567 109.257 114.002 109.262 114.128 108.9C114.205 108.595 114.248 108.283 114.258 107.969C114.175 107.456 114.131 106.938 114.128 106.419C114.198 105.965 114.761 105.781 114.472 105.283C114.183 104.785 113.672 105.549 113.353 105.23C113.062 104.936 113.412 104.582 113.439 104.041C113.45 103.826 113.339 103.581 113.353 103.421C113.379 103.19 113.753 102.801 113.653 102.645C113.42 102.292 113.159 101.394 112.664 101.096C112.033 100.715 111.349 100.972 110.471 100.785C109.932 100.672 109.676 100.066 109.181 100.114C108.874 100.143 108.698 100.565 108.281 100.785C107.833 100.922 107.372 101.009 106.905 101.043C106.494 101.157 106.297 101.497 105.872 101.457C105.518 101.424 105.516 101.041 105.099 100.993C104.852 101.028 104.608 101.08 104.368 101.148C103.524 101.26 102.668 101.243 101.829 101.096C101.237 100.917 100.672 100.656 100.152 100.32C99.64 100.035 98.691 99.684 98.732 99.234C98.758 98.945 99.632 98.634 99.979 98.511C100.539 98.306 100.885 97.974 101.313 97.942C101.477 97.931 101.694 98.065 101.913 98.042C102.132 98.019 102.405 97.778 102.688 97.731C103.288 97.631 104.135 97.768 104.064 97.059C103.608 96.626 101.747 97.38 101.698 96.439C101.669 95.87 102.404 95.697 102.946 95.56C103.49 95.3888 104.053 95.2847 104.623 95.25C105.114 95.28 105.76 95.94 106.042 95.199C106.179 94.672 105.875 94.23 105.784 93.799C106.149 93.193 106.822 93.269 107.333 93.179C107.902 93.0931 108.453 92.9186 108.968 92.662C109.482 92.4054 110.033 92.2313 110.601 92.146C111.185 92.055 111.753 91.79 112.279 91.732C112.696 91.7252 113.112 91.6918 113.525 91.632C113.896 91.4746 114.288 91.3706 114.688 91.323C114.958 91.338 115.188 91.576 115.461 91.632C115.717 91.686 116.009 91.616 116.28 91.685C116.487 91.737 116.674 91.905 116.88 91.943C117.206 92.001 117.555 91.888 117.869 91.943C118.158 91.992 118.404 92.209 118.686 92.252C119.349 92.352 120.107 92.21 120.751 92.352C120.996 92.407 121.215 92.552 121.482 92.61C121.749 92.668 122.011 92.602 122.257 92.661C122.599 92.743 122.885 93.132 123.246 93.178C123.96 93.1098 124.666 92.9711 125.353 92.764C125.871 92.7703 126.389 92.7369 126.902 92.664C127.35 92.5058 127.81 92.385 128.278 92.303C128.513 92.291 128.709 92.389 128.923 92.355C129.137 92.321 129.412 91.997 129.654 92.045C129.974 92.106 129.918 92.593 130.254 92.717C130.629 92.483 131.002 92.733 131.416 92.717C131.83 92.701 132.177 92.479 132.616 92.562C133.399 92.71 134.493 93.631 135.11 93.13C135.265 93.004 135.228 92.786 135.368 92.458C135.678 91.982 135.843 91.426 135.842 90.858C134.98 90.874 134.156 91.381 133.175 91.426C132.183 90.68 133.44 90.217 134.164 89.877C134.764 89.594 135.233 88.969 135.972 88.843C136.64 88.8351 137.306 88.922 137.949 89.101C138.308 89.0989 138.667 89.116 139.024 89.152C139.446 89.304 139.664 89.807 140.014 89.927C140.165 89.979 140.414 89.974 140.614 90.027C141.001 90.134 141.347 90.379 141.733 90.027C142.033 90.092 142.072 90.48 142.378 90.543C142.664 90.358 142.884 89.886 143.324 89.768C143.515 89.715 143.716 89.806 143.924 89.768C144.275 89.7 144.743 89.129 144.957 89.668C144.869 90.041 144.4 90.097 144.139 90.393C143.849 90.7116 143.656 91.1058 143.581 91.53C143.632 92.023 144.247 91.83 144.268 92.46C144.177 92.821 143.827 92.66 143.537 92.821C143.272 92.969 143.174 93.275 142.892 93.338C142.11 93.515 141.462 93.102 140.785 93.131C140.754 93.484 141.12 93.689 141.301 93.803C141.907 94.1239 142.603 94.233 143.278 94.113C143.721 94.101 144.231 94.272 144.612 93.958C144.853 93.758 144.84 93.323 145.042 93.079C145.186 92.9131 145.365 92.7809 145.566 92.6918C145.766 92.6026 145.984 92.5586 146.204 92.563C146.321 92.6002 146.426 92.6674 146.51 92.7579C146.593 92.8484 146.651 92.9591 146.678 93.079C146.684 93.549 146.125 93.399 146.119 93.907C146.483 94.17 147.444 93.62 147.495 93.183C147.532 92.865 147.182 92.683 147.195 92.356C147.216 91.815 147.828 91.824 147.754 91.27C147.454 90.991 147.154 91.33 146.854 91.27C146.432 91.185 146.054 90.577 145.865 90.184C146.052 89.907 146.444 90.092 146.725 90.133C146.926 89.8694 147.187 89.6572 147.486 89.5135C147.785 89.3697 148.113 89.2987 148.445 89.306C148.735 89.272 149.122 89.134 149.263 89.461C149.333 89.951 148.663 90.244 148.79 90.805C149.369 90.978 149.558 90.04 150.037 89.667C150.294 89.501 150.568 89.3629 150.854 89.255C151.12 89.134 151.412 88.833 151.629 88.842C151.867 88.849 151.909 89.085 152.145 89.203C152.357 89.31 152.634 89.13 152.704 89.461C152.204 90.499 150.348 89.902 149.865 90.961C149.973 91.67 149.574 92.345 149.909 92.822C150.148 93.161 150.686 92.931 150.809 93.287C150.977 93.762 150.287 93.762 150.466 94.32C150.92 94.648 151.466 94.008 151.884 93.752C152.336 93.476 152.907 93.152 152.959 92.511C152.733 91.986 151.885 92.392 151.759 91.84C151.773 91.4536 151.892 91.0784 152.102 90.754C152.507 90.3285 152.994 89.9899 153.534 89.7588C154.074 89.5277 154.655 89.409 155.242 89.41C155.456 89.434 155.672 89.59 155.887 89.617C156.626 89.708 157.5 89.234 158.081 89.617C158.548 89.289 159.108 89.662 159.758 89.565C160.258 89.92 160.121 90.676 160.877 91.012C161.082 91.103 161.339 91.038 161.608 91.112C161.808 91.169 162.024 91.451 162.253 91.578C162.579 91.755 162.829 91.715 162.898 91.99C162.967 92.265 162.661 92.434 162.683 92.714C162.869 92.898 162.714 93.175 162.813 93.438C162.999 93.916 163.467 93.881 163.931 94.11C164.257 94.271 164.952 94.762 164.92 95.144C164.899 95.4 164.268 95.844 164.06 95.972C163.721 96.1977 163.341 96.3553 162.941 96.436C162.536 96.364 162.377 95.376 161.823 95.402C161.754 95.4064 161.686 95.4249 161.625 95.4562C161.563 95.4876 161.508 95.5313 161.464 95.5845C161.419 95.6378 161.386 95.6995 161.366 95.7659C161.347 95.8324 161.341 95.9022 161.349 95.971C161.34 96.649 161.981 96.671 161.994 97.262C162.011 97.962 161.675 98.012 161.177 98.45C160.838 98.2235 160.458 98.0658 160.058 97.986C159.782 98.378 160.51 98.52 160.272 99.019C159.581 99.195 159.055 98.784 158.423 98.555C158.223 98.484 157.941 98.512 157.779 98.4C157.534 98.23 157.462 97.727 157.262 97.469C157.01 97.0987 156.625 96.8397 156.187 96.746C155.656 96.746 154.887 97.541 154.466 96.797C154.757 95.613 156.137 96.491 157.047 96.074C157.386 95.918 157.502 95.487 157.78 95.298C158.336 94.917 159.239 94.864 159.156 94.109C159.113 93.729 158.671 93.735 158.424 93.54C158.088 93.277 157.831 92.346 157.349 92.301C157.102 92.277 156.924 92.529 156.661 92.559C156.104 92.622 155.486 92.29 154.984 92.559C154.75 92.72 154.908 92.977 154.726 93.283C154.575 93.533 154.226 93.603 154.081 93.851C153.916 94.142 153.949 94.503 153.736 94.729C153.383 95.105 152.636 95.165 152.188 95.349C151.988 95.431 151.736 95.713 151.543 95.711C151.188 95.711 151.036 95.137 150.643 95.349C150.608 95.902 151.129 96.126 151.46 96.382C151.856 96.6183 152.16 96.9832 152.32 97.416C151.97 98.308 151.411 97.369 150.857 97.365C150.247 97.365 149.357 98.765 148.836 97.623C148.966 97.023 149.519 96.923 149.653 96.332C149.046 96.455 148.517 97.07 147.803 97.262C147.503 97.341 147.212 97.322 146.943 97.416C146.427 97.598 146.068 98.055 145.524 98.296C145.311 98.39 145.057 98.362 144.836 98.45C144.25 98.7092 143.689 99.0208 143.159 99.381C142.617 99.6971 142.109 100.066 141.64 100.483C141.348 100.793 141.128 101.163 140.995 101.568C141.017 101.876 141.495 101.978 141.511 102.293C141.501 102.483 141.232 102.893 141.425 103.171C141.601 103.423 141.954 103.219 142.325 103.271C142.982 103.371 143.412 104.021 143.915 104.357C144.331 104.649 144.798 104.859 145.292 104.977C145.883 105.066 146.545 104.77 146.625 105.338C146.703 105.885 146.068 106.081 146.025 106.424C146.343 106.93 145.809 107.17 145.81 107.613C145.81 107.972 146.177 108.513 146.497 108.542C146.93 108.587 147.565 108.029 147.745 107.509C147.959 106.888 147.867 106.048 148.261 105.596C148.744 105.659 149.236 105.61 149.697 105.454C150.159 105.297 150.578 105.036 150.923 104.692C151.268 104.347 151.53 103.928 151.687 103.467C151.845 103.006 151.894 102.514 151.832 102.031C151.774 101.759 151.745 101.482 151.746 101.204C151.809 100.804 152.38 100.469 152.304 99.964C152.865 99.757 152.841 98.675 153.423 98.517C153.909 98.386 154.46 98.931 155.099 98.878C155.308 98.862 155.578 98.636 155.788 98.672C156.208 98.742 156.461 99.365 156.777 99.654C157.056 99.911 157.351 99.829 157.422 100.17C157.339 100.749 156.999 100.764 157.034 101.307C157.052 101.498 157.121 101.681 157.235 101.836C157.349 101.99 157.502 102.112 157.679 102.186C158.062 102.201 158.439 102.092 158.755 101.876C159.331 101.548 159.824 100.562 160.304 100.687C160.683 100.787 160.979 102.234 161.035 102.755C161.095 103.313 160.972 103.741 160.993 104.255C161.048 105.126 161.961 105.038 162.411 105.494C162.547 105.633 162.6 105.987 162.711 106.167C162.929 106.516 163.193 106.516 163.227 106.89C163.307 107.783 162.554 107.858 162.627 108.855C162.472 109.241 162.079 109.217 162.111 109.733C162.161 110.549 163.137 109.924 163.402 110.561C163.545 110.903 163.377 111.161 163.272 111.645C163.605 112.123 163.603 112.885 163.015 112.886C162.657 112.886 162.559 112.424 162.196 112.317M115.705 110.973C115.905 110.723 115.619 110.193 115.317 110.405C115.288 110.594 115.372 111.051 115.705 110.973ZM145.727 115.673C145.547 115.463 144.963 115.523 144.564 115.573C144.283 115.607 143.949 115.679 143.919 115.934C144.367 116.181 145.586 116.358 145.727 115.676M143.489 114.798C143.562 114.721 143.617 114.628 143.648 114.526C143.68 114.425 143.687 114.318 143.671 114.213C143.654 114.108 143.614 114.008 143.552 113.921C143.491 113.834 143.41 113.763 143.317 113.712C143.176 113.667 142.988 113.837 142.758 113.812C142.528 113.787 142.272 113.523 142.07 113.502C141.914 113.49 141.758 113.517 141.616 113.58C141.473 113.643 141.348 113.74 141.252 113.863C141.239 114.172 141.441 114.222 141.424 114.535C141.006 114.895 141.224 116.094 141.639 116.135C142.076 116.181 142.301 114.807 142.885 114.688C143.098 114.643 143.206 114.832 143.485 114.788M142.885 116.855C142.274 116.594 141.709 117.033 141.209 117.113C140.909 117.161 140.366 117.04 140.434 117.577C140.49 118.016 141.054 117.856 141.38 117.733C141.94 117.557 142.453 117.257 142.88 116.854M140.988 112.926C141.845 112.488 140.818 111.137 140.429 111.014C139.729 110.795 138.74 111.628 137.934 111.893C137.48 112.042 137.048 112.055 136.945 112.513C137.352 113.322 138.157 112.336 138.751 112.461C139.051 112.525 139.228 113.019 139.526 113.081C140.018 113.077 140.508 113.024 140.989 112.925M140.389 113.753C140.211 113.501 139.247 113.783 138.97 114.011C138.772 114.27 138.599 114.547 138.454 114.839C138.254 115.133 138.024 115.359 137.854 115.614C137.699 115.844 136.827 117.354 137.509 117.527C137.8 117.599 138.399 116.874 138.455 116.596C138.56 115.782 138.977 115.041 139.617 114.528C139.971 114.272 140.333 114.304 140.391 113.753M135.015 107.965C135.496 107.944 135.821 106.24 135.015 106.465C134.477 106.616 134.347 107.993 135.015 107.965ZM132.694 146.724C132.716 146.647 132.757 146.594 132.78 146.517C132.65 146.003 132.237 146.705 132.694 146.724ZM114.5 103.483C114.509 103.383 114.451 103.368 114.457 103.276C114.326 103.276 114.174 103.246 114.199 103.431C114.261 103.58 114.427 103.606 114.499 103.483M159.699 95.369C159.911 95.4 160.029 95.319 159.999 95.06C159.808 94.898 159.529 95.11 159.699 95.369ZM154.752 90.305C154.735 90.2879 154.715 90.2743 154.693 90.265C154.671 90.2557 154.647 90.2509 154.623 90.2509C154.599 90.2509 154.575 90.2557 154.553 90.265C154.531 90.2743 154.511 90.2879 154.494 90.305V90.511C154.677 90.558 154.71 90.426 154.752 90.305ZM138.415 94.283C138.558 94.173 138.778 94.022 138.672 93.767C138.197 93.5 137.394 93.703 136.695 93.612C136.295 92.937 135.633 92.833 135.576 93.922C136.376 94.702 137.588 93.558 138.415 94.283ZM130.715 99.607C130.96 99.507 131.298 99.558 131.36 99.244C131.16 99.051 130.953 98.79 130.715 98.78C130.404 98.767 130.253 99.098 129.94 99.297C129.577 99.528 129.073 99.584 129.04 99.969C129.623 100.035 130.212 99.908 130.717 99.608M130.502 95.886C130.778 95.829 131.06 95.979 131.235 95.68C131.03 94.542 129.719 95.237 128.955 95.319C128.745 95.632 128.599 95.9834 128.525 96.353C129.118 96.533 129.834 96.024 130.502 95.887M143.402 148.704C143.742 148.637 143.643 147.704 143.23 147.927C142.918 148.1 143.079 148.765 143.402 148.704Z" fill="#C3D7E1"/>
<path d="M114.46 103.273C114.453 103.366 114.512 103.382 114.502 103.481C114.429 103.603 114.262 103.581 114.202 103.429C114.177 103.243 114.33 103.272 114.462 103.273" fill="#E1E9ED"/>
<path d="M113.169 106.324C113.122 106.466 113.044 106.596 112.94 106.703C112.836 106.81 112.709 106.893 112.569 106.944C112.486 106.868 112.414 106.782 112.355 106.686C112.373 106.195 112.955 105.834 113.173 106.325" fill="#E1E9ED"/>
</g>
<path d="M120.46 179.148C116.142 178.132 112.036 176.363 108.331 173.924L114.396 160.301C117.545 162.335 120.97 163.906 124.566 164.966C128.251 166.122 132.087 166.72 135.949 166.739C143.04 166.739 146.586 164.966 146.585 161.421C146.585 159.554 145.574 158.17 143.553 157.269C140.396 156.026 137.133 155.074 133.803 154.424C129.625 153.573 125.51 152.435 121.488 151.019C118.212 149.821 115.291 147.815 112.997 145.187C110.633 142.514 109.451 138.907 109.452 134.364C109.41 130.523 110.55 126.761 112.717 123.589C115.167 120.17 118.553 117.531 122.467 115.989C127.525 113.987 132.938 113.034 138.376 113.189C142.647 113.187 146.903 113.672 151.064 114.634C154.928 115.482 158.641 116.913 162.073 118.88L156.382 132.595C150.865 129.428 144.642 127.696 138.282 127.557C134.611 127.557 131.936 128.101 130.258 129.189C129.5 129.61 128.868 130.225 128.425 130.971C127.982 131.717 127.746 132.567 127.739 133.434C127.739 135.177 128.734 136.483 130.725 137.353C133.838 138.55 137.056 139.456 140.336 140.059C144.532 140.898 148.663 142.034 152.698 143.459C155.957 144.668 158.871 146.654 161.189 149.244C163.582 151.889 164.78 155.481 164.781 160.021C164.818 163.818 163.677 167.533 161.516 170.656C159.035 174.066 155.636 176.702 151.716 178.256C146.679 180.28 141.28 181.248 135.854 181.101C130.66 181.115 125.486 180.458 120.46 179.148Z" fill="#52B3E2"/>
<path d="M225.702 165.53V179.804H173.267V114.494H224.487V128.768H191.554V139.777H220.57V153.586H191.554V165.529L225.702 165.53Z" fill="#52B3E2"/>
<path d="M294.34 128.932C291.522 123.864 287.365 119.669 282.324 116.804C277.031 113.926 271.102 112.418 265.077 112.418C259.053 112.418 253.124 113.926 247.831 116.804C242.787 119.668 238.628 123.863 235.809 128.932C232.944 134.301 231.445 140.293 231.445 146.379C231.445 152.465 232.944 158.457 235.809 163.826C238.626 168.895 242.784 173.091 247.827 175.955C253.12 178.833 259.049 180.341 265.073 180.341C271.098 180.341 277.027 178.833 282.32 175.955C287.365 173.091 291.523 168.893 294.34 163.822C297.206 158.453 298.705 152.461 298.705 146.375C298.705 140.289 297.206 134.297 294.34 128.928" fill="#52B3E2"/>
<path d="M243.87 119.485C240.589 122.073 237.851 125.283 235.814 128.932C234.91 130.548 234.144 132.238 233.525 133.983L232.425 137.716C231.77 140.557 231.444 143.463 231.453 146.378C231.358 152.476 232.863 158.491 235.818 163.826C238.635 168.895 242.792 173.091 247.835 175.955L265.081 146.378L243.87 119.485Z" fill="#1C8CC2"/>
<g opacity="0.2">
<path d="M243.87 119.485L265.078 146.378L266.431 112.418C258.3 111.94 250.275 114.453 243.87 119.484" fill="white"/>
</g>
<path d="M151.11 193.046C148.554 196.728 145.808 200.273 142.883 203.669C141.404 205.356 120.775 228.115 119.246 229.754L116.971 232.239C116.548 232.739 116.015 233.134 115.415 233.394C114.814 233.654 114.161 233.772 113.507 233.739C112.781 233.749 112.075 233.502 111.513 233.042C110.951 232.583 110.569 231.94 110.434 231.226C110.318 230.609 110.361 229.973 110.559 229.377C110.757 228.782 111.104 228.246 111.566 227.822L113.899 225.391C115.437 223.757 136.266 201.156 137.857 199.562C141.107 196.431 143.657 192.652 147.281 189.827C148.081 189.177 150.101 189.99 150.862 190.778C151.164 191.065 151.355 191.451 151.4 191.865C151.446 192.28 151.343 192.697 151.11 193.043" fill="#2A3D66"/>
<g opacity="0.3">
<path d="M192.253 184.654C188.359 189.703 182.976 193.399 176.866 195.222C170.757 197.045 164.229 196.901 158.205 194.811C155.093 193.733 152.18 192.15 149.582 190.126C144.817 186.444 141.251 181.432 139.335 175.723C137.419 170.015 137.239 163.866 138.817 158.055C140.395 152.244 143.661 147.031 148.201 143.076C152.742 139.121 158.353 136.601 164.326 135.835C170.298 135.069 176.364 136.091 181.756 138.772C187.148 141.453 191.623 145.673 194.617 150.897C197.611 156.122 198.988 162.117 198.575 168.124C198.161 174.132 195.976 179.882 192.295 184.647L192.253 184.654Z" fill="white"/>
</g>
<g opacity="0.4">
<path d="M196.146 154.747L138.983 162.081C139.034 161.626 139.083 161.188 139.147 160.739C139.58 157.859 140.44 155.06 141.699 152.433L191.063 146.1C193.241 148.669 194.961 151.594 196.146 154.747Z" fill="white"/>
</g>
<g opacity="0.4">
<path d="M196.807 173.666L143.067 180.545C140.718 176.669 139.298 172.302 138.918 167.786L197.595 160.257C198.364 164.728 198.094 169.315 196.807 173.665" fill="white"/>
</g>
<path d="M134.456 217.859V236.415" stroke="#2A3D66" stroke-width="4" stroke-miterlimit="10"/>
<path d="M42.571 68.121V88.831H65.932" stroke="#2A3D66" stroke-width="4" stroke-miterlimit="10"/>
<path d="M340.101 70.85H361.778V86.03" stroke="#2A3D66" stroke-width="4" stroke-miterlimit="10"/>
<path d="M98.539 72.521H3.737C3.24634 72.5213 2.76045 72.4248 2.30706 72.2373C1.85368 72.0497 1.4417 71.7746 1.09466 71.4277C0.747625 71.0809 0.472328 70.6691 0.284501 70.2158C0.0966749 69.7625 6.35374e-08 69.2766 1.33881e-07 68.786V15.56C-0.000131251 15.0692 0.0964394 14.5832 0.284195 14.1298C0.47195 13.6763 0.74721 13.2643 1.09425 12.9172C1.44129 12.5702 1.8533 12.2949 2.30676 12.1072C2.76021 11.9194 3.24621 11.8229 3.737 11.823H98.537C99.5281 11.823 100.479 12.2167 101.179 12.9175C101.88 13.6184 102.274 14.5689 102.274 15.56V68.786C102.274 69.2767 102.177 69.7626 101.99 70.2159C101.802 70.6693 101.526 71.0812 101.179 71.4281C100.832 71.775 100.42 72.0502 99.967 72.2379C99.5136 72.4256 99.0277 72.5221 98.537 72.522" fill="#52B3E2"/>
<path d="M15.377 45.539C15.82 45.139 27.792 33.32 27.792 33.32L39.599 39.13L51.138 25.55L62.945 42.565L74.459 35.05" stroke="#2A3D66" stroke-miterlimit="10"/>
<path d="M19.075 50.86H13.54V63.124H19.075V50.86Z" fill="white"/>
<path d="M42.0841 44.803H36.5491V63.123H42.0841V44.803Z" fill="white"/>
<path d="M65.8529 49.123H60.3179V63.124H65.8529V49.123Z" fill="white"/>
<path d="M19.282 44.152C19.282 44.7402 19.1076 45.3152 18.7808 45.8042C18.454 46.2933 17.9895 46.6745 17.4461 46.8996C16.9027 47.1247 16.3047 47.1836 15.7278 47.0688C15.1509 46.9541 14.621 46.6708 14.2051 46.2549C13.7891 45.839 13.5059 45.3091 13.3911 44.7322C13.2764 44.1553 13.3353 43.5573 13.5604 43.0139C13.7855 42.4705 14.1666 42.006 14.6557 41.6792C15.1448 41.3524 15.7198 41.178 16.308 41.178C17.0967 41.178 17.8532 41.4913 18.4109 42.049C18.9687 42.6068 19.282 43.3632 19.282 44.152Z" fill="white"/>
<path d="M30.678 33.32C30.678 33.9082 30.5036 34.4832 30.1768 34.9723C29.85 35.4613 29.3855 35.8425 28.8421 36.0676C28.2987 36.2927 27.7007 36.3516 27.1238 36.2369C26.5469 36.1221 26.017 35.8389 25.601 35.4229C25.1851 35.007 24.9019 34.4771 24.7871 33.9002C24.6724 33.3233 24.7313 32.7253 24.9564 32.1819C25.1815 31.6385 25.5626 31.174 26.0517 30.8472C26.5408 30.5204 27.1158 30.346 27.704 30.346C28.4927 30.346 29.2492 30.6593 29.8069 31.2171C30.3647 31.7748 30.678 32.5313 30.678 33.32Z" fill="white"/>
<path d="M42.572 38.202C42.572 38.7902 42.3976 39.3652 42.0708 39.8543C41.744 40.3434 41.2796 40.7246 40.7361 40.9496C40.1927 41.1747 39.5947 41.2336 39.0178 41.1189C38.4409 41.0041 37.911 40.7209 37.4951 40.305C37.0792 39.889 36.7959 39.3591 36.6812 38.7822C36.5664 38.2053 36.6253 37.6074 36.8504 37.0639C37.0755 36.5205 37.4567 36.056 37.9458 35.7292C38.4348 35.4024 39.0098 35.228 39.598 35.228C39.9886 35.228 40.3753 35.305 40.7361 35.4544C41.0969 35.6039 41.4248 35.8229 41.701 36.0991C41.9771 36.3753 42.1962 36.7031 42.3456 37.0639C42.4951 37.4247 42.572 37.8115 42.572 38.202Z" fill="white"/>
<path d="M54.1121 25.552C54.1121 26.1402 53.9376 26.7152 53.6109 27.2043C53.2841 27.6933 52.8196 28.0745 52.2762 28.2996C51.7327 28.5247 51.1348 28.5836 50.5579 28.4689C49.981 28.3541 49.451 28.0709 49.0351 27.6549C48.6192 27.239 48.336 26.7091 48.2212 26.1322C48.1065 25.5553 48.1653 24.9573 48.3904 24.4139C48.6155 23.8705 48.9967 23.406 49.4858 23.0792C49.9749 22.7524 50.5499 22.578 51.1381 22.578C51.9268 22.578 52.6833 22.8913 53.241 23.4491C53.7987 24.0068 54.1121 24.7632 54.1121 25.552Z" fill="white"/>
<path d="M65.918 42.565C65.918 43.1532 65.7436 43.7282 65.4168 44.2173C65.09 44.7063 64.6255 45.0875 64.0821 45.3126C63.5386 45.5377 62.9407 45.5966 62.3638 45.4819C61.7869 45.3671 61.257 45.0839 60.841 44.6679C60.4251 44.252 60.1419 43.7221 60.0271 43.1452C59.9124 42.5683 59.9713 41.9703 60.1964 41.4269C60.4214 40.8835 60.8026 40.419 61.2917 40.0922C61.7808 39.7654 62.3558 39.591 62.944 39.591C63.7327 39.591 64.4892 39.9043 65.0469 40.4621C65.6046 41.0198 65.918 41.7762 65.918 42.565Z" fill="white"/>
<path d="M89.929 49.123H84.394V63.124H89.929V49.123Z" fill="white"/>
<path d="M74.459 35.051L87.161 42.105" stroke="#2A3D66" stroke-miterlimit="10"/>
<path d="M78.0969 35.051C78.0969 35.6392 77.9225 36.2142 77.5957 36.7033C77.2689 37.1924 76.8045 37.5736 76.261 37.7986C75.7176 38.0237 75.1196 38.0826 74.5427 37.9679C73.9658 37.8531 73.4359 37.5699 73.02 37.154C72.6041 36.738 72.3208 36.2081 72.2061 35.6312C72.0913 35.0543 72.1502 34.4564 72.3753 33.9129C72.6004 33.3695 72.9816 32.905 73.4707 32.5782C73.9597 32.2514 74.5347 32.077 75.1229 32.077C75.5135 32.077 75.9002 32.154 76.261 32.3034C76.6218 32.4529 76.9497 32.6719 77.2259 32.9481C77.502 33.2243 77.7211 33.5521 77.8705 33.9129C78.02 34.2737 78.0969 34.6605 78.0969 35.051Z" fill="white"/>
<path d="M90.135 42.104C90.135 42.6922 89.9606 43.2672 89.6338 43.7563C89.307 44.2453 88.8425 44.6265 88.2991 44.8516C87.7557 45.0767 87.1577 45.1356 86.5808 45.0209C86.0039 44.9061 85.474 44.6229 85.0581 44.2069C84.6422 43.791 84.3589 43.2611 84.2442 42.6842C84.1294 42.1073 84.1883 41.5093 84.4134 40.9659C84.6385 40.4225 85.0197 39.958 85.5087 39.6312C85.9978 39.3044 86.5728 39.13 87.161 39.13C87.5516 39.13 87.9383 39.2069 88.2991 39.3564C88.6599 39.5058 88.9878 39.7249 89.2639 40.0011C89.5401 40.2772 89.7592 40.6051 89.9086 40.9659C90.0581 41.3267 90.135 41.7135 90.135 42.104Z" fill="white"/>
<path d="M396.496 179.036H323.222C322.028 179.036 320.884 178.562 320.04 177.718C319.196 176.874 318.722 175.729 318.722 174.536V91.05C318.722 89.8565 319.196 88.7119 320.04 87.868C320.884 87.0241 322.028 86.55 323.222 86.55H396.496C397.689 86.55 398.834 87.0241 399.678 87.868C400.522 88.7119 400.996 89.8565 400.996 91.05V174.532C400.996 175.725 400.522 176.87 399.678 177.714C398.834 178.558 397.689 179.032 396.496 179.032" fill="white"/>
<path d="M396.496 179.036H323.222C322.028 179.036 320.884 178.562 320.04 177.718C319.196 176.874 318.722 175.729 318.722 174.536V91.05C318.722 89.8565 319.196 88.7119 320.04 87.868C320.884 87.0241 322.028 86.55 323.222 86.55H396.496C397.689 86.55 398.834 87.0241 399.678 87.868C400.522 88.7119 400.996 89.8565 400.996 91.05V174.532C400.996 175.725 400.522 176.87 399.678 177.714C398.834 178.558 397.689 179.032 396.496 179.032" stroke="#2A3D66" stroke-width="4"/>
<path d="M401 100.702H318.718V90.772C318.718 90.2176 318.827 89.6687 319.039 89.1565C319.252 88.6443 319.563 88.1789 319.955 87.787C320.347 87.395 320.812 87.0841 321.324 86.872C321.837 86.66 322.386 86.5509 322.94 86.551H396.852C397.952 86.551 399.007 86.9879 399.785 87.7656C400.563 88.5433 401 89.5981 401 90.698V100.702Z" fill="#2A3D66"/>
<path d="M337 112.528H327.262V115.409H337V112.528Z" fill="#52B3E2"/>
<path d="M389.941 125.684H340.438V128.565H389.941V125.684Z" fill="#52B3E2"/>
<path d="M337 125.684H327.262V128.565H337V125.684Z" fill="#52B3E2"/>
<path d="M389.941 153.11H340.438V155.991H389.941V153.11Z" fill="#52B3E2"/>
<path d="M389.941 132.62H340.438V135.501H389.941V132.62Z" fill="#52B3E2"/>
<path d="M183.034 294.941H120.82C119.627 294.941 118.482 294.467 117.638 293.623C116.794 292.779 116.32 291.634 116.32 290.441V239.554C116.32 238.361 116.794 237.216 117.638 236.372C118.482 235.528 119.627 235.054 120.82 235.054H183.034C183.625 235.054 184.211 235.171 184.757 235.397C185.304 235.623 185.8 235.955 186.218 236.374C186.636 236.792 186.967 237.289 187.193 237.835C187.419 238.382 187.535 238.968 187.534 239.559V290.441C187.534 291.634 187.06 292.779 186.216 293.623C185.372 294.467 184.228 294.941 183.034 294.941Z" fill="white"/>
<path d="M183.034 294.941H120.82C119.627 294.941 118.482 294.467 117.638 293.623C116.794 292.779 116.32 291.634 116.32 290.441V239.554C116.32 238.361 116.794 237.216 117.638 236.372C118.482 235.528 119.627 235.054 120.82 235.054H183.034C183.625 235.054 184.211 235.171 184.757 235.397C185.304 235.623 185.8 235.955 186.218 236.374C186.636 236.792 186.967 237.289 187.193 237.835C187.419 238.382 187.535 238.968 187.534 239.559V290.441C187.534 291.634 187.06 292.779 186.216 293.623C185.372 294.467 184.228 294.941 183.034 294.941" stroke="#2A3D66" stroke-width="3"/>
<path d="M187.538 245.494H116.316V239.272C116.316 238.152 116.761 237.079 117.553 236.287C118.345 235.495 119.418 235.05 120.538 235.05H183.39C184.49 235.05 185.545 235.487 186.323 236.265C187.101 237.043 187.538 238.098 187.538 239.198V245.494Z" fill="#2A3D66"/>
<path d="M150.808 270.051L156.985 253.081C159.286 253.918 161.393 255.215 163.177 256.893C164.962 258.57 166.386 260.593 167.364 262.838L150.808 270.051Z" fill="#E1E9ED"/>
<path d="M150.808 270.051L156.071 287.326C153.336 288.159 150.443 288.33 147.63 287.827C144.816 287.323 142.162 286.159 139.886 284.429C137.61 282.7 135.777 280.455 134.538 277.879C133.299 275.303 132.689 272.47 132.758 269.612C132.828 266.755 133.575 263.954 134.937 261.442C136.3 258.929 138.24 256.776 140.597 255.159C142.955 253.542 145.662 252.508 148.497 252.142C151.332 251.776 154.213 252.088 156.904 253.052L150.808 270.051Z" fill="#52B3E2"/>
<path d="M150.808 270.051L167.398 262.917C168.399 265.244 168.899 267.756 168.865 270.289C168.832 272.822 168.266 275.319 167.204 277.62C166.143 279.92 164.609 281.97 162.703 283.639C160.797 285.308 158.561 286.557 156.141 287.305L150.808 270.051Z" fill="#1C8CC2"/>
<path d="M337.799 42.173C337.799 42.7904 337.615 43.3938 337.272 43.9071C336.929 44.4204 336.442 44.8204 335.871 45.0565C335.301 45.2927 334.673 45.3544 334.068 45.234C333.462 45.1135 332.906 44.8161 332.469 44.3796C332.033 43.943 331.735 43.3868 331.615 42.7813C331.494 42.1758 331.556 41.5481 331.792 40.9777C332.029 40.4073 332.429 39.9197 332.942 39.5766C333.455 39.2334 334.059 39.0502 334.676 39.05C335.086 39.0499 335.492 39.1305 335.871 39.2874C336.25 39.4443 336.594 39.6744 336.885 39.9644C337.175 40.2544 337.405 40.5988 337.561 40.9777C337.718 41.3567 337.799 41.7628 337.799 42.173Z" fill="white"/>
<path d="M328.924 42.173C328.924 42.7904 328.74 43.3938 328.397 43.9071C328.054 44.4204 327.567 44.8204 326.996 45.0565C326.426 45.2927 325.798 45.3544 325.193 45.234C324.587 45.1135 324.031 44.8161 323.594 44.3796C323.158 43.943 322.86 43.3868 322.74 42.7813C322.619 42.1758 322.681 41.5481 322.917 40.9777C323.154 40.4073 323.554 39.9197 324.067 39.5766C324.58 39.2334 325.184 39.0502 325.801 39.05C326.211 39.0499 326.617 39.1305 326.996 39.2874C327.375 39.4443 327.72 39.6744 328.01 39.9644C328.3 40.2544 328.53 40.5988 328.686 40.9777C328.843 41.3567 328.924 41.7628 328.924 42.173Z" fill="white"/>
<path d="M320.051 42.173C320.051 42.7904 319.867 43.3938 319.524 43.9071C319.181 44.4204 318.694 44.8204 318.123 45.0565C317.553 45.2927 316.925 45.3544 316.32 45.234C315.714 45.1135 315.158 44.8161 314.721 44.3796C314.285 43.943 313.987 43.3868 313.867 42.7813C313.746 42.1758 313.808 41.5481 314.044 40.9777C314.281 40.4073 314.681 39.9197 315.194 39.5766C315.707 39.2334 316.311 39.0502 316.928 39.05C317.338 39.0499 317.744 39.1305 318.123 39.2874C318.502 39.4443 318.846 39.6744 319.136 39.9644C319.427 40.2544 319.657 40.5988 319.813 40.9777C319.97 41.3567 320.051 41.7628 320.051 42.173Z" fill="white"/>
<path d="M30.471 42.755H24.936V63.124H30.471V42.755Z" fill="#2A3D66"/>
<path d="M53.9051 33.319H48.3701V63.123H53.9051V33.319Z" fill="#2A3D66"/>
<path d="M77.6829 42.104H72.1479V63.124H77.6829V42.104Z" fill="#2A3D66"/>
<path d="M380.352 94.654C380.352 95.2649 380.171 95.8622 379.831 96.3702C379.492 96.8781 379.01 97.2741 378.445 97.5079C377.881 97.7417 377.26 97.8028 376.66 97.6836C376.061 97.5645 375.511 97.2703 375.079 96.8383C374.647 96.4063 374.353 95.8558 374.233 95.2566C374.114 94.6574 374.175 94.0363 374.409 93.4719C374.643 92.9075 375.039 92.425 375.547 92.0856C376.055 91.7462 376.652 91.565 377.263 91.565C378.082 91.565 378.868 91.8904 379.447 92.4697C380.027 93.049 380.352 93.8347 380.352 94.654Z" fill="white"/>
<path d="M397.912 94.654C397.912 95.2649 397.731 95.8622 397.391 96.3702C397.052 96.8781 396.569 97.2741 396.005 97.5079C395.441 97.7417 394.819 97.8028 394.22 97.6836C393.621 97.5645 393.071 97.2703 392.639 96.8383C392.207 96.4063 391.912 95.8558 391.793 95.2566C391.674 94.6574 391.735 94.0363 391.969 93.4719C392.203 92.9075 392.599 92.425 393.107 92.0856C393.615 91.7462 394.212 91.565 394.823 91.565C395.642 91.565 396.428 91.8904 397.007 92.4697C397.586 93.049 397.912 93.8347 397.912 94.654Z" fill="white"/>
<path d="M389.132 94.654C389.132 95.2649 388.951 95.8622 388.611 96.3702C388.272 96.8781 387.789 97.2741 387.225 97.5079C386.661 97.7417 386.039 97.8028 385.44 97.6836C384.841 97.5645 384.291 97.2703 383.859 96.8383C383.427 96.4063 383.132 95.8558 383.013 95.2566C382.894 94.6574 382.955 94.0363 383.189 93.4719C383.423 92.9075 383.819 92.425 384.327 92.0856C384.835 91.7462 385.432 91.565 386.043 91.565C386.862 91.565 387.648 91.8904 388.227 92.4697C388.806 93.049 389.132 93.8347 389.132 94.654Z" fill="white"/>
<path d="M183.517 241.033C183.517 241.484 183.383 241.924 183.133 242.299C182.882 242.674 182.527 242.966 182.11 243.138C181.694 243.311 181.235 243.356 180.793 243.268C180.351 243.18 179.945 242.963 179.626 242.644C179.308 242.326 179.091 241.92 179.003 241.478C178.915 241.036 178.96 240.577 179.132 240.161C179.305 239.744 179.597 239.388 179.972 239.138C180.347 238.888 180.787 238.754 181.238 238.754C181.842 238.754 182.422 238.994 182.849 239.421C183.277 239.849 183.517 240.429 183.517 241.033Z" fill="white"/>
<path d="M177.037 241.033C177.037 241.484 176.903 241.924 176.653 242.299C176.403 242.674 176.047 242.966 175.63 243.138C175.214 243.311 174.755 243.356 174.313 243.268C173.871 243.18 173.465 242.963 173.147 242.644C172.828 242.326 172.611 241.92 172.523 241.478C172.435 241.036 172.48 240.577 172.652 240.161C172.825 239.744 173.117 239.388 173.492 239.138C173.867 238.888 174.307 238.754 174.758 238.754C175.362 238.754 175.942 238.994 176.37 239.421C176.797 239.849 177.037 240.429 177.037 241.033Z" fill="white"/>
<path d="M170.559 241.033C170.559 241.484 170.425 241.924 170.175 242.299C169.924 242.674 169.569 242.966 169.152 243.138C168.736 243.311 168.277 243.356 167.835 243.268C167.393 243.18 166.987 242.963 166.668 242.644C166.35 242.326 166.133 241.92 166.045 241.478C165.957 241.036 166.002 240.577 166.174 240.161C166.347 239.744 166.639 239.388 167.014 239.138C167.389 238.888 167.829 238.754 168.28 238.754C168.884 238.754 169.464 238.994 169.891 239.421C170.319 239.849 170.559 240.429 170.559 241.033Z" fill="white"/>
<path d="M389.941 112.528H340.438V115.409H389.941V112.528Z" fill="#2A3D66"/>
<path d="M350.176 161.648H340.438V164.529H350.176V161.648Z" fill="#2A3D66"/>
<path d="M337 132.62H327.262V135.501H337V132.62Z" fill="#2A3D66"/>
<path d="M375.858 138.668H340.437V141.549H375.858V138.668Z" fill="#2A3D66"/>
<path d="M358.148 144.93H340.438V147.811H358.148V144.93Z" fill="#2A3D66"/>
<path d="M376.63 118.76H341.209V121.641H376.63V118.76Z" fill="#2A3D66"/>
</svg>
