<svg width="1440" height="1798" viewBox="0 0 1440 1798" fill="none" xmlns="http://www.w3.org/2000/svg">
<path d="M-379.691 1248.78C-379.691 1248.78 -112.689 1300.68 73.6965 1096.49C260.082 892.302 399 966 583 989.999C767 1014 775.209 841.662 966.403 801.404C1157.6 761.146 1238.2 968.093 1424.6 813.046C1611 657.999 1451 550 1755 550" stroke="#52B3E2" stroke-width="2"/>
<path d="M-396.514 1192.44C-396.514 1192.44 -132.593 1258.24 64.2228 1064.09C261.039 869.934 395.91 950.801 578.402 984.398C760.894 1017.99 778.11 846.324 971.149 816.127C1164.19 785.93 1233.85 996.812 1428.11 851.733C1622.37 706.654 1468.24 590.429 1771.82 606.339" stroke="#52B3E2" stroke-width="2"/>
<path d="M-410.365 1135.29C-410.365 1135.29 -150.251 1214.82 56.4571 1031.23C263.165 847.647 393.618 935.462 574.102 978.564C754.585 1021.67 780.763 851.13 975.118 831.078C1169.47 811.026 1228 1025.26 1429.59 890.551C1631.17 755.837 1483.34 631.705 1785.67 663.481" stroke="#52B3E2" stroke-width="2"/>
<path d="M-421.185 1077.84C-421.185 1077.84 -165.505 1170.87 50.5671 998.274C266.639 825.682 392.365 920.216 570.402 972.697C748.439 1025.18 783.495 856.194 978.687 846.314C1173.88 836.434 1221.16 1053.5 1429.56 929.458C1637.96 805.419 1496.77 673.7 1797.12 721.232" stroke="#52B3E2" stroke-width="2.00056"/>
<path d="M-430.931 999.722C-430.931 999.722 -182.446 1110.35 45.0941 953.328C272.635 796.301 391.414 899.36 565.299 964.135C739.185 1028.91 785.95 862.838 981.3 866.621C1176.65 870.404 1208.63 1090.18 1425.13 981.036C1641.64 871.894 1510.03 730.67 1806.24 799.055" stroke="#52B3E2" stroke-width="2"/>
</svg>
