<svg width="401" height="280" viewBox="0 0 401 280" fill="none" xmlns="http://www.w3.org/2000/svg">
<path d="M89.4897 26.6009C92.3553 24.8701 95.4391 23.5297 98.6595 22.6154L100.548 13.5385L115.883 13.27L118.09 22.274C121.341 23.0739 124.471 24.3049 127.395 25.9341L135.146 20.8537L146.183 31.5087L141.379 39.4308C143.11 42.2967 144.45 45.3813 145.364 48.6025L154.44 50.491L154.709 65.8261L145.705 68.033C144.905 71.2833 143.674 74.4121 142.045 77.3365L147.124 85.0879L136.467 96.1242L128.544 91.3202C125.679 93.051 122.594 94.391 119.374 95.3047L117.484 104.382L102.149 104.651L99.9421 95.6471C96.6918 94.8468 93.5629 93.6159 90.6386 91.9869L82.8872 97.0674L71.8519 86.4124L76.6559 78.4893C74.9245 75.6237 73.5841 72.5395 72.6704 69.3186L63.5944 67.4301L63.325 52.095L72.329 49.8811C73.1296 46.6309 74.3605 43.5021 75.9891 40.5776L70.9087 32.8262L81.5617 21.7919L89.4897 26.6009ZM97.6644 47.0305C95.4044 49.3717 93.8895 52.3304 93.3111 55.5326C92.7326 58.7348 93.1167 62.0366 94.4148 65.0205C95.7128 68.0044 97.8665 70.5364 100.604 72.2963C103.341 74.0562 106.538 74.965 109.791 74.9078C113.045 74.8506 116.208 73.8299 118.882 71.9748C121.555 70.1197 123.619 67.5136 124.811 64.4859C126.003 61.4582 126.271 58.1449 125.58 54.965C124.89 51.7852 123.271 48.8815 120.931 46.6212C117.791 43.5905 113.576 41.9309 109.213 42.0077C104.85 42.0844 100.696 43.8912 97.6654 47.0305" fill="#52B3E2"/>
<path d="M19.9404 8.46009C21.7587 7.36126 23.7157 6.51063 25.7595 5.93085L26.9573 0.170679L36.69 0L38.0873 5.71425C40.1504 6.22167 42.1363 7.00281 43.9922 8.03689L48.91 4.81295L55.9168 11.5782L52.8685 16.6058C53.9668 18.4249 54.817 20.3825 55.3968 22.4268L61.1569 23.6246L61.3276 33.3563L55.6134 34.7537C55.1053 36.8162 54.3242 38.8017 53.2907 40.6576L56.5147 45.5763L49.7544 52.5791L44.7258 49.5299C42.9071 50.628 40.9497 51.4783 38.9058 52.0581L37.708 57.8183L27.9763 57.989L26.579 52.2747C24.5164 51.7666 22.5309 50.9855 20.6751 49.9521L15.7553 53.177L8.74849 46.4127L11.7968 41.3842C10.6986 39.5667 9.84798 37.6107 9.26752 35.5681L3.50735 34.3704L3.33667 24.6387L9.05092 23.2413C9.55869 21.1787 10.3398 19.1931 11.3736 17.3374L8.14962 12.4186L14.9099 5.41681L19.9404 8.46009ZM25.1307 21.4247C23.6964 22.9104 22.7348 24.7881 22.3676 26.8203C22.0004 28.8524 22.244 30.9479 23.0677 32.8416C23.8914 34.7353 25.2582 36.3422 26.9951 37.4592C28.7321 38.5761 30.7613 39.1529 32.8261 39.1166C34.8908 39.0803 36.8985 38.4326 38.5951 37.2553C40.2918 36.078 41.6012 34.424 42.3578 32.5025C43.1145 30.581 43.2843 28.4783 42.8459 26.4603C42.4076 24.4423 41.3806 22.5996 39.8949 21.1652C38.9085 20.2128 37.7441 19.464 36.4682 18.9616C35.1924 18.4592 33.8301 18.213 32.4591 18.2371C31.0881 18.2612 29.7353 18.5551 28.4778 19.1021C27.2204 19.649 26.0831 20.4382 25.1307 21.4247Z" fill="#1C8CC2"/>
<path d="M357.482 132.714C359.394 131.559 361.451 130.665 363.6 130.054L364.861 123.998L375.094 123.818L376.567 129.826C378.736 130.36 380.824 131.181 382.775 132.268L387.948 128.875L395.31 135.984L392.105 141.274C393.26 143.187 394.154 145.245 394.764 147.395L400.819 148.655L401 158.888L394.992 160.361C394.458 162.53 393.636 164.618 392.549 166.57L395.943 171.742L388.834 179.105L383.544 175.899C381.632 177.054 379.574 177.949 377.424 178.558L376.163 184.614L365.931 184.794L364.458 178.786C362.289 178.252 360.201 177.43 358.249 176.343L353.077 179.737L345.715 172.628L348.92 167.338C347.764 165.426 346.87 163.368 346.26 161.219L340.204 159.958L340.025 149.725L346.032 148.252C346.567 146.083 347.388 143.995 348.476 142.044L345.082 136.872L352.19 129.509L357.482 132.714ZM362.937 146.346C361.428 147.908 360.417 149.882 360.03 152.019C359.644 154.156 359.9 156.36 360.766 158.351C361.632 160.343 363.069 162.032 364.896 163.207C366.722 164.382 368.856 164.988 371.027 164.95C373.199 164.912 375.31 164.231 377.094 162.993C378.878 161.755 380.255 160.016 381.051 157.995C381.846 155.974 382.025 153.763 381.564 151.641C381.103 149.519 380.023 147.582 378.46 146.073C376.366 144.051 373.553 142.944 370.642 142.995C367.731 143.046 364.959 144.251 362.937 146.346Z" fill="#52B3E2"/>
<path d="M321.275 274.64H22.6853C19.9756 274.64 17.377 273.563 15.4609 271.647C13.5449 269.731 12.4685 267.132 12.4685 264.423V73.89C12.4684 72.5483 12.7325 71.2196 13.2459 69.9799C13.7593 68.7403 14.5119 67.6138 15.4606 66.665C16.4093 65.7162 17.5356 64.9635 18.7753 64.45C20.0149 63.9365 21.3435 63.6722 22.6853 63.6722H321.275C322.617 63.6722 323.945 63.9365 325.185 64.45C326.424 64.9635 327.551 65.7162 328.5 66.665C329.448 67.6138 330.201 68.7403 330.714 69.9799C331.228 71.2196 331.492 72.5483 331.492 73.89V264.423C331.492 267.132 330.415 269.731 328.499 271.647C326.583 273.563 323.984 274.64 321.275 274.64Z" fill="#1D2848"/>
<path d="M333.155 279.475H12.4825C9.17196 279.475 5.99698 278.159 3.65605 275.819C1.31512 273.478 0 270.303 0 266.992L0 261.015H345.638V266.992C345.638 270.303 344.323 273.478 341.982 275.819C339.641 278.16 336.465 279.476 333.155 279.476" fill="#2A3D66"/>
<path d="M140.531 259.037L144.823 265.859H205.175L209.158 259.037H140.531Z" fill="#E1E9ED"/>
<path d="M314.159 249.643H29.5274C28.9185 249.643 28.3346 249.402 27.9041 248.971C27.4736 248.541 27.2317 247.957 27.2317 247.348V80.3817C27.2317 79.7729 27.4736 79.189 27.9041 78.7584C28.3346 78.3279 28.9185 78.0861 29.5274 78.0861H314.159C314.768 78.0861 315.352 78.3279 315.782 78.7584C316.213 79.189 316.455 79.7729 316.455 80.3817V247.349C316.455 247.958 316.213 248.542 315.782 248.972C315.352 249.403 314.768 249.644 314.159 249.644" fill="#E1E9ED"/>
<path d="M316.146 249.896H26.9214L27.2308 90.9091H316.146V249.896Z" fill="white"/>
<path d="M50.9523 84.7116C50.9523 85.1684 50.8169 85.6149 50.5631 85.9947C50.3093 86.3746 49.9486 86.6706 49.5265 86.8454C49.1045 87.0202 48.6401 87.066 48.1921 86.9768C47.744 86.8877 47.3325 86.6678 47.0095 86.3448C46.6865 86.0217 46.4665 85.6102 46.3774 85.1622C46.2883 84.7141 46.334 84.2497 46.5088 83.8277C46.6836 83.4057 46.9797 83.0449 47.3595 82.7912C47.7393 82.5374 48.1859 82.4019 48.6427 82.4019C49.2552 82.4019 49.8427 82.6453 50.2758 83.0784C50.709 83.5115 50.9523 84.099 50.9523 84.7116Z" fill="#1D2848"/>
<path d="M36.9535 84.7116C36.9535 85.1683 36.8181 85.6148 36.5644 85.9946C36.3106 86.3744 35.95 86.6705 35.528 86.8453C35.106 87.0202 34.6417 87.066 34.1937 86.9769C33.7457 86.8879 33.3341 86.668 33.0111 86.3451C32.688 86.0222 32.468 85.6107 32.3787 85.1628C32.2895 84.7148 32.3351 84.2504 32.5098 83.8284C32.6844 83.4063 32.9803 83.0456 33.36 82.7916C33.7397 82.5377 34.1861 82.4021 34.6429 82.4019C34.9463 82.4018 35.2467 82.4614 35.5271 82.5774C35.8074 82.6935 36.0621 82.8636 36.2767 83.078C36.4913 83.2925 36.6615 83.5472 36.7776 83.8275C36.8938 84.1078 36.9535 84.4082 36.9535 84.7116Z" fill="#1D2848"/>
<path d="M43.6728 84.7116C43.6728 85.1684 43.5373 85.6149 43.2835 85.9947C43.0297 86.3746 42.669 86.6706 42.247 86.8454C41.825 87.0202 41.3606 87.066 40.9125 86.9768C40.4645 86.8877 40.053 86.6678 39.7299 86.3448C39.4069 86.0217 39.187 85.6102 39.0978 85.1622C39.0087 84.7141 39.0545 84.2497 39.2293 83.8277C39.4041 83.4057 39.7001 83.0449 40.0799 82.7912C40.4598 82.5374 40.9063 82.4019 41.3631 82.4019C41.9757 82.4019 42.5632 82.6453 42.9963 83.0784C43.4294 83.5115 43.6728 84.099 43.6728 84.7116Z" fill="#1D2848"/>
<path d="M328.75 259.037C328.75 259.152 257.942 259.243 170.617 259.243C83.2614 259.243 12.4675 259.151 12.4675 259.037C12.4675 258.923 83.2604 258.83 170.617 258.83C257.943 258.83 328.75 258.923 328.75 259.037Z" fill="#263238"/>
<path d="M274.562 232.341H270.354C270.266 232.334 270.183 232.295 270.123 232.23C270.063 232.165 270.03 232.08 270.03 231.992C270.03 231.903 270.063 231.818 270.123 231.753C270.183 231.689 270.266 231.649 270.354 231.642H274.211V227.785C274.208 227.737 274.214 227.688 274.23 227.643C274.246 227.597 274.271 227.555 274.304 227.52C274.337 227.485 274.376 227.456 274.421 227.437C274.465 227.418 274.513 227.408 274.561 227.408C274.609 227.408 274.657 227.418 274.701 227.437C274.745 227.456 274.785 227.485 274.818 227.52C274.85 227.555 274.876 227.597 274.892 227.643C274.907 227.688 274.914 227.737 274.91 227.785V231.993C274.91 232.086 274.873 232.175 274.808 232.24C274.742 232.306 274.653 232.343 274.56 232.343" fill="#E0E0E0"/>
<path d="M262.17 232.341H253.986C253.937 232.345 253.889 232.338 253.844 232.322C253.798 232.307 253.756 232.281 253.721 232.249C253.686 232.216 253.657 232.176 253.638 232.132C253.619 232.088 253.609 232.04 253.609 231.992C253.609 231.943 253.619 231.896 253.638 231.852C253.657 231.807 253.686 231.768 253.721 231.735C253.756 231.702 253.798 231.677 253.844 231.661C253.889 231.645 253.937 231.639 253.986 231.642H262.17C262.218 231.639 262.267 231.645 262.312 231.661C262.358 231.677 262.399 231.702 262.435 231.735C262.47 231.768 262.498 231.807 262.518 231.852C262.537 231.896 262.547 231.943 262.547 231.992C262.547 232.04 262.537 232.088 262.518 232.132C262.498 232.176 262.47 232.216 262.435 232.249C262.399 232.281 262.358 232.307 262.312 232.322C262.267 232.338 262.218 232.345 262.17 232.341ZM245.807 232.341H237.622C237.574 232.345 237.526 232.338 237.48 232.322C237.435 232.307 237.393 232.281 237.358 232.249C237.322 232.216 237.294 232.176 237.275 232.132C237.255 232.088 237.246 232.04 237.246 231.992C237.246 231.943 237.255 231.896 237.275 231.852C237.294 231.807 237.322 231.768 237.358 231.735C237.393 231.702 237.435 231.677 237.48 231.661C237.526 231.645 237.574 231.639 237.622 231.642H245.807C245.855 231.639 245.903 231.645 245.949 231.661C245.994 231.677 246.036 231.702 246.072 231.735C246.107 231.768 246.135 231.807 246.154 231.852C246.174 231.896 246.184 231.943 246.184 231.992C246.184 232.04 246.174 232.088 246.154 232.132C246.135 232.176 246.107 232.216 246.072 232.249C246.036 232.281 245.994 232.307 245.949 232.322C245.903 232.338 245.855 232.345 245.807 232.341ZM229.444 232.341H221.259C221.211 232.345 221.163 232.338 221.117 232.322C221.072 232.307 221.03 232.281 220.994 232.249C220.959 232.216 220.931 232.176 220.912 232.132C220.892 232.088 220.882 232.04 220.882 231.992C220.882 231.943 220.892 231.896 220.912 231.852C220.931 231.807 220.959 231.768 220.994 231.735C221.03 231.702 221.072 231.677 221.117 231.661C221.163 231.645 221.211 231.639 221.259 231.642H229.444C229.492 231.639 229.54 231.645 229.586 231.661C229.631 231.677 229.673 231.702 229.708 231.735C229.744 231.768 229.772 231.807 229.791 231.852C229.81 231.896 229.82 231.943 229.82 231.992C229.82 232.04 229.81 232.088 229.791 232.132C229.772 232.176 229.744 232.216 229.708 232.249C229.673 232.281 229.631 232.307 229.586 232.322C229.54 232.338 229.492 232.345 229.444 232.341ZM213.08 232.341H204.896C204.848 232.345 204.799 232.338 204.754 232.322C204.708 232.307 204.667 232.281 204.631 232.249C204.596 232.216 204.568 232.176 204.548 232.132C204.529 232.088 204.519 232.04 204.519 231.992C204.519 231.943 204.529 231.896 204.548 231.852C204.568 231.807 204.596 231.768 204.631 231.735C204.667 231.702 204.708 231.677 204.754 231.661C204.799 231.645 204.848 231.639 204.896 231.642H213.08C213.129 231.639 213.177 231.645 213.222 231.661C213.268 231.677 213.31 231.702 213.345 231.735C213.38 231.768 213.409 231.807 213.428 231.852C213.447 231.896 213.457 231.943 213.457 231.992C213.457 232.04 213.447 232.088 213.428 232.132C213.409 232.176 213.38 232.216 213.345 232.249C213.31 232.281 213.268 232.307 213.222 232.322C213.177 232.338 213.129 232.345 213.08 232.341Z" fill="#2A3D66"/>
<path d="M262.17 232.341H253.986C253.937 232.345 253.889 232.338 253.844 232.322C253.798 232.307 253.756 232.281 253.721 232.249C253.686 232.216 253.657 232.176 253.638 232.132C253.619 232.088 253.609 232.04 253.609 231.992C253.609 231.943 253.619 231.896 253.638 231.852C253.657 231.807 253.686 231.768 253.721 231.735C253.756 231.702 253.798 231.677 253.844 231.661C253.889 231.645 253.937 231.639 253.986 231.642H262.17C262.218 231.639 262.267 231.645 262.312 231.661C262.358 231.677 262.399 231.702 262.435 231.735C262.47 231.768 262.498 231.807 262.518 231.852C262.537 231.896 262.547 231.943 262.547 231.992C262.547 232.04 262.537 232.088 262.518 232.132C262.498 232.176 262.47 232.216 262.435 232.249C262.399 232.281 262.358 232.307 262.312 232.322C262.267 232.338 262.218 232.345 262.17 232.341M245.807 232.341H237.622C237.574 232.345 237.526 232.338 237.48 232.322C237.435 232.307 237.393 232.281 237.358 232.249C237.322 232.216 237.294 232.176 237.275 232.132C237.255 232.088 237.246 232.04 237.246 231.992C237.246 231.943 237.255 231.896 237.275 231.852C237.294 231.807 237.322 231.768 237.358 231.735C237.393 231.702 237.435 231.677 237.48 231.661C237.526 231.645 237.574 231.639 237.622 231.642H245.807C245.855 231.639 245.903 231.645 245.949 231.661C245.994 231.677 246.036 231.702 246.072 231.735C246.107 231.768 246.135 231.807 246.154 231.852C246.174 231.896 246.184 231.943 246.184 231.992C246.184 232.04 246.174 232.088 246.154 232.132C246.135 232.176 246.107 232.216 246.072 232.249C246.036 232.281 245.994 232.307 245.949 232.322C245.903 232.338 245.855 232.345 245.807 232.341M229.444 232.341H221.259C221.211 232.345 221.163 232.338 221.117 232.322C221.072 232.307 221.03 232.281 220.994 232.249C220.959 232.216 220.931 232.176 220.912 232.132C220.892 232.088 220.882 232.04 220.882 231.992C220.882 231.943 220.892 231.896 220.912 231.852C220.931 231.807 220.959 231.768 220.994 231.735C221.03 231.702 221.072 231.677 221.117 231.661C221.163 231.645 221.211 231.639 221.259 231.642H229.444C229.492 231.639 229.54 231.645 229.586 231.661C229.631 231.677 229.673 231.702 229.708 231.735C229.744 231.768 229.772 231.807 229.791 231.852C229.81 231.896 229.82 231.943 229.82 231.992C229.82 232.04 229.81 232.088 229.791 232.132C229.772 232.176 229.744 232.216 229.708 232.249C229.673 232.281 229.631 232.307 229.586 232.322C229.54 232.338 229.492 232.345 229.444 232.341M213.08 232.341H204.896C204.848 232.345 204.799 232.338 204.754 232.322C204.708 232.307 204.667 232.281 204.631 232.249C204.596 232.216 204.568 232.176 204.548 232.132C204.529 232.088 204.519 232.04 204.519 231.992C204.519 231.943 204.529 231.896 204.548 231.852C204.568 231.807 204.596 231.768 204.631 231.735C204.667 231.702 204.708 231.677 204.754 231.661C204.799 231.645 204.848 231.639 204.896 231.642H213.08C213.129 231.639 213.177 231.645 213.222 231.661C213.268 231.677 213.31 231.702 213.345 231.735C213.38 231.768 213.409 231.807 213.428 231.852C213.447 231.896 213.457 231.943 213.457 231.992C213.457 232.04 213.447 232.088 213.428 232.132C213.409 232.176 213.38 232.216 213.345 232.249C213.31 232.281 213.268 232.307 213.222 232.322C213.177 232.338 213.129 232.345 213.08 232.341" stroke="#2A3D66"/>
<path d="M196.718 232.341H192.51C192.417 232.341 192.328 232.304 192.262 232.238C192.197 232.173 192.16 232.084 192.16 231.991V227.783C192.166 227.695 192.206 227.612 192.271 227.552C192.336 227.492 192.421 227.459 192.509 227.459C192.597 227.459 192.682 227.492 192.747 227.552C192.812 227.612 192.852 227.695 192.858 227.783V231.64H196.716C196.764 231.637 196.813 231.643 196.858 231.659C196.904 231.675 196.945 231.7 196.981 231.733C197.016 231.766 197.044 231.805 197.064 231.85C197.083 231.894 197.093 231.942 197.093 231.99C197.093 232.038 197.083 232.086 197.064 232.13C197.044 232.174 197.016 232.214 196.981 232.247C196.945 232.279 196.904 232.305 196.858 232.32C196.813 232.336 196.764 232.343 196.716 232.339" fill="#2A3D66"/>
<path d="M196.718 232.341H192.51C192.417 232.341 192.328 232.304 192.262 232.238C192.197 232.173 192.16 232.084 192.16 231.991V227.783C192.166 227.695 192.206 227.612 192.271 227.552C192.336 227.492 192.421 227.459 192.509 227.459C192.597 227.459 192.682 227.492 192.747 227.552C192.812 227.612 192.852 227.695 192.858 227.783V231.64H196.716C196.764 231.637 196.813 231.643 196.858 231.659C196.904 231.675 196.945 231.7 196.981 231.733C197.016 231.766 197.044 231.805 197.064 231.85C197.083 231.894 197.093 231.942 197.093 231.99C197.093 232.038 197.083 232.086 197.064 232.13C197.044 232.174 197.016 232.214 196.981 232.247C196.945 232.279 196.904 232.305 196.858 232.32C196.813 232.336 196.764 232.343 196.716 232.339" stroke="#2A3D66"/>
<path d="M192.509 219.362C192.416 219.362 192.327 219.325 192.261 219.259C192.196 219.193 192.159 219.104 192.159 219.011V210.241C192.165 210.153 192.205 210.07 192.27 210.01C192.335 209.95 192.42 209.917 192.508 209.917C192.596 209.917 192.682 209.95 192.746 210.01C192.811 210.07 192.851 210.153 192.857 210.241V219.011C192.857 219.104 192.821 219.193 192.755 219.259C192.689 219.325 192.6 219.362 192.507 219.362M192.507 201.821C192.414 201.821 192.325 201.784 192.259 201.718C192.194 201.652 192.157 201.563 192.157 201.47V192.7C192.153 192.652 192.159 192.603 192.175 192.558C192.191 192.512 192.216 192.47 192.249 192.435C192.282 192.4 192.322 192.371 192.366 192.352C192.41 192.333 192.458 192.323 192.506 192.323C192.554 192.323 192.602 192.333 192.646 192.352C192.691 192.371 192.73 192.4 192.763 192.435C192.796 192.47 192.821 192.512 192.837 192.558C192.853 192.603 192.859 192.652 192.855 192.7V201.47C192.855 201.563 192.819 201.652 192.753 201.718C192.687 201.784 192.598 201.821 192.505 201.821M192.505 184.28C192.412 184.28 192.323 184.243 192.257 184.177C192.192 184.111 192.155 184.022 192.155 183.929V175.158C192.151 175.11 192.158 175.061 192.173 175.016C192.189 174.97 192.214 174.928 192.247 174.893C192.28 174.858 192.32 174.829 192.364 174.81C192.408 174.791 192.456 174.781 192.504 174.781C192.552 174.781 192.6 174.791 192.644 174.81C192.689 174.829 192.728 174.858 192.761 174.893C192.794 174.928 192.819 174.97 192.835 175.016C192.851 175.061 192.857 175.11 192.854 175.158V183.929C192.854 184.022 192.817 184.111 192.751 184.177C192.685 184.243 192.596 184.28 192.503 184.28" fill="#2A3D66"/>
<path d="M192.509 219.362C192.416 219.362 192.327 219.325 192.261 219.259C192.196 219.193 192.159 219.104 192.159 219.011V210.241C192.165 210.153 192.205 210.07 192.27 210.01C192.335 209.95 192.42 209.917 192.508 209.917C192.596 209.917 192.682 209.95 192.746 210.01C192.811 210.07 192.851 210.153 192.857 210.241V219.011C192.857 219.104 192.821 219.193 192.755 219.259C192.689 219.325 192.6 219.362 192.507 219.362M192.507 201.821C192.414 201.821 192.325 201.784 192.259 201.718C192.194 201.652 192.157 201.563 192.157 201.47V192.7C192.153 192.652 192.159 192.603 192.175 192.558C192.191 192.512 192.216 192.47 192.249 192.435C192.282 192.4 192.322 192.371 192.366 192.352C192.41 192.333 192.458 192.323 192.506 192.323C192.554 192.323 192.602 192.333 192.646 192.352C192.691 192.371 192.73 192.4 192.763 192.435C192.796 192.47 192.821 192.512 192.837 192.558C192.853 192.603 192.859 192.652 192.855 192.7V201.47C192.855 201.563 192.819 201.652 192.753 201.718C192.687 201.784 192.598 201.821 192.505 201.821M192.505 184.28C192.412 184.28 192.323 184.243 192.257 184.177C192.192 184.111 192.155 184.022 192.155 183.929V175.158C192.151 175.11 192.158 175.061 192.173 175.016C192.189 174.97 192.214 174.928 192.247 174.893C192.28 174.858 192.32 174.829 192.364 174.81C192.408 174.791 192.456 174.781 192.504 174.781C192.552 174.781 192.6 174.791 192.644 174.81C192.689 174.829 192.728 174.858 192.761 174.893C192.794 174.928 192.819 174.97 192.835 175.016C192.851 175.061 192.857 175.11 192.854 175.158V183.929C192.854 184.022 192.817 184.111 192.751 184.177C192.685 184.243 192.596 184.28 192.503 184.28" stroke="#2A3D66"/>
<path d="M192.509 166.735C192.416 166.735 192.327 166.698 192.261 166.633C192.196 166.567 192.159 166.478 192.159 166.385V162.177C192.159 162.084 192.196 161.995 192.261 161.929C192.327 161.863 192.416 161.827 192.509 161.827H196.717C196.765 161.823 196.814 161.829 196.859 161.845C196.905 161.861 196.946 161.886 196.982 161.919C197.017 161.952 197.045 161.992 197.065 162.036C197.084 162.08 197.094 162.128 197.094 162.176C197.094 162.224 197.084 162.272 197.065 162.316C197.045 162.36 197.017 162.4 196.982 162.433C196.946 162.466 196.905 162.491 196.859 162.507C196.814 162.523 196.765 162.529 196.717 162.525H192.859V166.383C192.859 166.476 192.822 166.565 192.757 166.631C192.691 166.696 192.602 166.733 192.509 166.733" fill="#E0E0E0"/>
<path d="M262.171 162.527H253.986C253.898 162.521 253.816 162.481 253.756 162.416C253.696 162.352 253.662 162.266 253.662 162.178C253.662 162.09 253.696 162.005 253.756 161.94C253.816 161.875 253.898 161.835 253.986 161.829H262.171C262.219 161.825 262.267 161.831 262.313 161.847C262.358 161.863 262.4 161.888 262.436 161.921C262.471 161.954 262.499 161.994 262.518 162.038C262.538 162.082 262.548 162.13 262.548 162.178C262.548 162.226 262.538 162.274 262.518 162.318C262.499 162.362 262.471 162.402 262.436 162.435C262.4 162.468 262.358 162.493 262.313 162.509C262.267 162.525 262.219 162.531 262.171 162.527ZM245.808 162.527H237.623C237.535 162.521 237.453 162.481 237.393 162.416C237.333 162.352 237.299 162.266 237.299 162.178C237.299 162.09 237.333 162.005 237.393 161.94C237.453 161.875 237.535 161.835 237.623 161.829H245.808C245.856 161.825 245.904 161.831 245.95 161.847C245.995 161.863 246.037 161.888 246.072 161.921C246.108 161.954 246.136 161.994 246.155 162.038C246.175 162.082 246.185 162.13 246.185 162.178C246.185 162.226 246.175 162.274 246.155 162.318C246.136 162.362 246.108 162.402 246.072 162.435C246.037 162.468 245.995 162.493 245.95 162.509C245.904 162.525 245.856 162.531 245.808 162.527ZM229.445 162.527H221.26C221.212 162.531 221.163 162.525 221.118 162.509C221.072 162.493 221.031 162.468 220.995 162.435C220.96 162.402 220.932 162.362 220.912 162.318C220.893 162.274 220.883 162.226 220.883 162.178C220.883 162.13 220.893 162.082 220.912 162.038C220.932 161.994 220.96 161.954 220.995 161.921C221.031 161.888 221.072 161.863 221.118 161.847C221.163 161.831 221.212 161.825 221.26 161.829H229.445C229.533 161.835 229.615 161.875 229.675 161.94C229.735 162.005 229.768 162.09 229.768 162.178C229.768 162.266 229.735 162.352 229.675 162.416C229.615 162.481 229.533 162.521 229.445 162.527ZM213.081 162.527H204.897C204.809 162.521 204.726 162.481 204.666 162.416C204.606 162.352 204.573 162.266 204.573 162.178C204.573 162.09 204.606 162.005 204.666 161.94C204.726 161.875 204.809 161.835 204.897 161.829H213.081C213.129 161.825 213.178 161.831 213.223 161.847C213.269 161.863 213.311 161.888 213.346 161.921C213.381 161.954 213.41 161.994 213.429 162.038C213.448 162.082 213.458 162.13 213.458 162.178C213.458 162.226 213.448 162.274 213.429 162.318C213.41 162.362 213.381 162.402 213.346 162.435C213.311 162.468 213.269 162.493 213.223 162.509C213.178 162.525 213.129 162.531 213.081 162.527Z" fill="#E0E0E0"/>
<path d="M274.562 166.736C274.469 166.736 274.38 166.699 274.314 166.633C274.248 166.567 274.211 166.478 274.211 166.385V162.527H270.354C270.305 162.531 270.257 162.525 270.212 162.509C270.166 162.493 270.124 162.468 270.089 162.435C270.054 162.402 270.025 162.362 270.006 162.318C269.987 162.274 269.977 162.226 269.977 162.178C269.977 162.13 269.987 162.082 270.006 162.038C270.025 161.994 270.054 161.954 270.089 161.921C270.124 161.888 270.166 161.863 270.212 161.847C270.257 161.831 270.305 161.825 270.354 161.829H274.562C274.655 161.829 274.744 161.866 274.809 161.931C274.875 161.997 274.912 162.086 274.912 162.179V166.387C274.912 166.48 274.875 166.569 274.809 166.635C274.744 166.701 274.655 166.738 274.562 166.738" fill="#E0E0E0"/>
<path d="M274.56 219.362C274.467 219.362 274.378 219.325 274.312 219.259C274.246 219.193 274.21 219.104 274.21 219.011V210.241C274.206 210.193 274.212 210.144 274.228 210.099C274.244 210.053 274.269 210.012 274.302 209.976C274.335 209.941 274.375 209.913 274.419 209.893C274.463 209.874 274.511 209.864 274.559 209.864C274.607 209.864 274.655 209.874 274.699 209.893C274.743 209.913 274.783 209.941 274.816 209.976C274.849 210.012 274.874 210.053 274.89 210.099C274.906 210.144 274.912 210.193 274.908 210.241V219.011C274.908 219.104 274.871 219.193 274.806 219.259C274.74 219.325 274.651 219.362 274.558 219.362M274.558 201.821C274.465 201.821 274.376 201.784 274.31 201.718C274.244 201.652 274.208 201.563 274.208 201.47V192.7C274.214 192.612 274.254 192.529 274.319 192.469C274.383 192.409 274.469 192.376 274.557 192.376C274.645 192.376 274.73 192.409 274.795 192.469C274.86 192.529 274.9 192.612 274.906 192.7V201.47C274.906 201.563 274.869 201.652 274.804 201.718C274.738 201.784 274.649 201.821 274.556 201.821M274.556 184.279C274.463 184.279 274.374 184.242 274.308 184.176C274.242 184.11 274.206 184.021 274.206 183.928V175.158C274.212 175.07 274.252 174.987 274.317 174.927C274.381 174.867 274.467 174.834 274.555 174.834C274.643 174.834 274.728 174.867 274.793 174.927C274.858 174.987 274.898 175.07 274.904 175.158V183.928C274.904 184.021 274.867 184.11 274.802 184.176C274.736 184.242 274.647 184.279 274.554 184.279" fill="#E0E0E0"/>
<path d="M270.39 184.873H190.779C189.925 184.873 189.106 184.534 188.501 183.93C187.897 183.326 187.558 182.507 187.557 181.652V119.006C187.557 118.152 187.897 117.332 188.501 116.728C189.105 116.124 189.925 115.784 190.779 115.784H270.39C271.244 115.784 272.064 116.124 272.668 116.728C273.272 117.332 273.612 118.152 273.612 119.006V181.654C273.611 182.508 273.271 183.327 272.667 183.931C272.063 184.534 271.244 184.873 270.39 184.873Z" fill="#52B3E2"/>
<path d="M191.468 180.136L219.011 143.613L235.88 166.607L247.439 154.401L269.886 180.465L191.468 180.136Z" fill="#1C8CC2"/>
<path d="M243.2 139.225C243.195 140.446 242.828 141.638 242.145 142.651C241.462 143.663 240.495 144.451 239.365 144.913C238.234 145.376 236.993 145.493 235.796 145.25C234.599 145.007 233.501 144.414 232.642 143.547C231.782 142.68 231.198 141.577 230.965 140.379C230.732 139.18 230.859 137.939 231.331 136.813C231.803 135.687 232.598 134.726 233.616 134.051C234.634 133.377 235.829 133.02 237.05 133.025C237.861 133.028 238.664 133.191 239.412 133.504C240.159 133.818 240.838 134.275 241.409 134.851C241.98 135.427 242.432 136.11 242.74 136.86C243.047 137.611 243.203 138.414 243.2 139.225Z" fill="#1C8CC2"/>
<path d="M275.768 237.775H241.174C239.667 237.775 238.222 237.176 237.156 236.111C236.091 235.045 235.492 233.6 235.492 232.093V198.826C235.492 197.319 236.091 195.874 237.156 194.808C238.222 193.743 239.667 193.144 241.174 193.144H275.768C277.275 193.144 278.721 193.743 279.786 194.808C280.852 195.874 281.451 197.319 281.451 198.826V232.094C281.451 233.601 280.852 235.046 279.786 236.112C278.721 237.177 277.275 237.776 275.768 237.776" fill="#52B3E2"/>
<path d="M245.657 203.661H270.716L270.757 212.054H269.559C269.166 209.052 268.042 207.02 266.185 205.96C264.722 205.282 263.122 204.954 261.51 205.001V226.928C261.51 228.459 261.776 229.475 262.309 229.979C262.841 230.482 263.956 230.733 265.652 230.732V231.788H250.816V230.732C252.443 230.732 253.523 230.478 254.058 229.969C254.593 229.459 254.859 228.446 254.857 226.928V205.002C253.246 204.965 251.648 205.292 250.182 205.961C248.19 207.048 247.065 209.079 246.808 212.055H245.61L245.657 203.661Z" fill="white"/>
<path d="M289.25 125.648V209.571C289.25 210.767 289.725 211.915 290.571 212.761C291.417 213.607 292.565 214.082 293.762 214.082H347.86C349.056 214.082 350.204 213.607 351.05 212.761C351.896 211.915 352.372 210.768 352.372 209.571V125.648C352.372 125.055 352.256 124.468 352.029 123.921C351.802 123.374 351.47 122.876 351.051 122.457C350.632 122.038 350.134 121.706 349.587 121.479C349.039 121.253 348.452 121.136 347.86 121.136H293.762C292.565 121.136 291.417 121.612 290.571 122.458C289.725 123.304 289.25 124.451 289.25 125.648Z" fill="white"/>
<path d="M289.25 125.648V209.571C289.25 210.767 289.725 211.915 290.571 212.761C291.417 213.607 292.565 214.082 293.762 214.082H347.86C349.056 214.082 350.204 213.607 351.05 212.761C351.896 211.915 352.372 210.768 352.372 209.571V125.648C352.372 125.055 352.256 124.468 352.029 123.921C351.802 123.374 351.47 122.876 351.051 122.457C350.632 122.038 350.134 121.706 349.587 121.479C349.039 121.253 348.452 121.136 347.86 121.136H293.762C292.565 121.136 291.417 121.612 290.571 122.458C289.725 123.304 289.25 124.451 289.25 125.648" stroke="#2A3D66" stroke-width="4"/>
<path d="M361.457 111.082H286.459C284.91 111.082 283.423 110.466 282.327 109.37C281.231 108.274 280.615 106.788 280.615 105.238V30.24C280.615 28.6901 281.231 27.2036 282.327 26.1077C283.423 25.0117 284.91 24.396 286.459 24.396H361.457C363.007 24.396 364.494 25.0117 365.59 26.1077C366.686 27.2036 367.301 28.6901 367.301 30.24V105.238C367.301 106.788 366.686 108.274 365.59 109.37C364.494 110.466 363.007 111.082 361.457 111.082Z" fill="white"/>
<path d="M361.457 111.082H286.459C284.91 111.082 283.423 110.466 282.327 109.37C281.231 108.274 280.615 106.788 280.615 105.238V30.24C280.615 28.6901 281.231 27.2036 282.327 26.1077C283.423 25.0117 284.91 24.396 286.459 24.396H361.457C363.007 24.396 364.494 25.0117 365.59 26.1077C366.686 27.2036 367.301 28.6901 367.301 30.24V105.238C367.301 106.788 366.686 108.274 365.59 109.37C364.494 110.466 363.007 111.082 361.457 111.082" stroke="#2A3D66" stroke-width="4"/>
<path d="M167.029 171.137H75.4163C69.9038 171.137 65.4351 175.606 65.4351 181.118V224.075C65.4351 229.587 69.9038 234.056 75.4163 234.056H167.029C172.542 234.056 177.01 229.587 177.01 224.075V181.118C177.01 175.606 172.542 171.137 167.029 171.137Z" fill="white" stroke="#2A3D66" stroke-width="4"/>
<path d="M94.3966 182.004H77.8916V185.117H94.3966V182.004Z" fill="#52B3E2"/>
<path d="M94.3966 220.151H77.8916V223.264H94.3966V220.151Z" fill="#52B3E2"/>
<path d="M106.307 189.722H77.8916V192.835H106.307V189.722Z" fill="#E1E9ED"/>
<path d="M123.9 189.722H111.341V192.835H123.9V189.722Z" fill="#52B3E2"/>
<path d="M161.323 189.722H153.065V192.835H161.323V189.722Z" fill="#2A3D66"/>
<path d="M150.183 189.722H128.314V192.835H150.183V189.722Z" fill="#2A3D66"/>
<path d="M161.323 197.083H132.907V200.197H161.323V197.083Z" fill="#E1E9ED"/>
<path d="M127.874 197.083H115.314V200.197H127.874V197.083Z" fill="#2A3D66"/>
<path d="M86.1491 197.083H77.8916V200.197H86.1491V197.083Z" fill="#2A3D66"/>
<path d="M110.899 197.083H89.0305V200.197H110.899V197.083Z" fill="#52B3E2"/>
<path d="M106.307 204.643H77.8916V207.756H106.307V204.643Z" fill="#E1E9ED"/>
<path d="M123.9 204.643H111.341V207.756H123.9V204.643Z" fill="#2A3D66"/>
<path d="M161.323 204.644H153.065V207.757H161.323V204.644Z" fill="#2A3D66"/>
<path d="M113.144 212.347H104.886V215.46H113.144V212.347Z" fill="#52B3E2"/>
<path d="M150.183 204.643H128.314V207.756H150.183V204.643Z" fill="#2A3D66"/>
<path d="M99.1636 212.347H77.2947V215.46H99.1636V212.347Z" fill="#2A3D66"/>
<path d="M141.023 99.8303H49.4102C43.8977 99.8303 39.429 104.299 39.429 109.812V148.573C39.429 154.085 43.8977 158.554 49.4102 158.554H141.023C146.535 158.554 151.004 154.085 151.004 148.573V109.812C151.004 104.299 146.535 99.8303 141.023 99.8303Z" fill="white" stroke="#2A3D66" stroke-width="4"/>
<path d="M65.7227 126.512V133.985L83.3266 141.536L83.4753 134.382L73.6398 129.991L83.4753 125.792V118.864L65.7227 126.512Z" fill="#52B3E2"/>
<path d="M125.478 134.487V127.014L107.721 119.464L107.571 126.617L117.492 131.009L107.571 135.207V142.138L125.478 134.487Z" fill="#52B3E2"/>
<path d="M96.6245 112.693C96.6245 112.879 86.284 147.765 86.5764 147.703C86.8689 147.641 94.2769 147.703 94.2769 147.703L104.476 112.698L96.6245 112.693Z" fill="#52B3E2"/>
<path d="M49.6158 107.527C49.6471 108.017 49.5301 108.506 49.2802 108.929C49.0303 109.352 48.6589 109.691 48.2144 109.9C47.7698 110.11 47.2725 110.181 46.787 110.104C46.3016 110.027 45.8503 109.806 45.4919 109.47C45.1336 109.134 44.8845 108.698 44.7772 108.218C44.6699 107.738 44.7092 107.238 44.89 106.781C45.0709 106.324 45.3849 105.931 45.7914 105.655C46.1978 105.379 46.678 105.231 47.1695 105.231C47.7981 105.212 48.4086 105.443 48.8672 105.873C49.3258 106.304 49.595 106.898 49.6158 107.527Z" fill="#52B3E2"/>
<path d="M56.3363 107.527C56.3675 108.017 56.2506 108.506 56.0007 108.929C55.7508 109.352 55.3794 109.691 54.9348 109.9C54.4902 110.11 53.9929 110.181 53.5075 110.104C53.022 110.027 52.5708 109.806 52.2124 109.47C51.854 109.134 51.605 108.698 51.4977 108.218C51.3903 107.738 51.4296 107.238 51.6105 106.781C51.7913 106.324 52.1054 105.931 52.5118 105.655C52.9183 105.379 53.3984 105.231 53.8899 105.231C54.5185 105.212 55.129 105.443 55.5876 105.873C56.0462 106.304 56.3155 106.898 56.3363 107.527Z" fill="#52B3E2"/>
<path d="M63.0575 107.527C63.0887 108.017 62.9718 108.506 62.7219 108.929C62.4719 109.352 62.1006 109.691 61.656 109.9C61.2114 110.11 60.7141 110.181 60.2287 110.104C59.7432 110.027 59.292 109.806 58.9336 109.47C58.5752 109.134 58.3262 108.698 58.2188 108.218C58.1115 107.738 58.1508 107.238 58.3317 106.781C58.5125 106.324 58.8265 105.931 59.233 105.655C59.6395 105.379 60.1196 105.231 60.6111 105.231C61.2397 105.212 61.8502 105.443 62.3088 105.873C62.7674 106.304 63.0366 106.898 63.0575 107.527Z" fill="#52B3E2"/>
<path d="M306.907 198.816H306.707C306.251 198.816 305.814 198.635 305.491 198.312C305.169 197.99 304.988 197.552 304.988 197.096V138.988C304.988 138.531 305.169 138.094 305.491 137.771C305.814 137.449 306.251 137.268 306.707 137.268H306.907C307.363 137.268 307.8 137.449 308.123 137.771C308.446 138.094 308.627 138.531 308.627 138.988V197.096C308.627 197.552 308.446 197.99 308.123 198.312C307.8 198.635 307.363 198.816 306.907 198.816Z" fill="#E1E9ED"/>
<path d="M320.91 198.816H320.71C320.254 198.816 319.816 198.635 319.494 198.312C319.171 197.99 318.99 197.552 318.99 197.096V138.988C318.99 138.531 319.171 138.094 319.494 137.771C319.816 137.449 320.254 137.268 320.71 137.268H320.91C321.366 137.268 321.803 137.449 322.126 137.771C322.448 138.094 322.629 138.531 322.629 138.988V197.096C322.629 197.552 322.448 197.99 322.126 198.312C321.803 198.635 321.366 198.816 320.91 198.816Z" fill="#E1E9ED"/>
<path d="M334.913 198.816H334.714C334.258 198.816 333.82 198.635 333.498 198.312C333.175 197.99 332.994 197.552 332.994 197.096V138.988C332.994 138.531 333.175 138.094 333.498 137.771C333.82 137.449 334.258 137.268 334.714 137.268H334.913C335.369 137.268 335.807 137.449 336.129 137.771C336.452 138.094 336.633 138.531 336.633 138.988V197.096C336.633 197.552 336.452 197.99 336.129 198.312C335.807 198.635 335.369 198.816 334.913 198.816Z" fill="#E1E9ED"/>
<path d="M306.574 166.114H305.907C304.968 166.114 304.068 165.741 303.404 165.077C302.74 164.413 302.367 163.513 302.367 162.574C302.367 161.636 302.74 160.735 303.404 160.072C304.068 159.408 304.968 159.035 305.907 159.035H306.574C307.512 159.035 308.412 159.408 309.076 160.072C309.74 160.735 310.113 161.636 310.113 162.574C310.113 163.513 309.74 164.413 309.076 165.077C308.412 165.741 307.512 166.114 306.574 166.114Z" fill="#52B3E2"/>
<path d="M321.492 179.458H320.825C319.886 179.458 318.986 179.085 318.322 178.421C317.658 177.757 317.285 176.857 317.285 175.918C317.285 174.98 317.658 174.079 318.322 173.416C318.986 172.752 319.886 172.379 320.825 172.379H321.492C322.43 172.379 323.33 172.752 323.994 173.416C324.658 174.079 325.031 174.98 325.031 175.918C325.031 176.857 324.658 177.757 323.994 178.421C323.33 179.085 322.43 179.458 321.492 179.458Z" fill="#52B3E2"/>
<path d="M334.986 154.303H334.319C333.855 154.303 333.394 154.211 332.965 154.034C332.535 153.856 332.145 153.595 331.816 153.267C331.487 152.938 331.226 152.548 331.049 152.118C330.871 151.689 330.779 151.228 330.779 150.763C330.779 150.299 330.871 149.838 331.049 149.409C331.226 148.979 331.487 148.589 331.816 148.26C332.145 147.932 332.535 147.671 332.965 147.493C333.394 147.315 333.855 147.224 334.319 147.224H334.986C335.925 147.224 336.825 147.597 337.489 148.261C338.153 148.925 338.525 149.825 338.525 150.763C338.525 151.702 338.153 152.602 337.489 153.266C336.825 153.93 335.925 154.303 334.986 154.303Z" fill="#52B3E2"/>
<path d="M308.169 57.6097C308.499 57.3043 308.84 57.0109 309.157 56.6915C309.668 56.1744 310.162 55.6414 310.637 55.1434C311.236 55.5626 311.74 55.9658 312.291 56.2912C313.564 57.0362 315.017 57.4187 316.492 57.3971C321.063 57.3918 325.633 57.3918 330.204 57.3971H330.634C330.672 57.9402 330.832 58.4678 331.103 58.9401C331.373 59.4124 331.748 59.8172 332.197 60.124L321.435 70.8828C321.388 70.8389 321.293 70.756 321.205 70.6682L308.378 57.8752C308.311 57.8084 308.239 57.7455 308.169 57.6816V57.6097Z" fill="#52B3E2"/>
<path d="M308.169 48.444C308.262 47.9908 308.332 47.5307 308.451 47.0845C308.908 45.352 309.922 43.8178 311.336 42.7177C312.751 41.6177 314.487 41.0127 316.279 40.996C318.057 40.978 319.834 40.996 321.595 40.996L319.363 43.1419C318.521 43.1419 317.459 43.1359 316.397 43.1419C315.179 43.14 313.989 43.5049 312.981 44.1892C311.974 44.8736 311.196 45.8455 310.749 46.9784C310.302 48.1113 310.206 49.3526 310.475 50.5405C310.743 51.7284 311.364 52.8079 312.255 53.6382L322.275 43.618L330.627 51.9703V55.2472H330.202C325.834 55.2472 321.466 55.2192 317.1 55.2601C315.336 55.3817 313.596 54.798 312.262 53.6372L310.765 55.1743C309.811 54.304 309.09 53.2086 308.668 51.9883C308.455 51.3245 308.335 50.6288 308.169 49.9481V48.444Z" fill="#52B3E2"/>
<path d="M325.069 39.3501C325.144 39.4389 325.214 39.5338 325.297 39.6166C326.983 41.3054 328.671 42.9926 330.36 44.6781C330.443 44.7544 330.532 44.8251 330.625 44.8897V48.7255L323.689 41.7885L324.998 39.3501H325.069Z" fill="#52B3E2"/>
<path d="M332.805 47.2343L340.483 54.9119C340.483 55.2972 340.483 55.7982 340.483 56.2983C340.483 58.1478 340.489 59.9983 340.483 61.8478C340.494 62.3444 340.312 62.826 339.975 63.1909C339.638 63.5558 339.172 63.7753 338.677 63.803C338.181 63.8308 337.693 63.6646 337.318 63.3396C336.942 63.0146 336.708 62.5562 336.664 62.0614C336.614 60.9415 336.645 59.8187 336.642 58.6968C336.648 58.3143 336.633 57.9317 336.596 57.5509C336.55 57.6507 336.506 57.7575 336.458 57.8593C336.279 58.2471 335.975 58.5642 335.596 58.7608C335.216 58.9573 334.782 59.0222 334.362 58.9453C333.934 58.8725 333.545 58.6537 333.261 58.3261C332.976 57.9985 332.814 57.5824 332.802 57.1487C332.788 53.8788 332.794 50.609 332.794 47.3381C332.796 47.3045 332.8 47.2711 332.808 47.2383" fill="#1C8CC2"/>
<path d="M310.79 84.4253C310.79 85.9577 310.336 87.4557 309.485 88.7299C308.633 90.0041 307.423 90.9973 306.008 91.5838C304.592 92.1703 303.034 92.3238 301.531 92.0249C300.028 91.726 298.648 90.9881 297.564 89.9045C296.481 88.821 295.743 87.4404 295.444 85.9375C295.145 84.4345 295.298 82.8767 295.885 81.461C296.471 80.0453 297.465 78.8353 298.739 77.9841C300.013 77.1329 301.511 76.6786 303.043 76.6788C305.098 76.6788 307.068 77.495 308.521 78.9477C309.974 80.4005 310.79 82.3708 310.79 84.4253Z" fill="#E1E9ED"/>
<path d="M331.762 84.4253C331.763 85.9577 331.308 87.4557 330.457 88.7299C329.606 90.0041 328.396 90.9973 326.98 91.5838C325.565 92.1703 324.007 92.3238 322.504 92.0249C321.001 91.726 319.62 90.9881 318.537 89.9045C317.453 88.821 316.715 87.4404 316.416 85.9375C316.117 84.4345 316.271 82.8767 316.857 81.461C317.444 80.0453 318.437 78.8353 319.711 77.9841C320.986 77.1329 322.484 76.6786 324.016 76.6788C326.07 76.6788 328.041 77.495 329.494 78.9477C330.946 80.4005 331.762 82.3708 331.762 84.4253Z" fill="#52B3E2"/>
<path d="M352.735 84.4253C352.735 85.9577 352.281 87.4557 351.43 88.7299C350.578 90.0041 349.368 90.9973 347.953 91.5838C346.537 92.1703 344.979 92.3238 343.476 92.0249C341.973 91.726 340.593 90.9881 339.509 89.9045C338.426 88.821 337.688 87.4404 337.389 85.9375C337.09 84.4345 337.243 82.8767 337.83 81.461C338.416 80.0453 339.41 78.8353 340.684 77.9841C341.958 77.1329 343.456 76.6786 344.988 76.6788C347.043 76.6788 349.013 77.495 350.466 78.9477C351.919 80.4005 352.735 82.3708 352.735 84.4253Z" fill="#1C8CC2"/>
</svg>
